<?xml version="1.0" encoding="utf-8" ?><svg xmlns="http://www.w3.org/2000/svg" xmlns:xlink="http://www.w3.org/1999/xlink" width="1216" height="440" viewBox="0 0 1216 440"><path fill="#F79876" d="M539.544 96.4899C541.219 96.3293 542.908 96.2559 544.588 96.1496C545.468 96.5656 546.229 96.7917 546.839 97.5761C549.504 101.005 548.427 106.798 547.915 110.9L563.967 108.961C566.656 112.137 571.097 185.402 571.778 194.809C572.075 198.924 574.212 218.471 573.093 221.289C572.981 221.573 572.417 222.071 572.197 222.325C567.603 224.265 561.987 223.936 557.07 224.063C557.624 224.758 558.117 225.471 558.378 226.33C559.508 230.048 560.324 237.418 558.402 240.852C553.138 243.312 532.153 244.859 524.851 245.865L453.162 255.996C451.815 256.434 450.84 256.592 449.426 256.472C445.088 252.65 448.372 245.545 445.26 241.071C441.812 243.112 434.047 243.182 430 243.668C426.589 205.992 424.896 168.15 421.791 130.441C427.45 129.505 433.079 128.576 438.792 128.025C438.01 122.713 437.798 117.212 437.382 111.854C456.839 109.819 476.391 106.291 495.764 103.458C510.116 101.359 525.56 100.152 539.544 96.4899ZM443.317 230.567C453.952 229.573 464.718 227.009 475.059 226.159C478.108 225.831 482.826 225.842 485.458 224.306C487.271 219.691 486.695 210.007 484.853 205.389C484.63 204.83 484.28 204.326 483.912 203.854C487.064 203.548 491.848 203.707 493.998 201.101C494.473 200.525 494.651 199.548 494.572 198.812C494.454 197.71 494.216 195.797 493.661 194.857C497.277 194.428 503.237 192.636 506.244 194.936C506.948 196.484 506.799 199.151 506.299 200.779L515.169 199.878C518.258 203.284 518.137 212.046 517.903 216.385C517.834 217.68 517.574 218.936 517.19 220.174C530.35 218.337 543.557 216.159 556.768 214.774C558.849 209.07 552.435 132.834 550.765 122.69L550.101 121.851C548.301 121.675 546.715 121.774 544.925 122.024C524.942 124.746 505.05 128.034 485.095 130.937C469.418 133.218 453.738 134.951 438.174 137.997C439.49 150.143 446.418 225.675 443.317 230.567Z"/><path fill="#F79876" d="M463.873 147.551C465.689 147.301 467.612 146.851 469.146 148.041C470.642 149.2 472.133 151.387 472.337 153.306C472.495 154.799 471.898 156.275 470.927 157.397C467.849 160.958 463.268 160.664 458.972 160.956L456.881 161.298C453.665 158.842 455.044 152.675 452.495 149.254C456.3 148.833 460.162 148.527 463.873 147.551Z"/><path fill="#F79876" d="M499.382 168.338C500.344 168.27 502.492 168.006 503.311 168.355C504.858 169.015 505.837 170.111 506.395 171.706C507.23 174.089 506.508 178.017 505.452 180.222C502.357 181.706 497.838 181.54 494.444 181.686L492.184 181.984C488.589 180.014 490.299 173.478 488.113 169.998C491.941 169.645 495.626 169.163 499.382 168.338Z"/><path fill="#F79876" d="M468.434 199.806C469.687 199.699 471.242 199.293 472.349 199.935C473.464 200.58 474.232 202.124 474.523 203.345C475.087 205.707 474.599 209.713 473.329 211.79C469.897 212.959 465.688 213.061 462.078 213.5C460.956 213.72 460.29 213.822 459.184 213.412C456.844 210.255 458.554 205.601 457.103 202.045C457.058 201.935 457.009 201.826 456.963 201.717C460.793 201.16 464.661 200.686 468.434 199.806Z"/><path fill="#F79876" d="M464.678 173.675C466.912 173.464 469.186 173.399 471.428 173.269C471.599 173.524 471.76 173.781 471.896 174.058C473.42 177.158 472.832 181.818 471.807 184.979C468.538 186.262 464.936 186.54 461.475 186.98L458.906 187.414C454.789 185.365 457.558 178.614 454.613 175.339C457.964 174.939 461.451 174.689 464.678 173.675Z"/><path fill="#F79876" d="M532.571 163.588C533.785 163.446 535.008 163.448 536.229 163.423C537.617 164.094 538.353 164.835 538.865 166.319C539.763 168.925 538.719 173.045 537.52 175.441C534.042 176.533 530.124 176.633 526.502 176.976L524.847 177.235C521.262 175.037 523.377 168.816 521.325 165.292C524.881 165.314 529.172 164.602 532.571 163.588Z"/><path fill="#F79876" d="M495.959 142.8C497.354 142.608 499.647 142.044 500.981 142.447C502.168 142.806 503.372 144.198 503.876 145.302C504.893 147.53 504.171 152.029 503.252 154.216C499.743 154.85 496.309 155.346 492.75 155.585L490.372 156.048C486.452 154.131 488.923 147.375 486.014 144.115C489.314 143.827 492.761 143.698 495.959 142.8Z"/><path fill="#F79876" d="M531.741 137.461C532.418 137.38 533.249 137.227 533.917 137.387C535.219 137.699 535.82 138.512 536.409 139.657C537.685 142.14 536.876 146.887 535.969 149.427C531.887 150.346 527.662 150.668 523.508 151.121L522.919 151.244C520.348 150.414 520.861 142.117 519.13 139.376C523.358 138.861 527.579 138.389 531.741 137.461Z"/><path fill="#F79876" d="M344.777 237.183C345.472 237.01 346.204 237.164 346.906 237.243C349.266 242.48 352.227 289.732 352.817 298.951C359.642 298.217 366.433 296.97 373.253 296.138C374.386 321.834 376.787 347.692 379.03 373.325C364.858 374.141 349.605 377.299 335.48 379.327L245.787 392.155L245.254 391.883C242.574 388.422 240.546 335.873 240.192 328.818C232.512 329.835 224.86 330.892 217.242 332.314C216.109 307.059 213.574 281.915 211.826 256.701C237.455 252.573 263.223 249.081 288.906 245.277C307.475 242.526 326.121 239.23 344.777 237.183ZM229.36 267.658C230.884 284.114 231.758 300.493 233.581 316.948C267.692 311.661 302.1 307.338 336.111 301.516C335.391 285.617 335.67 267.74 332.337 252.182C319.11 253.218 305.751 255.698 292.619 257.65C271.535 260.784 250.336 263.871 229.36 267.658ZM260.973 376.63C262.963 376.322 264.971 376.056 266.948 375.672C297.934 371.758 328.857 365.663 359.926 362.639L358.205 331.625C357.84 325.156 357.76 318.445 356.685 312.054L350.333 312.523C331.647 315.17 312.98 317.948 294.333 320.858C282.058 322.766 269.61 325.258 257.232 326.199C258.267 340.327 258.098 363.754 260.973 376.63Z"/><path fill="#F79876" d="M310.041 272.757C311.382 272.505 312.338 272.413 313.682 272.707C316.481 275.238 316.129 283.921 316.518 287.71C311.261 288.905 305.666 289.728 300.303 290.316C299.177 290.568 297.919 290.922 296.766 290.977C296.18 291.005 295.464 290.759 295.038 290.359C291.938 287.444 292.792 279.546 292.692 275.443L310.041 272.757Z"/><path fill="#F79876" d="M270.531 278.754L272.081 278.86C274.528 281.68 274.031 290.245 274.219 293.956L254.272 297.219C253.529 297.35 253.263 297.051 252.613 296.695C250.368 292.337 250.666 286.452 250.473 281.633C257.12 280.492 263.851 279.688 270.531 278.754Z"/><path fill="#F79876" d="M334.765 331.54C334.873 331.581 334.991 331.602 335.09 331.663C337.115 332.907 336.714 346.433 336.773 349.04C318.633 352.743 299.795 354.657 281.431 357.093C281.347 357.042 281.255 357.003 281.18 356.939C279.061 355.107 279.506 342.596 279.39 339.584C297.702 336.292 316.324 333.99 334.765 331.54Z"/><path fill="#F79876" d="M976.934 266.909C978.437 266.661 980.839 266.13 982.222 266.841C983.449 267.471 984.348 269.064 984.734 270.351C985.504 272.92 984.785 277.944 983.502 280.276C987.904 279.837 993.864 277.897 998.122 278.423C999.55 278.6 1000.53 279.189 1001.37 280.334C1003.23 282.843 1002.76 287.974 1002.39 290.935L1019.55 288.975C1019.94 289.511 1020.25 290.16 1020.48 290.781C1022.21 295.554 1030.66 368.023 1029.3 370.865C1024.21 372.761 1017.5 372.681 1012.11 373.18C1013.1 375.31 1013.72 377.884 1013.91 380.228C1014.02 381.571 1013.73 382.934 1012.84 383.981C1009.73 387.638 1000.49 387.076 996.025 387.359C996.45 387.835 996.823 388.332 997.101 388.909C998.592 392.007 998.859 397.724 997.798 400.962C996.153 402.257 931.114 409.484 925.2 410.059L922.614 410.359C918.488 408.262 921.014 401.416 918.022 397.816L900.986 399.674C901.32 398.887 901.579 398.1 901.692 397.248C902.1 394.163 901.485 389.59 899.627 387.047L881.98 388.434C882.23 387.94 882.432 387.428 882.521 386.879C883.311 381.981 873.534 311.519 871.135 308.359C876.607 308.029 882.198 306.886 887.625 306.058C888.13 305.25 888.361 304.275 888.432 303.335C888.685 300.018 888.038 296.015 885.786 293.468C891.645 292.674 897.728 292.138 903.489 290.831C903.871 290.108 904.175 289.382 904.326 288.572C904.956 285.189 903.927 280.215 901.925 277.454C913.285 277.233 925.297 274.501 936.557 272.878C949.909 270.954 963.754 269.769 976.934 266.909ZM921.852 288.866C923.772 291.405 924.555 296.837 924.126 299.961C924.044 300.555 923.873 301.115 923.656 301.67C918.519 303.171 912.713 303.633 907.405 304.328C908.642 306.486 910.502 311.305 909.866 313.757C909.459 315.329 908.514 316.468 907.094 317.245C902.884 319.549 896.364 319.253 891.636 319.581C895.078 323.288 899.767 363.611 899.51 370.405C899.474 371.351 899.2 372.154 898.729 372.965C904.131 372.588 909.619 372.412 914.885 371.061C916.807 374.119 917.669 379.183 916.839 382.725C916.766 383.036 916.669 383.336 916.563 383.636C921.895 383.08 928.107 382.867 933.243 381.335C936.262 384.526 934.633 391.737 937.552 393.704C945.613 393.16 972.709 391.829 978.031 388.978C979.231 385.645 978.934 380.951 977.506 377.699C977.226 377.061 976.788 376.533 976.289 376.057C981.843 375.8 988.496 376.009 993.78 374.151C995.046 370.445 993.98 365.286 992.426 361.777L1009.06 359.76C1010.85 355.152 1006.28 312.515 1004.02 307.03C1003.86 306.637 1003.67 306.264 1003.47 305.885C1003.41 305.768 1003.36 305.649 1003.3 305.532C1003.26 305.462 1003.22 305.395 1003.18 305.326C997.774 306.674 991.92 307 986.375 307.618C987.57 304.115 986.547 297.895 984.936 294.629C984.844 294.443 984.743 294.261 984.643 294.079C979.126 295.229 973.531 295.573 967.919 295.866C969.099 293.698 969.175 289.603 968.515 287.257C967.996 285.412 967.275 284.427 965.731 283.422L963.341 283.536C949.677 285.607 935.628 287.828 921.852 288.866Z"/><path fill="#F79876" d="M948.498 294.224C949.559 294.09 950.617 293.928 951.67 294.187C952.924 294.495 953.966 295.404 954.601 296.545C955.831 298.757 955.365 302.554 954.753 304.884L969.085 303.204C969.273 303.419 969.416 303.586 969.55 303.841C970.631 305.887 971.154 308.147 970.523 310.337C967.227 313.854 959.922 313.347 955.358 313.542C956.056 314.566 956.391 315.651 956.708 316.839C957.636 320.311 958.697 325.733 956.821 328.981C961.689 328.61 966.756 327.299 971.629 327.81C972.782 328.84 973.122 329.584 973.371 331.15C973.654 332.931 973.773 334.005 972.704 335.451C968.705 337.654 962.818 337.242 958.327 337.417C958.8 338.121 959.117 338.895 959.362 339.705C961.097 345.424 965.658 374.981 963.384 379.139C963.671 379.821 963.701 380.152 963.635 380.89C959.37 383.567 950.968 383.233 945.992 383.62C946.413 382.875 946.738 382.097 946.834 381.239C947.342 376.71 945.796 364.426 942.911 360.948C938.474 362.017 933.39 362.013 928.828 362.411C929.008 362.073 929.129 361.824 929.221 361.45C929.841 358.921 929.167 355.724 927.813 353.552C932.531 353.306 937.338 352.457 942.031 351.857C942.469 351.022 942.481 350.333 942.482 349.415C942.487 342.246 938.584 299.246 935.063 295.745C939.577 295.44 944.02 294.849 948.498 294.224Z"/><path fill="#F79876" d="M924.787 52.5503C926.426 52.3502 927.931 52.2469 929.578 52.3799C930.925 53.0474 931.551 54.0093 932.222 55.3276C933.685 58.2051 933.496 64.3875 932.458 67.4375C938.278 66.572 944.112 65.8056 949.957 65.1387C950.319 65.5415 950.586 65.9773 950.823 66.4638C952.591 70.0894 952.96 76.5011 951.52 80.2541C957.447 80.1675 963.655 79.5122 969.418 78.1204C970.04 78.7478 970.381 79.4523 970.659 80.2809C971.938 84.1031 972.214 90.3225 970.44 93.9675C976.502 93.6466 982.816 92.4747 988.717 91.0679C989.134 91.5811 989.422 92.1568 989.657 92.7735C991.612 97.9092 994.511 137.035 992.657 141.387C987.458 143.139 980.996 143.021 975.535 143.302C977.791 145.436 978.324 150.231 978.459 153.209C978.532 154.809 978.115 156.486 976.999 157.677C973.373 161.551 962.136 160.814 957.169 161.045C958.233 162.481 958.759 164.448 959.13 166.186C959.758 169.13 960.324 173.864 958.637 176.493C952.405 178.955 922.11 182.558 913.827 183.466C914.132 184.171 914.376 184.88 914.546 185.63C915.358 189.208 916.113 192.959 914.058 196.252L914.774 198.089L914.013 199.051C909.578 201.01 903.985 200.827 899.188 201.148C899.412 200.602 899.552 200.059 899.598 199.471C899.898 195.666 899.392 188.671 896.792 185.718C891.223 187.156 885.068 187.582 879.356 188.333C880.622 183.947 879.297 177.447 877.192 173.478C871.591 175.591 864.119 175.527 858.196 175.89C858.605 175.229 858.851 174.533 858.962 173.765C859.808 167.919 854.745 128.86 851.827 124.786C858.067 124.425 864.056 123.606 870.114 122.068C870.625 121.081 870.853 120.177 870.929 119.064C871.171 115.501 870.96 109.443 868.529 106.669C874.387 106.156 880.362 105.069 886.156 104.047C886.623 103.244 886.82 102.337 886.878 101.417C887.102 97.8817 886.175 92.2406 883.78 89.5516C889.235 88.9222 894.738 88.4346 900.07 87.0726C900.48 86.0491 900.744 84.9731 900.855 83.8762C901.272 80.1074 900.763 74.8346 898.34 71.7931C903.561 71.2439 910.441 71.0476 915.296 69.0904L915.37 68.3051C915.75 64.0268 915.893 57.7332 912.976 54.2506C916.77 54.0858 921.163 53.6752 924.787 52.5503ZM933.068 108.544C929.99 109.097 926.956 109.474 923.841 109.732C926.655 113.732 930.983 153.582 930.115 158.653C930.068 158.923 929.989 159.177 929.894 159.433C930.815 160.969 930.944 162.388 930.543 164.142C930.452 164.543 930.311 164.921 930.145 165.296C933.088 164.875 936.726 164.751 939.495 163.754C941.179 160.944 940.656 156.925 939.896 153.862C939.451 152.073 938.89 150.309 938.085 148.648C945.242 147.883 953.597 147.577 960.444 145.247C962.969 141.003 960.98 131.961 959.844 127.402C959.64 126.58 959.403 125.768 959.133 124.965C965.501 123.801 972.128 122.785 978.567 122.115C979.428 120.153 979.412 117.882 978.63 115.884C978.472 115.483 978.3 115.122 978.035 114.78C971.522 116.355 964.721 117.476 958.027 117.846C959.753 112.847 958.032 100.611 955.795 95.929C955.733 95.7987 955.667 95.6701 955.603 95.5407C953.455 95.6541 951.285 95.7102 949.143 95.8972L946.607 96.4744C946.222 105.493 954.333 132.915 950.506 139.613C946.276 140.803 941.536 140.836 937.169 141.348C939.399 136.299 936.749 116.546 934.599 111.054C934.234 110.137 933.716 109.288 933.068 108.544ZM907.143 101.835C904.856 102.277 902.551 102.807 900.237 103.083C902.34 106.953 904.226 117.364 902.984 121.587C902.45 123.403 901.308 124.489 899.651 125.321C896.051 127.127 889.601 126.82 885.543 127.25C886.551 128.67 886.851 131.322 886.552 133.039C886.486 133.418 886.371 133.781 886.235 134.141C891.789 133.496 897.561 133.14 903.053 132.161C906.272 135.869 906.952 147.04 906.545 151.832C906.458 152.858 906.135 153.807 905.598 154.685C907.687 157.533 908.857 162.923 908.271 166.423C908.139 167.215 907.929 167.979 907.66 168.735C910.794 168.297 914.031 167.99 917.113 167.28C918.952 163.458 912.845 109.041 910.615 101.877C909.368 101.459 908.411 101.636 907.143 101.835Z"/><path fill="#F79876" d="M272.941 29.3035C273.994 29.3125 275.236 29.0376 276.024 29.7816C278.343 31.9715 277.685 39.7105 277.776 42.941C280.793 42.5137 283.835 42.3325 286.871 42.1131C286.852 47.1192 287.192 52.1457 287.414 57.1466C291.697 56.4505 296.128 56.3401 300.457 56.0527C300.808 60.8137 301.252 65.5884 301.252 70.3651C307.846 69.3177 314.567 68.6583 321.217 68.0475L320.582 44.0715C318.483 44.0903 316.418 44.0986 314.324 43.9021C313.039 43.0236 313.047 42.8326 312.68 41.4003C312.853 40.4761 313.034 39.4734 313.633 38.7189C316.845 34.6723 329.711 34.9554 334.827 34.2338C334.937 56.8401 337.269 79.9864 339.224 102.508C330.159 104.132 320.926 104.924 311.834 106.454C311.939 109.331 311.637 113.479 312.677 116.133C313.629 118.559 315.171 118.962 317.35 119.879C320.338 123.466 319.946 128.985 320.237 133.441L313.43 134.346C313.459 137.433 313.228 140.872 313.752 143.908C314.571 148.656 316.786 146.338 319.762 148.411C320.994 152.217 321.34 157.138 320.95 161.115C319.561 162.32 316.957 162.343 315.179 162.595C315.44 165.76 316.601 171.553 315.089 174.442C313.937 175.324 313.083 175.422 311.682 175.556C307.247 173.119 310.566 166.9 307.624 163.537C306.382 163.443 305.406 163.237 304.234 162.8C301.509 159.615 302.038 153.76 301.888 149.757L307.636 148.915C307.605 144.433 307.408 140.079 306.939 135.617L301.204 136.002C300.302 131.247 300.139 126.403 300.05 121.578L306.572 120.693C305.936 113.79 303.526 108.203 302.174 101.567C301.3 97.28 301.422 92.6324 301.324 88.2654C296.015 89.0531 290.698 89.7924 285.375 90.4834C286.572 96.2467 286.719 102.568 286.701 108.444C285.792 109.355 284.728 110.307 283.977 111.346C281.604 114.631 282.867 119.919 283.367 123.659L290.183 122.827C290.595 127.778 291.204 132.729 291.728 137.671C289.457 138.062 287.139 138.257 284.85 138.515C285.11 142.815 285.173 147.252 286.045 151.478C288.094 152.563 289.973 151.677 291.725 152.76C294.056 156.115 293.405 162.134 293.449 166.109L287.134 166.987L288.008 178.881L281.48 179.887L280.774 168.028L274.118 168.644C273.845 163.591 273.452 158.544 272.938 153.509L279.802 152.986C279.34 148.636 279.15 144.256 278.901 139.889C277.166 140.066 273.966 140.547 272.582 139.554C271.558 135.584 271.423 131.032 271.988 126.977C273.295 125.563 275.107 125.304 276.92 124.719C278.223 122.083 276.866 115.293 276.598 112.142C270.204 112.328 260.44 112.544 254.623 115.151L254.536 116.023C254.649 119.951 255.07 123.866 255.438 127.777L261.805 127.207C262.089 132.047 262.332 136.888 262.535 141.732C260.276 142.127 257.985 142.397 255.714 142.715C255.896 147.082 256.207 151.383 256.674 155.73L263.085 155.427C263.668 160.316 264.122 165.22 264.447 170.133L257.91 170.924C258.452 174.853 258.654 178.893 259.015 182.848C256.86 183.262 254.607 183.394 252.424 183.625C251.928 179.808 251.881 175.908 251.716 172.063L244.693 172.998C244.625 168.057 244.173 163.07 243.873 158.135L250.149 157.223C249.618 154.273 249.716 151.32 249.463 148.346C248.92 141.957 247.252 145.332 243.968 142.539C241.895 139.01 242.468 134.1 242.488 130.107C244.584 129.662 246.788 129.515 248.918 129.266C248.095 118.443 247.509 107.563 246.223 96.7838L230.808 99.0644C231.271 105.361 231.774 111.655 232.317 117.945L225.39 119.018L226.249 132.129L232.586 132.147C232.801 136.736 233.226 141.34 233.555 145.925L226.809 146.811C227.283 151.242 227.477 155.737 227.792 160.184L234.422 159.429L235.27 174.152L228.98 175.323L230.094 186.999L223.578 188.129C223.329 184.055 223.28 179.952 223.143 175.872L216.853 176.512C216.598 171.94 214.421 166.773 216.5 162.489C217.746 161.223 219.879 161.384 221.557 161.288C221.513 157.467 221.885 153.072 220.739 149.41C219.13 148.277 217.112 148.52 215.164 148.404C213.559 146.276 214.08 137.516 214.114 134.724C215.521 133.492 218.068 133.612 219.869 133.455C219.32 128.913 219.138 124.408 218.993 119.839C210.515 120.767 202.056 122.086 193.606 123.249C193.226 100.59 191.159 77.2845 188.705 54.7635C195.282 54.2648 201.725 52.5784 208.334 52.1145C208.715 54.6726 208.916 57.28 209.184 59.8534L202.548 60.7051C201.933 68.529 202.576 76.2536 203.829 83.9743C210.717 82.9905 217.593 81.9265 224.457 80.7823C223.984 76.1121 223.861 71.3592 223.597 66.67C227.657 65.8101 231.725 65.3864 235.846 64.9639L234.969 48.8865L244.99 47.9179C244.59 43.1395 244.241 38.357 243.943 33.5711C253.153 31.0719 263.469 30.5063 272.941 29.3035ZM255.151 50.2253C255.412 54.6515 255.739 59.0734 256.131 63.4898C252.179 64.1013 248.243 64.7124 244.257 65.0638C244.559 69.1685 243.694 75.3624 246.692 78.4868C250.341 80.4387 255.097 78.5406 259.021 78.1457C266.299 76.9972 273.586 75.9077 280.881 74.8771C280.374 69.8973 279.971 64.9076 279.671 59.9111C275.745 60.4419 271.806 61.0733 267.865 61.4577C267.821 57.5013 268.096 53.2063 267.006 49.3785L266.299 48.693L264.719 48.9328L255.151 50.2253Z"/><path fill="#F79876" d="M266.578 62.0801L267.259 62.0444C268.364 64.0464 268.342 67.5739 268.586 69.8785C265.185 70.2596 261.792 70.7112 258.41 71.2333L257.464 71.0646C256.462 68.9126 256.552 65.5563 256.357 63.1664C259.766 62.823 263.173 62.461 266.578 62.0801Z"/><path fill="#F79876" d="M118.492 150.395L120.467 150.494C123.14 153.275 122.431 161.583 122.516 165.328C127.185 164.618 131.858 163.937 136.535 163.285C136.66 172.778 137.075 182.745 138.413 192.143C131.823 193.905 124.713 194.416 117.977 195.633L118.773 203.218C125.418 202.221 132.114 201.453 138.771 200.514C140.344 208.675 140.026 217.718 140.242 226.038C133.625 226.816 127.022 227.952 120.433 228.947C120.864 231.443 121 234.01 121.223 236.533C127.874 235.754 134.52 234.926 141.159 234.049C142.546 242.374 142.474 250.854 143.627 259.213L122.722 262.105L123.609 269.946C130.507 269.222 137.297 267.691 144.226 267.042C144.309 275.338 145.116 283.692 145.531 291.983C130.209 294.814 114.651 296.509 99.2881 299.168C94.2014 299.873 89.1188 300.607 84.0406 301.37C83.3938 293.011 82.6661 284.66 81.8578 276.316C88.8849 275.473 95.8456 274.159 102.811 272.917L101.99 265.234C95.0764 265.92 88.1836 267.113 81.3129 268.147C80.5054 259.784 79.866 251.405 79.395 243.017C86.2974 241.442 93.3492 240.607 100.361 239.683L99.725 232.067C92.6228 232.561 85.5419 233.789 78.5002 234.824C78.3141 226.5 77.4741 218.116 77.0653 209.79C84.0486 208.456 91.0649 207.301 98.1073 206.326L97.3472 198.662C90.2634 199.54 83.192 200.515 76.1349 201.587C75.5373 191.873 74.6111 182.158 73.8175 172.456C77.2184 171.586 80.9078 171.308 84.3907 170.831C83.9283 165.825 83.7038 160.804 83.4463 155.784L118.492 150.395Z"/><path fill="#F79876" d="M742.608 190.311C744.267 190.132 747.164 189.429 748.634 190.208C749.408 190.618 749.79 191.318 750.022 192.15C750.8 194.93 751.672 200.128 750.22 202.75C745.887 205.768 724.628 207.443 718.33 208.055C719.074 209.155 719.724 210.293 720.089 211.578C720.864 214.299 721.183 217.405 719.743 219.948C743.079 217.881 766.152 212.662 789.441 210.06C789.929 210.662 790.315 211.274 790.56 212.016C792.168 216.905 794.914 246.263 792.939 250.213C786.659 252.766 767.048 254.132 759.08 255.231C739.043 257.994 718.869 261.586 698.76 263.608C686.952 267.162 664.067 268.926 651.029 270.285C651.073 270.181 651.113 270.075 651.16 269.972C651.372 269.501 651.571 269.062 651.693 268.555C652.81 263.917 648.935 234.077 646.62 230.102C657.824 228.95 669.004 227.039 680.175 225.559C690.749 224.158 701.956 223.393 712.25 220.661C712.572 220.078 712.834 219.47 712.954 218.81C713.512 215.752 713.093 211.669 711.423 209.033C705.354 211.539 691.061 212.059 684.279 212.84C684.399 212.338 684.495 211.839 684.55 211.325C684.912 207.931 684.333 201.938 682.133 199.245C702.266 196.839 722.645 193.866 742.608 190.311ZM738.89 226.467C740.531 229.005 740.78 233.778 740.147 236.693C740.033 237.214 739.847 237.704 739.623 238.187C734.303 239.592 728.656 239.772 723.183 240.071C724.622 237.224 723.625 233.123 722.665 230.235C722.445 229.572 722.139 228.976 721.761 228.389C716.432 229.697 710.965 230.127 705.596 231.194C708.037 234.328 705.803 239.092 707.838 242.09C708.598 242.133 709.339 242.243 710.067 241.971C714.378 241.523 718.723 241.166 722.971 240.274C725.013 242.908 725.464 247.651 724.985 250.887C724.927 251.274 724.81 251.653 724.678 252.02C729.807 251.52 735.634 251.443 740.597 250.056C742.127 247.635 741.501 243.556 740.882 240.897C740.618 239.762 740.241 238.911 739.427 238.058C744.209 237.519 751.278 237.583 755.675 235.757C756.762 233.764 756.942 230.173 756.329 227.985C755.99 226.774 755.245 225.764 754.462 224.803C753.2 224.223 752.057 224.526 750.743 224.75C746.835 225.61 742.859 226.009 738.89 226.467ZM772.074 233.657C766.887 235.149 761.356 235.47 755.989 235.765C757.85 238.25 758.375 242.061 757.887 245.101C757.762 245.881 757.447 246.555 757.031 247.216C761.333 246.996 769.306 247.573 772.429 244.237C773.666 242.914 773.929 241.476 773.829 239.725C773.736 238.086 773.76 235.176 772.516 233.966C772.344 233.799 772.299 233.792 772.074 233.657ZM708.164 254.602C709.066 251.421 709.094 246.98 707.41 244.029C707.158 243.587 706.865 243.181 706.556 242.778C701.334 243.717 696.043 244.3 690.781 244.971C691.255 242.206 691.356 238.026 689.746 235.601C689.341 234.991 688.78 234.55 688.172 234.158L685.535 234.251C681.012 234.897 676.439 235.723 671.879 236.016C673.824 238.286 674.415 242.617 674.146 245.542C674.097 246.079 673.949 246.59 673.749 247.089C679.185 246.533 684.712 246.157 690.066 245.034C691.641 247.499 691.553 255.815 694.018 256.514C698.367 256.075 704.078 256.112 708.164 254.602Z"/><path fill="#F79876" d="M793.411 309.662C794.755 309.539 796.106 309.468 797.453 309.376C798.298 309.865 798.769 309.979 799.151 310.918C799.899 312.759 799.681 315.222 798.966 317.037C797.651 318.118 795.982 318.364 794.353 318.655C783.045 320.677 771.458 321.522 760.093 323.255C727.479 328.278 694.817 332.982 662.111 337.365C661.098 337.718 660.58 337.733 659.559 337.4C657.929 335.487 657.992 331.647 656.825 329.186C664.286 329.1 672.134 327.401 679.534 326.327L718.532 320.727L763.406 314.487C773.341 313.124 783.672 312.073 793.411 309.662Z"/><path fill="#F79876" d="M786.916 259.188C789.126 258.897 792.6 258.204 794.501 259.507C794.901 259.782 795.124 261.011 795.197 261.507C795.434 263.13 794.997 264.421 794.072 265.683C787.073 268.714 751.019 272.376 740.928 273.844C713.655 277.811 686.015 283.702 658.526 285.658C656.993 286.358 654.459 286.418 652.756 286.687C653.728 284.118 653.097 281.175 652.451 278.608C697.061 271.061 742.204 266.174 786.916 259.188Z"/><path fill="#F79876" d="M790.98 274.629C792.541 274.434 794.261 274.019 795.698 274.821C796.625 276.109 797.174 277.286 797.432 278.864C797.967 282.141 798.876 298.734 797.298 300.708C795.244 303.277 767.497 305.594 763.111 305.983L762.114 306.126C756.345 302.526 761.106 285.585 756.602 279.52C767.869 278.7 779.978 277.088 790.98 274.629Z"/><path fill="#F79876" d="M688.427 289.473C689.921 289.3 691.074 289.267 692.535 289.652C692.82 290.189 693.078 290.74 693.262 291.321C694.531 295.326 696.528 312.43 694.689 315.927C683.293 317.785 671.042 320.146 659.507 320.627C659.114 320.587 658.266 320.606 657.924 320.467C654.505 319.079 657.056 298.927 653.429 294.705C663.246 294.304 678.965 292.139 688.427 289.473Z"/><path fill="#F79876" d="M741.13 281.754C742.837 281.524 744.404 281.542 746.121 281.66C746.827 282.266 747.018 282.478 747.312 283.389C748.684 287.635 750.427 304.257 748.497 307.988C745.708 309.451 740.753 309.405 737.578 309.713C736.58 309.947 735.451 309.902 734.426 309.946C728.82 305.712 732.677 290.471 729.736 283.614C733.549 283.089 737.348 282.469 741.13 281.754Z"/><path fill="#F79876" d="M713.505 285.903C715.284 285.68 717.709 285.032 719.292 286.041C721.348 290.789 723.054 307.359 721.294 312.161C717.408 312.89 713.609 313.386 709.665 313.665C709.163 313.87 708.271 313.879 707.714 313.951C702.055 309.673 706.703 293.284 701.979 287.467C705.755 287.391 709.828 286.777 713.505 285.903Z"/><path fill="#F79876" d="M1098.51 142.17C1126.83 139.338 1154.92 133.368 1183.2 129.888C1183.68 130.433 1184.03 131.069 1184.27 131.757C1185.39 135.065 1185.89 142.004 1184.3 145.128C1189.07 144.272 1193.92 143.702 1198.71 143.021C1198.99 143.436 1199.24 143.866 1199.46 144.309C1201.1 147.578 1201.56 153.635 1200.46 157.108C1205.31 156.675 1210.14 155.951 1215 155.505C1215.58 156.502 1215.86 157.381 1215.92 158.533C1217.03 177.263 1216.05 198.793 1216.04 217.789C1216.04 223.894 1216.99 243.772 1215.72 248.552C1215.59 249.057 1215.35 249.523 1215.08 249.968C1209.48 252.002 1202.8 252.352 1196.91 253.054C1198.14 254.842 1198.57 256.759 1198.93 258.861C1199.43 261.792 1199.98 265.32 1198.17 267.89C1192.62 270.353 1125.31 279.156 1115.65 279.842C1116.17 279 1116.4 278.099 1116.48 277.117C1116.77 273.499 1116.26 268.703 1113.81 265.89C1108.84 266.776 1103.64 267.657 1098.59 267.827C1098.61 267.647 1098.63 267.466 1098.65 267.285C1099.07 263.088 1098.74 256.792 1095.94 253.409C1091.73 255.694 1083.34 255.621 1078.54 256.086C1079.12 255.128 1079.36 254.281 1079.4 253.171C1079.79 242.503 1076.42 222.551 1074.99 211.475C1073.65 201.052 1072.96 189.632 1070.5 179.432C1070.22 178.278 1069.73 177.372 1068.92 176.498C1074.49 175.88 1080.37 175.272 1085.77 173.748C1086.26 172.832 1086.59 171.982 1086.67 170.932C1086.96 166.922 1086.13 161.174 1083.42 158.088C1089.16 157.295 1094.85 156.505 1100.51 155.201C1100.86 154.459 1101.12 153.718 1101.22 152.896C1101.59 149.697 1100.59 144.654 1098.51 142.17ZM1117.76 155.121C1120.52 158.122 1121.13 163.664 1120.93 167.608C1120.87 168.788 1120.59 169.73 1120.07 170.782C1114.58 172.031 1108.68 172.613 1103.07 173.001C1105.29 176.084 1106.42 181.496 1105.88 185.254C1105.77 186.002 1105.5 186.646 1105.13 187.294C1099.64 188.736 1093.77 189.365 1088.14 190.045C1091.09 193.547 1095.42 229.028 1094.91 234.964C1094.85 235.728 1094.7 236.432 1094.38 237.133C1104.96 235.953 1115.79 233.635 1126.38 233.072C1128.9 236.557 1127.36 245.042 1129.98 247.315C1143.44 245.798 1156.83 243.649 1170.23 241.689C1177.19 240.671 1186.2 240.299 1192.68 237.766C1194.07 234.046 1193.55 226.275 1191.75 222.683C1191.46 222.115 1191.05 221.623 1190.61 221.164C1196.67 220.541 1202.68 219.896 1208.68 218.833C1210.02 213.573 1208.02 186.31 1205.32 181.955C1205.29 181.902 1205.26 181.85 1205.22 181.797C1199.67 183.279 1193.51 183.98 1187.77 184.344C1190.34 180.418 1188.32 169.188 1187.28 164.478C1187.03 163.325 1186.52 162.131 1185.71 161.261C1180.19 162.031 1174.66 162.896 1169.13 163.498C1170.99 160.178 1170.36 154.42 1169.37 150.824C1169.09 149.843 1168.74 149.08 1168.08 148.303L1166.23 148.151C1150.31 150.951 1133.94 154.529 1117.76 155.121Z"/><path fill="#F79876" d="M1150.3 180.216C1158.37 179.99 1166.31 180.918 1172.92 185.98C1177.18 189.247 1180.13 193.966 1180.79 199.333C1181.49 204.965 1179.52 210.446 1176.05 214.849C1169.51 223.145 1159.71 226.053 1149.64 227.216C1142.48 227.834 1133.78 225.767 1128.08 221.251C1123.95 217.978 1121.08 213.322 1120.48 208.04C1119.85 202.413 1121.94 196.948 1125.44 192.598C1131.5 185.062 1140.9 181.249 1150.3 180.216ZM1137.66 209.853C1137.72 209.925 1137.78 209.994 1137.84 210.069C1139.4 212.053 1138.68 214.45 1140.5 216.228C1141.83 216.339 1142.97 216.272 1144.29 216.055C1148.84 215.53 1160.95 215.373 1163.98 211.642C1164.73 210.713 1164.95 209.743 1164.79 208.571C1164.73 208.148 1164.64 207.733 1164.54 207.317C1162.59 205.907 1159.72 206.607 1157.41 206.936C1150.89 208.293 1144.29 209.267 1137.66 209.853Z"/><path fill="#F79876" d="M441.353 334.753C459.245 333.257 477.146 329.825 494.9 327.126C515.346 324.018 535.884 321.462 556.351 318.474C566.351 317.015 576.441 315.007 586.496 314.039C587.437 315.286 587.822 316.508 588.087 318.02C591.377 336.776 591.949 356.314 593.738 375.26C594.779 386.293 598.264 408.55 597.148 418.26C597.051 419.103 596.732 419.764 596.293 420.471C596.24 420.556 596.192 420.643 596.142 420.729C587.115 423.136 577.084 423.995 567.821 425.368C545.626 428.496 523.415 431.507 501.189 434.403C490.364 435.849 478.606 436.41 468.276 440L450.392 440C451.8 433.831 444.046 339.602 441.668 335.193C441.534 334.945 441.512 334.935 441.353 334.753ZM459.668 344.997C463.907 350.508 465.046 410.373 467.988 422.865C468.241 423.942 468.307 425.444 469.536 425.649C470.325 425.78 471.275 425.522 472.055 425.376C494.883 422.492 517.691 419.457 540.478 416.271C552.574 414.571 565.799 413.511 577.548 410.165C579.292 405.096 574.029 334.88 571.447 329.48C571.412 329.406 571.373 329.334 571.336 329.261L564.335 329.85C551.156 333.261 536.633 334.303 523.112 336.2C501.981 339.166 480.865 342.551 459.668 344.997Z"/><path fill="#F79876" d="M517.581 353.601C526.504 352.61 536.395 354.231 543.63 359.832C548.32 363.464 551.523 368.587 552.236 374.52C552.998 380.868 550.9 386.917 546.995 391.892C539.867 400.973 529.476 404.005 518.48 405.342C511.53 406.182 503.344 404.136 497.341 400.634C492.072 397.559 487.554 392.874 485.988 386.839C484.575 381.393 485.872 375.69 488.723 370.931C495.094 360.299 506.203 356.397 517.581 353.601ZM517.262 381.706C525.892 380.853 539.028 380.586 546.792 377.313C547.524 374.527 546.302 370.198 544.871 367.807C541.883 362.816 535.394 359.541 529.91 358.234C525.225 357.117 520.368 357.053 515.61 357.757C506.393 360.997 497.139 364.529 492.633 373.897C491.311 376.645 489.571 381.253 490.581 384.312C490.666 384.571 490.773 384.808 490.903 385.047C498.075 386.052 510.008 383.199 517.262 381.706Z"/><path fill="#F79876" d="M528.974 366.068C529.698 365.964 530.654 365.751 531.372 365.919C532.496 366.182 532.911 366.817 533.482 367.742C534.471 369.342 534.464 371.147 533.983 372.927C533.451 374.898 532.672 375.419 531.002 376.342C530.392 376.632 529.663 376.625 528.997 376.687L527.898 375.624C527.37 374.212 527.013 372.941 527.027 371.42C527.05 369.019 527.278 367.712 528.974 366.068Z"/><path fill="#F79876" d="M504.421 369.631L507.456 369.169C508.918 369.919 509.745 370.734 510.279 372.37C510.759 373.837 510.422 376.043 509.724 377.389C508.927 378.93 508.154 378.966 506.596 379.478C505.706 379.855 505.368 379.759 504.426 379.66C503.783 378.934 503.502 378.259 503.348 377.303C502.969 374.952 502.996 371.621 504.421 369.631Z"/><path fill="#F79876" d="M625.623 0L750.277 0C753.76 3.33167 755.863 10.1805 757.403 14.7757C760.23 23.2134 768.432 67.3755 765.08 74.0898C759.66 75.606 753.731 75.8447 748.126 76.1887C748.696 76.7893 749.195 77.4303 749.489 78.214C751.012 82.2615 751.918 89.9574 750.242 93.9417C747.817 95.8385 736.554 96.3919 733.136 96.7607C733.466 97.0511 733.71 97.3496 733.923 97.7377C736.173 101.838 736.487 111.447 735.265 115.84C732.578 117.517 670.834 125.372 662.632 126.137C663.098 125.339 663.5 124.482 663.602 123.553C664.059 119.389 663.509 111.337 660.802 108.052C655.568 108.819 649.968 109.42 644.688 109.701C644.762 105.152 644.852 96.2296 641.684 92.6354C635.923 93.9685 629.347 94.2665 623.426 94.565C626.445 88.0879 617.95 40.1509 619.212 26.4466C619.698 21.1616 626.523 2.87791 625.623 0ZM670.045 6.12534C671.984 8.88803 672.995 14.2924 672.318 17.6219C672.188 18.2655 671.947 18.8589 671.656 19.4441L671.381 19.5693C668.372 20.9025 664.316 20.4198 662.906 23.9963C659.52 32.5869 670.415 63.0084 665.719 70.8499C669.673 70.5283 673.485 70.0342 677.377 69.2588C677.448 69.353 677.522 69.4453 677.591 69.5413C680.503 73.6035 676.845 80.4894 682.205 83.159C683.772 82.9082 684.062 82.8555 685.103 81.6566C686.581 77.0925 685.52 68.4608 683.667 64.1022C679.374 64.7022 675.106 65.2343 670.784 65.597C673.597 60.6681 669.71 33.2647 668.082 27.2202C667.838 26.3124 667.502 25.3597 667.048 24.534C670.547 24.2483 674.481 24.1399 677.825 22.9618C679.435 19.7385 678.493 15.9359 677.395 12.6769C677.202 12.1012 676.979 11.5362 676.726 10.9843C679.871 9.36982 685.685 7.15585 689.137 8.35535C690.439 8.80751 691.376 9.83751 691.936 11.0735C692.814 13.0098 693.081 18.6669 692.269 20.5871C692.237 20.6613 692.2 20.7326 692.165 20.8054C696.349 20.3452 700.556 19.9547 704.717 19.3158C707.397 23.2188 710.736 53.4723 709.84 58.6135C709.737 59.2006 709.502 59.7597 709.24 60.2915C705.376 61.1234 701.601 61.7467 697.665 62.1221C697.731 62.2021 697.799 62.2806 697.862 62.3622C701.092 66.4979 697.507 78.3327 703.122 80.2389C704.402 79.7127 704.79 79.5033 705.693 78.3856C706.3 74.6027 705.95 68.8659 703.678 65.6486C703.6 65.5376 703.519 65.4286 703.439 65.3186C707.315 64.944 711.374 64.7977 715.203 64.1476C717.275 59.5439 713.384 24.5649 711.223 18.7049C710.684 17.2458 709.826 16.4952 708.407 15.8957C704.978 14.447 700.282 15.358 696.674 15.7313C698.121 13.2958 698.432 9.78266 697.766 7.02802C697.325 5.20702 696.646 4.27592 695.153 3.28352L693.063 3.26558C685.481 4.55253 677.76 6.01498 670.045 6.12534Z"/><path fill="#F79876" d="M1056.39 0L1071.26 0C1072.67 2.06958 1073.37 3.81295 1072.88 6.33729C1072.81 6.70759 1072.73 7.09546 1072.61 7.44949C1079.3 6.60872 1118.06 3.09411 1120.61 0.229741C1120.67 0.161152 1120.71 0.0765803 1120.76 0L1198.66 0C1198.73 0.0706895 1198.79 0.142222 1198.85 0.212069C1199.77 1.24039 1200.21 2.27397 1200.53 3.60353C1202.02 9.85048 1205.26 44.265 1202.65 48.4539C1196.97 50.8477 1183.25 51.3952 1176.34 52.2979C1164.8 53.8822 1153.27 55.5242 1141.75 57.2238C1142.29 56.3516 1142.73 55.4281 1142.84 54.3981C1143.32 50.074 1142.61 41.4023 1139.89 37.9117C1134.58 39.8822 1128.5 40.045 1122.91 40.4931C1123.49 41.0954 1124.02 41.7685 1124.29 42.5751C1125.66 46.6491 1126.56 55.4818 1124.63 59.2784C1120.24 61.8321 1071.31 67.5227 1062.99 68.5626C1063.35 68.0122 1063.64 67.4262 1063.8 66.7845C1064.97 62.1475 1059.35 11.5849 1057.95 4.23288C1057.65 2.69515 1057.22 1.3421 1056.39 0ZM1073.14 19.1328C1076.62 23.3069 1078.12 46.5218 1077.56 52.23C1077.47 53.1595 1077.25 54.039 1076.98 54.9296C1082.11 54.4376 1104.44 52.9636 1107.46 50.6117C1109.53 50.3367 1110.56 50.3851 1112.2 48.9915C1113.95 45.2527 1113.37 41.2297 1111.97 37.4214C1111.71 36.7216 1111.42 36.0349 1111.09 35.3638C1114.47 34.8958 1118.08 34.97 1120.32 32.0439C1121.24 30.8465 1121.46 29.7866 1121.24 28.3039C1120.91 26.0856 1120.33 22.8891 1118.85 21.1569C1126.26 20.675 1133.62 19.7644 1140.99 18.8962C1143.13 21.5646 1143.25 25.8223 1142.84 29.0924C1142.75 29.7969 1142.59 30.4644 1142.37 31.1364C1145.31 30.8077 1148.26 30.4344 1151.21 30.1779C1153.36 32.9928 1153.32 39.6982 1152.79 43.1073C1152.71 43.5745 1152.58 44.0323 1152.42 44.4778C1163.7 42.779 1175.59 42.2549 1186.67 39.6177C1189.64 34.5953 1186.85 12.8066 1185.35 6.93302C1185.15 6.15539 1184.91 5.3909 1184.61 4.64408C1182.75 3.89668 1180.73 4.26951 1178.78 4.45314L1111.39 14.0457C1098.63 15.9134 1086.06 18.7215 1073.14 19.1328Z"/><path fill="#F79876" d="M1096.86 24.6421C1099.06 24.4014 1101.88 23.8556 1103.88 24.7832C1104.16 25.3471 1104.4 25.922 1104.55 26.536C1105.26 29.4386 1105.49 35.4513 1103.87 38.0046C1100.31 39.0403 1095.78 39.0071 1092.05 39.3944L1088.84 39.8209C1085.08 37.3344 1087.46 30.4228 1084.79 26.4559C1088.76 26.1102 1093.02 25.7321 1096.86 24.6421Z"/><path fill="#F79876" d="M1168.27 14.5477C1170.31 14.2885 1172.67 13.8114 1174.39 15.1882C1175.76 16.2767 1176.41 18.5313 1176.58 20.1922C1176.78 22.1901 1176.4 25.1363 1175.07 26.7171C1173.21 28.923 1167.06 28.8401 1164.24 29.087L1161.32 29.4172C1157.5 27.0869 1160.03 20.0485 1157.95 16.229C1161.42 15.7865 1164.83 15.2549 1168.27 14.5477Z"/><path fill="#F79876" d="M7.25079 167.056C18.1327 165.166 29.2938 163.028 40.2723 161.926C41.2784 174.716 42.3656 187.58 42.8514 200.398C48.3498 199.51 53.8654 198.731 59.395 198.063L59.8312 204.171L43.4868 207.074C44.0442 215.95 44.2157 224.972 45.2118 233.804C49.3348 233.116 58.802 230.57 62.4351 233.067L62.8498 235.049C58.0025 239.13 51.7917 239.434 45.7777 240.077C46.8654 249.074 47.0185 258.121 48.235 267.117C52.3129 266.224 60.3869 263.633 64.1058 266.063C64.9208 266.596 64.8845 266.831 65.0957 267.722C63.9767 269.93 61.2878 271.116 59.0153 271.84C55.7841 272.869 51.9205 273.006 48.5325 273.287C49.1999 282.033 49.5875 290.935 51.0156 299.594L67.4658 297.383C67.7791 299.476 68.211 301.616 68.3162 303.73C47.7854 306.519 27.0874 308.836 6.79976 313.092L4.8867 287.122C12.1265 286.234 19.5669 284.619 26.8121 284.171L25.9473 276.279C18.6511 276.726 11.5719 278.08 4.39999 279.429C3.74609 270.875 2.76564 262.315 2.20631 253.76C9.55547 252.571 16.9279 251.175 24.3073 250.214C24.0423 247.757 23.7257 245.3 23.7152 242.826C16.2747 243.755 8.84496 244.843 1.39952 245.715C1.24952 240.475 1.62716 234.086 0 229.072L0 220.79C7.30982 219.831 14.6098 218.798 21.8988 217.691C21.7628 214.949 21.8494 212.158 21.8335 209.411C14.5212 210.398 7.25521 211.461 0 212.809L0 183.674L8.35753 182.77C7.83407 177.532 7.68435 172.293 7.25079 167.056Z"/><path fill="#F79876" d="M72.1403 409.297C73.2601 409.154 74.0504 409.036 75.1194 409.528C77.6621 413.105 76.7382 420.864 77.0889 425.196C71.1635 426.226 65.184 426.99 59.2384 427.902C57.8516 428.186 56.3261 428.736 55.0057 428.027C52.1468 424.378 53.1302 416.764 52.8438 412.146C59.2562 411.094 65.7094 410.233 72.1403 409.297Z"/><path fill="#F79876" d="M114.33 403.366C114.926 403.31 115.525 403.25 116.123 403.229C116.914 403.202 117.984 403.191 118.544 403.781C121.179 406.553 120.467 415.227 120.558 419.043C114.731 419.864 108.898 420.649 103.06 421.398C101.632 421.618 100.478 421.83 99.0687 421.383C96.3288 418.048 97.2521 410.091 96.9447 405.9C102.749 405.117 108.544 404.272 114.33 403.366Z"/><path fill="#F79876" d="M154.324 367.284C155.882 391.37 156.591 416.082 159.747 440L94.7659 440C103.233 436.675 131.883 433.691 142.178 432.627L140.099 400.303C139.739 394.651 138.917 388.642 139.26 382.994C114.823 385.856 90.4176 389.978 66.0898 393.682C54.5467 395.44 42.818 397.708 31.1787 398.563C32.2285 412.317 32.562 426.32 34.2559 440L18.5108 440C17.1455 422.641 15.8683 405.275 14.6791 387.903C45.1514 383.754 75.4434 378.753 105.825 374.031C121.028 371.668 139.08 368.086 154.324 367.284Z"/></svg>