<svg width="1316" height="606" fill="none" xmlns="http://www.w3.org/2000/svg"><path d="m33.945 151.864 16.777-2.567 2.565 16.753-16.778 2.568-2.564-16.754Z" fill="#DBE6FF"/><path d="m50.722 149.297 16.778-2.568 2.564 16.754-16.777 2.567-2.565-16.753Z" fill="#DBE6FF"/><path d="m67.5 146.729 16.778-2.568 2.564 16.754-16.778 2.568-2.564-16.754ZM84.278 144.161l16.777-2.568 2.564 16.754-16.777 2.568-2.564-16.754Z" fill="#DBE6FF"/><path d="m101.055 141.593 16.778-2.568 2.564 16.754-16.778 2.568-2.564-16.754ZM19.731 171.186l16.778-2.568 2.564 16.754-16.777 2.568-2.565-16.754Z" fill="#DBE6FF"/><path d="m36.509 168.618 16.778-2.568 2.564 16.754-16.778 2.568-2.564-16.754Z" fill="#DBE6FF"/><path d="m53.287 166.05 16.777-2.567 2.564 16.753-16.777 2.568-2.564-16.754Z" fill="#DBE6FF"/><path d="m70.064 163.483 16.778-2.568 2.564 16.753-16.778 2.568-2.564-16.753ZM86.842 160.915l16.777-2.568 2.565 16.754-16.778 2.567-2.564-16.753Z" fill="#DBE6FF"/><path d="m103.619 158.347 16.778-2.568 2.564 16.754-16.777 2.568-2.565-16.754ZM120.397 155.779l16.778-2.568 2.564 16.754-16.778 2.568-2.564-16.754ZM5.518 190.507l16.777-2.567 2.565 16.753-16.778 2.568-2.564-16.754Z" fill="#DBE6FF"/><path d="m22.296 187.94 16.777-2.568 2.564 16.753-16.777 2.568-2.564-16.753Z" fill="#DBE6FF"/><path d="m39.073 185.372 16.778-2.568 2.564 16.754-16.778 2.567-2.564-16.753Z" fill="#DBE6FF"/><path d="m55.85 182.804 16.778-2.568 2.564 16.754-16.777 2.568-2.564-16.754ZM89.406 177.668l16.778-2.567 2.564 16.753-16.778 2.568-2.564-16.754ZM106.184 175.101l16.777-2.568 2.564 16.754-16.777 2.567-2.564-16.753Z" fill="#DBE6FF"/><path d="m122.961 172.533 16.778-2.568 2.564 16.754-16.778 2.568-2.564-16.754Z" fill="#DBE6FF"/><path d="m139.739 169.965 16.777-2.568 2.565 16.754-16.778 2.568-2.564-16.754ZM8.082 207.261l16.778-2.568 2.564 16.754-16.778 2.568-2.564-16.754Z" fill="#DBE6FF"/><path d="m24.86 204.693 16.777-2.568 2.564 16.754-16.777 2.568-2.564-16.754ZM58.415 199.558l16.777-2.568 2.565 16.754-16.778 2.567-2.564-16.753ZM125.525 189.287l16.778-2.568 2.564 16.753-16.778 2.568-2.564-16.753Z" fill="#DBE6FF"/><path d="m142.303 186.719 16.778-2.568 2.564 16.754-16.778 2.567-2.564-16.753ZM10.646 224.015l16.778-2.568 2.564 16.754-16.778 2.567-2.564-16.753Z" fill="#DBE6FF"/><path d="m27.424 221.447 16.777-2.568 2.565 16.754-16.778 2.568-2.564-16.754ZM60.979 216.311l16.778-2.567 2.564 16.753-16.778 2.568-2.564-16.754ZM128.089 206.04l16.778-2.568 2.564 16.754-16.777 2.568-2.565-16.754Z" fill="#DBE6FF"/><path d="m144.867 203.472 16.778-2.567 2.564 16.753-16.778 2.568-2.564-16.754ZM13.21 240.768l16.778-2.567 2.564 16.753-16.777 2.568-2.565-16.754ZM29.988 238.201l16.778-2.568 2.564 16.754-16.778 2.567-2.564-16.753ZM63.543 233.065l16.778-2.568 2.564 16.754-16.778 2.568-2.564-16.754Z" fill="#DBE6FF"/><path d="m130.654 222.794 16.777-2.568 2.564 16.754-16.777 2.568-2.564-16.754ZM147.431 220.226l16.778-2.568 2.564 16.754-16.778 2.568-2.564-16.754ZM15.774 257.522l16.778-2.568 2.564 16.754-16.777 2.568-2.564-16.754Z" fill="#DBE6FF"/><path d="m32.552 254.954 16.778-2.567 2.564 16.753-16.778 2.568-2.564-16.754Z" fill="#DBE6FF"/><path d="m49.33 252.387 16.777-2.568 2.564 16.753-16.777 2.568-2.564-16.753Z" fill="#DBE6FF"/><path d="m66.107 249.819 16.778-2.568 2.564 16.754-16.778 2.567-2.564-16.753ZM82.885 247.251l16.777-2.568 2.565 16.754-16.778 2.568-2.564-16.754Z" fill="#DBE6FF"/><path d="m99.662 244.683 16.778-2.568 2.564 16.754-16.777 2.568-2.565-16.754Z" fill="#DBE6FF"/><path d="m116.44 242.115 16.778-2.567 2.564 16.753-16.778 2.568-2.564-16.754Z" fill="#DBE6FF"/><path d="m133.218 239.548 16.777-2.568 2.564 16.753-16.777 2.568-2.564-16.753ZM149.995 236.98l16.778-2.568 2.564 16.754-16.778 2.567-2.564-16.753ZM35.116 271.708l16.778-2.568 2.564 16.754-16.778 2.568-2.564-16.754ZM51.894 269.14l16.777-2.568 2.565 16.754-16.778 2.568-2.564-16.754ZM68.671 266.572l16.778-2.567 2.564 16.753-16.777 2.568-2.565-16.754Z" fill="#DBE6FF"/><path d="m85.449 264.005 16.778-2.568 2.564 16.754-16.778 2.567-2.564-16.753ZM102.227 261.437l16.777-2.568 2.564 16.754-16.777 2.568-2.564-16.754Z" fill="#DBE6FF"/><path d="m119.004 258.869 16.778-2.568 2.564 16.754-16.778 2.568-2.564-16.754ZM135.782 256.301l16.777-2.568 2.565 16.754-16.778 2.568-2.564-16.754ZM54.458 285.894l16.778-2.568L73.8 300.08l-16.778 2.568-2.564-16.754ZM71.236 283.326l16.777-2.568 2.564 16.754L73.8 300.08l-2.564-16.754ZM88.013 280.758l16.778-2.567 2.564 16.753-16.778 2.568-2.564-16.754Z" fill="#DBE6FF"/><path d="m104.791 278.191 16.777-2.568 2.565 16.753-16.778 2.568-2.564-16.753Z" fill="#DBE6FF"/><path d="m121.568 275.623 16.778-2.568 2.564 16.754-16.777 2.567-2.565-16.753ZM269.32 231.296l16.777-2.567 2.565 16.753-16.778 2.568-2.564-16.754Z" fill="#DBE6FF"/><path d="m286.097 228.729 16.778-2.568 2.564 16.754-16.777 2.567-2.565-16.753Z" fill="#DBE6FF"/><path d="m302.875 226.161 16.778-2.568 2.564 16.754-16.778 2.568-2.564-16.754Z" fill="#DBE6FF"/><path d="m319.653 223.593 16.777-2.568 2.564 16.754-16.777 2.568-2.564-16.754Z" fill="#DBE6FF"/><path d="m336.43 221.025 16.778-2.568 2.564 16.754-16.778 2.568-2.564-16.754ZM255.106 250.618l16.778-2.568 2.564 16.754-16.778 2.568-2.564-16.754Z" fill="#DBE6FF"/><path d="m271.884 248.05 16.778-2.568 2.564 16.754-16.778 2.568-2.564-16.754Z" fill="#DBE6FF"/><path d="m288.662 245.482 16.777-2.567 2.564 16.753-16.777 2.568-2.564-16.754ZM305.439 242.915l16.778-2.568 2.564 16.753-16.778 2.568-2.564-16.753Z" fill="#DBE6FF"/><path d="m322.217 240.347 16.777-2.568 2.565 16.754-16.778 2.567-2.564-16.753ZM338.994 237.779l16.778-2.568 2.564 16.754-16.777 2.568-2.565-16.754Z" fill="#DBE6FF"/><path d="m355.772 235.211 16.778-2.568 2.564 16.754-16.778 2.568-2.564-16.754ZM240.893 269.939l16.777-2.567 2.565 16.753-16.778 2.568-2.564-16.754ZM257.67 267.372l16.778-2.568 2.564 16.754-16.777 2.567-2.565-16.753Z" fill="#DBE6FF"/><path d="m274.448 264.804 16.778-2.568 2.564 16.754-16.778 2.568-2.564-16.754Z" fill="#DBE6FF"/><path d="m291.226 262.236 16.777-2.568 2.564 16.754-16.777 2.568-2.564-16.754ZM324.781 257.1l16.778-2.567 2.564 16.753-16.778 2.568-2.564-16.754Z" fill="#DBE6FF"/><path d="m341.559 254.533 16.777-2.568 2.564 16.754-16.777 2.567-2.564-16.753Z" fill="#DBE6FF"/><path d="m358.336 251.965 16.778-2.568 2.564 16.754-16.778 2.568-2.564-16.754Z" fill="#DBE6FF"/><path d="m375.114 249.397 16.777-2.568 2.564 16.754-16.777 2.568-2.564-16.754ZM243.457 286.693l16.778-2.568 2.564 16.754-16.778 2.568-2.564-16.754ZM260.235 284.125l16.777-2.567 2.564 16.753-16.777 2.568-2.564-16.754ZM293.79 278.99l16.777-2.568 2.565 16.754-16.778 2.567-2.564-16.753ZM360.9 268.719l16.778-2.568 2.564 16.753-16.778 2.568-2.564-16.753Z" fill="#DBE6FF"/><path d="m377.678 266.151 16.777-2.568 2.565 16.754-16.778 2.567-2.564-16.753ZM246.021 303.447l16.778-2.568 2.564 16.754-16.778 2.567-2.564-16.753Z" fill="#DBE6FF"/><path d="m262.799 300.879 16.777-2.568 2.564 16.754-16.777 2.568-2.564-16.754ZM296.354 295.743l16.778-2.567 2.564 16.753-16.778 2.568-2.564-16.754ZM363.464 285.472l16.778-2.568 2.564 16.754-16.777 2.568-2.565-16.754ZM380.242 282.904l16.778-2.567 2.564 16.753-16.778 2.568-2.564-16.754Z" fill="#DBE6FF"/><path d="m248.585 320.2 16.778-2.567 2.564 16.753-16.778 2.568-2.564-16.754Z" fill="#DBE6FF"/><path d="m265.363 317.633 16.777-2.568 2.565 16.754-16.778 2.567-2.564-16.753ZM298.918 312.497l16.778-2.568 2.564 16.754-16.778 2.568-2.564-16.754ZM366.029 302.226l16.777-2.568 2.564 16.754-16.777 2.568-2.564-16.754Z" fill="#DBE6FF"/><path d="m382.806 299.658 16.778-2.568 2.564 16.754-16.778 2.568-2.564-16.754ZM251.149 336.954l16.778-2.568 2.564 16.754-16.778 2.568-2.564-16.754ZM267.927 334.386l16.778-2.567 2.564 16.753-16.778 2.568-2.564-16.754Z" fill="#DBE6FF"/><path d="m284.705 331.819 16.777-2.568 2.564 16.753-16.777 2.568-2.564-16.753ZM301.482 329.251l16.778-2.568 2.564 16.754-16.778 2.567-2.564-16.753Z" fill="#DBE6FF"/><path d="m318.26 326.683 16.777-2.568 2.565 16.754-16.778 2.568-2.564-16.754ZM335.037 324.115l16.778-2.568 2.564 16.754-16.777 2.568-2.565-16.754ZM351.815 321.547l16.778-2.567 2.564 16.753-16.778 2.568-2.564-16.754Z" fill="#DBE6FF"/><path d="m368.593 318.98 16.777-2.568 2.564 16.754-16.777 2.567-2.564-16.753ZM385.37 316.412l16.778-2.568 2.564 16.754-16.778 2.568-2.564-16.754ZM270.491 351.14l16.778-2.568 2.564 16.754-16.778 2.568-2.564-16.754Z" fill="#DBE6FF"/><path d="m287.269 348.572 16.777-2.568 2.564 16.754-16.777 2.568-2.564-16.754ZM304.046 346.004l16.778-2.567 2.564 16.753-16.778 2.568-2.564-16.754Z" fill="#DBE6FF"/><path d="m320.824 343.437 16.778-2.568 2.564 16.754-16.778 2.567-2.564-16.753Z" fill="#DBE6FF"/><path d="m337.602 340.869 16.777-2.568 2.564 16.754-16.777 2.568-2.564-16.754ZM354.379 338.301l16.778-2.568 2.564 16.754-16.778 2.568-2.564-16.754Z" fill="#DBE6FF"/><path d="m371.157 335.733 16.777-2.567 2.565 16.753-16.778 2.568-2.564-16.754ZM289.833 365.326l16.777-2.568 2.565 16.754-16.778 2.568-2.564-16.754ZM306.61 362.758l16.778-2.568 2.564 16.754-16.777 2.568-2.565-16.754Z" fill="#DBE6FF"/><path d="m323.388 360.19 16.778-2.567 2.564 16.753-16.778 2.568-2.564-16.754Z" fill="#DBE6FF"/><path d="m340.166 357.623 16.777-2.568 2.564 16.753-16.777 2.568-2.564-16.753Z" fill="#DBE6FF"/><path d="m356.943 355.055 16.778-2.568 2.564 16.754-16.778 2.567-2.564-16.753ZM470.163 85.102l16.777-2.568 2.565 16.754-16.778 2.567-2.564-16.753ZM486.94 82.534l16.778-2.568 2.564 16.754-16.777 2.568-2.565-16.754Z" fill="#DBE6FF"/><path d="m503.718 79.966 16.778-2.568 2.564 16.754-16.778 2.568-2.564-16.754ZM520.496 77.398l16.777-2.567 2.564 16.753-16.777 2.568-2.564-16.754Z" fill="#DBE6FF"/><path d="m537.273 74.83 16.778-2.567 2.564 16.753-16.778 2.568-2.564-16.753ZM455.949 104.423l16.778-2.568 2.564 16.754-16.778 2.568-2.564-16.754Z" fill="#DBE6FF"/><path d="m472.727 101.855 16.778-2.567 2.564 16.753-16.778 2.568-2.564-16.754ZM489.505 99.288l16.777-2.568 2.564 16.754-16.777 2.567-2.564-16.753Z" fill="#DBE6FF"/><path d="m506.282 96.72 16.778-2.568 2.564 16.754-16.778 2.568-2.564-16.754Z" fill="#DBE6FF"/><path d="m523.06 94.152 16.777-2.568 2.564 16.754-16.777 2.568-2.564-16.754Z" fill="#DBE6FF"/><path d="m539.837 91.584 16.778-2.568 2.564 16.754-16.778 2.568-2.564-16.754Z" fill="#DBE6FF"/><path d="m556.615 89.016 16.778-2.567 2.564 16.753-16.778 2.568-2.564-16.754ZM441.736 123.745l16.777-2.568 2.565 16.754-16.778 2.567-2.564-16.753ZM458.513 121.177l16.778-2.568 2.564 16.754-16.777 2.568-2.565-16.754ZM475.291 118.609l16.778-2.568 2.564 16.754-16.778 2.568-2.564-16.754Z" fill="#DBE6FF"/><path d="m492.069 116.041 16.777-2.567 2.564 16.753-16.777 2.568-2.564-16.754ZM525.624 110.906l16.777-2.568 2.565 16.754-16.778 2.567-2.564-16.753Z" fill="#DBE6FF"/><path d="m542.401 108.338 16.778-2.568 2.564 16.754-16.777 2.568-2.565-16.754Z" fill="#DBE6FF"/><path d="m559.179 105.77 16.778-2.568 2.564 16.754-16.778 2.568-2.564-16.754ZM575.957 103.202l16.777-2.567 2.564 16.753-16.777 2.568-2.564-16.754ZM444.3 140.498l16.778-2.567 2.564 16.753-16.778 2.568-2.564-16.754Z" fill="#DBE6FF"/><path d="m461.078 137.931 16.777-2.568 2.564 16.753-16.777 2.568-2.564-16.753ZM494.633 132.795l16.777-2.568 2.564 16.754-16.777 2.568-2.564-16.754ZM561.743 122.524l16.778-2.568 2.564 16.754-16.778 2.568-2.564-16.754Z" fill="#DBE6FF"/><path d="m578.521 119.956 16.777-2.568 2.565 16.754-16.778 2.568-2.564-16.754ZM446.864 157.252l16.778-2.568 2.564 16.754-16.778 2.568-2.564-16.754Z" fill="#DBE6FF"/><path d="m463.642 154.684 16.777-2.568 2.564 16.754-16.777 2.568-2.564-16.754ZM497.197 149.549l16.777-2.568 2.565 16.754-16.778 2.567-2.564-16.753ZM564.307 139.278l16.778-2.568 2.564 16.753-16.777 2.568-2.565-16.753Z" fill="#DBE6FF"/><path d="m581.085 136.71 16.778-2.568 2.564 16.754-16.778 2.567-2.564-16.753ZM449.428 174.006l16.778-2.568 2.564 16.754-16.778 2.567-2.564-16.753Z" fill="#DBE6FF"/><path d="m466.206 171.438 16.777-2.568 2.565 16.754-16.778 2.568-2.564-16.754ZM499.761 166.302l16.778-2.567 2.564 16.753-16.778 2.568-2.564-16.754ZM566.872 156.031l16.777-2.568 2.564 16.754-16.777 2.568-2.564-16.754Z" fill="#DBE6FF"/><path d="m583.649 153.463 16.778-2.567 2.564 16.753-16.778 2.568-2.564-16.754ZM451.992 190.759l16.778-2.567 2.564 16.753-16.778 2.568-2.564-16.754Z" fill="#DBE6FF"/><path d="m468.77 188.192 16.778-2.568 2.564 16.754-16.778 2.567-2.564-16.753Z" fill="#DBE6FF"/><path d="m485.548 185.624 16.777-2.568 2.564 16.754-16.777 2.568-2.564-16.754Z" fill="#DBE6FF"/><path d="m502.325 183.056 16.778-2.568 2.564 16.754-16.778 2.568-2.564-16.754ZM519.103 180.488l16.777-2.568 2.565 16.754-16.778 2.568-2.564-16.754Z" fill="#DBE6FF"/><path d="m535.88 177.92 16.778-2.567 2.564 16.753-16.777 2.568-2.565-16.754Z" fill="#DBE6FF"/><path d="m552.658 175.353 16.778-2.568L572 189.539l-16.778 2.567-2.564-16.753Z" fill="#DBE6FF"/><path d="m569.436 172.785 16.777-2.568 2.564 16.754L572 189.539l-2.564-16.754Z" fill="#DBE6FF"/><path d="m586.213 170.217 16.778-2.568 2.564 16.754-16.778 2.568-2.564-16.754ZM471.334 204.945l16.778-2.567 2.564 16.753-16.778 2.568-2.564-16.754Z" fill="#DBE6FF"/><path d="m488.112 202.378 16.777-2.568 2.564 16.753-16.777 2.568-2.564-16.753Z" fill="#DBE6FF"/><path d="m504.889 199.81 16.778-2.568 2.564 16.754-16.778 2.567-2.564-16.753Z" fill="#DBE6FF"/><path d="m521.667 197.242 16.778-2.568 2.564 16.754-16.778 2.568-2.564-16.754Z" fill="#DBE6FF"/><path d="m538.445 194.674 16.777-2.568 2.564 16.754-16.777 2.568-2.564-16.754Z" fill="#DBE6FF"/><path d="M555.222 192.106 572 189.539l2.564 16.753-16.778 2.568-2.564-16.754ZM572 189.539l16.777-2.568 2.565 16.753-16.778 2.568L572 189.539ZM490.676 219.131l16.777-2.568 2.565 16.754-16.778 2.568-2.564-16.754Z" fill="#DBE6FF"/><path d="m507.453 216.563 16.778-2.567 2.564 16.753-16.777 2.568-2.565-16.754Z" fill="#DBE6FF"/><path d="m524.231 213.996 16.778-2.568 2.564 16.754-16.778 2.567-2.564-16.753Z" fill="#DBE6FF"/><path d="m541.009 211.428 16.777-2.568 2.564 16.754-16.777 2.568-2.564-16.754Z" fill="#DBE6FF"/><path d="m557.786 208.86 16.778-2.568 2.564 16.754-16.778 2.568-2.564-16.754ZM705.538 164.534l16.777-2.568 2.564 16.754-16.777 2.567-2.564-16.753Z" fill="#DBE6FF"/><path d="m722.315 161.966 16.778-2.568 2.564 16.754-16.778 2.568-2.564-16.754Z" fill="#DBE6FF"/><path d="m739.093 159.398 16.777-2.568 2.565 16.754-16.778 2.568-2.564-16.754Z" fill="#DBE6FF"/><path d="m755.87 156.83 16.778-2.567 2.564 16.753-16.777 2.568-2.565-16.754ZM772.648 154.263l16.778-2.568 2.564 16.753-16.778 2.568-2.564-16.753ZM691.324 183.855l16.778-2.568 2.564 16.754-16.778 2.568-2.564-16.754Z" fill="#DBE6FF"/><path d="m708.102 181.287 16.777-2.567 2.565 16.753-16.778 2.568-2.564-16.754Z" fill="#DBE6FF"/><path d="m724.879 178.72 16.778-2.568 2.564 16.754-16.777 2.567-2.565-16.753Z" fill="#DBE6FF"/><path d="m741.657 176.152 16.778-2.568 2.564 16.754-16.778 2.568-2.564-16.754Z" fill="#DBE6FF"/><path d="m758.435 173.584 16.777-2.568 2.564 16.754-16.777 2.568-2.564-16.754Z" fill="#DBE6FF"/><path d="m775.212 171.016 16.778-2.568 2.564 16.754-16.778 2.568-2.564-16.754ZM791.99 168.448l16.777-2.567 2.565 16.753-16.778 2.568-2.564-16.754ZM677.111 203.177l16.777-2.568 2.564 16.754-16.777 2.567-2.564-16.753Z" fill="#DBE6FF"/><path d="m693.888 200.609 16.778-2.568 2.564 16.754-16.778 2.568-2.564-16.754Z" fill="#DBE6FF"/><path d="m710.666 198.041 16.778-2.568 2.564 16.754-16.778 2.568-2.564-16.754Z" fill="#DBE6FF"/><path d="m727.444 195.473 16.777-2.567 2.564 16.753-16.777 2.568-2.564-16.754ZM760.999 190.338l16.777-2.568 2.565 16.754-16.778 2.567-2.564-16.753Z" fill="#DBE6FF"/><path d="m777.776 187.77 16.778-2.568 2.564 16.754-16.777 2.568-2.565-16.754Z" fill="#DBE6FF"/><path d="m794.554 185.202 16.778-2.568 2.564 16.754-16.778 2.568-2.564-16.754Z" fill="#DBE6FF"/><path d="m811.332 182.634 16.777-2.567 2.564 16.753-16.777 2.568-2.564-16.754ZM679.675 219.93l16.777-2.567 2.565 16.753-16.778 2.568-2.564-16.754Z" fill="#DBE6FF"/><path d="m696.452 217.363 16.778-2.568 2.564 16.754-16.777 2.567-2.565-16.753ZM730.008 212.227l16.777-2.568 2.564 16.754-16.777 2.568-2.564-16.754ZM797.118 201.956l16.778-2.568 2.564 16.754-16.778 2.568-2.564-16.754Z" fill="#DBE6FF"/><path d="m813.896 199.388 16.777-2.568 2.565 16.754-16.778 2.568-2.564-16.754ZM682.239 236.684l16.778-2.568 2.564 16.754-16.778 2.568-2.564-16.754Z" fill="#DBE6FF"/><path d="m699.017 234.116 16.777-2.567 2.564 16.753-16.777 2.568-2.564-16.754ZM732.572 228.981l16.777-2.568 2.565 16.754-16.778 2.567-2.564-16.753ZM799.682 218.71l16.778-2.568 2.564 16.753-16.778 2.568-2.564-16.753Z" fill="#DBE6FF"/><path d="m816.46 216.142 16.778-2.568 2.564 16.754-16.778 2.567-2.564-16.753ZM684.803 253.438l16.778-2.568 2.564 16.754-16.778 2.568-2.564-16.754Z" fill="#DBE6FF"/><path d="m701.581 250.87 16.777-2.568 2.564 16.754-16.777 2.568-2.564-16.754ZM735.136 245.734l16.778-2.567 2.564 16.753-16.778 2.568-2.564-16.754ZM802.246 235.463l16.778-2.568 2.564 16.754-16.777 2.568-2.565-16.754Z" fill="#DBE6FF"/><path d="m819.024 232.895 16.778-2.567 2.564 16.753-16.778 2.568-2.564-16.754ZM687.367 270.192l16.778-2.568 2.564 16.753-16.778 2.568-2.564-16.753ZM704.145 267.624l16.777-2.568 2.565 16.754-16.778 2.567-2.564-16.753Z" fill="#DBE6FF"/><path d="m720.922 265.056 16.778-2.568 2.564 16.754-16.777 2.568-2.565-16.754Z" fill="#DBE6FF"/><path d="m737.7 262.488 16.778-2.568 2.564 16.754-16.778 2.568-2.564-16.754Z" fill="#DBE6FF"/><path d="m754.478 259.92 16.777-2.567 2.564 16.753-16.777 2.568-2.564-16.754Z" fill="#DBE6FF"/><path d="m771.255 257.353 16.778-2.568 2.564 16.753-16.778 2.568-2.564-16.753Z" fill="#DBE6FF"/><path d="m788.033 254.785 16.778-2.568 2.564 16.754-16.778 2.567-2.564-16.753Z" fill="#DBE6FF"/><path d="m804.811 252.217 16.777-2.568 2.564 16.754-16.777 2.568-2.564-16.754Z" fill="#DBE6FF"/><path d="m821.588 249.649 16.778-2.568 2.564 16.754-16.778 2.568-2.564-16.754ZM706.709 284.377l16.778-2.567 2.564 16.753-16.778 2.568-2.564-16.754Z" fill="#DBE6FF"/><path d="m723.487 281.81 16.777-2.568 2.564 16.753-16.777 2.568-2.564-16.753Z" fill="#DBE6FF"/><path d="m740.264 279.242 16.778-2.568 2.564 16.754-16.778 2.567-2.564-16.753ZM757.042 276.674l16.777-2.568 2.565 16.754-16.778 2.568-2.564-16.754Z" fill="#DBE6FF"/><path d="m773.819 274.106 16.778-2.568 2.564 16.754-16.777 2.568-2.565-16.754ZM790.597 271.538l16.778-2.567 2.564 16.753-16.778 2.568-2.564-16.754Z" fill="#DBE6FF"/><path d="m807.375 268.971 16.777-2.568 2.564 16.754-16.777 2.567-2.564-16.753ZM726.051 298.563l16.777-2.568 2.564 16.754-16.777 2.568-2.564-16.754Z" fill="#DBE6FF"/><path d="m742.828 295.995 16.778-2.567 2.564 16.753-16.778 2.568-2.564-16.754Z" fill="#DBE6FF"/><path d="m759.606 293.428 16.778-2.568 2.564 16.754-16.778 2.567-2.564-16.753Z" fill="#DBE6FF"/><path d="m776.384 290.86 16.777-2.568 2.564 16.754-16.777 2.568-2.564-16.754Z" fill="#DBE6FF"/><path d="m793.161 288.292 16.778-2.568 2.564 16.754-16.778 2.568-2.564-16.754ZM906.381 18.34l16.777-2.569 2.564 16.754-16.777 2.568-2.564-16.754ZM923.158 15.771l16.778-2.568 2.564 16.754-16.778 2.568-2.564-16.754Z" fill="#DBE6FF"/><path d="m939.936 13.204 16.777-2.568 2.565 16.753-16.778 2.568-2.564-16.753Z" fill="#DBE6FF"/><path d="m956.713 10.636 16.778-2.568 2.564 16.754-16.777 2.567-2.565-16.753Z" fill="#DBE6FF"/><path d="M973.491 8.068 990.269 5.5l2.564 16.754-16.778 2.568-2.564-16.754ZM892.167 37.66l16.778-2.567 2.564 16.753-16.778 2.568-2.564-16.754Z" fill="#DBE6FF"/><path d="m908.945 35.093 16.777-2.568 2.565 16.754-16.778 2.567-2.564-16.753Z" fill="#DBE6FF"/><path d="m925.722 32.525 16.778-2.568 2.564 16.754-16.777 2.568-2.565-16.754Z" fill="#DBE6FF"/><path d="m942.5 29.957 16.778-2.568 2.564 16.754-16.778 2.568-2.564-16.754Z" fill="#DBE6FF"/><path d="m959.278 27.39 16.777-2.568 2.564 16.753-16.777 2.568-2.564-16.754Z" fill="#DBE6FF"/><path d="m976.055 24.822 16.778-2.568 2.564 16.753-16.778 2.568-2.564-16.753Z" fill="#DBE6FF"/><path d="m992.833 22.254 16.777-2.568 2.56 16.754-16.773 2.567-2.564-16.753ZM877.954 56.982l16.777-2.568 2.564 16.754-16.777 2.568-2.564-16.754Z" fill="#DBE6FF"/><path d="m894.731 54.414 16.778-2.568 2.564 16.754-16.778 2.568-2.564-16.754ZM911.509 51.846l16.778-2.567 2.564 16.753-16.778 2.568-2.564-16.754Z" fill="#DBE6FF"/><path d="m928.287 49.279 16.777-2.568 2.564 16.754-16.777 2.567-2.564-16.753ZM961.842 44.143l16.777-2.568 2.565 16.754-16.778 2.568-2.564-16.754Z" fill="#DBE6FF"/><path d="m978.619 41.575 16.778-2.568 2.564 16.754-16.777 2.568-2.565-16.754ZM995.397 39.007l16.773-2.567 2.57 16.753-16.779 2.568-2.564-16.754Z" fill="#DBE6FF"/><path d="m1012.17 36.44 16.78-2.568 2.57 16.754-16.78 2.567-2.57-16.753ZM880.518 73.736l16.777-2.568 2.565 16.754-16.778 2.567-2.564-16.753Z" fill="#DBE6FF"/><path d="m897.295 71.168 16.778-2.568 2.564 16.754-16.777 2.568-2.565-16.754ZM930.851 66.032l16.777-2.567 2.564 16.753-16.777 2.568-2.564-16.754ZM997.961 55.761l16.779-2.568 2.56 16.754-16.77 2.568-2.569-16.754ZM1014.74 53.193l16.78-2.567 2.56 16.753-16.78 2.568-2.56-16.754ZM883.082 90.49l16.778-2.568 2.564 16.753-16.778 2.568-2.564-16.754Z" fill="#DBE6FF"/><path d="m899.86 87.922 16.777-2.568 2.564 16.754-16.777 2.567-2.564-16.753ZM933.415 82.786l16.777-2.568 2.565 16.754-16.778 2.568-2.564-16.754ZM1000.53 72.515l16.77-2.568 2.57 16.754-16.78 2.568-2.56-16.754Z" fill="#DBE6FF"/><path d="m1017.3 69.947 16.78-2.568 2.56 16.754-16.77 2.568-2.57-16.754ZM885.646 107.243l16.778-2.568 2.564 16.754-16.778 2.568-2.564-16.754Z" fill="#DBE6FF"/><path d="m902.424 104.675 16.777-2.567 2.564 16.753-16.777 2.568-2.564-16.754ZM935.979 99.54l16.778-2.568 2.564 16.754-16.778 2.567-2.564-16.753ZM1003.09 89.269l16.78-2.568 2.56 16.753-16.78 2.568-2.56-16.754ZM1019.87 86.7l16.77-2.567 2.57 16.754-16.78 2.567-2.56-16.753ZM888.21 123.997l16.778-2.568 2.564 16.754-16.778 2.567-2.564-16.753ZM904.988 121.429l16.777-2.568 2.565 16.754-16.778 2.568-2.564-16.754Z" fill="#DBE6FF"/><path d="m921.765 118.861 16.778-2.568 2.564 16.754-16.777 2.568-2.565-16.754Z" fill="#DBE6FF"/><path d="m938.543 116.293 16.778-2.567 2.564 16.753-16.778 2.568-2.564-16.754Z" fill="#DBE6FF"/><path d="m955.321 113.726 16.777-2.568 2.564 16.753-16.777 2.568-2.564-16.753Z" fill="#DBE6FF"/><path d="m972.098 111.158 16.778-2.568 2.564 16.754-16.778 2.567-2.564-16.753ZM988.876 108.59l16.774-2.568 2.57 16.754-16.78 2.568-2.564-16.754Z" fill="#DBE6FF"/><path d="m1005.65 106.022 16.78-2.568 2.57 16.754-16.78 2.568-2.57-16.754ZM1022.43 103.454l16.78-2.567 2.56 16.753-16.77 2.568-2.57-16.754ZM907.552 138.183l16.778-2.568 2.564 16.754-16.778 2.567-2.564-16.753Z" fill="#DBE6FF"/><path d="m924.33 135.615 16.777-2.568 2.564 16.754-16.777 2.568-2.564-16.754Z" fill="#DBE6FF"/><path d="m941.107 133.047 16.778-2.568 2.564 16.754-16.778 2.568-2.564-16.754ZM957.885 130.479l16.777-2.568 2.565 16.754-16.778 2.568-2.564-16.754Z" fill="#DBE6FF"/><path d="m974.662 127.911 16.778-2.567 2.564 16.753-16.777 2.568-2.565-16.754Z" fill="#DBE6FF"/><path d="m991.44 125.344 16.78-2.568 2.56 16.754-16.776 2.567-2.564-16.753Z" fill="#DBE6FF"/><path d="m1008.22 122.776 16.78-2.568 2.56 16.754-16.78 2.568-2.56-16.754ZM926.894 152.369l16.777-2.568 2.564 16.753-16.777 2.568-2.564-16.753Z" fill="#DBE6FF"/><path d="m943.671 149.801 16.778-2.568 2.564 16.754-16.778 2.567-2.564-16.753Z" fill="#DBE6FF"/><path d="m960.449 147.233 16.778-2.568 2.564 16.754-16.778 2.568-2.564-16.754Z" fill="#DBE6FF"/><path d="m977.227 144.665 16.777-2.568 2.564 16.754-16.777 2.568-2.564-16.754Z" fill="#DBE6FF"/><path d="m994.004 142.097 16.776-2.567 2.57 16.753-16.782 2.568-2.564-16.754ZM1141.76 97.771l16.77-2.568 2.57 16.754-16.78 2.568-2.56-16.754Z" fill="#DBE6FF"/><path d="m1158.53 95.203 16.78-2.568 2.56 16.754-16.77 2.568-2.57-16.754Z" fill="#DBE6FF"/><path d="m1175.31 92.635 16.78-2.567 2.56 16.753-16.78 2.568-2.56-16.754ZM1192.09 90.068l16.78-2.568 2.56 16.754-16.78 2.567-2.56-16.753Z" fill="#DBE6FF"/><path d="m1208.87 87.5 16.77-2.568 2.57 16.754-16.78 2.568-2.56-16.754ZM1127.54 117.093l16.78-2.568 2.56 16.753-16.77 2.568-2.57-16.753Z" fill="#DBE6FF"/><path d="m1144.32 114.525 16.78-2.568 2.56 16.754-16.78 2.567-2.56-16.753Z" fill="#DBE6FF"/><path d="m1161.1 111.957 16.77-2.568 2.57 16.754-16.78 2.568-2.56-16.754Z" fill="#DBE6FF"/><path d="m1177.87 109.389 16.78-2.568 2.57 16.754-16.78 2.568-2.57-16.754ZM1194.65 106.821l16.78-2.567 2.56 16.753-16.77 2.568-2.57-16.754Z" fill="#DBE6FF"/><path d="m1211.43 104.254 16.78-2.568 2.56 16.753-16.78 2.568-2.56-16.753Z" fill="#DBE6FF"/><path d="m1228.21 101.686 16.78-2.568 2.56 16.754-16.78 2.567-2.56-16.753ZM1113.33 136.414l16.78-2.568 2.56 16.754-16.78 2.568-2.56-16.754Z" fill="#DBE6FF"/><path d="m1130.11 133.846 16.77-2.568 2.57 16.754-16.78 2.568-2.56-16.754ZM1146.88 131.278l16.78-2.567 2.57 16.753-16.78 2.568-2.57-16.754Z" fill="#DBE6FF"/><path d="m1163.66 128.711 16.78-2.568 2.56 16.754-16.77 2.567-2.57-16.753ZM1197.22 123.575l16.77-2.568 2.57 16.754-16.78 2.568-2.56-16.754Z" fill="#DBE6FF"/><path d="m1213.99 121.007 16.78-2.568 2.57 16.754-16.78 2.568-2.57-16.754Z" fill="#DBE6FF"/><path d="m1230.77 118.439 16.78-2.567 2.56 16.753-16.77 2.568-2.57-16.754Z" fill="#DBE6FF"/><path d="m1247.55 115.872 16.78-2.568 2.56 16.754-16.78 2.567-2.56-16.753ZM1115.89 153.168l16.78-2.568 2.56 16.754-16.77 2.567-2.57-16.753Z" fill="#DBE6FF"/><path d="m1132.67 150.6 16.78-2.568 2.56 16.754-16.78 2.568-2.56-16.754ZM1166.23 145.464l16.77-2.567 2.57 16.753-16.78 2.568-2.56-16.754ZM1233.34 135.193l16.77-2.568 2.57 16.754-16.78 2.568-2.56-16.754Z" fill="#DBE6FF"/><path d="m1250.11 132.625 16.78-2.567 2.57 16.753-16.78 2.568-2.57-16.754ZM1118.46 169.921l16.77-2.567 2.57 16.753-16.78 2.568-2.56-16.754Z" fill="#DBE6FF"/><path d="m1135.23 167.354 16.78-2.568 2.57 16.754-16.78 2.567-2.57-16.753ZM1168.79 162.218l16.78-2.568 2.56 16.754-16.78 2.568-2.56-16.754ZM1235.9 151.947l16.78-2.568 2.56 16.754-16.78 2.568-2.56-16.754Z" fill="#DBE6FF"/><path d="m1252.68 149.379 16.78-2.568 2.56 16.754-16.78 2.568-2.56-16.754ZM1121.02 186.675l16.78-2.568 2.56 16.754-16.77 2.568-2.57-16.754Z" fill="#DBE6FF"/><path d="m1137.8 184.107 16.78-2.567 2.56 16.753-16.78 2.568-2.56-16.754ZM1171.35 178.972l16.78-2.568 2.57 16.754-16.78 2.567-2.57-16.753ZM1238.46 168.701l16.78-2.568 2.57 16.753-16.78 2.568-2.57-16.753Z" fill="#DBE6FF"/><path d="m1255.24 166.133 16.78-2.568 2.56 16.754-16.77 2.567-2.57-16.753ZM1123.59 203.429l16.77-2.568 2.57 16.754-16.78 2.568-2.56-16.754Z" fill="#DBE6FF"/><path d="m1140.36 200.861 16.78-2.568 2.56 16.754-16.77 2.568-2.57-16.754ZM1157.14 198.293l16.78-2.568 2.56 16.754-16.78 2.568-2.56-16.754Z" fill="#DBE6FF"/><path d="m1173.92 195.725 16.78-2.567 2.56 16.753-16.78 2.568-2.56-16.754ZM1190.7 193.158l16.77-2.568 2.57 16.754-16.78 2.567-2.56-16.753Z" fill="#DBE6FF"/><path d="m1207.47 190.59 16.78-2.568 2.56 16.754-16.77 2.568-2.57-16.754Z" fill="#DBE6FF"/><path d="m1224.25 188.022 16.78-2.568 2.56 16.754-16.78 2.568-2.56-16.754Z" fill="#DBE6FF"/><path d="m1241.03 185.454 16.78-2.568 2.56 16.754-16.78 2.568-2.56-16.754Z" fill="#DBE6FF"/><path d="m1257.81 182.886 16.77-2.567 2.57 16.753-16.78 2.568-2.56-16.754ZM1142.93 217.615l16.77-2.568 2.57 16.754-16.78 2.567-2.56-16.753Z" fill="#DBE6FF"/><path d="m1159.7 215.047 16.78-2.568 2.57 16.754-16.78 2.568-2.57-16.754Z" fill="#DBE6FF"/><path d="m1176.48 212.479 16.78-2.568 2.56 16.754-16.77 2.568-2.57-16.754Z" fill="#DBE6FF"/><path d="m1193.26 209.911 16.78-2.567 2.56 16.753-16.78 2.568-2.56-16.754Z" fill="#DBE6FF"/><path d="m1210.04 207.344 16.77-2.568 2.57 16.753-16.78 2.568-2.56-16.753Z" fill="#DBE6FF"/><path d="m1226.81 204.776 16.78-2.568 2.57 16.754-16.78 2.567-2.57-16.753Z" fill="#DBE6FF"/><path d="m1243.59 202.208 16.78-2.568 2.56 16.754-16.77 2.568-2.57-16.754ZM1162.27 231.801l16.78-2.568 2.56 16.754-16.78 2.567-2.56-16.753Z" fill="#DBE6FF"/><path d="m1179.05 229.233 16.77-2.568 2.57 16.754-16.78 2.568-2.56-16.754Z" fill="#DBE6FF"/><path d="m1195.82 226.665 16.78-2.568 2.57 16.754-16.78 2.568-2.57-16.754Z" fill="#DBE6FF"/><path d="m1212.6 224.097 16.78-2.568 2.56 16.754-16.77 2.568-2.57-16.754ZM1229.38 221.529l16.78-2.567 2.56 16.753-16.78 2.568-2.56-16.754ZM67.279 369.662l16.777-2.567 2.564 16.753-16.777 2.568-2.564-16.754Z" fill="#DBE6FF"/><path d="m84.056 367.095 16.778-2.568 2.564 16.753-16.778 2.568-2.564-16.753Z" fill="#DBE6FF"/><path d="m100.834 364.527 16.777-2.568 2.565 16.754-16.778 2.567-2.564-16.753Z" fill="#DBE6FF"/><path d="m117.611 361.959 16.778-2.568 2.564 16.754-16.777 2.568-2.565-16.754Z" fill="#DBE6FF"/><path d="m134.389 359.391 16.778-2.568 2.564 16.754-16.778 2.568-2.564-16.754ZM53.065 388.984l16.778-2.568 2.564 16.754-16.778 2.568-2.564-16.754ZM69.843 386.416l16.777-2.568 2.564 16.754-16.777 2.568-2.564-16.754Z" fill="#DBE6FF"/><path d="m86.62 383.848 16.778-2.568 2.564 16.754-16.778 2.568-2.564-16.754ZM103.398 381.28l16.778-2.567 2.564 16.753-16.778 2.568-2.564-16.754Z" fill="#DBE6FF"/><path d="m120.176 378.713 16.777-2.568 2.564 16.754-16.777 2.567-2.564-16.753ZM136.953 376.145l16.778-2.568 2.564 16.754-16.778 2.568-2.564-16.754Z" fill="#DBE6FF"/><path d="m153.731 373.577 16.777-2.568 2.565 16.754-16.778 2.568-2.564-16.754ZM38.852 408.305l16.777-2.567 2.564 16.753-16.777 2.568-2.564-16.754ZM55.63 405.738l16.777-2.568 2.564 16.753-16.778 2.568-2.564-16.753Z" fill="#DBE6FF"/><path d="m72.407 403.17 16.778-2.568 2.564 16.754-16.778 2.567-2.564-16.753Z" fill="#DBE6FF"/><path d="m89.184 400.602 16.778-2.568 2.564 16.754-16.777 2.568-2.564-16.754ZM122.74 395.466l16.777-2.567 2.564 16.753-16.777 2.568-2.564-16.754Z" fill="#DBE6FF"/><path d="m139.517 392.899 16.778-2.568 2.564 16.753-16.778 2.568-2.564-16.753Z" fill="#DBE6FF"/><path d="m156.295 390.331 16.778-2.568 2.564 16.754-16.778 2.567-2.564-16.753ZM173.073 387.763l16.777-2.568 2.564 16.754-16.777 2.568-2.564-16.754ZM41.416 425.059l16.777-2.568 2.565 16.754-16.778 2.568-2.564-16.754ZM58.193 422.491l16.778-2.568 2.564 16.754-16.777 2.568-2.565-16.754ZM91.749 417.356l16.777-2.568 2.564 16.754-16.777 2.567-2.564-16.753Z" fill="#DBE6FF"/><path d="m158.859 407.084 16.778-2.567 2.564 16.753-16.778 2.568-2.564-16.754Z" fill="#DBE6FF"/><path d="m175.637 404.517 16.777-2.568 2.564 16.754-16.777 2.567-2.564-16.753ZM43.98 441.813l16.778-2.568 2.564 16.754-16.778 2.567-2.564-16.753Z" fill="#DBE6FF"/><path d="m60.758 439.245 16.777-2.568 2.564 16.754-16.777 2.568-2.565-16.754ZM94.313 434.109l16.777-2.567 2.565 16.753-16.778 2.568-2.564-16.754ZM161.423 423.838l16.778-2.568 2.564 16.754-16.778 2.568-2.564-16.754ZM178.201 421.27l16.777-2.567 2.565 16.753-16.778 2.568-2.564-16.754Z" fill="#DBE6FF"/><path d="m46.544 458.566 16.778-2.567 2.564 16.753-16.778 2.568-2.564-16.754Z" fill="#DBE6FF"/><path d="m63.322 455.999 16.777-2.568 2.564 16.754-16.777 2.567-2.564-16.753ZM96.877 450.863l16.778-2.568 2.564 16.754-16.778 2.568-2.564-16.754ZM163.987 440.592l16.778-2.568 2.564 16.754-16.778 2.568-2.564-16.754Z" fill="#DBE6FF"/><path d="m180.765 438.024 16.778-2.568 2.564 16.754-16.778 2.568-2.564-16.754ZM49.108 475.32l16.778-2.568 2.564 16.754-16.778 2.568-2.564-16.754ZM65.886 472.752l16.777-2.567 2.565 16.753-16.778 2.568-2.564-16.754Z" fill="#DBE6FF"/><path d="m82.663 470.185 16.778-2.568 2.564 16.753-16.777 2.568-2.565-16.753Z" fill="#DBE6FF"/><path d="m99.441 467.617 16.778-2.568 2.564 16.754-16.778 2.567-2.564-16.753Z" fill="#DBE6FF"/><path d="m116.219 465.049 16.777-2.568 2.564 16.754-16.777 2.568-2.564-16.754ZM132.996 462.481l16.778-2.568 2.564 16.754-16.778 2.568-2.564-16.754ZM149.774 459.913l16.777-2.567 2.565 16.753-16.778 2.568-2.564-16.754Z" fill="#DBE6FF"/><path d="m166.551 457.346 16.778-2.568 2.564 16.753-16.777 2.568-2.565-16.753ZM183.329 454.778l16.778-2.568 2.564 16.754-16.778 2.567-2.564-16.753ZM68.45 489.506l16.778-2.568 2.564 16.754-16.778 2.568-2.564-16.754Z" fill="#DBE6FF"/><path d="m85.228 486.938 16.777-2.568 2.564 16.754-16.777 2.568-2.564-16.754ZM102.005 484.37l16.778-2.567 2.564 16.753-16.778 2.568-2.564-16.754ZM118.783 481.803l16.777-2.568 2.565 16.754-16.778 2.567-2.564-16.753Z" fill="#DBE6FF"/><path d="m135.56 479.235 16.778-2.568 2.564 16.754-16.777 2.568-2.565-16.754ZM152.338 476.667l16.778-2.568 2.564 16.754-16.778 2.568-2.564-16.754ZM169.116 474.099l16.777-2.568 2.564 16.754-16.777 2.568-2.564-16.754ZM87.792 503.692l16.777-2.568 2.564 16.754-16.777 2.568-2.564-16.754Z" fill="#DBE6FF"/><path d="m104.569 501.124 16.778-2.568 2.564 16.754-16.778 2.568-2.564-16.754ZM121.347 498.556l16.778-2.567 2.564 16.753-16.778 2.568-2.564-16.754Z" fill="#DBE6FF"/><path d="m138.125 495.989 16.777-2.568 2.564 16.753-16.777 2.568-2.564-16.753Z" fill="#DBE6FF"/><path d="m154.902 493.421 16.778-2.568 2.564 16.754-16.778 2.567-2.564-16.753ZM302.654 449.094l16.777-2.567 2.564 16.753-16.777 2.568-2.564-16.754Z" fill="#DBE6FF"/><path d="m319.431 446.527 16.778-2.568 2.564 16.754-16.778 2.567-2.564-16.753Z" fill="#DBE6FF"/><path d="m336.209 443.959 16.777-2.568 2.564 16.754-16.777 2.568-2.564-16.754Z" fill="#DBE6FF"/><path d="m352.986 441.391 16.778-2.568 2.564 16.754-16.778 2.568-2.564-16.754ZM369.764 438.823l16.778-2.568 2.564 16.754-16.778 2.568-2.564-16.754ZM288.44 468.416l16.778-2.568 2.564 16.754-16.778 2.568-2.564-16.754Z" fill="#DBE6FF"/><path d="m305.218 465.848 16.777-2.568 2.564 16.754-16.777 2.568-2.564-16.754ZM321.995 463.28l16.778-2.567 2.564 16.753-16.778 2.568-2.564-16.754Z" fill="#DBE6FF"/><path d="m338.773 460.713 16.777-2.568 2.565 16.753-16.778 2.568-2.564-16.753ZM355.55 458.145l16.778-2.568 2.564 16.754-16.777 2.567-2.565-16.753Z" fill="#DBE6FF"/><path d="m372.328 455.577 16.778-2.568 2.564 16.754-16.778 2.568-2.564-16.754Z" fill="#DBE6FF"/><path d="m389.106 453.009 16.777-2.568 2.564 16.754-16.777 2.568-2.564-16.754ZM274.227 487.737l16.777-2.567 2.564 16.753-16.777 2.568-2.564-16.754ZM291.004 485.17l16.778-2.568 2.564 16.753-16.778 2.568-2.564-16.753Z" fill="#DBE6FF"/><path d="m307.782 482.602 16.777-2.568 2.565 16.754-16.778 2.567-2.564-16.753ZM324.559 480.034l16.778-2.568 2.564 16.754-16.777 2.568-2.565-16.754ZM358.115 474.898l16.777-2.567 2.564 16.753-16.777 2.568-2.564-16.754Z" fill="#DBE6FF"/><path d="m374.892 472.331 16.778-2.568 2.564 16.754-16.778 2.567-2.564-16.753Z" fill="#DBE6FF"/><path d="m391.67 469.763 16.777-2.568 2.565 16.754-16.778 2.568-2.564-16.754ZM408.447 467.195l16.778-2.568 2.564 16.754-16.777 2.568-2.565-16.754ZM276.791 504.491l16.777-2.568 2.564 16.754-16.777 2.568-2.564-16.754Z" fill="#DBE6FF"/><path d="m293.568 501.923 16.778-2.568 2.564 16.754-16.778 2.568-2.564-16.754ZM327.124 496.788l16.777-2.568 2.564 16.754-16.777 2.567-2.564-16.753ZM394.234 486.517l16.778-2.568 2.564 16.753-16.778 2.568-2.564-16.753Z" fill="#DBE6FF"/><path d="m411.012 483.949 16.777-2.568 2.564 16.754-16.777 2.567-2.564-16.753ZM279.355 521.245l16.777-2.568 2.565 16.754-16.778 2.567-2.564-16.753ZM296.132 518.677l16.778-2.568 2.564 16.754-16.777 2.568-2.565-16.754ZM329.688 513.541l16.777-2.567 2.564 16.753-16.777 2.568-2.564-16.754Z" fill="#DBE6FF"/><path d="m396.798 503.27 16.778-2.568 2.564 16.754-16.778 2.568-2.564-16.754Z" fill="#DBE6FF"/><path d="m413.576 500.702 16.777-2.567 2.564 16.753-16.777 2.568-2.564-16.754ZM281.919 537.998l16.778-2.567 2.564 16.753-16.778 2.568-2.564-16.754Z" fill="#DBE6FF"/><path d="m298.697 535.431 16.777-2.568 2.564 16.754-16.777 2.567-2.564-16.753ZM332.252 530.295l16.777-2.568 2.565 16.754-16.778 2.568-2.564-16.754ZM399.362 520.024l16.778-2.568 2.564 16.754-16.778 2.568-2.564-16.754Z" fill="#DBE6FF"/><path d="m416.14 517.456 16.777-2.568 2.565 16.754-16.778 2.568-2.564-16.754ZM284.483 554.752l16.778-2.568 2.564 16.754-16.778 2.568-2.564-16.754Z" fill="#DBE6FF"/><path d="m301.261 552.184 16.777-2.567 2.564 16.753-16.777 2.568-2.564-16.754Z" fill="#DBE6FF"/><path d="m318.038 549.617 16.778-2.568 2.564 16.753-16.778 2.568-2.564-16.753Z" fill="#DBE6FF"/><path d="m334.816 547.049 16.778-2.568 2.564 16.754-16.778 2.567-2.564-16.753Z" fill="#DBE6FF"/><path d="m351.594 544.481 16.777-2.568 2.564 16.754-16.777 2.568-2.564-16.754Z" fill="#DBE6FF"/><path d="m368.371 541.913 16.778-2.568 2.564 16.754-16.778 2.568-2.564-16.754Z" fill="#DBE6FF"/><path d="m385.149 539.345 16.777-2.567 2.565 16.753-16.778 2.568-2.564-16.754ZM401.926 536.778l16.778-2.568 2.564 16.754-16.777 2.567-2.565-16.753Z" fill="#DBE6FF"/><path d="m418.704 534.21 16.778-2.568 2.564 16.754-16.778 2.568-2.564-16.754ZM303.825 568.938l16.777-2.568 2.565 16.754-16.778 2.568-2.564-16.754ZM320.602 566.37l16.778-2.568 2.564 16.754-16.777 2.568-2.565-16.754Z" fill="#DBE6FF"/><path d="m337.38 563.802 16.778-2.567 2.564 16.753-16.778 2.568-2.564-16.754Z" fill="#DBE6FF"/><path d="m354.158 561.235 16.777-2.568 2.564 16.754-16.777 2.567-2.564-16.753Z" fill="#DBE6FF"/><path d="m370.935 558.667 16.778-2.568 2.564 16.754-16.778 2.568-2.564-16.754Z" fill="#DBE6FF"/><path d="m387.713 556.099 16.778-2.568 2.564 16.754-16.778 2.568-2.564-16.754Z" fill="#DBE6FF"/><path d="m404.491 553.531 16.777-2.567 2.564 16.753-16.777 2.568-2.564-16.754ZM323.167 583.124l16.777-2.568 2.564 16.754-16.777 2.568-2.564-16.754ZM339.944 580.556l16.778-2.568 2.564 16.754-16.778 2.568-2.564-16.754Z" fill="#DBE6FF"/><path d="m356.722 577.988 16.777-2.567 2.565 16.753-16.778 2.568-2.564-16.754ZM373.499 575.421l16.778-2.568 2.564 16.753-16.777 2.568-2.565-16.753Z" fill="#DBE6FF"/><path d="m390.277 572.853 16.778-2.568 2.564 16.754-16.778 2.567-2.564-16.753ZM503.497 302.9l16.777-2.568 2.564 16.754-16.777 2.567-2.564-16.753Z" fill="#DBE6FF"/><path d="m520.274 300.332 16.778-2.568 2.564 16.754-16.778 2.568-2.564-16.754Z" fill="#DBE6FF"/><path d="m537.052 297.764 16.777-2.568 2.564 16.754-16.777 2.568-2.564-16.754Z" fill="#DBE6FF"/><path d="m553.829 295.196 16.778-2.567 2.564 16.753-16.778 2.568-2.564-16.754Z" fill="#DBE6FF"/><path d="m570.607 292.629 16.778-2.568 2.564 16.753-16.778 2.568-2.564-16.753ZM489.283 322.221l16.778-2.568 2.564 16.754-16.778 2.568-2.564-16.754Z" fill="#DBE6FF"/><path d="m506.061 319.653 16.777-2.567 2.564 16.753-16.777 2.568-2.564-16.754Z" fill="#DBE6FF"/><path d="m522.838 317.086 16.778-2.568 2.564 16.753-16.778 2.568-2.564-16.753ZM539.616 314.518l16.777-2.568 2.565 16.754-16.778 2.567-2.564-16.753Z" fill="#DBE6FF"/><path d="m556.393 311.95 16.778-2.568 2.564 16.754-16.777 2.568-2.565-16.754Z" fill="#DBE6FF"/><path d="m573.171 309.382 16.778-2.568 2.564 16.754-16.778 2.568-2.564-16.754Z" fill="#DBE6FF"/><path d="m589.949 306.814 16.777-2.567L609.29 321l-16.777 2.568-2.564-16.754ZM475.07 341.543l16.777-2.568 2.564 16.754-16.777 2.567-2.564-16.753Z" fill="#DBE6FF"/><path d="m491.847 338.975 16.778-2.568 2.564 16.754-16.778 2.568-2.564-16.754ZM508.625 336.407l16.777-2.568 2.565 16.754-16.778 2.568-2.564-16.754Z" fill="#DBE6FF"/><path d="m525.402 333.839 16.778-2.568 2.564 16.754-16.777 2.568-2.565-16.754ZM558.958 328.704l16.777-2.568 2.564 16.754-16.777 2.567-2.564-16.753Z" fill="#DBE6FF"/><path d="m575.735 326.136 16.778-2.568 2.564 16.754-16.778 2.568-2.564-16.754ZM592.513 323.568 609.29 321l2.565 16.754-16.778 2.568-2.564-16.754Z" fill="#DBE6FF"/><path d="m609.29 321 16.778-2.568 2.564 16.754-16.777 2.568L609.29 321ZM477.634 358.296l16.777-2.567 2.564 16.753-16.777 2.568-2.564-16.754Z" fill="#DBE6FF"/><path d="m494.411 355.729 16.778-2.568 2.564 16.753-16.778 2.568-2.564-16.753ZM527.967 350.593l16.777-2.568 2.564 16.754-16.777 2.568-2.564-16.754ZM595.077 340.322l16.778-2.568 2.564 16.754-16.778 2.567-2.564-16.753Z" fill="#DBE6FF"/><path d="m611.855 337.754 16.777-2.568 2.564 16.754-16.777 2.568-2.564-16.754ZM480.198 375.05l16.777-2.568 2.565 16.754-16.778 2.568-2.564-16.754ZM496.975 372.482l16.778-2.568 2.564 16.754-16.777 2.568-2.565-16.754ZM530.531 367.347l16.777-2.568 2.564 16.754-16.777 2.567-2.564-16.753Z" fill="#DBE6FF"/><path d="m597.641 357.075 16.778-2.567 2.564 16.753-16.778 2.568-2.564-16.754Z" fill="#DBE6FF"/><path d="m614.419 354.508 16.777-2.568 2.564 16.754-16.777 2.567-2.564-16.753ZM482.762 391.804l16.778-2.568 2.564 16.754-16.778 2.567-2.564-16.753Z" fill="#DBE6FF"/><path d="m499.54 389.236 16.777-2.568 2.564 16.754-16.777 2.568-2.564-16.754ZM533.095 384.1l16.777-2.567 2.565 16.753-16.778 2.568-2.564-16.754ZM600.205 373.829l16.778-2.568 2.564 16.754-16.778 2.568-2.564-16.754Z" fill="#DBE6FF"/><path d="m616.983 371.261 16.777-2.567 2.565 16.753-16.778 2.568-2.564-16.754ZM485.326 408.557l16.778-2.567 2.564 16.753-16.778 2.568-2.564-16.754Z" fill="#DBE6FF"/><path d="m502.104 405.99 16.777-2.568 2.564 16.754-16.777 2.567-2.564-16.753Z" fill="#DBE6FF"/><path d="m518.881 403.422 16.778-2.568 2.564 16.754-16.778 2.568-2.564-16.754ZM535.659 400.854l16.778-2.568 2.564 16.754-16.778 2.568-2.564-16.754Z" fill="#DBE6FF"/><path d="m552.437 398.286 16.777-2.568 2.564 16.754-16.777 2.568-2.564-16.754ZM569.214 395.718l16.778-2.567 2.564 16.753-16.778 2.568-2.564-16.754Z" fill="#DBE6FF"/><path d="m585.992 393.151 16.777-2.568 2.565 16.754-16.778 2.567-2.564-16.753Z" fill="#DBE6FF"/><path d="m602.769 390.583 16.778-2.568 2.564 16.754-16.777 2.568-2.565-16.754ZM619.547 388.015l16.778-2.568 2.564 16.754-16.778 2.568-2.564-16.754ZM504.668 422.743l16.777-2.567 2.565 16.753-16.778 2.568-2.564-16.754Z" fill="#DBE6FF"/><path d="m521.445 420.176 16.778-2.568 2.564 16.753-16.777 2.568-2.565-16.753Z" fill="#DBE6FF"/><path d="m538.223 417.608 16.778-2.568 2.564 16.754-16.778 2.567-2.564-16.753Z" fill="#DBE6FF"/><path d="m555.001 415.04 16.777-2.568 2.564 16.754-16.777 2.568-2.564-16.754ZM571.778 412.472l16.778-2.568 2.564 16.754-16.778 2.568-2.564-16.754ZM588.556 409.904l16.778-2.567 2.564 16.753-16.778 2.568-2.564-16.754Z" fill="#DBE6FF"/><path d="m605.334 407.337 16.777-2.568 2.564 16.753-16.777 2.568-2.564-16.753ZM524.01 436.929l16.777-2.568 2.564 16.754-16.777 2.568-2.564-16.754ZM540.787 434.361l16.778-2.567 2.564 16.753-16.778 2.568-2.564-16.754ZM557.565 431.794l16.777-2.568 2.565 16.753-16.778 2.568-2.564-16.753Z" fill="#DBE6FF"/><path d="m574.342 429.226 16.778-2.568 2.564 16.754-16.777 2.567-2.565-16.753Z" fill="#DBE6FF"/><path d="m591.12 426.658 16.778-2.568 2.564 16.754-16.778 2.568-2.564-16.754ZM738.871 382.332l16.778-2.568 2.564 16.754-16.777 2.567-2.565-16.753Z" fill="#DBE6FF"/><path d="m755.649 379.764 16.778-2.568 2.564 16.754-16.778 2.568-2.564-16.754Z" fill="#DBE6FF"/><path d="m772.427 377.196 16.777-2.568 2.564 16.754-16.777 2.568-2.564-16.754Z" fill="#DBE6FF"/><path d="m789.204 374.628 16.778-2.567 2.564 16.753-16.778 2.568-2.564-16.754ZM805.982 372.061l16.777-2.568 2.565 16.753-16.778 2.568-2.564-16.753ZM724.658 401.653l16.778-2.568L744 415.839l-16.778 2.568-2.564-16.754ZM741.436 399.085l16.777-2.567 2.564 16.753L744 415.839l-2.564-16.754Z" fill="#DBE6FF"/><path d="m758.213 396.518 16.778-2.568 2.564 16.754-16.778 2.567-2.564-16.753Z" fill="#DBE6FF"/><path d="m774.991 393.95 16.777-2.568 2.564 16.754-16.777 2.568-2.564-16.754Z" fill="#DBE6FF"/><path d="m791.768 391.382 16.778-2.568 2.564 16.754-16.778 2.568-2.564-16.754ZM808.546 388.814l16.778-2.568L827.888 403l-16.778 2.568-2.564-16.754Z" fill="#DBE6FF"/><path d="m825.324 386.246 16.777-2.567 2.564 16.753L827.888 403l-2.564-16.754ZM710.444 420.975l16.778-2.568 2.564 16.754-16.777 2.567-2.565-16.753ZM727.222 418.407 744 415.839l2.564 16.754-16.778 2.568-2.564-16.754Z" fill="#DBE6FF"/><path d="m744 415.839 16.777-2.568 2.564 16.754-16.777 2.568L744 415.839ZM760.777 413.271l16.778-2.567 2.564 16.753-16.778 2.568-2.564-16.754ZM794.332 408.136l16.778-2.568 2.564 16.754-16.777 2.567-2.565-16.753ZM811.11 405.568 827.888 403l2.564 16.754-16.778 2.568-2.564-16.754Z" fill="#DBE6FF"/><path d="m827.888 403 16.777-2.568 2.564 16.754-16.777 2.568L827.888 403Z" fill="#DBE6FF"/><path d="m844.665 400.432 16.778-2.567 2.564 16.753-16.778 2.568-2.564-16.754ZM713.009 437.728l16.777-2.567 2.564 16.753-16.777 2.568-2.564-16.754Z" fill="#DBE6FF"/><path d="m729.786 435.161 16.778-2.568 2.564 16.754-16.778 2.567-2.564-16.753ZM763.341 430.025l16.778-2.568 2.564 16.754-16.777 2.568-2.565-16.754ZM830.452 419.754l16.777-2.568 2.565 16.754-16.778 2.568-2.564-16.754Z" fill="#DBE6FF"/><path d="m847.229 417.186 16.778-2.568 2.564 16.754-16.777 2.568-2.565-16.754ZM715.573 454.482l16.777-2.568 2.564 16.754-16.777 2.568-2.564-16.754ZM732.35 451.914l16.778-2.567 2.564 16.753-16.778 2.568-2.564-16.754ZM765.906 446.779l16.777-2.568 2.564 16.754-16.777 2.567-2.564-16.753ZM833.016 436.508l16.778-2.568 2.564 16.753-16.778 2.568-2.564-16.753Z" fill="#DBE6FF"/><path d="m849.794 433.94 16.777-2.568 2.564 16.754-16.777 2.567-2.564-16.753ZM718.137 471.236l16.777-2.568 2.565 16.754-16.778 2.567-2.564-16.753Z" fill="#DBE6FF"/><path d="m734.914 468.668 16.778-2.568 2.564 16.754-16.777 2.568-2.565-16.754ZM768.47 463.532l16.777-2.567 2.564 16.753-16.777 2.568-2.564-16.754ZM835.58 453.261l16.778-2.568 2.564 16.754-16.778 2.568-2.564-16.754Z" fill="#DBE6FF"/><path d="m852.358 450.693 16.777-2.567 2.565 16.753-16.778 2.568-2.564-16.754ZM720.701 487.989l16.778-2.567 2.564 16.753-16.778 2.568-2.564-16.754Z" fill="#DBE6FF"/><path d="m737.479 485.422 16.777-2.568 2.564 16.754-16.777 2.567-2.564-16.753Z" fill="#DBE6FF"/><path d="m754.256 482.854 16.778-2.568 2.564 16.754-16.778 2.568-2.564-16.754ZM771.034 480.286l16.777-2.568 2.565 16.754-16.778 2.568-2.564-16.754Z" fill="#DBE6FF"/><path d="m787.811 477.718 16.778-2.567 2.564 16.753-16.777 2.568-2.565-16.754Z" fill="#DBE6FF"/><path d="m804.589 475.151 16.778-2.568 2.564 16.753-16.778 2.568-2.564-16.753Z" fill="#DBE6FF"/><path d="m821.367 472.583 16.777-2.568 2.564 16.754-16.777 2.567-2.564-16.753ZM838.144 470.015l16.778-2.568 2.564 16.754-16.778 2.568-2.564-16.754Z" fill="#DBE6FF"/><path d="m854.922 467.447 16.778-2.568 2.564 16.754-16.778 2.568-2.564-16.754ZM740.043 502.175l16.777-2.567 2.564 16.753-16.777 2.568-2.564-16.754Z" fill="#DBE6FF"/><path d="m756.82 499.608 16.778-2.568 2.564 16.753-16.778 2.568-2.564-16.753Z" fill="#DBE6FF"/><path d="m773.598 497.04 16.778-2.568 2.564 16.754-16.778 2.567-2.564-16.753ZM790.376 494.472l16.777-2.568 2.564 16.754-16.777 2.568-2.564-16.754Z" fill="#DBE6FF"/><path d="m807.153 491.904 16.778-2.568 2.564 16.754-16.778 2.568-2.564-16.754ZM823.931 489.336l16.777-2.567 2.565 16.753-16.778 2.568-2.564-16.754Z" fill="#DBE6FF"/><path d="m840.708 486.769 16.778-2.568 2.564 16.754-16.777 2.567-2.565-16.753ZM759.384 516.361l16.778-2.568 2.564 16.754-16.777 2.568-2.565-16.754Z" fill="#DBE6FF"/><path d="m776.162 513.793 16.778-2.567 2.564 16.753-16.778 2.568-2.564-16.754Z" fill="#DBE6FF"/><path d="m792.94 511.226 16.777-2.568 2.564 16.754-16.777 2.567-2.564-16.753Z" fill="#DBE6FF"/><path d="m809.717 508.658 16.778-2.568 2.564 16.754-16.778 2.568-2.564-16.754ZM826.495 506.09l16.778-2.568 2.564 16.754-16.778 2.568-2.564-16.754ZM939.714 236.137l16.778-2.568 2.564 16.754-16.778 2.568-2.564-16.754Z" fill="#DBE6FF"/><path d="m956.492 233.569 16.778-2.568 2.564 16.754-16.778 2.568-2.564-16.754Z" fill="#DBE6FF"/><path d="m973.27 231.001 16.777-2.567 2.564 16.753-16.777 2.568-2.564-16.754ZM990.047 228.434l16.773-2.568 2.57 16.754-16.779 2.567-2.564-16.753Z" fill="#DBE6FF"/><path d="m1006.82 225.866 16.78-2.568 2.57 16.754-16.78 2.568-2.57-16.754ZM925.501 255.459l16.777-2.568 2.565 16.753-16.778 2.568-2.564-16.753Z" fill="#DBE6FF"/><path d="m942.278 252.891 16.778-2.568 2.564 16.754-16.777 2.567-2.565-16.753Z" fill="#DBE6FF"/><path d="m959.056 250.323 16.778-2.568 2.564 16.754-16.778 2.568-2.564-16.754Z" fill="#DBE6FF"/><path d="m975.834 247.755 16.777-2.568 2.564 16.754-16.777 2.568-2.564-16.754Z" fill="#DBE6FF"/><path d="m992.611 245.187 16.779-2.567 2.56 16.753-16.775 2.568-2.564-16.754ZM1009.39 242.62l16.78-2.568 2.56 16.753-16.78 2.568-2.56-16.753ZM1026.17 240.052l16.77-2.568 2.57 16.754-16.78 2.567-2.56-16.753ZM911.287 274.78l16.778-2.568 2.564 16.754-16.777 2.568-2.565-16.754Z" fill="#DBE6FF"/><path d="m928.065 272.212 16.778-2.568 2.564 16.754-16.778 2.568-2.564-16.754Z" fill="#DBE6FF"/><path d="m944.843 269.644 16.777-2.567 2.564 16.753-16.777 2.568-2.564-16.754Z" fill="#DBE6FF"/><path d="m961.62 267.077 16.778-2.568 2.564 16.753-16.778 2.568-2.564-16.753ZM995.175 261.941l16.775-2.568 2.57 16.754-16.78 2.568-2.565-16.754Z" fill="#DBE6FF"/><path d="m1011.95 259.373 16.78-2.568 2.56 16.754-16.77 2.568-2.57-16.754ZM1028.73 256.805l16.78-2.567 2.56 16.753-16.78 2.568-2.56-16.754Z" fill="#DBE6FF"/><path d="m1045.51 254.238 16.78-2.568 2.56 16.754-16.78 2.567-2.56-16.753ZM913.852 291.534l16.777-2.568 2.564 16.754-16.777 2.567-2.564-16.753Z" fill="#DBE6FF"/><path d="m930.629 288.966 16.778-2.568 2.564 16.754-16.778 2.568-2.564-16.754ZM964.184 283.83l16.778-2.568 2.564 16.754-16.777 2.568-2.565-16.754ZM1031.29 273.559l16.78-2.568 2.57 16.754-16.78 2.568-2.57-16.754ZM1048.07 270.991l16.78-2.567 2.56 16.753-16.77 2.568-2.57-16.754Z" fill="#DBE6FF"/><path d="m916.416 308.287 16.777-2.567 2.564 16.753-16.777 2.568-2.564-16.754Z" fill="#DBE6FF"/><path d="m933.193 305.72 16.778-2.568 2.564 16.753-16.778 2.568-2.564-16.753ZM966.749 300.584l16.777-2.568 2.564 16.754-16.777 2.568-2.564-16.754ZM1033.86 290.313l16.78-2.568 2.56 16.754-16.78 2.567-2.56-16.753ZM1050.64 287.745l16.77-2.568 2.57 16.754-16.78 2.568-2.56-16.754ZM918.98 325.041l16.777-2.568 2.565 16.754-16.778 2.568-2.564-16.754Z" fill="#DBE6FF"/><path d="m935.757 322.473 16.778-2.568 2.564 16.754-16.777 2.568-2.565-16.754ZM969.313 317.338l16.777-2.568 2.564 16.754-16.777 2.567-2.564-16.753ZM1036.42 307.066l16.78-2.567 2.56 16.753-16.77 2.568-2.57-16.754Z" fill="#DBE6FF"/><path d="m1053.2 304.499 16.78-2.568 2.56 16.754-16.78 2.567-2.56-16.753ZM921.544 341.795l16.778-2.568 2.564 16.754-16.778 2.567-2.564-16.753ZM938.322 339.227l16.777-2.568 2.564 16.754-16.777 2.568-2.564-16.754Z" fill="#DBE6FF"/><path d="m955.099 336.659 16.778-2.568 2.564 16.754-16.778 2.568-2.564-16.754Z" fill="#DBE6FF"/><path d="m971.877 334.091 16.777-2.567 2.565 16.753-16.778 2.568-2.564-16.754Z" fill="#DBE6FF"/><path d="m988.654 331.524 16.776-2.568 2.57 16.753-16.781 2.568-2.565-16.753Z" fill="#DBE6FF"/><path d="m1005.43 328.956 16.78-2.568 2.56 16.754-16.77 2.567-2.57-16.753ZM1022.21 326.388l16.78-2.568 2.56 16.754-16.78 2.568-2.56-16.754Z" fill="#DBE6FF"/><path d="m1038.99 323.82 16.77-2.568 2.57 16.754-16.78 2.568-2.56-16.754ZM1055.76 321.252l16.78-2.567 2.57 16.753-16.78 2.568-2.57-16.754ZM940.886 355.981l16.777-2.568 2.564 16.754-16.777 2.567-2.564-16.753Z" fill="#DBE6FF"/><path d="m957.663 353.413 16.778-2.568 2.564 16.754-16.778 2.568-2.564-16.754Z" fill="#DBE6FF"/><path d="m974.441 350.845 16.778-2.568 2.564 16.754-16.778 2.568-2.564-16.754Z" fill="#DBE6FF"/><path d="m991.219 348.277 16.781-2.568 2.56 16.754-16.777 2.568-2.564-16.754ZM1008 345.709l16.77-2.567 2.57 16.753-16.78 2.568-2.56-16.754Z" fill="#DBE6FF"/><path d="m1024.77 343.142 16.78-2.568 2.57 16.754-16.78 2.567-2.57-16.753Z" fill="#DBE6FF"/><path d="m1041.55 340.574 16.78-2.568 2.56 16.754-16.77 2.568-2.57-16.754ZM960.227 370.167l16.778-2.568 2.564 16.753-16.777 2.568-2.565-16.753Z" fill="#DBE6FF"/><path d="m977.005 367.599 16.778-2.568 2.564 16.754-16.778 2.567-2.564-16.753Z" fill="#DBE6FF"/><path d="m993.783 365.031 16.777-2.568 2.56 16.754-16.773 2.568-2.564-16.754Z" fill="#DBE6FF"/><path d="m1010.56 362.463 16.78-2.568 2.56 16.754-16.78 2.568-2.56-16.754ZM1027.34 359.895l16.78-2.567 2.56 16.753-16.78 2.568-2.56-16.754ZM1175.09 315.569l16.78-2.568 2.56 16.754-16.78 2.568-2.56-16.754ZM1191.87 313.001l16.77-2.567 2.57 16.753-16.78 2.568-2.56-16.754ZM1208.64 310.434l16.78-2.568 2.57 16.753-16.78 2.568-2.57-16.753Z" fill="#DBE6FF"/><path d="m1225.42 307.866 16.78-2.568 2.56 16.754-16.77 2.567-2.57-16.753Z" fill="#DBE6FF"/><path d="m1242.2 305.298 16.78-2.568 2.56 16.754-16.78 2.568-2.56-16.754ZM1160.88 334.891l16.77-2.568 2.57 16.753-16.78 2.568-2.56-16.753Z" fill="#DBE6FF"/><path d="m1177.65 332.323 16.78-2.568 2.57 16.754-16.78 2.567-2.57-16.753Z" fill="#DBE6FF"/><path d="m1194.43 329.755 16.78-2.568 2.56 16.754-16.77 2.568-2.57-16.754Z" fill="#DBE6FF"/><path d="m1211.21 327.187 16.78-2.568 2.56 16.754-16.78 2.568-2.56-16.754ZM1227.99 324.619l16.77-2.567 2.57 16.753-16.78 2.568-2.56-16.754Z" fill="#DBE6FF"/><path d="m1244.76 322.052 16.78-2.568 2.57 16.753-16.78 2.568-2.57-16.753Z" fill="#DBE6FF"/><path d="m1261.54 319.484 16.78-2.568 2.56 16.754-16.77 2.567-2.57-16.753ZM1146.66 354.212l16.78-2.568 2.56 16.754-16.77 2.568-2.57-16.754Z" fill="#DBE6FF"/><path d="m1163.44 351.644 16.78-2.568 2.56 16.754-16.78 2.568-2.56-16.754ZM1180.22 349.076l16.78-2.567 2.56 16.753-16.78 2.568-2.56-16.754Z" fill="#DBE6FF"/><path d="m1197 346.509 16.77-2.568 2.57 16.754-16.78 2.567-2.56-16.753ZM1230.55 341.373l16.78-2.568 2.56 16.754-16.78 2.568-2.56-16.754Z" fill="#DBE6FF"/><path d="m1247.33 338.805 16.78-2.568 2.56 16.754-16.78 2.568-2.56-16.754ZM1264.11 336.237l16.77-2.567 2.57 16.753-16.78 2.568-2.56-16.754ZM1280.88 333.67l16.78-2.568 2.56 16.754-16.77 2.567-2.57-16.753ZM1149.23 370.966l16.77-2.568 2.57 16.754-16.78 2.567-2.56-16.753Z" fill="#DBE6FF"/><path d="m1166 368.398 16.78-2.568 2.57 16.754-16.78 2.568-2.57-16.754ZM1199.56 363.262l16.78-2.567 2.56 16.753-16.78 2.568-2.56-16.754ZM1266.67 352.991l16.78-2.568 2.56 16.754-16.78 2.568-2.56-16.754ZM1283.45 350.423l16.77-2.567 2.57 16.753-16.78 2.568-2.56-16.754Z" fill="#DBE6FF"/><path d="m1151.79 387.719 16.78-2.567 2.56 16.753-16.78 2.568-2.56-16.754Z" fill="#DBE6FF"/><path d="m1168.57 385.152 16.78-2.568 2.56 16.754-16.78 2.567-2.56-16.753ZM1202.12 380.016l16.78-2.568 2.57 16.754-16.78 2.568-2.57-16.754ZM1269.23 369.745l16.78-2.568 2.57 16.754-16.78 2.568-2.57-16.754Z" fill="#DBE6FF"/><path d="m1286.01 367.177 16.78-2.568 2.56 16.754-16.77 2.568-2.57-16.754ZM1154.35 404.473l16.78-2.568 2.57 16.754-16.78 2.568-2.57-16.754ZM1171.13 401.905l16.78-2.567 2.56 16.753-16.77 2.568-2.57-16.754ZM1204.69 396.77l16.78-2.568 2.56 16.754-16.78 2.567-2.56-16.753ZM1271.8 386.499l16.78-2.568 2.56 16.753-16.78 2.568-2.56-16.753Z" fill="#DBE6FF"/><path d="m1288.58 383.931 16.77-2.568 2.57 16.754-16.78 2.567-2.56-16.753ZM1156.92 421.227l16.78-2.568 2.56 16.754-16.78 2.568-2.56-16.754Z" fill="#DBE6FF"/><path d="m1173.7 418.659 16.77-2.568 2.57 16.754-16.78 2.568-2.56-16.754Z" fill="#DBE6FF"/><path d="m1190.47 416.091 16.78-2.568 2.57 16.754-16.78 2.568-2.57-16.754ZM1207.25 413.523l16.78-2.567 2.56 16.753-16.77 2.568-2.57-16.754Z" fill="#DBE6FF"/><path d="m1224.03 410.956 16.78-2.568 2.56 16.754-16.78 2.567-2.56-16.753ZM1240.81 408.388l16.77-2.568 2.57 16.754-16.78 2.568-2.56-16.754Z" fill="#DBE6FF"/><path d="m1257.58 405.82 16.78-2.568 2.57 16.754-16.78 2.568-2.57-16.754Z" fill="#DBE6FF"/><path d="m1274.36 403.252 16.78-2.568 2.56 16.754-16.77 2.568-2.57-16.754ZM1291.14 400.684l16.78-2.567 2.56 16.753-16.78 2.568-2.56-16.754ZM1176.26 435.413l16.78-2.568 2.56 16.754-16.78 2.567-2.56-16.753Z" fill="#DBE6FF"/><path d="m1193.04 432.845 16.78-2.568 2.56 16.754-16.78 2.568-2.56-16.754ZM1209.82 430.277l16.77-2.568 2.57 16.754-16.78 2.568-2.56-16.754ZM1226.59 427.709l16.78-2.567 2.57 16.753-16.78 2.568-2.57-16.754Z" fill="#DBE6FF"/><path d="m1243.37 425.142 16.78-2.568 2.56 16.753-16.77 2.568-2.57-16.753ZM1260.15 422.574l16.78-2.568 2.56 16.754-16.78 2.567-2.56-16.753ZM1276.93 420.006l16.77-2.568 2.57 16.754-16.78 2.568-2.56-16.754ZM1195.6 449.599l16.78-2.568 2.56 16.753-16.77 2.568-2.57-16.753ZM1212.38 447.031l16.78-2.568 2.56 16.754-16.78 2.567-2.56-16.753Z" fill="#DBE6FF"/><path d="m1229.16 444.463 16.78-2.568 2.56 16.754-16.78 2.568-2.56-16.754ZM1245.94 441.895l16.77-2.568 2.57 16.754-16.78 2.568-2.56-16.754ZM1262.71 439.327l16.78-2.567 2.56 16.753-16.77 2.568-2.57-16.754Z" fill="#DBE6FF"/></svg>