<svg width="24" height="23" viewBox="0 0 24 23" fill="none" xmlns="http://www.w3.org/2000/svg">
<g id="vuesax/bold/medal">
<g id="medal">
<path id="Vector" d="M12 14.3571C15.5504 14.3571 18.4286 11.5856 18.4286 8.16667C18.4286 4.74777 15.5504 1.9762 12 1.9762C8.44958 1.9762 5.57141 4.74777 5.57141 8.16667C5.57141 11.5856 8.44958 14.3571 12 14.3571Z" fill="#CF5555"/>
<path id="Vector_2" d="M15.6095 14.9381C15.9238 14.7761 16.2857 15.0142 16.2857 15.3666V19.9857C16.2857 20.8428 15.6857 21.2619 14.9428 20.9095L12.3904 19.7C12.1714 19.6047 11.8285 19.6047 11.6095 19.7L9.05709 20.9095C8.31423 21.2523 7.71423 20.8333 7.71423 19.9761L7.73328 15.3666C7.73328 15.0142 8.10471 14.7857 8.40947 14.9381C9.48566 15.4809 10.7047 15.7857 11.9999 15.7857C13.2952 15.7857 14.5238 15.4809 15.6095 14.9381Z" fill="#CF5555"/>
</g>
</g>
</svg>
