<svg width="24" height="23" viewBox="0 0 24 23" fill="none" xmlns="http://www.w3.org/2000/svg">
<g id="vuesax/bold/ranking">
<g id="ranking">
<path id="Vector" d="M6.92382 13.4048H4.38096C3.33334 13.4048 2.4762 14.2619 2.4762 15.3095V20.0715C2.4762 20.5953 2.90477 21.0238 3.42858 21.0238H6.92382C7.44763 21.0238 7.8762 20.5953 7.8762 20.0715V14.3572C7.8762 13.8334 7.44763 13.4048 6.92382 13.4048Z" fill="#4281BF"/>
<path id="Vector_2" d="M13.2666 9.59521H10.7237C9.67611 9.59521 8.81897 10.4524 8.81897 11.5V20.0714C8.81897 20.5952 9.24754 21.0238 9.77135 21.0238H14.219C14.7428 21.0238 15.1714 20.5952 15.1714 20.0714V11.5C15.1714 10.4524 14.3237 9.59521 13.2666 9.59521Z" fill="#4281BF"/>
<path id="Vector_3" d="M19.619 16.2618H17.0762C16.5524 16.2618 16.1238 16.6904 16.1238 17.2142V20.0714C16.1238 20.5952 16.5524 21.0237 17.0762 21.0237H20.5714C21.0952 21.0237 21.5238 20.5952 21.5238 20.0714V18.1666C21.5238 17.119 20.6666 16.2618 19.619 16.2618Z" fill="#4281BF"/>
<path id="Vector_4" d="M14.8667 4.69046C15.1619 4.39523 15.2762 4.04284 15.181 3.73808C15.0857 3.43332 14.7905 3.21427 14.3714 3.14761L13.4572 2.99523C13.4191 2.99523 13.3334 2.92856 13.3143 2.89046L12.8095 1.88094C12.4286 1.10951 11.5619 1.10951 11.181 1.88094L10.6762 2.89046C10.6667 2.92856 10.581 2.99523 10.5429 2.99523L9.62859 3.14761C9.20954 3.21427 8.92383 3.43332 8.81907 3.73808C8.72383 4.04284 8.83811 4.39523 9.13335 4.69046L9.83811 5.40475C9.87621 5.43332 9.90478 5.54761 9.89526 5.5857L9.69526 6.46189C9.54288 7.11904 9.79049 7.41427 9.9524 7.52856C10.1143 7.64284 10.4667 7.79523 11.0476 7.45237L11.9048 6.94761C11.9429 6.91903 12.0667 6.91903 12.1048 6.94761L12.9524 7.45237C13.2191 7.61427 13.4381 7.66189 13.6095 7.66189C13.8095 7.66189 13.9524 7.5857 14.0381 7.52856C14.2 7.41427 14.4476 7.11904 14.2953 6.46189L14.0953 5.5857C14.0857 5.53808 14.1143 5.43332 14.1524 5.40475L14.8667 4.69046Z" fill="#4281BF"/>
</g>
</g>
</svg>
