<svg width="24" height="24" viewBox="0 0 24 24" fill="none" xmlns="http://www.w3.org/2000/svg">
<g id="vuesax/bold/video-square">
<g id="video-square">
<path id="Vector" d="M15.9906 2.47632H8.00965C4.54298 2.47632 2.47632 4.54298 2.47632 8.00965V15.9811C2.47632 19.4573 4.54298 21.5239 8.00965 21.5239H15.9811C19.4477 21.5239 21.5144 19.4573 21.5144 15.9906V8.00965C21.5239 4.54298 19.4573 2.47632 15.9906 2.47632ZM14.5335 13.6477L13.3144 14.3525L12.0954 15.0573C10.5239 15.962 9.23822 15.2192 9.23822 13.4097V12.0001V10.5906C9.23822 8.77156 10.5239 8.03822 12.0954 8.94299L13.3144 9.64775L14.5335 10.3525C16.1049 11.2573 16.1049 12.743 14.5335 13.6477Z" fill="#DABE77"/>
</g>
</g>
</svg>
