<svg width="17" height="16" viewBox="0 0 17 16" fill="none" xmlns="http://www.w3.org/2000/svg">
<g id="bxs:sort-alt">
<path id="Vector" d="M4.65065 7.33405H12.3486C12.9233 7.33405 13.2286 6.65405 12.8466 6.22405L8.99798 1.89405C8.93555 1.82358 8.85888 1.76717 8.77303 1.72854C8.68719 1.6899 8.59412 1.66992 8.49998 1.66992C8.40584 1.66992 8.31277 1.6899 8.22692 1.72854C8.14108 1.76717 8.06441 1.82358 8.00198 1.89405L4.15198 6.22405C3.76998 6.65405 4.07531 7.33405 4.65065 7.33405ZM8.00131 14.1067C8.06374 14.1772 8.14041 14.2336 8.22626 14.2722C8.3121 14.3109 8.40517 14.3308 8.49931 14.3308C8.59345 14.3308 8.68652 14.3109 8.77237 14.2722C8.85821 14.2336 8.93488 14.1772 8.99731 14.1067L12.846 9.77671C13.2286 9.34738 12.9233 8.66738 12.348 8.66738H4.65065C4.07598 8.66738 3.77064 9.34738 4.15264 9.77738L8.00131 14.1067Z" fill="#9E9E9E"/>
</g>
</svg>
