<svg width="8" height="9" viewBox="0 0 8 9" fill="none" xmlns="http://www.w3.org/2000/svg">
<g id="bi:caret-down-fill">
<path id="Vector" d="M3.62424 6.07L1.22624 3.329C0.943238 3.0065 1.17324 2.5 1.60274 2.5H6.39874C6.49486 2.49992 6.58897 2.52754 6.66979 2.57957C6.75062 2.6316 6.81473 2.70582 6.85446 2.79335C6.89419 2.88087 6.90785 2.978 6.8938 3.07309C6.87975 3.16818 6.83858 3.2572 6.77524 3.3295L4.37724 6.0695C4.33031 6.1232 4.27243 6.16625 4.20749 6.19574C4.14255 6.22523 4.07206 6.24049 4.00074 6.24049C3.92942 6.24049 3.85892 6.22523 3.79398 6.19574C3.72905 6.16625 3.67117 6.1232 3.62424 6.0695V6.07Z" fill="#9E9E9E"/>
</g>
</svg>
