<svg xmlns="http://www.w3.org/2000/svg" xmlns:xlink="http://www.w3.org/1999/xlink" version="1.1" width="14" height="14" viewBox="0 0 256 256" xml:space="preserve">
  <g transform="translate(1.4065934065934016 1.4065934065934016) scale(2.81 2.81)">
    <path d="M 1.2 28.321 l 14.931 8.62 l 14.931 8.62 c 1.599 0.923 3.599 -0.231 3.599 -2.078 l 0 -10.865 C 59.052 35.603 78.01 56.43 78.01 81.616 c 0 0.985 0.799 1.784 1.784 1.784 h 8.423 c 0.985 0 1.784 -0.799 1.784 -1.784 c 0 -31.804 -24.321 -58.03 -55.341 -61.068 l 0 -11.545 c 0 -1.847 -1.999 -3.001 -3.599 -2.078 l -14.931 8.62 L 1.2 24.166 C -0.4 25.089 -0.4 27.398 1.2 28.321 z" fill="currentColor"/>
  </g>
</svg>
