<?xml version="1.0" encoding="utf-8" ?><svg xmlns="http://www.w3.org/2000/svg" xmlns:xlink="http://www.w3.org/1999/xlink" viewBox="0 0 1024 1024"><path fill="#56A08F" d="M969.766 48.6815C971.405 48.4529 974.459 48.0522 976.033 48.5572C977.412 48.9996 978.687 49.8562 979.296 51.2214C982.005 57.2936 981.373 73.4447 981.85 80.9684C985.129 132.75 987.143 184.445 966.834 233.423C947.28 280.294 909.813 317.412 862.761 336.526C852.154 340.895 841.269 344.555 830.177 347.481C814.774 351.44 798.818 353.473 783.063 355.49C773.727 356.686 763.823 358.307 754.396 357.898C751.626 357.777 749.237 357.311 746.663 356.244C741.758 348.9 732.628 299.415 731.303 288.195C725.106 235.745 736.994 182.034 770.052 140.201C816.709 81.1589 898.018 57.0198 969.766 48.6815ZM765.113 324.238C780.226 304.106 796.997 284.603 810.43 263.327C795.731 233.305 786.256 201.077 773.224 170.384C772.172 167.906 770.531 162.853 768.328 161.262C762.064 170.8 756.358 180.394 752.061 191.016C737.313 227.471 737.338 271.419 745.187 309.491C747.353 319.999 749.888 330.708 753.506 340.818C756.304 336.173 761.173 327.886 765.113 324.238ZM761.851 346.06C792.676 344.847 824.771 341.657 853.372 329.268C880.154 318.019 906.758 301.587 926.583 280.113C902.227 277.276 877.672 275.207 853.249 272.963C842.406 271.966 829.996 271.886 819.474 269.465C806.885 285.881 794.424 302.394 782.093 319.004C775.371 328.031 768.913 337.294 761.851 346.06ZM775.923 149.028C778.076 156.311 781.134 163.404 783.947 170.451L797.46 204.279C803.486 219.708 808.861 240.194 817.529 254.066C820.017 252.272 822.26 248.137 824.09 245.567C829.764 237.594 835.603 228.004 842.858 221.434C837.636 209.948 832.635 198.363 827.859 186.685C824.905 179.436 804.963 126.015 802.237 122.967C793.84 129.655 780.964 139.756 775.923 149.028ZM932.396 270.086C933.862 270.296 934.393 270.566 935.66 269.629C942.01 264.937 951.012 245.382 954.453 237.702C945.183 235.814 935.195 235.491 925.77 234.622L872.566 229.679C865.265 228.982 857.22 228.899 850.088 227.4C841.673 237.597 834.138 248.683 826.428 259.427C849.458 262.638 872.782 264.4 895.951 266.301C907.068 267.214 921.792 267.309 932.396 270.086ZM809.604 115.565C816.188 132.42 823.588 148.971 830.561 165.667C836.449 179.762 841.846 194.08 848.037 208.044L849.548 211.297C857.678 201.461 865.581 191.375 872.023 180.325C867.73 170.233 842.387 100.4 838.738 98.4037C828.783 103.794 818.909 109.08 809.604 115.565ZM946.877 226.451C951.137 226.659 955.363 227.146 959.601 227.615C962.47 216.641 965.689 205.656 968.044 194.562C953.54 193.559 939.059 191.797 924.577 190.481C909.977 189.154 895.328 188.291 880.745 186.824C873.535 197.253 866.338 207.799 858.648 217.878C878.843 219.774 899.025 221.81 919.192 223.984C928.267 224.892 937.777 226.401 946.877 226.451ZM955.477 140.207C961.675 140.677 967.867 141.219 974.053 141.833C973.964 131.536 973.812 121.24 973.596 110.945C962.299 109.954 950.563 108.612 939.25 108.387C932.247 118.118 924.185 126.997 917.376 136.889C930.066 138.054 942.771 139.23 955.477 140.207ZM958.26 60.2157C947.739 61.3217 937.248 63.8758 926.977 66.3513C929.974 74.3305 932.9 82.3361 935.755 90.3674L937.357 95.1937C943.825 85.2651 956.792 70.5933 960.754 60.3341C959.697 59.8364 959.384 60.0589 958.26 60.2157ZM911.599 145.837C903.559 156.18 895.443 166.581 888.154 177.473C902.651 177.865 917.217 179.125 931.647 180.511C939.073 181.225 946.617 182.308 954.063 182.628C959.671 183.432 965.293 183.615 970.904 184.27C972.346 173.601 973.42 162.887 974.124 152.144L934.269 148.543C926.906 147.856 918.787 147.562 911.599 145.837ZM946.196 99.4522C948.249 99.5505 950.342 99.5711 952.378 99.8577C959.26 100.358 966.147 100.796 973.037 101.171C972.818 95.0712 973.343 73.2116 969.323 69.3677C960.928 78.6959 954.091 89.6494 946.196 99.4522ZM916.44 68.5835C906.945 70.9829 897.764 73.7242 888.536 76.9988C894.304 93.8163 899.231 111.232 907.42 127.064L910.183 131.361C917.242 122.053 923.766 112.587 930.109 102.773C928.059 96.7638 920.309 71.2989 916.44 68.5835ZM878.609 80.0868C868.339 84.0039 858.022 87.6089 848.014 92.184C853.522 106.669 859.49 120.93 865.206 135.328C869.27 145.563 872.982 155.966 877.19 166.137L879.445 172.119C887.026 162.134 894.173 151.495 902.422 142.064C899.079 132.674 883.278 84.6983 878.609 80.0868Z"/><path fill="#56A08F" d="M196.797 80.2079C197.979 80.0836 199.167 80.0312 200.355 80.0512C245.55 80.6665 305.847 134.937 336.043 165.867C360.755 155.941 385.149 141.723 411.646 137.199C426.155 134.722 440.818 136.592 453.01 145.295C463.531 152.843 470.662 164.226 472.864 176.986C474.934 189.408 471.318 202.453 463.93 212.566C455.943 223.5 443.975 229.097 430.875 231.093C429.728 231.213 428.58 231.312 427.43 231.392C392.383 233.723 359.366 199.849 334.811 178.511C310.811 187.3 286.3 193.836 260.884 196.958C229.095 200.863 188.733 199.326 162.719 178.767C151.808 170.071 144.809 157.387 143.271 143.52C141.634 128.565 145.52 113.408 155.01 101.629C165.719 88.3357 180.125 82.052 196.797 80.2079ZM165.602 166.932C168.494 169.618 171.522 172.011 174.701 174.348C189.056 156.823 196.813 134.481 194.576 111.776C194.165 107.599 192.51 94.4569 189.884 91.606C175.942 96.0061 164.919 102.527 157.948 115.887C152.625 126.255 151.678 138.323 155.319 149.395C157.499 156.069 160.995 161.685 165.602 166.932ZM381.303 202.752L386.131 206.581L392.906 211.385C391.764 193.05 395.14 175.363 403.266 158.855C404.637 156.072 408.951 150.811 409.411 148.223C403.597 149.69 397.477 150.908 392.014 153.428C383.969 169.132 379.869 184.985 381.303 202.752ZM364.803 165.527C360.901 167.306 356.968 169.017 353.006 170.658C352.951 173.534 352.902 176.336 352.436 179.181C354.159 180.915 355.827 182.68 357.788 184.149L363.505 189.21C363.437 185.154 365.391 167.118 365.176 165.927C365.143 165.748 364.927 165.661 364.803 165.527ZM288.852 181.168C291.947 180.356 295.037 179.529 298.123 178.687L304.854 177.09C306.779 169.339 308.358 161.664 308.637 153.643C304.812 150.125 300.79 146.828 296.591 143.768C296.474 157.016 294.111 168.972 288.852 181.168ZM268.619 185.39L278.028 183.4C280.046 182.959 282.055 182.491 284.102 182.201C289.895 168.336 293.286 155.383 292.459 140.247C288.764 136.728 285.014 133.432 280.685 130.708C281.449 149.464 277.415 168.768 268.619 185.39ZM421 146.76C419.006 146.847 417.004 146.979 415.009 146.99C405.702 162.988 398.369 177.41 396.727 196.213C396.218 202.029 396.201 208.115 397.597 213.815C397.629 213.945 397.667 214.073 397.702 214.201C401.246 215.569 404.783 217.038 408.381 218.252L413.726 220.124C408.777 194.46 414.587 168.684 428.662 146.797L421 146.76ZM369.18 163.492C367.786 173.305 366.89 182.956 368.135 192.846L373.222 196.445C374.593 197.56 375.995 198.651 377.335 199.804C376.079 189.286 377.953 177.529 381.449 167.577C381.975 166.077 386.622 156.202 385.979 155.615C380.436 158.382 374.883 161.069 369.18 163.492ZM311.693 156.29C311.853 162.724 311.097 169.038 310.32 175.411C313.923 174.226 317.545 173.1 321.185 172.035C322.689 171.454 324.185 170.853 325.673 170.232C321.378 165.025 316.837 160.653 311.693 156.29ZM246.531 187.546C251.427 187.295 256.246 187.006 261.11 186.355C262.565 186.266 262.992 186.244 263.917 185.072C273.309 173.173 278 141.775 276.619 127.187C272.089 123.01 267.133 119.321 261.833 116.179C264.436 141.561 259.19 165.412 246.531 187.546ZM417.862 220.925C421.606 221.195 425.392 221.568 429.121 220.95L432.345 220.385C433.952 217.433 431.859 205.383 431.76 201.413C431.691 198.656 431.978 195.819 432.275 193.078C433.788 179.098 439.004 165.44 445.06 152.839C440.776 150.986 436.521 149.26 432.098 147.751C418.982 171.346 412.561 193.889 417.862 220.925ZM223.649 187.428C229.302 187.955 234.984 188.117 240.658 187.913C243.788 184.776 245.936 180.076 247.734 176.069C254.739 160.461 258.663 144.15 258.585 126.987C258.564 122.428 258.238 118.088 257.112 113.656C252.383 109.074 246.686 105.724 240.766 102.9C244.415 134.102 241.796 160.63 223.649 187.428ZM445.462 214.575C454.254 208.204 460.658 199.654 462.344 188.73C463.812 179.211 460.667 170.076 454.971 162.479C452.981 159.825 450.611 157.631 448.247 155.323C438.627 177.546 433.671 194.908 437 219.342C439.877 217.859 442.825 216.465 445.462 214.575ZM235.749 100.548C230.249 97.8987 224.6 95.5676 218.832 93.5662C225.061 120.605 223.196 147.779 208.221 171.686C205.519 176 202.437 180.368 198.875 184.017C204.503 185.146 210.166 186.215 215.882 186.796C217.462 186.929 217.902 187.118 219.221 186.105C221.543 184.322 223.155 180.159 224.472 177.537C232.89 160.774 238.107 143.699 238.317 124.804C238.409 116.592 237.472 108.566 235.749 100.548ZM178.167 176.686C182.192 178.419 189.82 182.56 194.271 182.069L195.396 181.227C212.524 159.18 220.702 137.325 217.258 109.144C216.541 103.463 215.482 97.8308 214.087 92.2777C207.407 90.859 201.227 90.201 194.399 90.6046C201.975 112.745 200.085 138.85 189.838 159.841C186.848 165.966 182.944 171.807 178.167 176.686Z"/><path fill="#56A08F" d="M310.253 628.169C314.281 628.203 318.474 628.651 322.408 629.525C342.579 634.006 353.74 649.793 364.159 666.248C365.926 664.65 368.016 663.339 370.147 662.279C383.124 655.823 398.768 655.783 412.329 660.366C426.929 665.408 438.91 676.075 445.609 689.993C451.65 702.457 452.506 716.194 447.904 729.254C437.153 759.768 403.757 774.813 376.68 787.879C363.928 794.208 350.484 799.089 337.156 804.039C329.766 806.784 322.145 809.332 315.082 812.846C308.339 804.473 302.132 795.503 295.894 786.748C276.786 759.931 254.251 727.775 251.629 693.97C250.313 677 254.603 661.138 265.91 648.22C277.437 635.051 293.12 629.282 310.253 628.169ZM317.73 802.746C338.09 792.941 359.831 786.321 380.128 776.17C402.23 764.946 430.47 752.243 438.744 726.848C442.423 715.633 441.399 703.406 435.907 692.959C429.915 681.318 418.752 671.914 406.219 668.078C392.871 663.992 378.194 667.837 366.257 674.339C363.512 675.861 360.797 677.435 358.112 679.06C352.184 662.917 344.547 649.125 328.227 641.636C322.377 638.952 315.753 637.39 309.297 637.678C294.488 639.491 280.862 644.051 271.315 656.186C262.716 667.115 259.796 681.911 261.47 695.504C265.773 730.448 297.04 774.735 317.73 802.746Z"/><path fill="#56A08F" d="M337.899 705.261C349.94 703.477 361.141 711.809 362.895 723.855C364.65 735.9 356.291 747.081 344.241 748.806C332.233 750.526 321.099 742.201 319.35 730.197C317.602 718.193 325.899 707.038 337.899 705.261Z"/><path fill="#56A08F" d="M182.277 344.761C188.542 347.584 194.348 351.91 200.075 355.696C207.457 360.578 214.907 365.386 222.08 370.573C220.572 373.909 219.152 377.285 217.822 380.697C220.667 381.878 223.456 383.099 226.216 384.468C224.695 387.487 223.384 390.629 222.014 393.72C227.458 398.033 232.373 403.946 236.288 409.663C248.767 427.888 253.105 451.413 248.968 473.024C244.622 495.727 229.47 515.992 210.496 528.779C189.552 542.893 164.325 544.011 140.181 539.193C139.124 541.432 137.855 543.586 136.661 545.755C142.94 548.856 148.908 552.691 154.993 556.166C166.059 562.419 177.09 568.736 188.083 575.118C185.597 580.593 182.179 585.639 179.683 591.15C164.178 583.28 149.449 574.202 134.379 565.56C105.311 548.532 75.9598 531.991 46.3389 515.943C49.1928 510.542 52.0785 505.158 54.9958 499.791C62.3154 502.878 69.2641 507.239 76.186 511.124C85.159 516.162 94.2969 521.037 103.018 526.494L105.924 520.734C110.393 512.563 115.184 504.573 120.286 496.782C111.958 491.724 102.853 487.956 94.6254 482.701C91.9162 480.971 88.4169 478.693 87.6763 475.388C88.0762 473.626 89.4095 472.361 90.5537 471.024C98.0591 474.416 104.928 479.241 112.189 483.136C118.636 486.594 154.299 502.608 156.439 507.84C155.372 511.984 153.283 515.94 151.514 519.827C158.613 520.88 165.465 521.681 172.639 520.838C188.962 518.917 205.314 510.054 215.393 497.012C225.771 483.55 230.363 466.511 228.155 449.657C225.589 429.809 214.108 416.118 198.674 404.324C189.671 418.758 179.678 433.522 172.622 449C174.872 450.55 177.254 451.934 179.579 453.369L174.637 459.247C170.004 456.514 165.307 453.892 160.549 451.382C158.109 456.133 155.292 460.681 152.127 464.983C141.166 460.565 132.174 453.698 122.126 447.745L131.378 433.178C127.214 430.979 123.362 428.328 119.46 425.703C120.55 423.719 121.827 421.816 123.029 419.897C125.854 421.748 128.733 423.469 131.654 425.163C142.193 407.035 153.116 389.133 164.417 371.469C169.954 362.638 175.252 352.492 182.277 344.761Z"/><path fill="#56A08F" d="M149.777 746.15C154.766 746.242 159.548 747.403 163.366 750.772C171.365 757.829 172.163 770.965 172.784 780.825C175.25 781.01 177.755 781.333 180.171 781.861C188.981 783.789 199.082 787.57 204.001 795.683C206.497 799.77 207.193 804.708 205.925 809.326C203.136 819.817 193.225 826.052 184.567 831.338C186.498 835.404 188.158 839.588 189.133 843.992C190.852 851.755 190.941 861.369 186.341 868.169C183.782 871.951 179.95 874.345 175.471 875.162C165.404 876.997 153.144 871.404 144.969 865.999C137.952 875.024 130.748 882.192 119.873 886.242C118.312 886.587 116.744 886.994 115.144 887.106C110.813 887.411 106.554 885.988 103.418 882.962C95.555 875.377 95.3453 862.089 95.3106 851.986C84.4549 849.847 71.4661 846.799 64.8509 837.029C62.1372 833.089 61.1709 828.202 62.1806 823.526C64.538 812.29 75.7959 804.467 84.8428 798.757C83.4574 796.108 82.2536 793.367 81.2396 790.555C78.7027 783.334 77.0858 773.688 80.736 766.601C82.9539 762.295 86.9979 759.437 91.5867 758.095C103.038 754.748 114.881 760.457 124.753 765.721C131.059 756.873 138.831 748.705 149.777 746.15ZM115.03 791.272C110.781 802.046 107.19 812.687 104.19 823.875C110.972 830.902 117.714 838.808 123.652 846.567L129.395 845.509C138.501 844.106 147.737 842.6 156.52 839.754C160.634 829.492 164.318 818.89 166.611 808.058C162.489 803.346 147.821 786.725 142.748 785.159C142.596 785.112 142.43 785.146 142.271 785.14C133.104 786.802 124.116 789.238 115.03 791.272ZM82.6643 844.19C86.9184 845.079 91.1821 846.092 95.4636 846.827C95.6868 838.977 97.305 830.578 99.066 822.926C95.9035 819.393 87.7447 803.667 86.2069 802.976C78.3565 807.839 68.8796 814.898 66.7226 824.462C65.9135 828.049 66.4547 831.553 68.4363 834.664C71.5789 839.598 77.3043 842.361 82.6643 844.19ZM158.536 843.33C155.48 850.035 151.797 856.177 147.774 862.328C151.216 864.096 154.666 866.067 158.29 867.425C164.005 869.923 170.91 872.491 177.049 870.017C180.742 868.529 183.346 865.376 184.737 861.71C187.614 854.131 186.188 843.847 182.827 836.621C182.416 835.736 181.858 834.213 181.075 833.611C173.681 837.296 165.975 839.869 158.536 843.33ZM141.375 864.191C136.741 861.364 126.112 852.411 122.461 851.272C114.838 851.762 107.252 852.224 99.6079 852.018C99.8174 860.708 99.8445 873.007 106.748 879.432C109.632 882.116 112.731 882.8 116.562 882.577C116.939 882.555 117.314 882.515 117.69 882.477C127.969 879.723 134.9 872.198 141.375 864.191ZM88.3302 797.024C93.3258 794.687 98.3753 792.406 103.554 790.499C106.191 789.564 108.806 788.661 111.504 787.911C114.724 781.642 117.849 775.236 121.754 769.356C113.369 765.327 105.307 761.231 95.7547 761.546C91.1839 762.713 87.0719 764.284 84.6213 768.643C81.5914 774.033 82.8857 781.517 84.6227 787.166C85.6584 790.535 86.9493 793.785 88.3302 797.024ZM170.929 807.662C175.316 814.055 179.4 820.436 182.897 827.376C186.393 825.046 189.996 822.798 193.239 820.122C197.509 816.537 202.2 811.471 202.595 805.634C202.836 802.071 201.123 798.892 198.792 796.316C191.767 788.553 182.377 787.56 173.022 784.531C172.84 792.026 172.719 800.383 170.929 807.662ZM153.22 845.046C145.64 847.25 137.664 849.334 129.825 850.315C132.25 852.274 134.658 854.165 137.261 855.886L144.094 860.34C146.453 857.417 153.561 848.54 153.654 845.113L153.22 845.046ZM169.841 812.431C167.518 820.992 165.154 829.589 161.738 837.791L169.373 834.223L179.354 829.396C176.302 823.665 173.291 817.936 169.841 812.431ZM99.8215 847.318C105.061 847.481 110.29 847.614 115.529 847.319L117.514 846.67C114.625 841.961 107.001 832.133 102.842 828.791C101.549 834.947 100.468 841.054 99.8215 847.318ZM127.617 783.69C131.318 782.755 135.029 781.966 138.774 781.223C134.406 778.141 130.071 774.074 125.314 771.694C122.46 776.601 119.8 781.575 117.189 786.614C120.648 785.596 124.104 784.508 127.617 783.69ZM151.73 784.287L149.446 784.574C149.974 786.708 164.364 800.253 167.07 802.95L167.449 803.053C168.448 796.93 168.97 790.413 169.058 784.211C163.253 784.037 157.536 784.087 151.73 784.287ZM108.485 793.566C102.445 795.989 96.1172 798.185 90.2572 800.992C92.4297 805.265 94.633 809.492 97.0143 813.655L100.233 819.37C102.614 810.635 105.48 802.408 108.946 794.044L108.485 793.566ZM151.085 749.99C140.759 752.765 134.216 759.712 127.706 767.815C131.161 770.259 142.59 780.75 146.053 780.369C146.245 780.348 146.432 780.297 146.621 780.261C154.181 779.958 161.802 779.761 169.354 780.315C168.356 771.416 167.489 759.233 159.835 753.236C157.499 751.405 154.056 750.076 151.085 749.99Z"/><path fill="#56A08F" d="M130.702 802.822C138.23 800.725 146.031 805.136 148.116 812.667C150.2 820.198 145.777 827.992 138.242 830.064C130.725 832.131 122.954 827.721 120.874 820.207C118.794 812.693 123.192 804.914 130.702 802.822Z"/><path fill="#56A08F" d="M815.102 465.69C825.028 470.89 834.503 497.965 839.625 508.908C858.949 550.93 884.37 589.87 915.064 624.47C912.057 616.074 910.368 607.052 911.042 598.117C911.983 585.636 917.538 573.51 927.162 565.378C931.496 561.717 938.467 557.061 944.357 557.79C946.672 558.077 948.396 559.32 949.765 561.168C955.044 568.294 955.764 580.935 954.439 589.407C951.636 607.34 937.905 622.091 923.762 632.407C928.294 636.769 932.927 641.025 937.659 645.169C942.01 648.916 957.616 659.797 959.73 663.661C960.368 664.828 960.397 665.43 960.048 666.676L958.829 667.301C948.924 667.459 923.075 639.488 915.193 632.434C906.666 641.568 895.773 648.275 883.458 650.775C869.755 653.557 854.214 651.15 842.51 643.294C838.213 640.41 833.502 636.187 832.648 630.835C832.096 627.385 833.168 625.51 835.201 622.839C840.581 617.65 848.603 615.107 855.758 613.6C876.873 609.153 894.163 616.912 911.509 628.331C907.297 623.293 902.748 618.546 898.492 613.542C889.395 602.932 880.866 591.848 872.939 580.338C864.75 585.425 856.364 589.372 846.933 591.563C833.073 594.782 818.663 593.249 806.521 585.508C799.628 581.113 794.222 576.245 792.349 567.981C792.789 566.158 793.273 564.305 794.342 562.74C798.342 556.882 805.705 555.215 812.274 554.163C831.142 551.141 848.671 554.325 864.338 565.688C855.182 550.544 847.016 534.918 838.261 519.55C830.446 527.714 819.643 531.359 808.535 531.81C794.03 532.4 778.971 527.572 768.275 517.553C764.422 513.944 760.601 509.079 760.62 503.554C760.631 500.89 761.734 498.347 763.671 496.519C769.481 490.953 780.637 490.906 788.161 491.111C808.228 491.656 821.868 497.243 835.568 511.784C830.88 502.327 815.417 474.263 815.102 465.69ZM844.155 587.379C853.174 585.104 862.351 582.82 869.985 577.246C856.973 565.118 843.024 556.793 824.752 557.502C823.838 557.532 822.926 557.596 822.017 557.696C815.059 558.459 803.396 559.153 798.695 564.97C797.65 566.264 797.219 567.632 797.346 569.307C797.632 573.082 802.089 576.656 804.977 578.713C816.816 587.146 830.041 589.16 844.155 587.379ZM836.392 628.244C842.204 637.939 850.043 643.523 861.032 646.266C867.104 647.822 873.439 648.064 879.613 646.975C891.287 644.638 900.598 639.701 909.746 632.191C896.318 622.475 883.275 615.76 866.256 616.676C854.608 618.149 845.585 620.767 836.392 628.244ZM944.083 561.947C934.152 565.101 925.783 571.662 920.98 581C915.046 592.802 914.008 606.47 918.091 619.034C918.952 621.688 920.26 625.737 922.508 627.464C935.874 617.238 947.964 604.338 950.325 587.046C951.239 580.352 951.275 569.392 946.875 563.899C946.069 562.893 945.292 562.422 944.083 561.947ZM817.325 525.821C823.916 523.583 829.302 520.902 834.755 516.567C822.609 504.028 807.247 495.682 789.495 495.461C786.835 495.427 783.999 495.341 781.362 495.69C776.455 496.279 769.1 496.714 765.823 501.002C764.96 502.131 764.554 503.456 764.749 504.885C765.393 509.62 771.52 514.076 775.22 516.644C787.459 525.219 802.627 528.525 817.325 525.821Z"/><path fill="#F4D27E" d="M425.466 359.82C427.399 359.837 429.415 362.122 430.736 363.403C447.74 379.888 460.036 403.219 460.374 427.198C460.758 454.514 444.815 479.566 426.399 498.552C424.419 498.426 422.359 496.176 421.011 494.828C404.331 478.144 391.616 451.107 391.746 427.414C391.891 401.138 407.258 377.653 425.466 359.82Z"/><path fill="#56A08F" d="M362.646 906.274C381.839 904.315 408.657 907.785 426.295 915.065C424.408 918.208 422.381 921.265 420.221 924.226C402.681 948.418 378.519 967.189 348.561 972.001C327.209 974.807 305.67 970.179 285.222 964.451C290.183 955.403 296.676 947.308 303.691 939.777C309.245 933.914 314.951 928.196 320.802 922.629C335.045 909.316 343.431 906.926 362.646 906.274Z"/><path fill="#F4D27E" d="M667.34 216.181C669.003 215.904 671.133 215.601 672.513 216.787C673.803 217.895 674.233 220.284 674.388 221.872C674.732 225.391 674.267 229.2 674.033 232.726C672.691 252.976 666.291 273.775 652.831 289.355C636.763 307.955 615.363 315.878 591.275 317.518C589.443 317.577 586.827 317.932 585.235 316.856C583.969 316 583.522 313.68 583.33 312.27C580.887 294.355 590.893 263.299 601.689 249.087C617.631 228.101 642.126 219.653 667.34 216.181Z"/><path fill="#56A08F" d="M875.962 435.471C877.171 435.84 878.189 436.252 879.219 437.004C883.92 440.441 885.737 446.468 886.453 451.994C888.199 465.471 884.214 480.365 875.839 491.079C868.686 500.232 860.06 505.05 848.61 506.484C844.863 506.07 843.143 505.291 840.15 502.985C836.03 493.463 837.24 484.118 840.609 474.576C846.961 456.586 858.795 443.648 875.962 435.471ZM848.984 502.379C860.635 499.372 869.568 493.927 875.728 483.334C881.734 473.007 884.197 458.622 880.82 447.027C880.181 444.833 878.688 441.054 876.424 440.067C876.047 439.903 875.896 439.939 875.512 439.94C859.118 450.932 846.786 463.991 842.8 483.901C841.858 488.605 841.01 494.17 843.709 498.461C845.011 500.531 846.707 501.603 848.984 502.379Z"/><path fill="#56A08F" d="M903.709 498.45C905.323 498.339 906.647 498.661 908.061 499.44C912.095 501.661 914.148 505.655 915.471 509.898C919.169 522.132 917.795 535.338 911.658 546.548C905.786 557.369 895.863 565.42 884.065 568.937C882.431 569.102 880.62 569.086 879.012 568.739C876.382 568.172 874.196 566.773 872.76 564.47C868.941 558.344 870.601 547.553 872.162 540.883C876.559 522.101 887.406 508.451 903.709 498.45ZM882.996 564.651C893.353 561.801 902.149 554.947 907.443 545.6C912.937 535.85 914.913 523.53 911.773 512.69C910.909 509.705 908.682 505.069 905.861 503.518C905.678 503.417 905.475 503.359 905.282 503.28C890.57 512.363 880.629 524.763 876.536 541.741C875.193 547.309 873.536 555.981 876.563 561.176C877.407 562.625 878.619 563.812 880.284 564.238C881.164 564.463 882.095 564.552 882.996 564.651Z"/><path fill="#56A08F" d="M212.655 303.187C222.525 306.983 236.749 316.505 244.782 323.386L240.673 329.333L235.492 325.493C230.334 335.103 224.615 344.43 218.985 353.769L214.717 360.467C207.24 356.891 200.278 352.647 193.254 348.271C201.861 336.984 208.743 324.4 215.834 312.144C213.946 310.717 211.861 309.509 209.861 308.244L212.655 303.187Z"/><path fill="#56A08F" d="M919.904 800.026L921.206 800.095L921.449 800.935C917.365 812.681 912.094 826.663 905.758 837.357C899.547 847.839 884.769 853.954 873.484 856.892C872.515 857.157 872.987 857.198 872.069 856.748C872.135 851.569 879.278 835.93 881.77 830.639C890.135 812.88 901.85 806.425 919.904 800.026Z"/><path fill="#56A08F" d="M881.463 819.498C881.845 819.845 881.888 820.261 882.055 820.741C881.424 823.012 865.927 857.539 865.653 857.831C861.963 861.76 838.504 861.921 832.521 862.037L832.016 861.286C838.848 848.269 868.05 826.109 881.463 819.498Z"/><path fill="#56A08F" d="M862.59 799.544C874.564 799.111 886.014 804.581 897.654 806.338C887.406 811.585 877.322 817.146 867.416 823.014C856.257 822.956 845.385 823.686 834.292 824.953C842.048 815.546 851.696 805.289 862.59 799.544Z"/><path fill="#56A08F" d="M897.047 782.502C905.412 781.57 919.935 789.312 927.875 792.607C918.817 796.131 910.048 800.465 900.839 803.587C889.857 801.219 879.009 798.269 868.341 794.747C877.779 790.249 887.28 786.232 897.047 782.502Z"/><path fill="#56A08F" d="M946.871 791.148C947.782 791.017 948.512 791.064 949.423 791.184C950.115 792.174 950.177 792.352 949.896 793.632C949.326 796.233 947.112 799.251 945.717 801.486C937.344 814.9 925.531 828.657 911.842 836.935L910.674 837.544L910.012 837.212C910.133 832.157 922.033 807.706 925.347 802.955C930.703 795.278 938.073 792.641 946.871 791.148Z"/><path fill="#56A08F" d="M856.969 827.412L857.142 827.488L857.331 828.185C852.052 833.472 846.498 838.41 841.362 843.862C836.142 849.402 831.197 856.056 825.296 860.839L817.616 859.676C816.442 859.251 816.918 859.627 816.236 858.49C816.987 849.792 826.144 835.974 831.487 829.134C839.957 828.442 848.471 827.552 856.969 827.412Z"/><path fill="#56A08F" d="M55.1943 621.637C56.4261 622.232 57.6617 622.898 58.5993 623.92C62.1888 627.835 60.7646 635.362 60.4167 640.234C63.7615 639.879 68.1082 639.885 71.4166 640.427C73.2478 640.728 75.0858 641.157 76.2401 642.705C76.1354 643.443 76.2605 643.669 75.6393 644.196C72.0219 647.269 64.5732 646.519 60.0315 646.528C60.3161 652.617 60.4267 658.419 59.1404 664.399C58.7392 664.646 58.2563 664.721 57.8038 664.845C56.9199 664.524 56.499 664.507 55.8669 663.767C52.7058 660.066 53.4582 651.103 53.7761 646.508C50.4826 646.364 46.9853 646.671 43.7257 646.201C41.67 645.904 39.1537 645.406 37.819 643.691L38.0153 642.702C42.1688 639.546 49.1188 640.39 54.0953 640.524C53.8679 634.274 53.908 627.779 55.1943 621.637Z"/><path fill="#56A08F" d="M624.823 77.1031C625.97 77.4477 627.014 77.9674 627.85 78.846C631.336 82.51 630.463 90.5686 630.426 95.3343C634.15 95.1676 640.137 94.511 643.252 96.7666C644.005 97.3116 643.843 97.4143 644.002 98.2563C643.877 98.416 643.77 98.5906 643.628 98.7355C640.823 101.604 633.855 101.007 630.058 101.072C630.071 107.299 629.955 113.199 627.88 119.132C626.925 118.649 626.22 118.281 625.459 117.502C622.186 114.152 623.403 105.348 623.509 100.999C620.277 100.954 616.637 101.043 613.448 100.524C611.447 100.198 609.35 99.7346 608.096 98.0641L608.525 97.0579C612.947 94.3049 619.218 95.1601 624.184 95.4104C624.099 89.3273 623.999 83.1422 624.823 77.1031Z"/><path fill="#56A08F" d="M909.973 779.543C918.611 779.955 927.356 780.126 935.928 781.317C939.169 781.767 946.35 782.446 948.383 785.145C947.646 786.283 947.275 786.189 945.96 786.594C941.568 787.855 937.16 789.063 932.739 790.216C925.917 787.802 915.684 783.989 909.973 779.543Z"/><path fill="#FEFEFE" d="M561.289 435.234C561.351 434.951 561.422 434.67 561.473 434.386C562.226 430.192 560.049 424.769 559.233 420.63C557.258 410.611 562.688 400.168 570.55 394.045C583.443 384.006 597.517 389.751 612.116 387.261C627.984 384.555 636.907 377.309 654.319 379.804C668.462 381.757 681.213 389.349 689.67 400.852C694.998 408.252 698.453 416.832 699.741 425.858C714.073 436.54 727.302 448.632 730.114 467.226C732.639 483.921 726.904 502.044 716.985 515.45C702.842 534.564 680.518 544.872 657.516 548.581L658.334 553.356C659.281 558.762 660.146 564.183 660.927 569.617C669.214 571.603 670.945 573.571 675.332 580.73C687.917 601.266 702.368 621.342 709.633 644.566C721.949 683.936 726.756 734.291 731.032 775.673L741.651 877.601L750.187 965.471C752.106 984.896 754.733 1004.48 755.244 1024L751.098 1024L625.607 1024L622.723 1024L574.66 1024L572.186 1024L549.317 1024L546.591 1024L508.976 1024L506.233 1024C508.154 1012.49 511.136 1000.95 513.687 989.563L526.345 932.299C523.615 930.417 520.805 928.642 518.025 926.836C519.912 918.552 522.328 910.386 524.17 902.086C531.584 868.672 538.351 829.68 534.764 795.333C533.08 779.213 527.886 763.721 526.148 747.641C525.123 738.162 525.93 728.972 528.77 719.869C535.649 697.816 548.972 678.224 560.322 658.309C573.025 636.021 581.869 617.036 598.211 596.828C595.054 583.336 590.821 570.8 584.871 558.258C576.028 560.049 562.137 562.727 554.144 557.169C544.527 550.482 546.036 535.566 545.411 525.306C545.145 520.939 544.416 516.674 543.656 512.371C541.552 510.161 538.761 507.84 538.113 504.732C536.494 496.975 545.714 492.303 548.72 486.271C550.843 482.012 551.003 476.701 551.169 472.042C551.675 457.778 553.173 447.26 561.289 435.234ZM567.721 527.739L572.39 524.298C563.282 525.361 555.659 525.458 546.819 522.625C547.068 525.921 547.021 529.251 549.847 531.507C551.863 533.116 554.406 533.261 556.862 532.816C560.567 532.146 564.696 529.959 567.721 527.739Z"/><path d="M561.289 435.234C561.351 434.951 561.422 434.67 561.473 434.386C562.226 430.192 560.049 424.769 559.233 420.63C557.258 410.611 562.688 400.168 570.55 394.045C583.443 384.006 597.517 389.751 612.116 387.261C627.984 384.555 636.907 377.309 654.319 379.804C668.462 381.757 681.213 389.349 689.67 400.852C694.998 408.252 698.453 416.832 699.741 425.858C714.073 436.54 727.302 448.632 730.114 467.226C732.639 483.921 726.904 502.044 716.985 515.45C702.842 534.564 680.518 544.872 657.516 548.581L658.334 553.356C659.281 558.762 660.146 564.183 660.927 569.617C669.214 571.603 670.945 573.571 675.332 580.73C687.917 601.266 702.368 621.342 709.633 644.566C721.949 683.936 726.756 734.291 731.032 775.673L741.651 877.601L750.187 965.471C752.106 984.896 754.733 1004.48 755.244 1024L751.098 1024L734.315 834.825C731.343 800.466 727.705 766.168 723.404 731.949C719.588 701.809 715.855 671.187 706.141 642.262C698.842 620.528 686.425 601.776 672.857 583.499C652.345 605.507 635.075 622.598 624.061 651.451C616.241 655.153 608.184 658.343 600.135 661.503C601.96 668.738 604.199 675.862 606.841 682.84C602.64 694.166 597.071 704.51 591.289 715.078C586.56 723.721 581.284 732.346 578.618 741.903C575.142 754.369 574.464 767.725 573.14 780.56L567.914 830.256C563.637 870.882 559.629 911.537 555.892 952.216C553.616 976.093 550.827 1000.07 549.317 1024L546.591 1024L508.976 1024L506.233 1024C508.154 1012.49 511.136 1000.95 513.687 989.563L526.345 932.299C523.615 930.417 520.805 928.642 518.025 926.836C519.912 918.552 522.328 910.386 524.17 902.086C531.584 868.672 538.351 829.68 534.764 795.333C533.08 779.213 527.886 763.721 526.148 747.641C525.123 738.162 525.93 728.972 528.77 719.869C535.649 697.816 548.972 678.224 560.322 658.309C573.025 636.021 581.869 617.036 598.211 596.828C595.054 583.336 590.821 570.8 584.871 558.258C576.028 560.049 562.137 562.727 554.144 557.169C544.527 550.482 546.036 535.566 545.411 525.306C545.145 520.939 544.416 516.674 543.656 512.371C541.552 510.161 538.761 507.84 538.113 504.732C536.494 496.975 545.714 492.303 548.72 486.271C550.843 482.012 551.003 476.701 551.169 472.042C551.675 457.778 553.173 447.26 561.289 435.234ZM567.721 527.739L572.39 524.298C563.282 525.361 555.659 525.458 546.819 522.625C547.068 525.921 547.021 529.251 549.847 531.507C551.863 533.116 554.406 533.261 556.862 532.816C560.567 532.146 564.696 529.959 567.721 527.739Z"/><path fill="#424242" d="M561.289 435.234C561.351 434.951 561.422 434.67 561.473 434.386C562.226 430.192 560.049 424.769 559.233 420.63C557.258 410.611 562.688 400.168 570.55 394.045C583.443 384.006 597.517 389.751 612.116 387.261C627.984 384.555 636.907 377.309 654.319 379.804C668.462 381.757 681.213 389.349 689.67 400.852C694.998 408.252 698.453 416.832 699.741 425.858C714.073 436.54 727.302 448.632 730.114 467.226C732.639 483.921 726.904 502.044 716.985 515.45C702.842 534.564 680.518 544.872 657.516 548.581L658.334 553.356L657.299 552.984C657.226 552.406 657.158 551.821 657.046 551.249C656.335 547.624 646.772 549.131 643.352 546.789C638.333 540.848 635.012 540.808 631.412 532.649C631.41 530.887 631.569 528.14 632.4 526.593C633.746 524.889 634.192 521.882 634.779 519.765C635.755 519.108 636.705 518.414 637.627 517.684C640.552 515.407 644.362 512.537 644.844 508.615C645.113 507.51 645.353 506.397 645.565 505.279C646.791 498.594 644.45 493.55 640.717 488.201C638.874 487.331 637.047 486.43 635.235 485.497C635.189 485.456 635.154 485.398 635.097 485.373C633.593 484.727 631.078 485.738 629.482 486.114C626.559 482.903 622.241 477.093 617.667 476.636C604.667 469.937 586.402 458.924 575.547 449.401C572.313 446.564 565.955 436.148 562.147 435.614L561.289 435.234Z"/><path fill="#121517" d="M640.717 488.201C642.126 488.197 643.235 489.621 644.309 490.518C646.198 495.307 648.334 501.547 646.178 506.594C645.823 507.425 645.44 507.954 644.844 508.615C645.113 507.51 645.353 506.397 645.565 505.279C646.791 498.594 644.45 493.55 640.717 488.201Z"/><path fill="#916B61" d="M562.147 435.614C565.955 436.148 572.313 446.564 575.547 449.401C586.402 458.924 604.667 469.937 617.667 476.636C622.241 477.093 626.559 482.903 629.482 486.114C631.078 485.738 633.593 484.727 635.097 485.373C635.154 485.398 635.189 485.456 635.235 485.497C637.047 486.43 638.874 487.331 640.717 488.201C644.45 493.55 646.791 498.594 645.565 505.279C645.353 506.397 645.113 507.51 644.844 508.615C644.362 512.537 640.552 515.407 637.627 517.684C636.705 518.414 635.755 519.108 634.779 519.765C634.192 521.882 633.746 524.889 632.4 526.593C631.569 528.14 631.41 530.887 631.412 532.649C635.012 540.808 638.333 540.848 643.352 546.789C646.772 549.131 656.335 547.624 657.046 551.249C657.158 551.821 657.226 552.406 657.299 552.984C658.085 559.288 658.831 565.598 660.337 571.778C659.148 572.778 657.942 573.758 656.721 574.718C646.125 583.081 609.819 610.48 596.957 608.956C596.443 608.56 595.92 608.383 595.795 607.703C595.184 604.406 598.96 599.773 600.783 597.235C598.703 583.86 593.755 570.187 587.397 558.226C589.127 557.772 590.848 557.282 592.557 556.756C607.692 551.962 616.782 542.63 623.977 528.825C609.662 542.776 609.678 548.551 588.332 555.029C579.722 557.642 564.318 561.303 555.943 556.567C551.388 553.991 550.354 548.567 549.063 543.93C559.816 541.363 565.996 536.275 572.327 527.412C574 525.069 575.603 522.309 577.902 520.54C578.681 519.941 578.97 519.873 579.45 519.002L578.92 517.974L578.134 517.889C576.446 518.577 575.588 519.328 574.336 520.654L573.91 521.114C567.844 522.919 559.89 523.647 553.659 522.303C550.663 521.657 547.697 520.369 546.038 517.657C545.221 516.321 545.141 515.397 545.533 513.915C549.102 510.339 555.335 513.031 559.473 510.958L559.456 510.205L558.708 509.74C554.932 511.136 551.373 512.08 547.361 511.033C544.706 510.34 541.211 508.316 540.104 505.653C538.146 500.941 545.829 494.675 548.165 490.989C555.143 479.976 551.734 466.181 554.484 454.04C555.928 447.665 559.688 442.272 561.937 436.198C562.009 436.004 562.077 435.808 562.147 435.614Z"/><path d="M617.667 476.636C622.241 477.093 626.559 482.903 629.482 486.114C631.078 485.738 633.593 484.727 635.097 485.373C635.154 485.398 635.189 485.456 635.235 485.497C632.544 486.562 629.152 489.19 626.766 489.823L626.436 489.024C626.92 487.885 627.326 487.084 627.299 485.822C624.544 482.371 620.976 479.544 617.667 476.636Z"/><path d="M633.315 520.057C636.088 517.807 638.729 515.458 641.189 512.865C642.474 511.51 643.401 509.781 644.844 508.615C644.362 512.537 640.552 515.407 637.627 517.684C636.705 518.414 635.755 519.108 634.779 519.765C634.192 521.882 633.746 524.889 632.4 526.593C632.446 524.421 632.958 522.199 633.315 520.057Z"/><path d="M631.412 532.649C635.012 540.808 638.333 540.848 643.352 546.789C639.921 545.592 636.201 542.869 633.945 540.025C632.014 537.591 631.021 535.763 631.412 532.649Z"/><path fill="#424242" d="M566.005 469.65C565.251 468.749 564.892 468.285 565.03 466.998C565.233 465.096 567.15 463.702 568.692 462.863C571.736 461.205 575.081 461.307 578.309 462.39C582.393 463.762 587.578 466.787 589.647 470.696C590.242 471.821 590.374 472.404 589.947 473.583C587.932 474.187 586.002 473.056 584.137 472.252C578.217 470.775 571.84 471.554 566.005 469.65Z"/><path d="M566.005 469.65C570.129 467.58 576.812 468.004 581.137 469.536C582.378 469.976 583.393 470.574 584.484 471.301L584.517 471.964L584.137 472.252C578.217 470.775 571.84 471.554 566.005 469.65Z"/><path fill="#121517" d="M570.155 482.943L569.408 481.981C570.096 480.926 570.667 480.62 571.92 480.359C574.45 479.831 578.241 481.36 580.21 482.894C581.426 483.841 582.175 484.853 582.964 486.16L582.689 486.688C581.806 486.606 581.254 486.499 580.394 486.21C578.772 488.678 577.7 490.326 574.774 491.119C573.821 490.938 573.436 490.971 572.644 490.355C571.232 489.256 570.701 487.856 570.516 486.125L570.155 482.943Z"/><path d="M570.155 482.943L569.408 481.981C570.096 480.926 570.667 480.62 571.92 480.359C574.45 479.831 578.241 481.36 580.21 482.894C581.426 483.841 582.175 484.853 582.964 486.16L582.689 486.688C581.806 486.606 581.254 486.499 580.394 486.21C577.821 483.35 573.723 483.258 570.155 482.943Z"/><path fill="#424242" d="M530.62 930.695C538.769 934.429 545.989 938.856 554.564 941.805C550.403 967.885 548.77 997.471 546.591 1024L508.976 1024C512.884 1004.9 516.922 985.832 521.087 966.789C523.704 954.956 525.993 941.897 530.62 930.695Z"/><path fill="#56A08F" d="M629.528 597.974L629.689 598.126C630.055 599.916 621.898 609.453 620.33 611.524C606.305 630.219 595.706 651.253 589.025 673.649C579.281 706.135 575.43 740.425 571.276 773.995C564.46 829.074 559.859 884.414 554.373 939.636C545.313 936.15 538.629 929.836 530.909 927.081C529.094 926.433 529.045 928.442 527.577 929.149L525.75 928.356C524.509 927.516 523.343 926.536 522.163 925.61C524.048 909.669 528.186 893.583 531.119 877.77C536.473 848.897 540.619 818.836 536.834 789.488C535.341 777.913 532.525 766.565 530.427 755.095C528.434 744.203 527.775 734.168 530.507 723.356C535.474 703.7 547.555 686.287 557.355 668.793C568.705 648.534 579.644 628.143 592.856 608.998L597.35 611.424C609.538 609.699 619.088 604.105 629.528 597.974Z"/><path fill="#FEFEFE" d="M663.208 572.976C663.965 573.201 664.718 573.422 665.459 573.697C667.484 574.45 670.315 575.648 671.11 577.858C672.364 581.342 666.74 586.815 664.416 589.09C644.285 608.803 631.541 622.618 621.701 650.107C613.266 652.634 605.679 655.992 598.032 660.357C598.942 668.132 601.068 675.445 603.739 682.779C598.426 695.789 592.061 708.053 585.46 720.438C583.749 723.658 581.973 726.843 580.134 729.992L580.322 728.64C589.613 663.997 609.627 613.043 663.208 572.976Z"/><path fill="#916B61" d="M566.155 530.549L566.738 530.904L566.561 531.814C561.865 537.468 555.84 539.917 548.887 541.497C548.012 539.423 547.472 537.224 546.86 535.061C554.123 535.031 559.465 533.338 566.155 530.549Z"/><path d="M646.211 1008.68C660.634 979.638 672.228 948.788 684.613 918.811L698.352 885.518C703.513 873.055 710.403 859.574 711.925 846.06C714.09 826.85 711.051 806.536 709.332 787.363L704.916 735.108L701.052 694.758C699.628 680.22 698.632 664.741 693.992 650.807C690.432 640.115 684.1 630.333 673.64 625.372C669.931 623.614 659.129 622.408 657.557 618.79C658.295 617.79 658.409 617.749 659.667 617.611C666.661 616.841 680.703 625.552 685.479 630.327C691.34 636.186 694.945 643.882 697.116 651.801C700.622 664.585 701.793 678.153 703.207 691.295C704.853 706.574 706.399 721.863 707.845 737.163C709.852 757.971 711.602 778.803 713.094 799.655C714.005 811.774 715.405 824.01 715.3 836.171C715.233 844.017 714.412 851.26 712.148 858.778C709.477 867.643 705.598 876.147 701.98 884.654C697.263 895.625 692.637 906.634 688.101 917.681L665.525 972.486C659.914 986.025 654.599 999.432 647.965 1012.53C642.473 1011.14 636.519 1010.65 630.875 1010.34C629.535 1015.04 627.772 1019.62 625.607 1024L622.723 1024L574.66 1024L572.186 1024C578.13 1012.8 585.931 1002.51 592.279 991.48C589.363 988.814 586.641 986.155 584.088 983.137C587.576 971.266 592.731 960.054 597.033 948.476L623.029 877.972C627.011 867.264 633.259 856.71 634.4 845.19C635.65 832.571 631.914 819.996 630.459 807.541C627.706 783.976 626.043 760.26 624.011 736.625C622.8 722.534 620.634 708.164 620.66 694.025C620.668 689.969 621.06 686.444 622.204 682.524C625.535 694.807 625.065 707.398 625.825 719.986C626.649 731.788 627.596 743.58 628.666 755.362C630.282 774.001 632.063 792.626 634.009 811.233C635.256 822.285 638.258 833.677 637.445 844.839C636.523 857.512 625.755 878.925 621.051 891.55C609.895 921.908 598.577 952.207 587.096 982.444C603.422 998.482 623.094 1008.03 646.211 1008.68Z"/><path fill="#916B61" d="M594.256 992.327C605.091 999.526 615.967 1005.16 628.278 1009.45C626.587 1014.39 624.831 1019.21 622.723 1024L574.66 1024C581.54 1013.7 588.664 1003.41 594.256 992.327Z"/></svg>