<svg viewBox="0 0 11 11" fill="currentColor" xmlns="http://www.w3.org/2000/svg">
<g id="Frame">
<path id="Vector" d="M9.625 4.58333V9.16667C9.625 9.28822 9.57671 9.4048 9.49076 9.49076C9.4048 9.57671 9.28822 9.625 9.16667 9.625H4.58333C4.46178 9.625 4.3452 9.57671 4.25924 9.49076C4.17329 9.4048 4.125 9.28822 4.125 9.16667V4.58333C4.125 4.46178 4.17329 4.3452 4.25924 4.25924C4.3452 4.17329 4.46178 4.125 4.58333 4.125H9.16667C9.28822 4.125 9.4048 4.17329 9.49076 4.25924C9.57671 4.3452 9.625 4.46178 9.625 4.58333ZM2.75 6.41667H2.29167V2.29167H6.41667V2.75C6.41667 2.87156 6.46496 2.98814 6.55091 3.07409C6.63686 3.16004 6.75344 3.20833 6.875 3.20833C6.99656 3.20833 7.11314 3.16004 7.19909 3.07409C7.28504 2.98814 7.33333 2.87156 7.33333 2.75V1.83333C7.33333 1.71178 7.28504 1.5952 7.19909 1.50924C7.11314 1.42329 6.99656 1.375 6.875 1.375H1.83333C1.71178 1.375 1.5952 1.42329 1.50924 1.50924C1.42329 1.5952 1.375 1.71178 1.375 1.83333V6.875C1.375 6.99656 1.42329 7.11314 1.50924 7.19909C1.5952 7.28504 1.71178 7.33333 1.83333 7.33333H2.75C2.87156 7.33333 2.98814 7.28504 3.07409 7.19909C3.16004 7.11314 3.20833 6.99656 3.20833 6.875C3.20833 6.75344 3.16004 6.63686 3.07409 6.55091C2.98814 6.46496 2.87156 6.41667 2.75 6.41667Z"/>
</g>
</svg>
