<svg width="27" height="26" fill="currentColor" viewBox="0 0 27 26" xmlns="http://www.w3.org/2000/svg">
<path d="M17.0337 7.8L13.6667 11.167L10.2997 7.8L8.46669 9.633L11.8337 13L8.46669 16.367L10.2997 18.2L13.6667 14.833L17.0337 18.2L18.8667 16.367L15.4997 13L18.8667 9.633L17.0337 7.8ZM13.6667 0C6.47769 0 0.666687 5.811 0.666687 13C0.666687 20.189 6.47769 26 13.6667 26C20.8557 26 26.6667 20.189 26.6667 13C26.6667 5.811 20.8557 0 13.6667 0ZM13.6667 23.4C7.93369 23.4 3.26669 18.733 3.26669 13C3.26669 7.267 7.93369 2.6 13.6667 2.6C19.3997 2.6 24.0667 7.267 24.0667 13C24.0667 18.733 19.3997 23.4 13.6667 23.4Z" fill="black"/>
</svg>
