<?xml version="1.0" encoding="utf-8" ?><svg xmlns="http://www.w3.org/2000/svg" xmlns:xlink="http://www.w3.org/1999/xlink" viewBox="0 0 1024 1024"><path fill="#04040D" d="M485.913 362.728C503.318 362.121 512.722 366.691 525.776 377.803C533.791 372.732 542.539 368.844 552.13 368.369C566.797 367.643 580.85 374.573 591.461 384.261C620.955 411.19 623.551 459.015 625.401 496.457C626.071 510.016 625.334 516.872 615.813 527.361C617.823 531.364 619.52 535.516 620.888 539.781C626.269 556.271 627.478 574.283 619.344 590.093C613.52 601.412 603.176 610.667 590.979 614.553C572.407 620.47 554.168 614.54 537.619 605.896L537.669 606.435L537.763 607.333C538.935 619.307 543.987 638.869 554.137 646.637C560.487 651.497 571.17 652.023 578.774 654.296C611.105 663.963 646.372 678.607 670.09 703.323C679.955 713.603 687.059 725.474 692.159 738.739C699.888 758.843 703.74 780.362 707.124 801.554C712.181 834.312 715.706 867.287 717.687 900.374C719.179 923.079 720.645 945.715 720.182 968.484L518.625 968.499L351.053 968.488C341.835 968.423 332.683 968.918 323.481 968.995C317.758 969.042 312.031 968.667 306.307 968.638C300.477 968.609 294.46 969.018 288.669 968.464C287.198 968.323 285.177 968.305 284.221 967.068C278.911 960.202 285.761 885.5 287.367 871.551C290.555 844.68 294.762 817.939 299.981 791.387C303.122 775.294 305.872 758.667 311.782 743.316C316.215 731.799 322.957 721.11 330.883 711.685C353.309 685.017 380.73 673.19 412.94 662.736C419.905 660.468 426.901 658.295 433.925 656.218C439.724 654.529 460.248 650.209 463.998 647.04C464.165 646.899 464.322 646.746 464.487 646.603C474.472 637.922 476.994 621.029 479.337 608.633C476.602 607.028 473.775 605.634 470.936 604.226C450.869 611.439 418.477 618.118 398.547 609.425C390.274 605.816 384.274 599.502 380.986 591.11C372.509 569.483 381.613 545.545 390.212 525.497C386.585 521.178 383.75 516.98 383.409 511.133C383.015 504.354 386.215 497.766 387.408 491.18C388.596 484.622 389.467 478.089 390.987 471.589C397.542 443.553 410.119 415.59 429.156 393.818C443.902 376.954 463.137 364.321 485.913 362.728ZM482.696 609.755C478.906 627.167 475.778 644.863 459.686 655.156C459.256 655.431 458.816 655.689 458.376 655.948C465.464 662.995 473.477 667.979 482.549 672.108C501.747 678.675 520.519 678.987 539.002 669.846C546.179 666.297 553.475 661.341 558.069 654.648C552.74 650.07 548.003 645.612 544.328 639.551C540.579 633.367 538.136 626.307 536.735 619.233C536.211 616.586 535.725 608.897 533.93 607.032C518.077 614.009 505.07 618.617 488.194 612.049C486.341 611.333 484.508 610.569 482.696 609.755ZM417.985 529.24C417.442 526.625 417.111 524.03 416.806 521.378C416.513 519.084 416.257 516.779 415.896 514.495C412.224 514.676 407.091 515.54 403.898 513.437L404.156 512.671C408.093 511.099 411.766 511.475 415.925 511.605C415.661 509.542 415.41 507.512 415.352 505.429C411.705 504.075 408.26 503.054 405.355 500.356L405.213 499.485C406.653 498.863 408.394 499.206 409.82 499.74C410.62 500.039 411.393 500.409 412.174 500.752L415.475 502.179C416.089 497.685 415.989 493.116 416.028 488.589C412.464 488.064 408.772 487.724 405.174 488.1C399.059 489.252 393.717 491.697 390.176 497.062C387.044 501.805 385.825 507.9 387.05 513.462C388.34 519.235 391.946 524.225 397.024 527.26C403.735 531.236 410.676 530.515 417.985 529.24ZM593.049 514.571C592.932 517.694 591.447 526.358 593.056 528.808L594.588 529.031C601.4 529.918 608 529.24 613.562 524.779C618.062 521.103 620.919 515.79 621.504 510.009C622.055 504.112 620.284 497.903 616.422 493.372C612.068 488.264 605.585 485.857 599.002 485.562C598.355 485.533 597.73 485.557 597.084 485.592C595.479 486.157 594.3 486.345 593.552 488.105C592.014 491.725 592.986 496.878 593.371 500.687C595.668 499.68 599.321 497.554 601.856 498.363C602.008 498.412 602.145 498.501 602.289 498.57C602.197 499.79 601.618 500.32 600.714 501.088C598.878 502.649 595.851 503.472 593.665 504.475L593.382 511.215C596.14 511.082 598.876 510.721 601.522 511.649L602.382 512.478C601.716 513.609 600.955 513.903 599.718 514.239C597.721 514.782 595.13 514.568 593.049 514.571ZM502.035 612.37C519.869 613.401 544.301 598.562 557.131 587.124C583.771 563.373 588.863 538.141 590.739 503.988C592.236 476.732 586.71 448.989 568.056 428.129C554.44 412.902 535.688 404.778 515.422 403.708C513.341 403.598 511.285 403.527 509.204 403.659C481.227 406.643 455.583 416.882 437.495 439.273C419.104 462.041 416.487 491.965 419.627 520.047C422.606 548.023 436.591 573.665 458.497 591.318C471.165 601.383 486.079 609.296 502.035 612.37Z"/><path fill="#6257FE" d="M376.338 680.78C384.974 674.773 396.439 672.139 406.334 668.88C421.885 663.732 437.531 658.873 453.263 654.306C447.054 659.646 440.894 664.875 435.856 671.394C427.133 682.68 422.167 697.057 424.019 711.38C425.784 724.837 432.841 737.035 443.628 745.272C464.7 761.467 493.451 756.288 518.2 756.529C530.891 756.652 544.288 758.226 556.896 756.413C569.027 754.669 579.644 747.276 586.866 737.555C595.41 726.129 598.978 711.736 596.761 697.642C593.647 678.108 581.428 665.551 566.09 654.302C582.563 658.876 607.482 666.647 622.177 674.638C651.989 687.833 677.19 709.492 689.184 740.403C699.436 766.827 703.608 796.079 707.228 824.024C711.59 857.696 714.539 891.535 716.066 925.454C716.715 938.325 718.525 952.266 717.178 965.08L708.585 965.61C703.138 965.977 697.411 965.547 691.93 965.533L655.896 965.461C632.262 928.739 658.395 871.064 638.14 846.735C634.664 842.56 629.952 839.904 624.501 839.439C622.21 839.244 618.643 839.063 616.872 840.87C616.076 841.682 615.687 842.841 615.566 843.951C615.13 847.92 615.457 852.207 615.438 856.221L615.192 877.801L614.54 965.447L390.443 965.319L390.423 889.096C390.444 879.247 391.861 857.958 389.737 849.679C389.104 848.818 388.55 848.304 387.596 847.839C382.958 845.58 376.479 846.374 371.778 848.059C348.86 856.271 355.507 890.362 356.377 909.009C356.808 917.971 356.52 926.953 355.515 935.869C354.286 946.636 350.463 955.858 345.72 965.482L296.511 965.12L285.866 965.336C284.904 951.941 285.596 938.287 286.2 924.884C288.048 883.882 293.92 843.534 301.157 803.192C304.585 784.079 307.474 764.317 314.406 746.088C325.247 717.583 348.576 693.332 376.338 680.78Z"/><path fill="#FEFEFE" d="M376.338 680.78C376.265 680.958 376.212 681.147 376.118 681.315C375.167 683.01 359.867 693.429 356.505 696.517C347.763 704.544 340.406 714.332 334.502 724.6C321.222 747.694 317.132 773.993 312.352 799.803C302.208 854.584 296.332 909.333 296.511 965.12L285.866 965.336C284.904 951.941 285.596 938.287 286.2 924.884C288.048 883.882 293.92 843.534 301.157 803.192C304.585 784.079 307.474 764.317 314.406 746.088C325.247 717.583 348.576 693.332 376.338 680.78Z"/><path fill="#FEFEFE" d="M622.177 674.638C651.989 687.833 677.19 709.492 689.184 740.403C699.436 766.827 703.608 796.079 707.228 824.024C711.59 857.696 714.539 891.535 716.066 925.454C716.715 938.325 718.525 952.266 717.178 965.08L708.585 965.61C708.09 952.401 708.011 939.183 707.506 925.973C705.48 873.035 701.664 818.343 688.36 766.975C683.965 750.004 678.304 731.693 668.749 716.872C661.854 706.177 652.673 696.812 642.661 689.019C638.499 685.78 624.379 678.296 622.409 675.134C622.313 674.98 622.255 674.804 622.177 674.638Z"/><path fill="#04040D" d="M478.784 555.244C496.991 554.703 516.474 553.955 534.507 556.25C531.366 568.211 523.27 579.041 516.935 589.557C514.647 593.468 511.801 597.965 507.401 599.673C504.84 600.667 502.062 600.489 499.595 599.313C491.326 595.367 476.782 569.118 473.518 560.335C472.97 558.858 472.233 557.406 472.891 555.939C474.723 555.02 476.778 555.246 478.784 555.244ZM515.903 584.785C521.032 576.415 526.077 567.958 530.345 559.109C512.985 558.926 495.551 558.422 478.197 558.743L477.139 559.103C477.683 565.09 494.518 591.417 499.116 595.08C500.744 596.376 502.327 597.011 504.424 596.652C508.337 595.982 511.305 592.352 513.313 589.192C514.226 587.755 515.063 586.266 515.903 584.785Z"/><path fill="#04040D" d="M502.109 485.671C502.798 485.982 503.24 486.046 503.688 486.696C505.114 488.768 504.756 492.139 504.37 494.493C502.773 504.241 497.805 513.178 489.658 518.879C492.796 521.042 500.487 525.409 501.808 529.168C502.061 529.89 501.742 530.074 501.41 530.681L500.264 530.876C494.664 527.288 489.249 523.21 484.774 518.267C493.202 512.77 498.321 506.006 500.147 495.966C500.744 492.679 500.95 489.393 501.942 486.184C501.995 486.012 502.053 485.842 502.109 485.671Z"/><path fill="#04040D" d="M548.404 493.771C549.876 493.952 551.353 494.326 552.427 495.414C553.912 496.918 554.513 499.097 554.25 501.16C553.906 503.856 552.927 505.259 550.856 506.939C549.236 506.664 547.776 506.389 546.573 505.2C545.413 504.053 544.816 502.425 544.873 500.803C544.976 497.88 546.393 495.76 548.404 493.771Z"/><path fill="#04040D" d="M463.645 494.407C465.644 494.41 467.174 494.532 468.664 496.085C469.815 497.285 470.242 498.847 470.15 500.471C469.994 503.258 468.579 505.08 466.561 506.855C465.056 506.879 463.816 506.57 462.643 505.608C461.305 504.511 460.735 502.878 460.696 501.186C460.625 498.135 461.578 496.539 463.645 494.407Z"/><path fill="#04040D" d="M464.347 459.673C467.128 459.325 470.739 459.264 473.454 459.973C474.712 460.302 475.133 460.564 475.741 461.691C473.096 464.123 462.956 462.828 458.744 463.823L458.051 463.994C455.434 465.325 452.669 467.193 449.629 466.725L449.244 466.024C449.573 465.401 449.572 465.33 450.116 464.721C453.431 461.013 459.668 460.145 464.347 459.673Z"/><path fill="#04040D" d="M546.324 459.715C549.075 459.373 552.866 459.804 555.607 460.333C558.701 460.931 563.532 462.61 565.21 465.509C565.671 466.305 565.481 466.312 565.265 467.129C563.626 467.394 562.849 466.691 561.384 465.968C554.798 462.421 545.229 465.233 540.065 461.68L540.191 461.032C542.218 459.923 544.075 459.88 546.324 459.715Z"/><path fill="#6257FE" d="M561.47 655.973C562.563 656.489 563.636 657.048 564.687 657.647C578.093 665.387 588.049 677.608 592.102 692.614C595.646 705.652 593.784 719.567 586.937 731.214C580.911 741.454 571.046 749.558 559.414 752.445C555.783 753.346 552.002 753.72 548.272 753.886C538.107 754.337 527.698 753.5 517.501 753.439C502.221 753.349 482.252 754.74 467.503 751.981C460.187 750.612 454.082 747.732 447.759 743.897C443.845 741.189 440.326 737.952 437.301 734.279C429.548 724.627 425.974 712.277 427.376 699.976C429.451 681.91 441.295 668.486 454.98 657.588C455.962 658.552 456.956 659.504 457.962 660.442C472.382 674.026 491.653 681.25 511.448 680.491C531.645 679.641 547.976 670.599 561.47 655.973Z"/><path fill="#FEFEFE" d="M498.02 694.219C504.09 693.889 512.219 693.437 517.435 697.09C518.963 698.161 520.152 699.713 520.343 701.62C520.688 705.058 518.603 707.634 516.586 710.133C519.079 712.293 522.478 714.472 522.771 718.11C522.985 720.77 521.514 723.216 519.983 725.266C512.303 730.368 504.658 729.485 495.936 729.012C495.755 723.993 494.552 697.402 495.975 694.652L498.02 694.219Z"/><path fill="#6257FE" d="M504.788 714.11C507.217 714.026 511.044 713.892 513.108 715.423C514.22 716.248 514.249 716.664 514.521 717.934C514.198 719.53 513.456 720.291 512.406 721.453C510.225 721.878 506.883 722.7 504.873 721.374C504.07 720.844 503.584 720.209 503.447 719.256C503.223 717.686 503.938 715.408 504.788 714.11Z"/><path fill="#6257FE" d="M504.028 700.992C504.491 700.998 504.954 701.009 505.417 701.027C507.949 701.119 509.956 701.016 511.823 703.006C512.377 704.462 512.131 705.355 511.795 706.805C509.105 707.227 506.992 707.89 504.627 706.195C503.676 704.502 503.941 702.878 504.028 700.992Z"/><path fill="#FEFEFE" d="M473.845 694.493L479.999 694.336C484.879 704.558 489.398 718.082 493.179 728.972L485.428 729.165C484.459 726.635 483.59 723.173 481.088 721.872L471.624 721.924C470.822 724.345 469.966 726.752 469.135 729.165L461.031 728.966C464.794 717.285 469.337 705.899 473.845 694.493Z"/><path fill="#6257FE" d="M476.552 706.27C478.08 707.511 479.336 710.047 479.463 712.03C479.56 713.549 479.278 714.01 478.328 715.154C476.439 714.698 475.725 714.667 474.662 713.003C474.422 710.719 475.721 708.366 476.552 706.27Z"/><path fill="#FEFEFE" d="M538.971 693.519C544.458 693.477 548.181 695.354 552.49 698.497C550.942 700.373 549.321 702.196 547.734 704.039C545.934 702.903 543.916 701.578 541.75 701.356C539.712 701.154 537.684 701.828 536.172 703.21C533.958 705.271 533.091 708.493 533.072 711.432C533.053 714.375 533.887 717.695 536.117 719.759C540.419 723.742 543.977 719.14 548.423 719.358C548.729 719.373 549.033 719.409 549.338 719.435C549.751 720.038 550.405 720.837 550.623 721.527C550.849 722.241 550.956 723.062 550.639 723.762C549.64 725.968 546.168 727.838 543.973 728.58C540.747 729.687 537.21 729.434 534.175 727.88C530.291 725.906 527.444 722.103 526.139 717.996C524.467 712.733 524.933 706.552 527.631 701.702C530.203 697.079 534.102 694.987 538.971 693.519Z"/><path fill="#04040D" d="M205.821 292.73C239.893 290.75 275.101 296.862 303.494 316.824C322.318 330.058 337.055 349.473 341.013 372.471C345.113 396.295 338.021 421.736 321.364 439.453C316.221 444.922 309.219 448.925 304.94 455.111C304.807 455.303 304.678 455.499 304.547 455.693C303.63 473.631 308.624 495.011 312.002 512.692C313.201 518.968 314.874 525.513 315.303 531.892C315.477 534.478 315.332 537.394 313.958 539.674C312.927 541.385 311.325 542.428 309.374 542.808C297.262 545.169 259.309 517.058 248.83 509.948C242.671 505.798 235.893 500.522 228.575 498.797C219.453 496.647 208.949 498.937 199.675 499.406C167.019 501.056 135.368 491.415 110.34 470.078C88.4115 451.385 72.3042 424.086 70.1953 394.994C68.6749 374.02 75.7531 354.644 89.6099 338.914C119.073 305.469 163.29 295.623 205.821 292.73Z"/><path fill="#FEFEFE" d="M212.795 295.726C230.824 295.148 249.553 297.339 266.758 302.792C292.928 311.086 318.296 327.153 331.114 352.217C345.685 380.708 340.048 414.786 318.579 438.137C316.757 440.118 314.865 442.135 312.802 443.868C309.297 446.814 302.604 449.76 301.663 454.548C299.516 465.461 306.961 504.507 309.252 516.506C310.149 521.204 311.642 525.83 312.225 530.58C312.438 532.319 312.598 534.093 311.977 535.761C311.403 537.305 310.062 538.982 308.45 539.486C299.502 542.285 255.733 510.641 245.89 504.109C225.631 491.044 219.428 495.274 196.929 496.357C164.45 497.993 132.69 486.427 108.87 464.287C88.597 445.785 74.3745 419.492 73.3371 391.774C72.5721 371.332 80.5279 353.211 94.3225 338.362C124.758 305.601 170.206 297.383 212.795 295.726Z"/><path fill="#6257FE" d="M207.049 334.128C208.798 334.156 210.215 334.186 211.865 334.802C213.4 336.775 212.499 386.116 212.494 393L264.81 392.523C272.26 392.414 286.985 390.822 293.42 392.662C294.736 393.038 295.196 393.697 295.879 394.815L295.637 395.738C294.007 396.967 292.071 397.228 290.084 397.427C283.786 398.06 277.091 397.463 270.747 397.461L230.838 397.49C237.375 402.276 244.715 406.121 251.67 410.278C262.992 417.055 274.279 423.89 285.532 430.782C287.052 431.715 288.548 432.654 289.888 433.84C291.217 435.014 292.951 436.692 293.086 438.55C291.29 439.561 288.712 438.28 286.981 437.46C280.705 434.485 274.843 430.046 268.942 426.346C257.992 419.522 246.971 412.811 235.883 406.213C230.939 403.273 225.821 399.724 220.427 397.728C218.261 396.926 214.796 397.408 212.479 397.455C212.452 406.663 213.668 435.377 211.884 442.131C211.487 443.632 210.902 444.178 209.569 444.885L208.501 444.508C207.585 443.084 207.143 441.718 206.968 440.023C205.589 426.67 207.003 412.502 207.034 399.058C207.083 377.496 206.238 355.661 207.049 334.128Z"/><path fill="#6257FE" d="M261.353 333.737C268.662 333.619 275.972 333.541 283.283 333.5L233.301 364.166C228.429 367.133 223.593 370.118 218.515 372.725L218.56 334.028C232.825 334.069 247.09 333.972 261.353 333.737Z"/><path fill="#6257FE" d="M218.388 407.178C233.965 415.367 249.305 425.219 264.041 434.839C266.895 436.702 275.618 441.502 276.243 444.488C256.843 445.013 237.428 444.566 218.023 444.484L218.388 407.178Z"/><path fill="#6257FE" d="M147.323 334.06C164.812 333.477 182.492 334.02 200.001 334.023L199.977 371.847C194.7 369.569 189.573 364.986 184.858 361.624C172.196 352.642 159.683 343.453 147.323 334.06Z"/><path fill="#6257FE" d="M198.944 406.385L199.465 406.828C201.047 411.514 199.996 437.44 199.963 444.364L154.953 445.086L154.385 444.894L154.263 444.135C160.134 437.726 167.332 432.163 174.04 426.659L198.944 406.385Z"/><path fill="#6257FE" d="M290.955 333.372C292.108 333.967 293.099 334.349 293.749 335.54C292.111 340.246 235.886 373.953 227.654 378.944C238.464 378.623 288.768 376.84 295.384 380.425L295.579 381.244C293.379 383.274 291.449 383.202 288.6 383.262C278.489 382.647 220.275 384.931 217.189 382.576C217.817 381 219.158 379.942 220.472 378.931C229.763 371.78 239.994 365.923 249.897 359.683L290.955 333.372Z"/><path fill="#6257FE" d="M151.144 404.219C157.945 403.869 164.8 404.013 171.61 404.011C161.057 412.284 151.093 421.28 141.048 430.154L130.018 439.542C129.939 428.039 129.937 416.536 130.011 405.034L151.144 404.219Z"/><path fill="#6257FE" d="M168.448 393.222C174.706 392.821 196.075 391.878 200.607 394.215L200.75 395.278C196.018 403.228 173.308 420.432 164.911 427.745C159.617 432.355 154.599 437.48 149.039 441.746C146.85 443.425 143.29 446.074 140.463 445.71L140.246 445.03C142.139 440.487 152.222 433.147 156.285 429.596C168.519 418.857 180.931 408.324 193.516 397.999C179.535 397.819 165.507 398.519 151.526 398.756C145.57 398.857 137.72 399.686 131.998 398.334C130.782 398.047 129.717 397.728 128.999 396.645L129.451 395.847C136.432 392.212 159.319 393.658 168.448 393.222Z"/><path fill="#6257FE" d="M129.118 333.578C131.065 333.429 133.354 333.247 135.184 334.035C143.87 337.775 160.11 351.514 168.553 357.681C178.139 364.684 188.421 371.098 197.579 378.64C198.999 379.809 200.374 380.936 201.115 382.662L200.404 383.449C193.999 385.473 177.147 384.39 169.412 384.463C159.022 384.571 148.633 384.827 138.25 385.229C136.047 385.409 133.159 385.97 131.096 385.047C129.956 384.537 129.539 383.944 129.091 382.835L129.567 381.86C130.681 381.188 131.555 380.877 132.863 380.788C138.894 380.376 145.174 381.007 151.25 380.911L192.009 379.933C180.503 372.11 169.381 363.509 158.045 355.423C149.653 349.435 140.633 343.84 132.582 337.43C131.128 336.272 130.06 335.188 129.118 333.578Z"/><path fill="#6257FE" d="M129.057 347.25C135.164 350.646 162.954 370.529 166.308 375.482C153.881 375.896 141.447 376.068 129.013 375.997L129.057 347.25Z"/><path fill="#6257FE" d="M271.018 404.263C279.043 403.959 287.093 404.041 295.124 404.015C294.874 411.789 295.004 419.6 294.99 427.379C291.536 425.748 288.218 423.818 284.881 421.961C275.237 416.402 265.439 411.016 256.406 404.491L271.018 404.263Z"/><path fill="#6257FE" d="M294.804 349.373C297.067 354.613 295.58 366.896 295.41 372.946L259.658 372.992L259.181 372.313C267.697 364.078 284.432 355.746 294.804 349.373Z"/><path fill="#04040D" d="M786.452 304.759C792.043 304.826 797.663 304.776 803.25 305.013C836.663 306.433 875.307 316.655 898.346 342.144C910.814 355.937 917.465 373.112 916.382 391.774C914.937 416.691 900.681 439.488 882.318 455.697C850.064 484.167 805.629 488.879 764.41 486.459C758.207 485.712 751.678 484.682 745.439 485.548C727.933 487.978 704.95 508.396 687.194 509.145C683.324 509.309 679.8 508.274 676.994 505.511C669.052 497.69 676.293 453.349 672.771 439.697C671.673 435.44 669.004 431.76 666.772 428.028C660.998 418.374 658.023 408.312 657.705 397.079C657.118 376.416 666.555 357.602 680.64 342.921C708.448 313.937 747.866 305.671 786.452 304.759Z"/><path fill="#FEFEFE" d="M774.541 308.288C779.894 307.855 785.337 307.86 790.706 307.855C826.645 307.82 867.892 315.928 894.045 342.347C906.331 354.758 913.761 371.211 913.504 388.796C913.169 411.776 900.932 433.445 884.728 449.124C854.719 478.162 813.648 484.469 773.647 483.942C764.096 483.226 754.221 481.228 744.643 482.546C731.843 484.308 714.644 494.966 702.577 500.731C697.802 503.013 692.559 505.751 687.215 506.236C684.577 506.475 682.235 505.877 680.258 504.046C678.454 502.375 677.518 500.088 677.028 497.723C675.678 491.212 676.604 483.474 676.696 476.841C676.781 468.465 676.785 460.088 676.71 451.712C676.684 447.606 677.077 442.661 675.99 438.686C674.958 434.909 672.537 431.427 670.553 428.087C665.411 419.43 661.288 410.475 660.613 400.284C659.353 381.259 667.182 363.09 679.534 348.923C703.621 321.297 739.174 310.798 774.541 308.288Z"/><path fill="#6257FE" d="M717.948 398.5L814.279 398.502L840.07 398.498C844.574 398.493 849.487 398.044 853.916 398.781C854.629 400.42 854.268 402.225 854.113 403.957L764.198 403.985C754.641 403.996 725.725 405.638 718.648 403.262C717.778 401.827 717.972 400.126 717.948 398.5Z"/><path fill="#6257FE" d="M718.31 366.706L806.648 366.713C821.289 366.706 836.134 366.02 850.748 366.764C852.516 366.854 853.205 367.14 854.382 368.454C854.661 369.387 854.782 369.829 854.55 370.809C854.321 371.775 854.449 371.439 853.51 372.031C823.795 372.664 794.087 372.023 764.371 372.008C750.627 372.001 734.07 373.646 720.742 372.083C719.373 371.923 718.92 371.618 718.046 370.59C717.87 369.18 718.045 368.077 718.31 366.706Z"/><path fill="#6257FE" d="M718.068 429.553C733.256 429.54 847.034 427.995 853.053 430.259C853.934 431.674 853.602 433.351 853.521 434.948C842.94 435.291 832.261 435.002 821.671 434.995L760.914 434.959C753.237 434.955 724.563 435.86 719.063 434.584C718.043 433.131 718.163 431.268 718.068 429.553Z"/><defs><linearGradient id="gradient_0" gradientUnits="userSpaceOnUse" x1="200.27371" y1="560.06567" x2="122.13852" y2="775.17596"><stop offset="0" stop-color="#000001"/><stop offset="1" stop-color="#0B0A1B"/></linearGradient></defs><path fill="url(#gradient_0)" d="M196.83 561.723C200.804 561.368 206.906 561.61 210.339 563.713C213.882 565.883 214.439 568.911 215.283 572.679C220.148 571.206 224.9 570.146 229.961 569.612C239.509 599.474 246.835 630.376 254.779 660.71L261.876 687.856C263.366 693.568 265.32 699.532 265.952 705.402L265.449 705.997C261.784 707.17 257.288 706.309 253.53 705.894C254.867 711.416 256.036 716.977 257.038 722.57C249.08 722.803 241.227 722.288 233.283 722.297C209.251 722.324 194.545 728.99 177.864 745.744L177.116 745.479C156.551 738.263 135.989 747.991 117.626 756.791C110.285 760.604 103.075 764.714 95.127 767.127C87.1226 749.331 83.5841 729.051 78.4627 710.281C71.1377 683.434 62.9667 656.669 56.4866 629.618C61.1506 627.636 65.7892 625.594 70.4013 623.494C69.5252 620.222 68.7384 616.989 68.1555 613.651C73.2807 611.938 78.3646 610.104 83.4027 608.15C82.7332 605.539 82.0437 602.933 81.3343 600.332C88.0843 593.581 96.7587 588.166 105.865 585.263C120.099 580.725 134.922 581.555 148.248 588.338C149.673 586.318 151.069 584.231 152.669 582.344C163.984 568.995 179.863 563.247 196.83 561.723Z"/><path fill="#FEFEFE" d="M195.644 565.201C199.544 564.777 205.464 564.655 208.8 566.911C210.545 568.091 211.152 570.23 211.802 572.134C218.033 590.398 221.756 609.946 226.613 628.631L235.744 663.24C238.009 671.804 240.468 680.365 241.926 689.112C223.723 686.614 206.215 690.311 190.434 699.568C186.891 701.955 183.873 704.735 180.765 707.658C178.548 700.632 176.99 693.277 175.159 686.134L164.362 643.807C159.907 626.387 154.022 608.837 151.105 591.112C152.448 588.665 154.017 586.35 155.792 584.196C165.769 572.196 180.437 566.576 195.644 565.201Z"/><path fill="#FEFEFE" d="M117.799 586.16C128.453 584.956 137.598 587.364 147.4 591.368C149.091 597.028 150.701 602.711 152.231 608.417C157.453 628.242 162.026 648.257 167.098 668.126C170.426 681.162 174.689 694.487 177.216 707.678C177.484 709.074 177.444 709.62 176.733 710.838C173.333 710.897 169.906 709.222 166.551 708.639C157.607 707.084 148.304 708.697 139.592 710.763C131.313 713.454 123.488 716.827 115.643 720.564C104.19 681.251 96.0599 641.046 85.0745 601.613C94.572 592.866 105.122 588.105 117.799 586.16Z"/><path fill="#6257FE" d="M225.917 573.691C226.541 573.57 226.986 573.669 227.608 573.761C228.806 575.304 229.357 577.563 229.892 579.433C235.709 599.747 240.685 621.028 246.214 641.534C251.74 662.025 258.057 682.343 262.421 703.121C254.407 702.867 246.415 701.769 238.389 701.723C214.584 701.585 195.376 709.331 178.55 726.013C176.401 725.229 174.233 724.497 172.05 723.815C148.889 716.674 125.09 728.422 104.989 739.123C98.7312 722.234 94.828 704.698 90.2832 687.307C85.3931 668.595 80.0976 649.993 75.5898 631.182C74.0851 626.095 72.9883 620.784 71.7248 615.627C75.9681 613.982 80.2494 612.503 84.5602 611.047C93.0603 648.753 102.684 687.88 113.439 724.978C138.177 714.725 152.019 707.125 179.178 715.536C181.558 712.093 184.038 708.955 187.123 706.108C203.268 691.217 225.7 691.581 246.255 692.495C245.169 685.383 243.084 678.411 241.281 671.454L232.69 638.643C229.841 628.215 227.064 617.769 224.358 607.303C221.662 596.601 219.264 585.802 216.067 575.235L225.917 573.691Z"/><path fill="#04040D" d="M774.167 697.153C766.12 692.917 736.706 681.035 733.808 672.858C733.05 670.719 733.286 668.102 734.339 666.103C735.198 664.47 736.492 663.214 738.068 662.277C744.322 658.559 751.469 655.828 758.113 652.846L793.836 636.859C802.612 632.987 811.356 629.04 820.065 625.019C828.512 621.118 837 616.73 846.03 614.352C847.835 613.877 849.143 613.591 850.929 614.185C860.431 617.346 869.14 622.377 877.991 627L910.915 644.135L943.972 661.218C949.417 664.031 955.344 666.588 960.495 669.872C962.518 671.161 964.679 673.134 965.767 675.306C966.637 677.044 966.781 678.897 966.042 680.713C963.188 687.716 950.671 689.919 944.564 693.429C943.964 706.137 943.441 718.949 943.409 731.671C944.728 733.336 946.538 735.279 947.223 737.305C948.929 742.356 947.93 763.026 947.147 768.822C946.992 769.968 946.833 770.752 945.955 771.568L945.168 771.491C944.294 770.088 944.085 769.164 943.941 767.527L943.162 767.157C943.012 769.019 942.821 769.889 941.656 771.369L940.972 771.701C940.109 770.593 940.043 769.711 939.771 768.371C938.325 769.224 938.619 771.14 936.961 771.85C934.024 768.57 934.583 749.762 934.828 744.835C935.094 739.486 936.017 736.197 939.835 732.378C941.295 719.939 941.19 707.066 941.663 694.54C937.169 696.151 932.531 697.618 928.167 699.552C928.131 712.532 927.163 725.592 926.349 738.547C925.809 747.151 925.727 756.492 923.88 764.899C923.414 767.019 922.821 769.233 921.205 770.779C912.564 779.045 871.71 778.949 858.997 778.156C842.096 777.101 778.372 769.608 767.956 758.655C765.794 756.381 765.953 752.966 766.152 750.034C767.311 732.985 772.498 714.533 774.167 697.153Z"/><path fill="#FEFEFE" d="M943.162 767.157C942.822 761.24 941.522 753.802 943.472 748.105L943.841 748.017C945.074 753.911 944.208 761.475 943.941 767.527L943.162 767.157Z"/><path fill="#6257FE" d="M847.122 617.055C847.425 617.063 847.728 617.057 848.031 617.078C850.964 617.288 853.783 618.171 856.44 619.385C872.644 626.782 888.161 635.924 903.938 644.187C922.037 653.667 940.609 662.508 958.5 672.338C959.858 673.084 961.793 674.05 962.702 675.316C963.737 676.757 963.878 677.788 963.525 679.487C958.75 686.451 935.981 693.418 927.686 696.412C910.763 689.897 894.281 681.86 877.623 674.667C868.031 670.525 858.447 666.345 848.32 663.676C848.746 664.084 849.178 664.479 849.611 664.878C856.718 671.431 874.551 676.886 884.054 680.947L918.128 695.774C919.951 696.565 921.69 697.564 923.44 698.503C909.754 703.32 896.258 708.665 882.985 714.524C874.082 718.38 865.21 722.82 855.971 725.795C853.209 726.684 848.772 728.297 845.886 727.8C836.293 726.146 807.083 709.546 796.593 704.303C783.126 697.572 769.421 691.322 756.008 684.481C750.997 681.925 738.37 676.877 736.827 671.246C736.417 669.749 736.653 668.437 737.49 667.146C738.668 665.33 741.295 664.106 743.172 663.158C749.86 659.777 756.909 656.936 763.751 653.865L802.931 636.231L828.929 624.464C834.815 621.803 840.833 618.585 847.122 617.055Z"/><path fill="#6257FE" d="M776.881 698.113C784.714 701.118 792.358 705.343 799.768 709.257C811.426 715.415 823.067 721.808 835.02 727.382C839.026 729.25 843.919 731.248 848.402 730.793C861.305 729.481 877.827 720.086 890.031 714.91C901.847 709.898 913.893 705.074 925.972 700.73C926.036 708.414 925.033 716.047 924.368 723.691C923.716 731.961 923.114 740.236 922.563 748.513C922.589 755.161 922.65 761.286 920.552 767.659C920.172 768.058 919.772 768.437 919.354 768.795C908.795 777.978 865.654 775.801 851.233 774.677C838.062 773.65 777.312 765.537 770.479 756.282C769.264 754.636 769.438 751.775 769.521 749.82C769.817 742.866 771.354 735.731 772.441 728.849C774.083 718.628 775.563 708.381 776.881 698.113Z"/><path fill="#FEFEFE" d="M938.877 746.725C939.183 747.232 939.309 747.371 939.457 748.026C939.83 749.682 939.66 766.153 939.148 766.799C939.165 759.961 937.331 753.534 938.877 746.725Z"/><path fill="#04040D" d="M111.441 800.519C121.776 804.025 131.261 811.238 140.636 816.756L182.689 841.147C189.031 844.876 197.058 850.625 204.196 852.425C212.564 854.993 219.553 861.182 227.896 863.351C228.528 864.12 228.558 864.18 228.717 865.236C227.41 866.621 225.479 867.378 223.764 868.158C203.566 877.343 183.005 885.703 162.905 895.134C158.065 897.405 143.385 905.588 139.557 905.805C138.765 905.849 138.669 905.5 138.14 905.005C137.135 898.434 142.789 885.645 144.949 879.315C137.203 882.334 129.576 885.663 121.821 888.674C119.182 874.13 117.645 859.247 115.806 844.582C113.983 830.048 111.667 815.167 111.441 800.519ZM124.337 884.127C141.085 877.237 158.227 870.41 174.626 862.755C181.977 859.545 189.302 856.165 196.801 853.319C180.504 842.443 162.783 833.44 145.788 823.7C136.16 818.183 123.991 809.883 114.298 805.404C117.319 831.595 120.357 858.072 124.337 884.127Z"/><path fill="#6257FE" d="M204.196 852.425C212.564 854.993 219.553 861.182 227.896 863.351C217.874 866 208.361 871.25 198.901 875.437C179.588 883.986 160.363 892.452 141.439 901.856C143.889 893.944 146.192 885.987 148.346 877.989C160.359 871.878 173.322 867.16 185.698 861.791C191.798 859.144 198.934 856.529 204.196 852.425Z"/><path fill="#04040D" d="M755.334 127.097C770.382 127.175 785.521 129.359 800.529 130.528C817.364 131.839 834.72 132.254 851.423 134.579C854.212 134.968 857.285 135.534 859.726 136.971L859.436 137.607C851.466 139.146 837.799 137.161 829.427 136.498L779.475 132.383C775.349 132.065 768.586 130.341 764.777 131.776C766.559 135.156 819.943 153.364 825.726 155.152C834.525 157.873 843.641 159.472 852.373 162.355C850.064 170.15 811.714 249.633 808.196 251.991C808.05 252.089 807.878 252.143 807.719 252.219C806.71 251.704 806.613 251.54 806.016 250.564C802.927 244.026 803.122 236.006 797.145 231.127C791.859 223.427 784.294 201.551 780.539 192.135C771.986 170.687 762.412 149.065 755.334 127.097Z"/><path fill="#6257FE" d="M837.285 161.817C841.094 162.609 845 163.275 848.727 164.386C841.325 180.029 833.706 195.568 825.874 211C819.314 224.227 813.026 237.562 806.016 250.564C802.927 244.026 803.122 236.006 797.145 231.127C805.056 222.388 809.821 210.365 815.629 200.137C822.877 187.372 830.676 174.942 837.285 161.817Z"/><path fill="#FEFEFE" d="M761.788 135.105C771.039 137.823 780.332 142.182 789.422 145.544C804.185 151.003 819.201 155.79 833.651 162.059C827.041 175.99 818.063 189.199 810.475 202.671C806.442 210.286 802.384 217.901 797.771 225.184C791.031 209.909 785.341 194.267 778.948 178.856C774.68 168.568 763.57 144.828 761.788 135.105Z"/><path fill="#04040D" d="M923.034 471.62C925.366 471.531 927.533 471.733 929.784 472.363C942.217 475.843 931.959 489.929 936.329 497.36C938.973 499.14 945.314 496.153 948.506 495.703C950.907 495.365 953.524 495.492 955.47 497.095C957.504 498.77 958.398 501.213 958.559 503.788C959.074 512.051 954.28 517.796 949.229 523.607C952.25 529.327 955.278 534.253 954.428 541.085C953.893 545.536 951.576 549.581 948.008 552.294C945.027 554.536 941.146 555.937 937.391 555.298C928.942 553.861 925.189 540.747 920.673 534.502L920.262 533.942C918.193 543.334 922.74 558.495 915.951 565.962C913.122 569.074 909.61 569.535 905.615 569.604C905.091 569.518 904.568 569.424 904.047 569.323C899.474 568.425 893.025 565.813 890.443 561.72C883.763 551.132 898.311 543.647 900.471 534.701L899.553 533.701C895.313 531.874 889.243 535.473 884.913 536.293C881.316 536.974 877.484 536.786 874.447 534.537C870.535 531.639 869.54 526.905 868.774 522.392C869.555 520.239 870.45 518.281 872.072 516.616C875.691 512.898 880.372 512.461 885.268 512.506C884.644 511.611 884.037 510.704 883.449 509.784C880.597 505.344 879.686 500.864 880.923 495.716C881.767 492.204 883.78 487.901 887.085 486.072C894.097 482.191 900.521 491.256 906.518 493.113C913.15 491.627 910.848 478.236 923.034 471.62Z"/><path fill="#FEFEFE" d="M923.62 474.405C925.805 474.549 927.867 474.901 929.837 475.914C937.69 479.951 930.036 491.737 932.57 498.131C935.754 506.165 946.507 496.058 952.185 498.969C953.66 499.725 954.556 501.361 955.074 502.872C958.006 511.412 949.473 516.4 946.132 523.119C946.041 523.303 945.954 523.49 945.865 523.676C947.205 527.324 949.444 530.603 950.744 534.274C952.051 537.964 952.157 541.672 950.277 545.18C948.482 548.529 945.282 550.781 941.636 551.746C929.242 555.025 929.588 534.965 922.015 531.442C920.842 530.897 919.6 530.978 918.497 531.613C914.395 533.971 916.785 554.404 915.624 559.526C915.089 561.882 914.064 564.178 911.915 565.469C908.927 567.263 905.119 566.464 901.939 565.694C898.862 564.432 895.403 562.655 893.485 559.827C888.044 551.801 902.456 543.38 903.483 535.242C903.697 533.548 903.616 532.302 902.53 530.925C897.266 527.967 889.301 532.735 883.702 533.202C880.765 533.447 877.667 532.792 875.475 530.709C873.437 528.772 872.345 525.402 872.434 522.638C872.488 520.941 873.091 519.447 874.401 518.337C879.11 514.347 889.022 516.805 894.695 517.272C892.388 513.839 888.901 511.385 886.3 508.168C883.968 505.284 882.973 501.948 883.429 498.256C883.833 494.978 885.575 491.506 888.304 489.553C895.184 484.631 900.764 496.24 906.864 496.718C912.761 497.18 915.597 484.599 918.109 480.385C919.639 477.817 921.306 476.221 923.62 474.405Z"/><path fill="#04040D" d="M830.629 837.064C851.429 834.567 870.293 849.464 872.684 870.277C875.075 891.09 860.082 909.877 839.258 912.163C818.582 914.432 799.959 899.569 797.585 878.906C795.211 858.242 809.978 839.544 830.629 837.064Z"/><path fill="#FEFEFE" d="M829.789 840.227C848.851 837.239 866.709 850.321 869.608 869.397C872.508 888.472 859.344 906.269 840.255 909.08C821.29 911.873 803.635 898.814 800.754 879.862C797.874 860.911 810.851 843.195 829.789 840.227Z"/><path fill="#04040D" d="M98.8954 149.196C105.871 153.09 112.551 161.03 118.344 166.633C132.599 180.419 147.254 194.194 160.197 209.231C156.255 212.916 152.644 217.151 148.936 221.08C141.594 228.964 134.113 236.719 126.498 244.34C106.726 224.167 84.9687 205.928 64.7164 186.237C73.3391 172.94 86.9819 159.626 98.8954 149.196Z"/><path fill="#6257FE" d="M99.0371 152.395C109.192 162.748 120.548 171.752 130.345 182.504C139.252 190.822 148.93 199.454 156.041 209.39C146.066 219.404 136.7 229.997 126.795 240.082C117.686 231.87 108.86 223.334 99.7912 215.072C89.3305 206.936 78.5117 195.099 68.8384 185.741C78.3649 174.148 88.4427 163.02 99.0371 152.395Z"/><path fill="#FEFEFE" d="M130.345 182.504C139.252 190.822 148.93 199.454 156.041 209.39C146.066 219.404 136.7 229.997 126.795 240.082C117.686 231.87 108.86 223.334 99.7912 215.072C108.912 203.683 120.832 194.304 130.345 182.504Z"/><path fill="#04040D" d="M267.644 60.5353C268.111 60.5133 268.579 60.4984 269.046 60.4904C271.845 60.4519 274.4 61.0636 276.392 63.1604C280.627 67.6166 279.629 75.8214 279.449 81.5131C283.502 79.6407 287.428 77.6764 291.962 77.2877C295.265 77.0045 299.142 77.7017 301.651 80.0279C303.011 81.2885 303.752 83.0073 303.697 84.8646C303.544 90.0671 299.752 94.1163 296.2 97.4501C298.104 98.5517 299.976 99.7747 301.636 101.224C305.21 104.344 307.791 108.853 308.094 113.635C308.273 116.466 307.56 119.076 305.633 121.205C298.761 128.794 286.146 123.03 278.227 120.36C276.526 119.786 274.36 118.705 272.554 118.819C270.191 123.576 277.3 135.033 274.806 142.471C273.752 145.613 271.7 147.139 268.83 148.56C268.14 148.697 267.473 148.814 266.773 148.889C264.11 149.175 261.191 148.708 259.109 146.898C255.695 143.933 255.434 139.474 255.013 135.309C252.643 137.686 249.794 139.706 246.446 140.4C244.576 140.787 242.628 140.592 241.052 139.442C239.235 138.116 238.352 135.91 238.111 133.736C237.499 128.231 240.652 123.952 243.775 119.824C240.212 119.274 236.69 118.719 233.503 116.929C230.548 115.27 228.079 112.73 227.275 109.358C226.689 106.871 227.143 104.252 228.53 102.106C231.558 97.3753 237.032 96.1703 242.123 95.0308C240.655 93.294 239.135 91.5597 237.874 89.6633C236.185 87.124 234.797 84.0378 235.566 80.9383C236.414 77.5195 239.04 76.1218 241.867 74.5141C247.93 74.0759 252.4 75.3511 258.071 77.4149C258.589 74.5886 259.008 71.5343 259.933 68.8076C261.371 64.5667 263.737 62.4915 267.644 60.5353Z"/><path fill="#FEFEFE" d="M267.263 63.5101C268.766 63.4172 270.287 63.3856 271.761 63.7604C281.004 66.1122 273.129 78.3843 276.458 84.2433C279.514 85.3502 285.289 82.1266 288.382 81.1591C291.049 80.3249 296.591 79.2032 299.105 81.0389C300.248 81.8735 300.599 82.5432 300.823 83.9315C301.702 89.3861 294.53 94.0302 291.329 97.6058C295.884 101.561 302.228 104.991 305.026 110.509C305.855 112.145 305.886 114.12 305.296 115.844C304.474 118.241 302.182 120.427 299.882 121.416C294.246 123.839 287.858 120.226 282.751 118.015C279.859 116.763 274.544 113.918 271.476 115.578C265.895 118.598 273.076 136.571 271.468 142.52C271.105 143.866 270.413 145.036 269.097 145.654C266.498 146.874 263.241 145.6 260.718 144.755C257.439 140.091 259.055 135.716 259.303 130.544C259.38 128.922 259.169 127.611 258.061 126.355C254.286 126.288 251.001 135.709 246.622 137.23C245.388 137.659 244.404 137.508 243.278 136.848C241.858 136.017 240.551 133.621 240.409 132.017C240.025 127.683 245.579 123.808 248.167 120.849C249.264 119.594 249.916 118.495 249.811 116.77C245.931 115.224 240.648 116.312 236.449 115.224C234.004 114.59 232.352 112.717 231.211 110.55C230.214 108.655 229.081 106.076 230.003 103.939C231.981 99.3533 241.141 99.7759 245.147 98.0288C248.756 93.3907 238.151 88.2991 238.425 82.9774C238.525 81.0408 239.979 79.2354 241.487 78.1254C247.22 73.9053 251.612 80.5912 256.894 80.4866C261.806 80.3894 262.414 71.3586 264.015 67.7929C264.764 66.1238 266.018 64.82 267.263 63.5101Z"/><path fill="#04040D" d="M542.618 47.2745C547.611 48.6734 552.205 52.9844 556.645 55.6579C566.15 61.382 577.924 63.8677 588.802 65.3913C592.931 65.9696 598.762 66.0364 602.292 68.3427C603.166 73.7168 587.132 111.12 584.486 118.908L579.04 118.92C566.073 118.066 552.164 116.729 539.947 112.146C535.27 110.392 519.998 103.085 518.438 98.7021C517.571 96.2646 539.423 52.5964 542.618 47.2745Z"/><path fill="#FEFEFE" d="M543.822 50.8634C555.182 59.0927 566.471 63.7946 580.175 66.7683C586.82 68.1459 593.425 69.453 600.183 70.1598C593.593 85.447 587.893 100.678 582.857 116.542C559.522 113.728 540.596 113.023 520.883 98.3029C522.111 95.8986 523.255 93.1603 524.703 90.8994C531.667 77.9253 537.245 64.0635 543.822 50.8634Z"/><path fill="#6257FE" d="M580.175 66.7683C586.82 68.1459 593.425 69.453 600.183 70.1598C593.593 85.447 587.893 100.678 582.857 116.542C559.522 113.728 540.596 113.023 520.883 98.3029C522.111 95.8986 523.255 93.1603 524.703 90.8994C538.444 98.0897 551.078 102.375 566.513 104.158L580.175 66.7683Z"/><path fill="#04040D" d="M424.997 254.558C424.991 240.182 425.164 225.783 424.902 211.411C424.766 203.972 423.235 186.151 424.752 179.721C425.509 178.767 425.975 178.526 427.124 178.142C428.031 178.409 427.987 178.226 428.492 178.871C429.651 180.351 429.858 182.486 429.987 184.301C430.687 194.137 429.96 205.203 429.982 215.211C430.014 230.028 430.793 245.274 429.688 260.025C429.57 260.684 429.377 261 429.044 261.569C427.597 262.088 425.846 262.464 424.385 261.71C421.744 260.348 388.427 194.811 385.11 187.505L385.039 243.689C385.023 248.508 386.133 253.911 385.385 258.618C385.12 260.285 384.658 261.054 383.309 262.031C382.066 262.025 381.588 261.902 380.564 261.193C380.208 260.575 379.917 260.027 379.861 259.299C379.268 251.603 379.892 243.644 379.91 235.92C379.955 216.819 380.32 197.631 379.748 178.539L385.7 178.736C398.018 204.418 412.561 228.933 424.997 254.558Z"/><path fill="#04040D" d="M470.141 177.616C473.546 177.397 477.204 177.337 480.568 177.934C486.737 179.028 492.339 182.192 495.789 187.527C496.99 189.384 498.697 192.421 498.079 194.701C497.844 195.567 497.356 195.61 496.643 196.042C493.322 195.596 488.624 185.893 482.524 183.348C477.417 181.217 470.578 181.366 465.528 183.591C458.793 186.559 454.655 193.116 452.126 199.757C447.105 212.94 447.096 230.607 453.014 243.507C455.932 249.865 460.77 255.207 467.513 257.552C476.802 260.781 485.407 256.917 493.644 252.868C493.857 244.371 493.799 235.869 493.471 227.376L493.469 226.482C490.734 223.919 480.784 226.463 476.621 225.688C475.13 225.41 474.493 224.972 473.682 223.718C473.714 222.556 473.491 222.614 474.366 221.72C480.795 219.584 492.14 220.896 499.159 221.011C498.857 232.126 499.074 243.325 499.216 254.443C494.11 258.773 486.729 261.813 480.186 263.05C472.746 264.457 465.308 263.233 458.986 258.903C450.506 253.095 446.093 243.426 444.249 233.586C441.585 219.378 442.772 201.64 451.226 189.422C455.873 182.707 462.161 179.082 470.141 177.616Z"/><path fill="#04040D" d="M688.076 177.898C689.529 177.956 690.918 177.805 692.086 178.796C693.396 181.715 693.405 255.644 692.285 259.491C691.876 260.897 691.408 261.172 690.165 261.857C689.368 261.707 689.287 261.866 688.849 261.345C686.291 258.299 687.488 227.228 687.482 221.514C674.811 219.972 660.377 220.978 647.502 220.97C647.681 234.257 647.138 247.547 647.35 260.855C646.974 261.231 646.569 261.429 646.04 261.552C644.641 261.876 643.772 261.579 642.588 260.897C642.284 260.383 642.114 260.174 641.991 259.515C641.519 256.989 641.959 253.569 641.925 250.948C641.794 240.762 641.916 230.609 641.952 220.424L641.897 196.078C641.874 191.15 641.528 185.929 642.17 181.044C642.354 179.643 642.38 178.995 643.497 178.099C644.566 178.224 644.931 178.379 645.755 179.104C646.588 179.836 647.483 181.347 647.666 182.414C648.348 186.373 647.279 191.67 647.171 195.81C647 202.664 647.136 209.523 647.578 216.365L687.511 216.52C686.669 209.085 686.122 184.111 688.076 177.898Z"/><path fill="#04040D" d="M323.84 178.506C335.585 179.854 352.328 176.702 363.875 178.68C365.334 178.929 365.853 179.109 366.693 180.319C366.587 181.773 366.751 182.056 365.755 183.086C360.88 184.434 335.73 183.521 328.99 183.519C328.793 194.175 329.343 204.896 329.301 215.577C331.555 217.414 352.022 215.91 356.301 216.162C358.423 216.287 360.563 216.364 362.04 218.058C362.078 218.736 362.31 219.069 361.74 219.565C358.363 222.505 335.132 221.27 329.615 221.13C329.478 223.319 329.617 225.486 329.723 227.674C329.553 237.471 330.524 247.514 329.388 257.247C338.803 258.207 357.95 255.304 365.624 257.268C367.023 257.626 367.97 258.095 368.659 259.368L368.215 260.211C366.718 261.22 365.34 261.838 363.521 262.043C359.422 262.507 354.715 262.047 350.568 262.026L323.553 261.996C324.632 252.279 324.028 241.916 324.021 232.126L323.84 178.506Z"/><path fill="#04040D" d="M602.968 177.18C609.175 176.363 616.437 177.879 621.846 181.007C623.998 182.251 627.234 184.619 627.801 187.222C628.118 188.678 627.746 190.662 626.888 191.867C626.396 192.558 626.035 192.448 625.266 192.616C622.906 191.624 621.294 187.778 619.612 185.793C617.088 182.815 612.172 181.725 608.462 181.507C602.925 181.181 596.346 182.479 592.213 186.428C589.022 189.476 587.445 193.788 587.359 198.154C587.018 215.494 614.687 216.378 624.457 226.498C628.48 230.665 630.098 235.73 630.058 241.441C630.015 247.628 628.205 252.722 623.643 257.03C617.428 262.899 609.221 263.565 601.144 263.465C593.838 261.985 586.707 259.415 582.243 253.004C580.758 250.869 580.351 248.253 580.956 245.714C581.249 244.481 581.582 243.934 582.629 243.262C585.849 244.275 588.079 252.145 591.768 255.104C596.2 258.66 601.969 259.089 607.412 258.43C612.667 257.794 618.37 256.128 621.688 251.72C624.394 248.124 625.396 242.603 624.583 238.223C621.874 223.633 600.537 221.798 590.409 214.462C586.007 211.273 582.953 207.101 582.238 201.62C581.427 195.404 582.9 190.048 586.74 185.094C590.8 179.855 596.684 178.014 602.968 177.18Z"/><path fill="#04040D" d="M513.768 178.463C515.503 178.544 516.603 178.362 518.082 179.312C520.093 184.386 519.022 247.464 519.047 257.225C527.092 256.982 548.296 255.772 554.99 257.509C555.79 258.727 555.505 260.582 555.503 261.997L513.55 261.947C513.913 254.211 513.489 246.357 513.435 238.611L513.447 200.147C513.459 192.979 513.146 185.602 513.768 178.463Z"/><path fill="#04040D" d="M564.76 178.536C566.49 178.461 567.958 178.429 569.649 178.831C569.843 179.081 570.096 179.295 570.23 179.582C570.565 180.3 570.141 253.317 570.094 261.914C568.459 261.756 566.456 261.871 565.144 260.791C563.334 253.486 564.801 243.198 564.861 235.503C565.009 216.558 565.339 197.47 564.76 178.536Z"/></svg>