<svg width="56.902466" height="59.925781" viewBox="0 0 56.9025 59.9258" fill="none" xmlns="http://www.w3.org/2000/svg" xmlns:xlink="http://www.w3.org/1999/xlink">
	<desc>
			Created with Pixso.
	</desc>
	<defs/>
	<rect id="animated_GIFT" width="44.201920" height="48.847290" transform="translate(14.769470 0.000000) rotate(17.599426)" fill="#FFFFFF" fill-opacity="0"/>
	<path id="Vector" d="M8.47 23.98L43.43 35.07L36.51 56.88L1.55 45.79L8.47 23.98Z" fill="#FDB827" fill-opacity="1.000000" fill-rule="evenodd"/>
	<path id="Vector" d="M22.31 28.37L29.58 30.67L22.66 52.49L15.39 50.18L22.31 28.37Z" fill="#AD1717" fill-opacity="1.000000" fill-rule="evenodd"/>
	<path id="Vector" d="M29.53 19.13C29.53 19.13 29.28 9.14 23.52 10.15C17.76 11.15 15.3 19.59 22.12 21.16C28.93 22.72 29.53 19.13 29.53 19.13Z" fill="#D32F2F" fill-opacity="1.000000" fill-rule="nonzero"/>
	<path id="Vector" d="M30.1 19.31C30.1 19.31 36.07 11.3 40.2 15.44C44.33 19.58 41.46 27.9 35 25.23C28.53 22.57 30.1 19.31 30.1 19.31Z" fill="#D32F2F" fill-opacity="1.000000" fill-rule="nonzero"/>
	<path id="Vector" d="M32.61 20.54C32.11 22.1 30.41 22.94 28.8 22.43C27.18 21.92 26.28 20.25 26.77 18.69C27.26 17.14 28.97 16.29 30.58 16.8C32.19 17.31 33.1 18.99 32.61 20.54Z" fill="#AD1717" fill-opacity="1.000000" fill-rule="evenodd"/>
	<path id="Vector" d="M11.3 16.14L45.63 27.03C46.84 27.41 47.52 28.67 47.15 29.83L45.91 33.74C45.54 34.9 44.26 35.54 43.05 35.15L8.72 24.26C7.51 23.88 6.83 22.63 7.2 21.46L8.44 17.56C8.81 16.39 10.09 15.76 11.3 16.14Z" fill="#F3703A" fill-opacity="1.000000" fill-rule="evenodd"/>
	<path id="Vector" d="M24.88 20.45L32.04 22.72L29.47 30.85L22.31 28.57L24.88 20.45Z" fill="#D32F2F" fill-opacity="1.000000" fill-rule="evenodd"/>
</svg>
