<?xml version="1.0" encoding="utf-8" ?><svg xmlns="http://www.w3.org/2000/svg" xmlns:xlink="http://www.w3.org/1999/xlink" viewBox="0 0 1024 1024"><path fill="#5D89D1" d="M661.856 357.804C671.455 359.641 680.95 362.219 690.416 364.638C721.581 372.597 752.223 382.482 782.164 394.236C793.17 398.532 803.113 404.655 813.925 409.174C819.565 411.531 825.756 412.935 831.66 414.495L831.862 414.489C843.191 414.873 855.55 417.79 866.581 420.364C902.178 428.667 940.146 440.1 970.926 460.394C969.755 465.96 967.652 471.293 965.656 476.603C970.849 478.402 976.026 480.18 981.1 482.299C966.187 525.575 949.52 568.268 934.25 611.424L915.884 662.965C912.239 673.376 909.141 684.725 904.329 694.615C888.962 691.742 873.54 685.745 858.824 680.495C844.957 675.492 831.018 670.689 817.013 666.088L672.322 617.722C645.291 608.62 618.301 598.75 591.047 590.388C592.316 586.112 593.527 581.819 594.679 577.51C592.683 576.706 590.118 575.861 588.854 573.975C586.573 570.573 589.083 563.517 590.211 559.966C595.471 543.418 603.432 527.694 609.373 511.35C619.258 483.749 628.869 456.05 638.205 428.258C643.628 412.469 649.616 396.854 654.877 381.016C657.428 373.34 659.503 365.538 661.856 357.804Z"/><path fill="white" d="M820.957 413.275C824.516 413.862 828.04 414.546 831.66 414.495L831.862 414.489C835.767 416.568 851.257 418.676 856.732 419.864C863.75 421.406 870.722 423.146 877.641 425.081C909.336 433.643 939.978 445.707 969.003 461.049C964.106 479.658 956.89 496.889 949.909 514.771C946.187 524.303 942.893 534.024 939.46 543.663L910.572 624.88C905.322 639.647 900.485 654.769 894.564 669.275C862.527 650.427 828.847 637.101 792.718 628.299C779.003 624.958 764.582 624.246 751.343 619.059C754.645 611.255 756.828 602.805 759.339 594.707C763.247 581.993 767.304 569.326 771.51 556.707C787.472 508.718 803.955 460.905 820.957 413.275Z"/><path fill="#5D89D1" d="M856.359 553.814C875.896 559.339 894.283 568.326 910.646 580.346C904.004 596.057 899.044 612.386 892.994 628.321C886.064 626.101 879.924 619.444 873.465 615.857C862.403 609.712 850.959 604.896 839.499 599.592C847.929 586.222 852.09 568.923 856.359 553.814Z"/><path fill="#EFD188" d="M857.514 555.772C876.805 564.415 891.458 567.482 908.544 581.875C901.91 596.097 897.319 611.145 891.987 625.875C888.534 626.051 871.348 612.69 867.077 610.266C859.015 605.776 850.58 601.99 841.866 598.949C848.321 584.992 853.038 570.457 857.514 555.772Z"/><path fill="#5D89D1" d="M794.336 543.022C812.523 542.764 830.629 545.507 847.924 551.141C842.876 561.166 839.155 572.581 835.867 583.305C834.552 587.595 833.778 593.029 831.85 596.958C813.031 593.025 797.198 589.951 777.94 588.396C781.618 572.714 789.781 558.447 794.336 543.022Z"/><path fill="#EFD188" d="M796.45 544.869C813.158 545.758 829.523 548.669 845.884 552.022C840.441 564.169 836.708 584.406 829.86 594.606C819.705 592.075 809.395 590.216 798.995 589.041C792.741 588.299 786.182 588.022 780.037 586.723C785.932 572.903 789.336 558.169 796.45 544.869Z"/><path fill="#5D89D1" d="M825.605 450.188C834.406 449.567 844.448 452.276 852.975 454.447C867.384 458.116 939.819 479.442 946.249 490.243C936.213 487.383 926.959 481.802 917.316 477.862C898.868 470.382 879.938 464.149 860.655 459.204C856.435 458.127 852.199 457.046 847.937 456.15C843.577 455.233 828.073 453.623 825.605 450.188Z"/><path fill="#5D89D1" d="M801.286 522.084C823.188 522.689 901.596 546.53 917.386 560.959C908.612 559.664 899.289 553.661 891.323 549.942C886.996 547.922 882.481 546.254 877.987 544.645C864.117 539.745 850.065 535.378 835.861 531.552C825.359 528.647 810.315 528.061 801.286 522.084Z"/><path fill="#5D89D1" d="M816.107 476.572C838.034 477.849 923.052 501.31 937.062 516.51C927.242 515.196 919.163 509.2 910.565 504.763C906.195 502.507 901.508 500.748 896.878 499.097C880.247 493.169 862.875 488.416 845.671 484.459C837.747 482.636 829.589 481.561 821.778 479.291C819.639 478.67 817.881 477.936 816.107 476.572Z"/><path fill="#5D89D1" d="M808.682 500.189C809.3 500.094 809.231 500.092 809.98 500.053C824.992 499.254 894.785 522.019 911.54 529.522C917.065 531.996 922.187 534.66 926.764 538.648C918.128 538.425 908.192 531.318 900.36 527.757C894.342 525.022 888.118 522.477 881.868 520.331C870.256 516.466 858.472 513.14 846.554 510.362C835.551 507.744 818.173 505.539 808.682 500.189Z"/><path fill="white" d="M663.2 360.005C679.855 362.045 696.334 367.768 712.269 372.79C740.016 381.534 767.338 390.986 794.241 402.089C802.527 405.508 811.591 408.61 819.163 413.443C807.172 450.319 792.895 486.474 780.442 523.209C776.94 533.467 773.556 543.766 770.293 554.103C766.834 565.292 754.481 609.869 749.708 616.574C749.016 617.546 748.797 617.474 747.68 617.626C725.683 606.855 703.341 596.089 680.357 587.602C651.748 577.038 621.128 569.927 590.935 565.833C594.013 556.026 598 546.482 601.559 536.84L620.476 484.964C635.058 443.428 649.299 401.774 663.2 360.005Z"/><path fill="#5D89D1" d="M672.226 396.026C684.333 396.857 695.881 399.887 707.553 403.019C738.219 411.247 766.987 422.076 795.187 436.628C790.505 448.852 776.06 499.511 769.952 506.036C768.96 507.095 768.742 507.05 767.393 507.038C752.627 502.536 738.517 495.811 723.985 490.599C697.436 481.225 670.427 473.203 643.065 466.565C646.602 457.833 649.954 449.026 653.117 440.151C658.509 424.649 662.693 409.674 672.226 396.026Z"/><path fill="white" d="M729.553 410.831C751.304 418.825 772.308 427.043 793.09 437.395C787.978 450.688 783.59 464.302 779.024 477.791C775.966 486.825 773.119 495.909 768.958 504.515C768.649 504.869 768.122 505.116 767.723 505.367C760.739 504.645 746.714 496.945 739.338 494.076C728.539 489.875 717.523 486.205 706.551 482.487C711.315 471.222 714.7 459.654 718.253 447.971L729.553 410.831Z"/><path fill="white" d="M672.604 397.918C691.542 400.088 709.722 405.006 727.978 410.327C724.986 420.275 709.811 474.423 704.98 480.494C704.183 481.495 703.872 481.365 702.663 481.469C683.943 475.063 664.925 469.941 645.775 465.021C649.422 456.466 652.89 447.708 655.853 438.891C660.642 424.64 664.418 410.722 672.604 397.918Z"/><path fill="#5D89D1" d="M693.357 410.651C693.508 410.665 693.659 410.674 693.809 410.694C697.553 411.185 701.263 412.59 703.521 415.773C705.448 418.488 705.918 422.023 705.175 425.228C704.012 430.239 700.828 432.925 696.758 435.596C697.634 436.641 698.548 437.698 699.315 438.826C702.743 443.866 705.388 452.588 704.035 458.661C703.471 461.191 702.017 463.308 699.747 464.6C694.133 467.797 686.525 464.857 680.905 463.124C674.986 461.764 666.34 460.143 663.002 454.514C661.669 452.265 661.494 449.667 662.284 447.195C664.879 439.079 675.227 434.146 682.231 430.653C681.207 427.78 680.224 424.893 679.283 421.993C680.088 420.226 680.956 418.423 682.079 416.834C684.892 412.853 688.791 411.513 693.357 410.651Z"/><path fill="white" d="M683.127 432.379C687.286 433.818 691.04 435.373 695.389 436.258C696.193 437.252 696.881 438.291 697.539 439.388C700.624 444.529 703.655 452.15 701.969 458.129C701.341 460.358 699.951 462.215 697.838 463.218C693.877 465.099 689.407 463.517 685.525 462.252C679.304 460.764 668.402 459.181 664.629 453.397C663.587 451.788 663.289 449.807 663.811 447.962C665.911 440.515 676.803 435.723 683.127 432.379Z"/><path fill="white" d="M689.742 412.772C695.436 411.178 701.35 414.469 702.997 420.148C704.644 425.827 701.408 431.772 695.745 433.472C690.006 435.195 683.965 431.906 682.296 426.152C680.627 420.397 683.972 414.387 689.742 412.772Z"/><path fill="#EFD188" d="M698.613 503.314C708.974 503.603 746.923 519.092 755.665 524.57C757.566 525.762 759.354 526.846 759.812 529.2C760.398 532.219 757.87 535.49 756.362 537.899C744.526 534.853 706.516 521.48 697.264 515.253C695.882 514.322 694.48 513.129 694.359 511.345C694.139 508.112 696.713 505.626 698.613 503.314Z"/><path fill="#5D89D1" d="M639.221 485.5C649.283 485.2 671.597 490.177 679.444 496.734C681.224 498.222 682.578 500.186 682.709 502.567C682.873 505.563 680.808 507.608 679.005 509.718C678.468 509.707 677.932 509.686 677.396 509.656C667.598 509.145 643.571 503.006 637.051 495.382C635.857 493.986 635.017 492.24 635.379 490.352C635.807 488.115 637.526 486.814 639.221 485.5Z"/><path fill="white" d="M640.122 487.034C651.272 488.39 664.634 491.13 674.543 496.403C677.022 497.722 680.177 499.773 680.768 502.762C681.177 504.83 679.976 506.244 678.85 507.806C668.093 506.328 651.983 502.977 642.68 497.615C640.633 496.434 638.096 494.51 637.709 491.998C637.38 489.865 638.845 488.504 640.122 487.034Z"/><path fill="#5D89D1" d="M622.236 531.607C634.509 532.566 646.29 537.941 657.934 541.678C678.686 548.337 699.955 554.281 719.794 563.411C724.428 565.544 729.196 567.923 732.851 571.551C732.684 571.552 732.517 571.563 732.35 571.553C724.175 571.06 710.793 562.803 702.63 559.673C687.275 553.768 671.722 548.39 655.998 543.549C647.519 540.999 638.656 539.353 630.362 536.266C627.328 535.137 624.525 533.979 622.236 531.607Z"/><path fill="#5D89D1" d="M629.921 514.509C650.38 516.895 726.565 543.207 743.625 554.93C731.19 553.484 719.087 545.725 707.409 541.368C691.574 535.547 675.618 530.058 659.552 524.907C650.395 521.879 636.871 521.451 629.921 514.509Z"/><path fill="white" d="M965.189 478.657C969.948 479.873 974.631 481.614 979.297 483.152C974.708 494.184 970.988 505.577 966.93 516.812L945.278 576.962L919.391 649.209C914.175 663.726 908.719 678.201 903.881 692.848C887.102 688.18 870.664 682.191 854.124 676.761C823.214 666.892 792.451 656.57 761.844 645.798L606.357 593.306C601.949 591.728 597.574 590.042 593.186 588.408L596.42 578.399C628.51 590.611 660.844 602.173 693.402 613.075L787.081 645.456L849.559 666.776C863.685 671.553 878.079 677.103 892.743 679.916C894.802 672.798 897.713 665.884 900.324 658.953C903.574 650.218 906.731 641.448 909.795 632.645C921.005 600.73 932.395 568.879 943.965 537.093C951.046 517.643 958.609 498.279 965.189 478.657Z"/><path fill="white" d="M589.849 567.443C596.467 569.376 603.437 570.365 610.218 571.602C622.128 573.773 634.102 575.895 645.816 578.975C681.76 588.424 715.314 604.676 748.804 620.444C748.41 623.177 747.718 625.925 747.152 628.63L746.02 628.982C740.866 628.133 735.599 626.085 730.637 624.466C716.061 619.709 701.776 614.063 687.321 608.953C659.17 599.001 630.346 590.442 602.699 579.144C599.196 577.713 592.45 575.432 590.146 572.347C589.112 570.962 589.633 569.036 589.849 567.443Z"/><path fill="white" d="M750.858 620.809C762.551 624.305 774.734 625.851 786.589 628.695C824.227 637.725 860.976 649.928 893.381 671.527L890.982 678.149C879.161 673.937 867.158 670.207 855.27 666.18L748.304 629.885C749.373 626.977 750.047 623.803 750.858 620.809Z"/><path fill="white" d="M767.594 823.631C769.687 820.136 771.807 816.668 774.172 813.348C783.827 799.796 798.028 792.697 814.233 790.055C830.622 787.383 846.375 792.446 859.684 802.087C873.201 811.878 878.076 823.83 880.623 839.791C891.525 836.455 906.034 836.68 916.27 842.111C921.471 844.871 925.474 849.161 927.062 854.916C929.781 864.766 924.591 874.574 919.961 882.905C932.501 890.494 942.902 894.538 954.68 904.495C971.849 919.013 976.253 937.896 978.109 959.383C925.617 960.183 873.039 959.445 820.538 959.349L585.446 959.495C585.613 954.604 585.553 949.384 586.663 944.602C587.456 941.183 588.614 938.118 591.672 936.192C594.052 938.139 594.381 941.328 596.642 943.405C595.55 932.27 594.94 921.998 597.306 910.942C599.588 900.278 604.753 888.844 614.322 882.858C623.33 877.223 632.141 878.703 641.788 881.102C641.875 870.361 644.782 857.866 650.177 848.524C654.937 840.282 662.399 834.092 671.674 831.657C686.027 827.889 702.463 834.608 714.73 841.665C717.073 830.82 721.028 820.291 729.851 813.05C734.589 809.161 740.603 806.859 746.783 807.612C756.213 808.76 762.289 816.589 767.594 823.631Z"/><path fill="#5D89D1" d="M767.594 823.631C769.687 820.136 771.807 816.668 774.172 813.348C783.827 799.796 798.028 792.697 814.233 790.055C830.622 787.383 846.375 792.446 859.684 802.087C873.201 811.878 878.076 823.83 880.623 839.791C891.525 836.455 906.034 836.68 916.27 842.111C921.471 844.871 925.474 849.161 927.062 854.916C929.781 864.766 924.591 874.574 919.961 882.905C932.501 890.494 942.902 894.538 954.68 904.495C971.849 919.013 976.253 937.896 978.109 959.383C925.617 960.183 873.039 959.445 820.538 959.349L585.446 959.495C585.613 954.604 585.553 949.384 586.663 944.602C587.456 941.183 588.614 938.118 591.672 936.192C589.461 943.516 587.365 950.634 586.295 958.234C606.894 957.731 627.529 958.655 648.136 958.549L877.416 958.462C910.329 958.41 943.351 958.873 976.246 958.093C974.824 935.601 970.586 920.78 953.099 905.455C942.294 895.986 929.848 889.872 916.856 884.058C921.865 876.017 927.827 866.598 925.7 856.654C924.562 851.334 921.056 847.36 916.444 844.646C905.053 837.941 891.504 839.949 879.095 841.741C878.606 828.114 875.479 817.794 865.249 808.232C852.71 796.513 834.302 790.754 817.317 791.446C802.514 792.05 789.337 798.349 779.37 809.272C774.451 814.663 770.551 820.802 767.382 827.359C763.042 819.945 758.158 811.6 749.12 809.423C743.827 808.149 738.319 809.428 733.768 812.3C723.128 819.013 718.421 832.41 715.676 844.043C701.323 837.135 684.504 828.306 668.25 834.235C659.187 837.541 653.118 845.029 649.311 853.616C645.143 863.021 643.29 873.789 642.914 884.019C634.76 880.804 627.084 878.736 618.562 882.433C610.229 886.049 604.474 894.121 601.348 902.406C599.218 908.05 597.971 914.259 597.504 920.265C597.105 925.376 598.453 939.884 596.642 943.405C595.55 932.27 594.94 921.998 597.306 910.942C599.588 900.278 604.753 888.844 614.322 882.858C623.33 877.223 632.141 878.703 641.788 881.102C641.875 870.361 644.782 857.866 650.177 848.524C654.937 840.282 662.399 834.092 671.674 831.657C686.027 827.889 702.463 834.608 714.73 841.665C717.073 830.82 721.028 820.291 729.851 813.05C734.589 809.161 740.603 806.859 746.783 807.612C756.213 808.76 762.289 816.589 767.594 823.631Z"/><path fill="#5D89D1" d="M812.905 826.719C820.659 825.949 827.572 831.602 828.357 839.354C829.142 847.107 823.502 854.031 815.751 854.831C807.98 855.632 801.033 849.974 800.246 842.201C799.459 834.428 805.13 827.492 812.905 826.719Z"/><path fill="white" d="M811.224 828.75C815.583 827.696 820.172 829.07 823.235 832.345C826.298 835.62 827.362 840.291 826.02 844.569C824.677 848.848 821.136 852.074 816.751 853.012C810.094 854.437 803.527 850.247 802.015 843.609C800.503 836.97 804.606 830.349 811.224 828.75Z"/><path fill="#5D89D1" d="M678.214 890.018C690.765 891.878 701.375 904.583 709.738 913.178C711.269 912.438 712.826 911.791 714.465 911.325C718.159 910.275 722.476 910.758 725.786 912.734C728.659 914.449 730.639 917.16 731.31 920.446C732.214 924.875 730.391 928.688 727.999 932.274C726.831 933.114 725.552 933.926 724.25 934.538C721.163 935.988 717.31 936.488 714.065 935.292C711.123 934.208 708.952 931.865 707.768 928.997C705.68 923.942 707.139 919.39 709.004 914.597C703.925 910.364 699.375 905.442 694.109 901.439C688.9 897.479 683.068 894.461 678.214 890.018Z"/><path fill="white" d="M716.043 912.777C719.791 911.792 723.779 912.898 726.485 915.673C729.19 918.448 730.194 922.463 729.114 926.185C728.034 929.907 725.036 932.761 721.265 933.656C715.531 935.018 709.768 931.514 708.338 925.797C706.908 920.079 710.343 914.275 716.043 912.777Z"/><path fill="#5D89D1" d="M850.861 866.234C855.056 865.182 859.492 866.477 862.462 869.62C865.433 872.763 866.475 877.265 865.187 881.394C863.9 885.522 860.484 888.634 856.254 889.533C849.876 890.887 843.589 886.883 842.119 880.531C840.648 874.179 844.537 867.82 850.861 866.234Z"/><path fill="white" d="M851.163 867.734C856.609 866.346 862.152 869.629 863.553 875.072C864.954 880.516 861.685 886.066 856.245 887.48C850.786 888.899 845.212 885.616 843.806 880.154C842.401 874.692 845.697 869.126 851.163 867.734Z"/><path fill="#5D89D1" d="M673.07 928.75C678.896 927.818 684.364 931.812 685.248 937.645C686.132 943.477 682.092 948.912 676.252 949.747C670.481 950.572 665.124 946.59 664.25 940.826C663.377 935.062 667.314 929.672 673.07 928.75Z"/><path fill="white" d="M671.906 930.753C674.979 929.737 678.362 930.473 680.735 932.675C683.107 934.878 684.093 938.197 683.308 941.337C682.523 944.477 680.091 946.942 676.961 947.768C672.322 948.993 667.549 946.312 666.183 941.712C664.816 937.113 667.351 932.26 671.906 930.753Z"/><path fill="#5D89D1" d="M775.943 884.207C786.123 883.854 796.352 886.125 805.12 891.381C817.827 899 827.571 912.929 831.082 927.25C832.09 931.359 834.288 934.877 835.585 938.878L835.122 939.251C831.421 935.167 829.489 926.754 827.517 921.606C822.524 908.982 814.726 898.522 802.623 892.003C785.75 882.914 769.633 885.899 752.072 891.061C760.015 886.765 766.923 884.788 775.943 884.207Z"/><path fill="#5D89D1" d="M863.539 927.59L864.263 927.817C856.344 933.033 847.49 938.147 838.12 939.996L837.4 939.827L837.766 939.028C845.237 933.466 854.679 930.156 863.539 927.59Z"/><path fill="#5D89D1" d="M868.812 905.189C874.482 905.196 879.762 905.759 884.847 908.472C891.016 911.763 894.056 916.368 896.086 922.867C896.51 924.226 897.096 926.062 896.41 927.35L895.83 926.827C890.871 913.122 887.194 907.67 871.659 907.4C869.751 907.367 867.738 907.467 866.15 906.308C866.998 905.374 867.623 905.453 868.812 905.189Z"/><path fill="#041558" d="M317.1 25.1135C321.255 26.8497 327.395 45.5308 331.033 50.891C334.409 55.8649 338.951 60.5767 343.433 64.5748C370.779 88.9684 408.635 93.4203 441.991 105.277C445.622 106.568 453.596 112.607 456.331 112.449C455.842 110.844 455.391 110.305 456.04 108.717C456.606 108.345 457.069 108.115 457.76 108.076C460.207 107.937 462.89 108.652 465.176 109.461C470.829 111.46 475.98 114.645 481.495 116.956C488.452 119.872 495.596 121.868 502.29 125.503C508.236 128.731 513.959 132.551 518.983 137.096C536.644 153.072 540.717 170.911 541.877 193.735C558.383 200.76 574.516 208.406 590.748 216.035C602.082 221.362 613.532 226.483 624.75 232.051C630.54 234.925 641.501 239.373 643.511 245.978C644.459 249.094 643.822 252.958 642.147 255.723C640.325 258.73 637.487 260.5 634.126 261.268C631.433 261.37 628.915 261.386 626.301 260.646C619.912 258.836 613.575 255.383 607.509 252.643C585.197 242.565 564.088 230.136 541.54 220.575C513.655 232.449 479.219 232.785 450.687 223.43C433.723 217.867 417.133 209.789 403.307 198.397C397.567 193.667 392.519 188.053 386.492 183.684C380.221 179.138 372.603 176.514 365.953 172.525C347.668 161.554 331.9 142.486 322.491 123.567C309.372 97.1866 307.574 53.5405 317.1 25.1135Z"/><path fill="white" d="M317.714 46.8911C319.988 49.2763 322.589 63.1903 323.935 67.2829C330.865 88.3573 348.021 111.172 364.793 125.561C383.255 141.401 405.232 152.584 426.631 163.861C462.982 183.015 500.388 199.97 537.076 218.44C501.908 229.116 471.44 228.577 437.353 213.866C422.738 207.131 410.038 198.341 397.97 187.736C417.989 193.657 437.644 198.069 458.72 196.029C449.805 192.798 438.937 192.383 429.529 190.949C403.795 187.027 380.636 177.76 359.212 162.975C366.71 164.628 374.065 166.315 381.783 166.561C386.912 166.724 395.437 167.037 399.435 163.311C397.727 161.41 376.671 161.981 372.518 161.492C357.144 159.68 348.14 153.583 338.704 141.485C316.102 112.506 313.292 82.2265 317.714 46.8911Z"/><path fill="#F1E0E0" d="M322.369 45.346C325.024 47.8006 326.984 51.7382 329.141 54.6838C332.37 59.0928 336.292 63.0391 339.221 67.6627C347.327 80.4622 349.855 88.7002 361.69 99.9607C394.28 130.969 435.472 148.506 475.494 167.609C507.34 183.152 539.45 198.146 571.81 212.585C583.81 218.08 595.701 223.833 607.728 229.26C616.014 232.999 625.197 236.233 632.873 241.127C635.289 242.667 638.13 244.738 639.159 247.529C640.174 250.281 639.239 252.381 638.087 254.909C636.55 255.73 634.956 256.33 633.219 256.546C627.684 257.237 622.264 254.672 617.275 252.581C593.784 242.734 571.707 229.705 548.756 218.679C504.601 197.467 459.768 177.449 416.661 154.134C401.958 146.182 386.952 137.547 373.665 127.368C349.339 108.731 326.523 76.0743 322.369 45.346Z"/><path fill="white" d="M346.356 73.6284C350.186 74.9738 353.03 77.833 356.545 79.783C362.933 83.3269 369.838 86.307 376.6 89.0627C384.293 92.205 392.166 94.8864 400.178 97.0926C418.79 102.376 444.149 106.56 458.591 120.413C470.272 131.619 472.415 145.986 472.754 161.419C463.731 158.812 455.269 153.059 446.771 149.057C406.105 129.905 371.998 112.271 346.356 73.6284Z"/><path fill="white" d="M463.934 114.012C473.629 116.993 482.567 122.029 490.14 128.777C504.013 141.226 512.769 162.765 513.647 181.167C500.903 176.263 488.98 168.881 476.415 163.428C477.089 145.814 474.066 128.727 463.934 114.012Z"/><path fill="white" d="M494.3 126.49C501.754 127.999 509.325 133.666 514.881 138.612C531.048 153.004 536.592 170.901 537.885 191.941C530.909 189.822 524.204 185.993 517.565 182.984C516.914 160.603 507.62 143.846 494.3 126.49Z"/><path fill="#5D89D1" d="M63.4052 780.663C68.4608 781.309 73.9591 780.976 79.0703 780.989L107.807 781.019L203.568 781.097C203.445 785.889 205.268 797.395 202.191 801.067C200.668 802.885 198.648 802.68 196.466 802.804C194.644 805.621 192.887 808.463 190.696 811.013C187.973 815.1 179.783 829.195 176.834 831.591C174.155 836.729 170.596 841.663 167.504 846.587C162.57 854.442 157.812 862.525 152.45 870.09C167.335 888.426 179.637 909.52 192.875 929.078C196.023 933.729 201.173 938.77 203.307 943.815C205.505 949.012 204.158 955.458 203.736 960.906C171.071 962.123 138.191 961.562 105.499 961.513C91.6662 961.492 77.7586 961.262 63.9384 961.793C63.3378 945.225 64.0093 928.485 63.8708 911.888C63.4648 868.147 63.3096 824.405 63.4052 780.663Z"/><path fill="white" d="M121.435 870.445C134.138 857.567 147.227 845.06 159.755 832.013C167.638 823.804 174.667 814.712 183.143 807.092C185.292 805.16 187.562 803.327 190.492 802.782C191.818 802.535 192.679 802.421 193.825 803.131C193.868 805.324 191.657 808.967 190.696 811.013C187.973 815.1 179.783 829.195 176.834 831.591C170.122 837.358 157.409 860.983 151.297 869.737C158.527 881.617 166.622 892.669 174.542 904.075C182.59 915.734 190.421 927.542 198.032 939.492L188.823 939.5C178.678 928.116 167.684 917.486 156.984 906.629C145.113 894.586 133.453 882.344 121.435 870.445Z"/><path fill="white" d="M65.4813 782.507L201.708 782.513C201.34 788.632 201.505 794.868 201.456 801.003C163.02 801.247 124.583 801.285 86.1473 801.117C86.7915 847.872 86.2072 894.742 86.0302 941.508L105.25 941.504C116.753 941.538 197.916 939.57 201.025 943.242C203.838 946.564 202.485 955.208 202.279 959.401C184.538 959.867 166.885 959.582 149.148 959.562L65.5506 959.52L65.4813 782.507Z"/><path fill="#EFD188" d="M152.269 802.596C163.549 802.418 174.942 803.112 186.191 802.631C176.687 811.294 167.969 820.88 158.951 830.039L118.772 870.21C130.617 883.965 144.344 895.719 157.164 908.505C167.429 918.788 177.534 929.228 187.475 939.824L153.706 940.034C146.442 931.723 138.517 924.173 130.735 916.365C122.94 908.545 115.296 900.561 107.267 892.979C109.467 908.418 108.516 924.488 108.223 940.04L87.7468 940.127L87.8509 802.495L108.122 802.491C108.103 817.486 108.209 832.48 108.442 847.473C116.59 837.027 126.481 828.039 135.814 818.676C141.111 813.363 146.369 807.208 152.269 802.596Z"/><path fill="white" d="M109.73 898.797C117.333 902.9 144.087 932.032 149.89 939.966C136.452 940.398 122.924 940.181 109.48 940.036C109.428 926.327 109.023 912.484 109.73 898.797Z"/><path fill="white" d="M109.571 802.504L149.936 802.49L129.329 823.25C122.67 829.943 116.091 836.716 109.594 843.567C109.394 829.88 109.387 816.191 109.571 802.504Z"/><path fill="#5D89D1" d="M140.158 330.278C180.967 327.12 216.618 357.622 219.814 398.428C223.01 439.235 192.541 474.914 151.738 478.148C110.88 481.386 75.1435 450.868 71.9436 410.008C68.7438 369.148 99.2944 333.44 140.158 330.278Z"/><path fill="white" d="M144.296 331.775C184.328 330.801 217.565 362.475 218.52 402.508C219.475 442.541 187.785 475.763 147.752 476.698C107.746 477.632 74.5516 445.969 73.5976 405.964C72.6436 365.958 104.291 332.749 144.296 331.775Z"/><path fill="white" d="M150.438 464.168C122.181 466.282 96.3007 448.332 88.3805 421.125C80.4604 393.919 92.662 364.882 117.638 351.499C142.614 338.117 173.549 344.04 191.814 365.704C210.079 387.367 210.69 418.857 193.279 441.213C182.878 454.567 167.318 462.905 150.438 464.168Z"/><path fill="#5D89D1" d="M150.438 464.168C122.181 466.282 96.3007 448.332 88.3805 421.125C80.4604 393.919 92.662 364.882 117.638 351.499C142.614 338.117 173.549 344.04 191.814 365.704C210.079 387.367 210.69 418.857 193.279 441.213L192.484 440.274C189.854 436.609 185.359 434.212 182.295 430.788C185.594 431.754 190.508 436.654 193.307 438.893C199.51 428.678 204.5 414.218 204.674 402.173C204.701 400.305 204.567 397.935 203.076 396.604C201.703 395.379 188.898 397.006 186.444 397.068C191.864 394.833 197.648 393.789 203.446 393.161C202.511 390.534 201.52 387.928 200.473 385.344C195.595 373.518 187.877 359.802 175.49 354.622L174.259 353.776C171.003 351.268 166.413 350.163 162.46 349.272C157.11 348.067 138.801 344.657 134.364 348.607C133.206 349.639 133.521 350.624 133.517 352.034L132.587 352.44C132.17 350.843 132.34 350.187 130.878 349.326C122.427 349.213 109.436 359.586 103.561 365.279C101.419 367.37 99.4306 369.611 97.6098 371.987L108.196 380.51C104.063 378.562 100.284 375.964 96.597 373.28C90.6994 386.054 86.6293 399.16 88.0889 413.384C92.2053 412.59 96.0755 412.02 100.277 411.94C96.3556 413.571 92.3856 414.486 88.2363 415.34C92.7829 430.152 100.5 443.079 113.016 452.541C115.163 448.262 117.39 444.157 120.098 440.205C118.274 444.551 116.524 448.947 114.584 453.241C126.071 459.163 136.312 462.81 149.274 463.472L150.438 464.168Z"/><defs><linearGradient id="gradient_0" gradientUnits="userSpaceOnUse" x1="171.91112" y1="462.19675" x2="171.08966" y2="441.32288"><stop offset="0" stop-color="#318496"/><stop offset="1" stop-color="#030303"/></linearGradient></defs><path fill="url(#gradient_0)" d="M155.902 461.73C170.856 457.152 181.338 451.193 192.484 440.274L193.279 441.213C182.878 454.567 167.318 462.905 150.438 464.168L149.274 463.472C149.81 463.084 150.463 462.661 150.93 462.179C153.949 459.058 152.887 453.575 152.652 449.637C153.883 453.639 154.917 457.66 155.902 461.73Z"/><path fill="#6094E4" d="M174.259 353.776L175.49 354.622C172.745 358.567 170.018 362.433 166.895 366.096C168.879 361.676 171.573 357.784 174.259 353.776Z"/><path fill="#6094E4" d="M132.587 352.44L133.517 352.034C134.281 354.751 134.525 357.627 134.902 360.42C133.982 357.773 133.078 355.207 132.587 352.44Z"/><path fill="#5D89D1" d="M140.016 380.113C146.557 382.005 141.859 395.039 145.87 399.813C149.384 403.995 156.455 403.999 161.473 404.5L151.905 405.551C148.438 405.678 146.4 409.816 142.57 408.979C142.272 408.469 142.199 408.412 142.039 407.763C141.453 405.395 143.165 402.478 144.533 400.702C141.883 393.729 140.1 387.601 140.016 380.113Z"/><path fill="white" d="M132.186 226.54C132.282 226.433 132.381 226.327 132.476 226.218C136.935 221.085 141.641 207.347 149.607 206.873C151.876 206.739 153.859 207.97 155.442 209.487C160.886 214.705 162.102 222.489 166.669 228.059C179.388 220.377 193.156 213.757 208.347 217.485C216.677 219.529 223.316 224.528 227.711 231.882C231.041 237.452 232.944 243.668 234.896 249.813C239.431 247.714 243.842 245.345 248.49 243.497C263.516 237.522 277.689 238.452 292.381 244.841C292.933 245.116 293.483 245.394 294.033 245.674C307.752 252.686 316.64 263.102 321.743 277.628C323.316 282.106 324.327 286.703 325.779 291.207C313.505 291.8 301.126 291.479 288.835 291.483L226.374 291.472L82.3825 292.017C79.5077 292.009 70.7712 292.387 68.9639 289.92C67.9239 288.5 67.9532 286.157 68.0708 284.494C69.0093 271.234 76.6127 257.541 86.5623 248.928C97.1597 239.754 113.141 234.313 127.141 235.261C128.647 232.263 130.454 229.414 132.186 226.54Z"/><path fill="#5D89D1" d="M325.779 291.207C313.505 291.8 301.126 291.479 288.835 291.483L226.374 291.472L82.3825 292.017C79.5077 292.009 70.7712 292.387 68.9639 289.92C67.9239 288.5 67.9532 286.157 68.0708 284.494C69.0093 271.234 76.6127 257.541 86.5623 248.928C97.1597 239.754 113.141 234.313 127.141 235.261C147.181 239.266 160.192 244.466 172.045 262.313C174.199 265.556 176.72 270.255 176.152 274.244L175.524 274.235L176.089 274.064L174.459 272.595L174.514 272.784C172.928 269.372 171.591 265.696 169.719 262.441C163.751 252.061 153.641 244.88 142.549 240.786C128.521 235.578 112.988 236.221 99.4392 242.572C87.2373 248.295 78.2356 258.089 73.749 270.805C71.6204 276.837 70.3341 283.576 70.461 289.985C109.634 290.98 148.92 290.12 188.113 290.123C233.329 290.127 278.67 290.855 323.872 289.977C319.889 273.195 312.217 259.341 297.206 250.033C296.138 249.363 295.04 248.742 293.915 248.171L292.381 244.841C292.933 245.116 293.483 245.394 294.033 245.674C307.752 252.686 316.64 263.102 321.743 277.628C323.316 282.106 324.327 286.703 325.779 291.207Z"/><path fill="#5D89D1" d="M166.669 228.059C179.388 220.377 193.156 213.757 208.347 217.485C216.677 219.529 223.316 224.528 227.711 231.882C231.041 237.452 232.944 243.668 234.896 249.813L233.281 250.422C230.283 239.325 225.692 228.792 215.477 222.587C205.649 216.617 192.206 216.565 181.941 221.551C177.21 223.849 172.421 227.486 167.299 228.738L166.669 228.059Z"/><path fill="#5D89D1" d="M234.896 249.813C239.431 247.714 243.842 245.345 248.49 243.497C263.516 237.522 277.689 238.452 292.381 244.841L293.915 248.171C281.453 241.665 268.047 239.304 254.404 243.624C248.534 245.482 238.537 252.259 234.211 253.136C233.74 252.198 233.459 251.458 233.281 250.422L234.896 249.813Z"/><path fill="#5D89D1" d="M563.308 41.0562C567.218 38.6681 571.413 36.9208 575.739 35.4299C597.369 27.9749 620.3 32.6276 640.391 42.5328C649.834 47.1883 670.534 60.4993 673.762 71.0328C676.074 78.575 667.232 94.245 663.76 101.11C665.25 104.076 666.796 107.014 668.398 109.922C673.533 118.499 678.828 127.109 686.608 133.581C687.097 131.771 684.439 115.085 684.534 110.9C684.842 97.2582 688.723 84.3458 691.313 71.0506C699.922 79.8449 706.957 91.4953 710.359 103.333C714.053 114.452 713.878 126.934 708.618 137.553C707.219 140.377 705.519 142.952 703.26 145.168L703.265 145.949C704.361 146.881 705.442 147.7 706.635 148.505C710.401 150.605 731.744 160.198 732.7 162.061C725.252 162.49 711.768 154.865 705.476 150.666C703.087 149.494 700.735 147.845 698.447 146.464C684.691 153.165 670.161 155.439 655.13 151.826C643.834 149.11 634.243 143.164 628.113 133.175C624.584 128.169 622.622 121.857 620.553 116.142C618.621 109.914 616.685 103.635 614.451 97.5093C604.919 71.379 588.62 52.803 563.308 41.0562ZM702.49 143.767L703.388 142.289C710.49 130.48 712.751 119.88 709.426 106.443C706.386 95.3484 699.506 85.3652 692.839 76.1373C688.516 93.1806 685.518 108.75 687.627 126.503C688.012 129.748 688.548 134.65 690.355 137.427C690.902 138.267 691.728 138.882 692.494 139.505C695.121 141.172 698.171 143.729 701.213 144.306L702.49 143.767ZM611.381 85.1455C620.175 86.8151 628.894 89.007 637.712 90.4993C643.679 91.5091 649.725 92.0115 655.735 92.7034C650.764 86.0234 645.898 79.4131 640.027 73.4775C624.913 58.2 602.089 44.2732 580.483 41.1776C576.295 40.5776 572.311 40.4488 568.092 40.672C572.368 43.4361 576.839 45.8574 581.042 48.7436C595.049 58.3625 603.476 70.3956 611.381 85.1455ZM617.85 100.433L658.341 99.4005L658.92 98.5013C658.529 96.9282 658.368 96.6251 657.274 95.4294C651.973 93.5308 645.178 93.6203 639.513 92.7524C630.572 91.3298 621.686 89.5736 612.876 87.4874L617.85 100.433ZM595.265 33.6944C586.949 34.4242 579.194 36.262 571.241 38.7452C600.044 40.6038 627.335 55.3481 646.289 76.9911C647.358 78.2125 648.442 79.4286 649.435 80.7134C652.608 84.7313 655.873 88.6988 658.674 92.9897C657.553 79.7737 656.631 66.4866 653.968 53.4667C638.237 41.2865 615.29 32.8154 595.265 33.6944ZM656.657 55.3223C657.656 62.2248 658.447 69.1556 659.029 76.1055C659.741 83.9701 659.71 92.2019 662.389 99.6955C663.139 97.123 664.019 94.7349 665.09 92.2808C668.631 86.2148 673.588 79.1432 671.427 71.7931C669.57 65.4764 662.194 58.5929 656.657 55.3223Z"/><path fill="white" d="M630.586 133.658C649.379 135.743 661.491 131.629 679.123 131.345C681.365 132.643 683.313 134 685.332 135.613L690.73 140.034L692.494 139.505C695.121 141.172 698.171 143.729 701.213 144.306L702.49 143.767L703.26 145.168L703.265 145.949C704.361 146.881 705.442 147.7 706.635 148.505C710.401 150.605 731.744 160.198 732.7 162.061C725.252 162.49 711.768 154.865 705.476 150.666C703.087 149.494 700.735 147.845 698.447 146.464C684.691 153.165 670.161 155.439 655.13 151.826C643.834 149.11 634.243 143.164 628.113 133.175C629.01 133.469 629.635 133.798 630.586 133.658Z"/><path fill="#5D89D1" d="M628.113 133.175C629.01 133.469 629.635 133.798 630.586 133.658C640.812 145.041 651.659 150.07 667.029 150.901C677.168 151.483 687.295 149.549 696.506 145.269C694.596 143.507 692.671 141.761 690.73 140.034L692.494 139.505C695.121 141.172 698.171 143.729 701.213 144.306L702.49 143.767L703.26 145.168L703.265 145.949C704.361 146.881 705.442 147.7 706.635 148.505C710.401 150.605 731.744 160.198 732.7 162.061C725.252 162.49 711.768 154.865 705.476 150.666C703.087 149.494 700.735 147.845 698.447 146.464C684.691 153.165 670.161 155.439 655.13 151.826C643.834 149.11 634.243 143.164 628.113 133.175Z"/><path fill="white" d="M618.288 102.903C623.658 102.892 657.554 101.403 660.401 102.628C663.731 104.061 666.121 109.841 667.817 112.935C670.669 118.555 674.525 123.642 678.2 128.743C666.213 129.878 649.618 134.067 638.179 132.819C635.168 132.49 632.288 131.554 629.885 129.667C625.319 126.082 623.114 119.474 621.619 114.058C620.241 110.44 619.315 106.634 618.288 102.903Z"/><path fill="#5D89D1" d="M886.808 106.125C901.474 112.863 912.248 129.024 919.824 142.634C920.059 140.577 920.03 137.069 921.333 135.409C922.212 134.29 922.699 134.262 924.012 134.03C925.069 134.39 925.811 134.76 926.646 135.52C933.168 141.459 937.473 151.721 939.019 160.246C939.839 164.768 940.169 169.486 941.65 173.854C942.799 177.241 944.836 180.409 946.513 183.556C950.553 191.136 953.031 198.468 953.578 207.086C954.673 224.331 948.883 238.137 937.599 251.031C940.001 255.285 941.48 259.645 943.052 264.24C944.498 268.744 946.427 274.069 946.75 278.766C945.3 277.977 938.608 257.979 937.492 254.974C927.558 252.187 918.157 249.511 910.588 242.085C899.494 231.201 898.295 216.29 898.12 201.601C893.897 197.192 889.716 192.455 887.417 186.719C882.87 175.372 882.872 162.821 881.803 150.837C881.043 142.311 879.495 133.235 880.679 124.701C881.578 118.225 884.214 112.072 886.808 106.125Z"/><path fill="white" d="M884.306 151.335C888.08 154.562 889.74 159.442 893.329 162.836C897.316 166.604 902.401 169.437 906.89 172.593C910.405 175.063 913.502 177.886 916.571 180.881C916.33 183.507 916.086 186.313 916.315 188.949C917.179 198.854 923.454 204.197 930.489 210.17C930.449 213.488 930.115 216.818 929.863 220.126C924.26 218.622 921.24 213.514 916.678 210.423C908.741 205.047 898.372 201.617 892.582 193.62C884.331 182.223 882.241 164.917 884.306 151.335Z"/><path fill="white" d="M923.112 135.724C924.289 136.245 925.306 137.01 926.299 137.818C935.199 145.059 937.913 156.603 939.029 167.503C940.188 178.829 939.998 192.564 932.442 201.783C930.983 202.895 929.335 203.884 927.439 203.838C925.436 203.789 923.878 202.501 922.571 201.117C919.298 197.654 918.125 193.402 918.023 188.714C917.866 181.447 921.437 175.149 922.339 168.085C923.691 157.499 922.786 146.402 923.112 135.724Z"/><path fill="white" d="M900.032 202.796C910.719 207.287 920.717 215.075 929.277 222.798C931.077 232.919 933.647 242.513 936.591 252.358C927.442 251.219 917.524 245.991 911.164 239.359C901.301 229.074 899.784 216.439 900.032 202.796Z"/><path fill="white" d="M941.374 178.372C946.514 181.939 949.724 192.246 951.054 198.168C954.85 215.059 949.536 230.867 940.546 245.227C939.722 246.177 939.038 246.812 937.966 247.471C936.868 247.187 936.795 247.153 936.155 246.275C930.713 238.808 931.179 214.709 933.721 206.041C935.23 200.894 938.357 196.286 939.635 191.031C940.631 186.937 940.648 182.544 941.374 178.372Z"/><path fill="white" d="M886.897 111.81C887.08 111.932 887.278 112.033 887.444 112.177C890.797 115.066 894.459 130.325 896.413 134.907C899.425 141.971 915.27 168.873 914.707 174.887C913.455 174.984 912.74 173.978 911.786 173.207C900.555 163.854 887.19 159.06 883.089 143.553C880.344 133.172 881.452 121.132 886.897 111.81Z"/><path fill="white" d="M888.991 109.894C898.409 113.131 907.213 123.945 912.377 132.048C921.873 146.948 922.424 159.264 918.605 176.23C918.399 176.898 918.145 177.297 917.768 177.877C915.458 174.476 912.636 163.836 910.582 159.044C903.462 142.429 894.647 127.184 888.991 109.894Z"/><path fill="#5D89D1" d="M925.73 316.722C929.969 319.545 933.411 331.943 937.895 336.83C940.082 339.187 942.537 341.279 945.211 343.064C948.107 344.964 953.487 346.917 955.557 349.5L955.104 350.209C954.815 350.278 954.525 350.344 954.237 350.416C943.941 352.999 932.518 369.559 927.513 378.203C924.993 376.105 923.768 372.595 922.388 369.714C916.902 358.257 907.305 353.773 896.359 348.627C899.768 347.676 903.049 346.314 906.129 344.569C916.727 338.471 922.652 328.28 925.73 316.722Z"/><path fill="#EFD188" d="M926.721 323.724C930.896 326.751 931.92 332.477 934.966 336.4C939.409 342.122 947.217 345.874 953.318 349.514C941.873 356.187 934.841 363.08 927.585 374.158C923.775 371.33 922.148 365.732 919.224 362.052C914.607 356.239 907.325 352.394 901.136 348.511C913.205 341.406 919.169 335.461 926.721 323.724Z"/><path fill="#5D89D1" d="M629.279 684.176C637.646 683.095 645.309 688.992 646.407 697.357C647.505 705.722 641.623 713.397 633.26 714.511C624.874 715.629 617.173 709.727 616.072 701.339C614.971 692.95 620.888 685.261 629.279 684.176ZM634.227 712.373C638.958 711.287 642.738 707.739 644.122 703.086C645.506 698.434 644.28 693.396 640.911 689.9C637.543 686.405 632.554 684.992 627.853 686.203C620.717 688.041 616.383 695.273 618.126 702.433C619.87 709.593 627.044 714.022 634.227 712.373Z"/><path fill="#5D89D1" d="M99.7026 686.236C104.852 684.643 110.461 685.966 114.355 689.693C118.25 693.42 119.818 698.965 118.453 704.18C117.088 709.395 113.004 713.46 107.783 714.8C99.9768 716.804 91.9974 712.216 89.8038 704.461C87.6102 696.706 92.0035 688.617 99.7026 686.236ZM104.748 713.454C112.01 713.033 117.545 706.786 117.087 699.526C116.63 692.266 110.355 686.762 103.098 687.256C95.8912 687.746 90.4353 693.967 90.8893 701.176C91.3433 708.385 97.5366 713.872 104.748 713.454Z"/><path fill="#5D89D1" d="M566.128 319.864C573.529 328.149 576.175 332.89 586.795 337.397C579.13 342.455 572.236 348.214 567.703 356.32C564.491 354.757 560.894 347.592 557.847 344.624C554.748 341.604 551.244 339.685 547.436 337.72C555.085 332.893 560.42 326.803 566.128 319.864Z"/><path fill="#EFD188" d="M566.621 322.847C571.491 329.269 575.734 333.824 582.372 338.441C575.268 342.385 571.256 347.312 566.667 353.913C561.931 347.041 557.432 342.428 550.54 337.7C557.723 333.829 561.685 329.133 566.621 322.847Z"/><path fill="#5D89D1" d="M749.461 728.039C757.646 727.038 766.902 730.549 773.958 734.388C771.567 734.345 768.899 733.134 766.58 732.5C761.108 731.005 755.855 729.667 750.183 729.305C739.101 736.645 740.807 755.78 731.514 760.871C723.476 765.275 712.701 756.53 705.713 753.068C703.184 751.815 700.496 751.098 697.782 750.369C682.131 757.662 685.727 771.372 674.776 778.713C665.649 784.83 656.55 776.646 647.441 775.183C642.782 774.435 639.428 775.245 635.617 777.968C630.387 784.173 628.462 792.411 623.879 798.993C625.846 791.171 629.564 778.919 637.071 774.645C645.464 769.867 657.041 776.78 665.301 778.937C678.051 782.268 683.129 755.722 693.301 750.369C703.967 744.756 713.592 757.375 723.135 759.871C736.788 763.441 737.698 743.279 742.101 735.338C743.818 732.242 745.874 730.2 748.891 728.376L749.461 728.039Z"/><path fill="#5D89D1" d="M729.822 259.695C745.036 256.354 762.295 271.01 775.658 275.128C781.826 277.029 788.052 275.605 792.158 276.856L791.818 277.582C789.833 278.494 787.5 278.413 785.347 278.366C769.827 278.029 759.539 267.463 745.515 263.113C730.774 258.541 716.626 263.464 703.53 270.449C689.528 277.748 674.732 287.396 658.276 286.91C654.257 286.792 643.505 285.816 640.745 282.848C642.317 282.297 655.083 284.581 658.006 284.654C663.281 284.788 668.359 284.231 673.444 282.799C693.35 277.188 708.651 262.072 729.822 259.695Z"/><path fill="#5D89D1" d="M141.95 208.768C136.316 196.375 129.973 186.329 116.642 181.337C108.492 178.255 99.4422 178.598 91.5489 182.288C85.0504 185.344 81.406 189.994 78.0561 196.089C76.0495 199.74 75.9828 205.892 74.9098 210.014L74.6209 210.058C74.078 202.189 75.0553 195.051 80.395 188.817C85.9643 182.316 94.6976 178.313 103.194 177.778C112.431 177.197 122.741 180.806 129.661 186.923C135.806 192.354 139.701 199.579 143.135 206.906C146.115 205.394 148.786 204.504 152.109 205.487C157.223 206.999 160.441 211.689 162.706 216.236C164.373 219.583 166.404 224.322 166.669 228.059C162.102 222.489 160.886 214.705 155.442 209.487C153.859 207.97 151.876 206.739 149.607 206.873C141.641 207.347 136.935 221.085 132.476 226.218C132.381 226.327 132.282 226.433 132.186 226.54C134.683 220.092 138.431 214.659 141.95 208.768Z"/><path fill="#5D89D1" d="M182.542 524.484L183.335 524.721C181.825 526.656 176.831 527.859 174.492 529.084C171.404 530.701 168.523 532.728 165.806 534.904C158.121 541.06 151.806 548.735 143.325 553.921C125.266 564.965 103.299 556.683 84.568 564.761C70.1028 571 62.9944 586.579 47.5201 591.372C43.7059 592.553 39.5583 592.918 35.6076 593.433L34.7544 592.791C36.2461 590.801 43.8901 590.921 46.4873 590.333C48.8153 589.782 51.0606 588.927 53.1653 587.79C65.1401 581.416 72.0049 568.38 84.7308 562.777C100.714 555.739 119.344 562.073 135.662 555.906C149.298 550.753 158.242 538.773 170.018 530.772C173.994 528.071 178.084 526.256 182.542 524.484Z"/><path fill="#4B85BF" fill-opacity="0.98823529" d="M725.824 291.642C748.142 289.263 763.113 309.658 784.028 312.168C799.649 314.042 815.637 307.786 831.126 306.317C838.759 305.593 846.844 305.853 853.025 310.978C845.647 310.424 838.707 307.703 831.208 308.098C814.433 308.982 798.071 315.939 781.146 313.192C767.4 310.96 758.286 301.072 745.689 296.44C739.903 294.313 733.279 295.323 727.539 293.355C726.32 292.937 726.328 292.759 725.824 291.642Z"/><path fill="#4B85BF" fill-opacity="0.98823529" d="M122.531 589.249C102.998 587.266 92.742 596.317 79.4118 608.761C75.1625 612.728 70.4068 616.933 65.0124 619.265C63.3174 619.998 60.7438 620.899 58.9261 620.217C59.7227 619.236 68.0349 616.192 70.3038 614.708C77.3411 610.108 82.7106 603.489 88.983 597.979C99.6092 588.644 110.723 587.18 124.447 588.076L122.531 589.249Z"/><path d="M131.747 588.191C152.922 586.159 158.043 582.027 172.88 567.3C176.845 563.364 180.558 559.721 185.365 556.803C186.655 556.02 193.396 552.057 194.421 552.733C192.135 555.597 184.763 558.194 181.338 560.892C165.86 573.078 162.928 586.092 140.004 588.499C139.209 588.582 138.433 588.624 137.634 588.654C135.62 588.683 133.738 588.486 131.747 588.191Z"/><path fill="#041558" fill-opacity="0.91764706" d="M124.447 588.076L131.747 588.191C133.738 588.486 135.62 588.683 137.634 588.654C132.48 589.441 127.723 589.635 122.531 589.249L124.447 588.076Z"/><path fill="#041558" d="M359.83 353.647C385.664 335.032 416.746 325.6 448.497 330.675C459.746 332.474 472.379 336.726 479.422 346.271C484.263 352.832 485.238 360.709 483.903 368.545C482.233 378.346 477.182 386.159 471.802 394.333C472.937 400.687 474.264 410.352 479.885 414.461C483.411 417.039 492.355 416.386 493.538 420.877C493.989 422.588 490.963 427.627 489.997 429.215C487.799 432.829 485.342 436.282 483.63 440.169C480.48 447.319 478.349 455.699 473.829 462.141C470.31 467.157 464.28 471.025 458.232 471.827C454.229 472.358 450.189 471.96 446.184 471.651C448.726 480.378 452.454 487.911 460.729 492.537C468.958 497.137 478.169 497.395 485.121 504.562C489.12 508.684 491.616 514.011 493.978 519.183C502.333 537.475 508.444 557.159 515.135 576.118C521.753 594.868 529.115 613.622 534.768 632.677C538.153 644.09 541.139 659.039 535.111 670.084C527.059 684.837 508.413 691.441 493.814 697.556C496.826 717.13 502.779 735.491 507.634 754.622C512.033 771.955 515.32 789.547 518.577 807.121C527.781 857.404 533.977 908.191 537.132 959.212C538.451 980.817 538.696 1002.39 539.567 1024L536.067 1024L470.073 1024L466.758 1024L455.447 1024L451.936 1024C445.872 991.076 437.997 958.511 428.346 926.454C424.966 936.749 423.585 947.999 421.414 958.63C416.961 980.442 412.5 1002.66 406.14 1024L402.942 1024L337.806 1024L333.856 1024L322.37 1024L318.276 1024C320.369 1002.98 323.043 981.983 324.642 960.923C326.364 938.253 326.869 915.043 326.989 892.303C319.985 892.234 312.985 891.945 305.999 891.434C292.841 883.246 273.311 863.235 265.505 849.754C264.743 824.584 279.364 756.207 296.943 738.314C298.059 737.178 299.291 736.317 300.593 735.418C303.474 735.545 306.354 735.692 309.233 735.861C311.833 730.07 314.998 724.713 318.425 719.379C293.526 682.748 304.146 660.093 309.744 620.167C299.095 618.867 288.983 617.457 279.505 612.091C285.001 601.735 293.943 593.836 299.337 583.313C304.622 572.782 309.314 561.965 313.391 550.911C322.175 527.794 328.033 508.45 353.919 500.467C364.076 497.334 374.009 495.57 383.1 489.71C374.377 492.912 362.8 497.688 353.725 493.318C352.576 492.765 351.464 491.938 351.014 490.696C350.054 488.049 351.867 484.821 353.209 482.633C354.846 479.964 357.289 477.836 359.499 475.649C356.774 475.612 354.035 475.592 351.322 475.881C346.905 476.352 331.763 479.869 328.736 477.1C328.055 473.768 329.263 470.488 331.053 467.685C336.536 459.099 347.648 454.459 357.064 451.883C354.609 449.157 352.098 446.464 349.74 443.655C336.791 448.161 321.312 450.584 308.509 444.355C299.723 440.149 292.991 432.595 289.82 423.384C286.828 414.578 287.157 404.468 291.371 396.11C295.555 387.814 302.544 382.782 310.382 378.207C313.528 367.255 317.58 357.614 328.085 351.875C335.003 348.083 343.153 347.23 350.706 349.505C353.851 350.445 357.092 351.833 359.83 353.647Z"/><path fill="#6094E4" d="M391.835 729.072C411.353 729.094 430.958 729.372 450.333 726.635C454.071 747.217 455.481 769.998 453.295 790.849C452.037 802.855 448.475 814.545 445.428 826.186C442.797 836.236 440.43 846.354 438.329 856.528C426.883 912.425 415.087 968.25 402.942 1024L337.806 1024C339.508 1014.6 340.222 1004.92 341.198 995.417C343.089 976.999 344.775 958.617 345.313 940.099C345.763 924.575 345.297 909.03 345.602 893.504L351.704 893.557C355.914 874.637 360.032 855.565 362.004 836.258C363.025 826.263 362.38 816.138 363.701 806.213C364.577 799.634 369.182 785.946 368.089 780.06L367.409 779.277C365.751 780.013 364.907 781.994 364.31 783.61C363.2 786.613 362.638 789.801 361.688 792.855C359.643 789.41 357.529 786.183 354.943 783.113C357.447 778.992 359.89 774.817 362.526 770.78C366.586 775.347 370.164 779.366 375.511 782.474C376.996 781.262 378.38 780.026 379.724 778.659C384.444 783.182 389.209 787.826 393.223 792.999L392.681 793.598C388.388 798.295 369.871 813.25 369.304 818.26C370.111 818.681 369.68 818.607 370.803 818.296C377.289 816.499 390.194 803.078 395.501 797.862C397.604 802.86 399.378 807.402 403.382 811.216C406.894 809.138 409.687 806.699 412.407 803.659C419.605 795.613 441.483 763.907 444.977 754.179L445.326 753.226C445.394 753.034 445.456 752.84 445.521 752.647C439.403 755.969 435.791 760.682 432.102 766.448C422.615 762.145 410.276 758.216 406.263 747.644C402.384 737.426 400.524 735.414 391.835 729.072Z"/><path fill="#6094E4" d="M472.683 722.156C479.477 719.636 486.218 717.022 492.7 713.763C498.289 732.495 503.267 751.402 507.627 770.457C513.575 797.272 517.75 824.501 521.6 851.687C529.854 908.785 534.685 966.325 536.067 1024L470.073 1024C469.059 1008.34 465.821 993.048 462.881 977.662C459.193 957.822 455.043 938.072 450.434 918.426C446.662 902.902 440.178 887.501 439.88 871.348C439.607 856.493 444.663 838.228 448.806 823.97C451.39 815.074 454.288 805.237 459.84 797.709C462.887 793.579 466.47 789.843 469.432 785.656C471.412 782.859 473.15 779.742 474.08 776.431C478.303 761.398 474.783 737.87 472.683 722.156Z"/><path fill="#6094E4" d="M437.522 877.572C442.971 909.028 451.506 940.101 458.219 971.334C461.989 988.873 465.403 1006.08 466.758 1024L455.447 1024C452.132 1005.94 448.796 987.878 444.233 970.086C439.728 952.526 430.784 935.498 430.861 917.049C430.917 903.648 435.327 890.691 437.522 877.572Z"/><path fill="#6094E4" d="M331.009 892.457L341.88 893.061C342.562 936.848 339.879 980.623 333.856 1024L322.37 1024C325.461 997.405 328.295 971.036 329.401 944.261C330.103 927.251 328.365 909.276 331.009 892.457Z"/><path fill="white" d="M355.024 513.134C363.097 514.062 370.566 515.86 377.959 519.307C384.64 522.422 390.868 526.428 396.765 530.832C402.988 535.48 422.659 554.333 428.153 555.098C429.092 555.229 429.505 555.033 430.258 554.52C436.376 550.353 439.02 530.092 440.302 522.99C444.655 525.878 448.492 529.206 452.173 532.904C440.682 574.298 418.352 609.998 394.816 645.478C386.175 658.505 377.767 671.842 367.568 683.718C365.982 681.481 364.626 679.035 363.199 676.692C366.545 666.627 368.547 656.144 370.741 645.783C374.693 627.115 378.101 608.38 381.592 589.624C383.557 579.071 388.097 565.375 387.134 554.769C387.03 553.62 387.12 553.513 386.204 552.734C385.77 552.903 385.7 552.898 385.285 553.245C380.608 557.157 379.558 575.004 378.911 581.119C377.328 596.504 373.843 611.569 370.825 626.71C367.516 643.308 364.7 659.852 359.512 675.998C367.873 696.183 380.29 714.544 390.504 733.821C380.878 743.5 371.169 752.702 360.629 761.385C340.397 741.952 318.582 721.447 308.976 694.323C306.656 687.771 305.472 681.646 305.555 674.681C305.698 662.714 308.763 650.803 310.658 639.02C316.404 603.288 320.419 564.571 336.405 531.663C340.752 522.714 345.392 516.485 355.024 513.134Z"/><path fill="white" d="M472.065 505.731C476.002 509.039 490.371 557.694 492.672 566.234C494.343 572.435 495.855 578.808 496.888 585.145C497.791 590.853 497.816 596.665 496.962 602.38C495.037 615.655 483.312 625.785 483.622 639.664C483.952 654.448 494.149 675.461 498.053 690.944C472.803 700.212 447.341 703.468 420.624 705.464C407.076 706.214 393.655 707.153 380.135 705.383C385.899 694.119 394.048 684.056 400.877 673.425C416.97 648.37 432.575 622.929 444.672 595.658C453.138 576.571 461.052 556.717 466.01 536.385C468.151 527.608 468.848 513.535 471.817 506.316C471.898 506.121 471.982 505.926 472.065 505.731Z"/><path fill="#EFD188" d="M463.699 381.514C463.843 381.593 463.999 381.652 464.13 381.751C466.672 383.667 467.312 389.983 467.796 393.057C465.48 393.036 463.094 392.935 460.788 393.14C458.763 393.32 456.223 394.073 454.926 395.701L455.064 396.691C455.244 396.811 455.413 396.95 455.605 397.051C459.175 398.94 464.662 396.709 468.224 395.671C469.341 400.883 470.184 406.801 472.72 411.526C476.2 418.011 482.42 419.671 488.99 421.517C486.359 427.697 482.883 433.441 480.36 439.708C474.869 453.349 470.398 469.853 451.845 467.656C448.15 467.219 444.527 465.931 440.961 464.913C438.785 464.291 434.798 462.664 432.698 463.735L432.787 464.576C435.454 467.237 439.251 468.578 442.689 469.935C443.68 474.017 445.136 477.841 446.677 481.742C439.714 483.461 432.683 484.465 425.588 485.445C414.62 485.858 404.976 484.967 394.454 481.646C400.156 471.287 402.503 460.717 404.744 449.221C406.794 448.628 408.793 448.045 410.662 446.998C412.276 446.093 414.99 444.735 415.522 442.83C412.446 439.527 403.566 445.326 398.877 444.302C395.877 443.646 393.218 442.105 391.628 439.42C389.657 436.089 389.237 431.643 390.166 427.927C391.491 422.63 394.991 418.531 399.02 415.051C411.266 404.477 423.342 403.128 437.326 396.625C446.487 392.365 455.074 386.753 463.699 381.514Z"/><path fill="#041558" d="M459.242 403.768C460.97 405.137 462.35 406.871 462.93 409.027C464.164 413.615 461.548 417.963 459.348 421.78C457.251 419.856 455.667 417.49 455.306 414.609C454.776 410.382 456.86 407.002 459.242 403.768Z"/><path fill="#041558" d="M456.187 433.599C459.53 435.379 462.184 438.125 465.653 439.858C468.455 439.278 471.61 437.763 474.439 438.552C475.38 439.756 475.306 440.043 475.41 441.593C471.625 442.691 467.384 443.142 463.465 442.609C460.977 442.271 458.239 441.411 456.749 439.24C455.456 437.355 455.751 435.693 456.187 433.599Z"/><path fill="#041558" d="M401.899 428.118C403.875 428.478 405.852 428.899 407.125 430.573C407.708 432.238 407.311 433.192 406.788 434.78C406.048 434.876 405.221 435.022 404.477 434.96C403.153 434.849 402.605 434.304 401.77 433.362C401.164 431.499 401.552 430.008 401.899 428.118Z"/><path fill="#316955" d="M424.666 333.202C431.666 332.272 439.168 333.414 446.144 334.197C423.738 353.85 399.83 378.901 386.166 405.581C384.183 409.453 380.73 416.307 382.512 420.637C383.214 422.342 384.765 422.944 386.307 423.738C385.429 429.733 384.314 436.598 387.989 441.936C391.056 446.389 395.908 447.799 400.908 448.865L397.733 463.643C392.871 463.531 388.193 462.686 383.429 461.763C375.984 459.365 369.212 456.338 363.105 451.379C350.423 441.084 342.023 424.624 340.497 408.411C338.964 392.127 344.538 376.352 355.025 363.913C371.811 344.004 399.549 335.402 424.666 333.202Z"/><path fill="#EFD188" d="M300.667 738.747C312.53 744.894 321.248 755.589 330.604 764.825C336.439 770.586 342.584 776.059 348.638 781.588C343.347 782.303 337.933 783.442 333.636 786.806C313.643 802.453 306.735 859.612 303.304 884.057C294.904 876.741 287.388 868.932 280.106 860.518C282.965 849.139 292.52 795.054 299.01 790.387L299.848 790.948C302.498 793.487 305.465 796.468 308.979 797.715C311.114 798.473 313.232 798.413 315.236 797.313C319.501 794.97 322.047 788.812 323.294 784.285C324.609 779.51 324.454 774.871 321.808 770.573C319.563 766.925 316.072 764.351 311.866 763.473C306.931 762.443 301.023 763.788 296.913 766.685C294.183 768.609 292.255 771.371 291.846 774.73C291.268 779.476 293.611 782.776 296.257 786.375C285.949 809.276 282.219 833.426 276.824 857.72C274.19 854.582 271.821 851.341 269.489 847.974C268.86 814.653 283.727 767.304 300.667 738.747Z"/><path fill="#EFD188" d="M346.501 786.144C347.415 786.049 348.2 786.153 349.092 786.343C352.006 786.966 354.064 788.541 355.653 791.052C366.786 808.642 352.682 869.955 348.701 890.068C339.987 889.37 331.235 889.052 322.504 888.631C317.443 888.578 312.445 888.267 307.402 887.888C307.398 864.098 316.745 815.626 330.498 796.269C334.644 790.434 339.471 787.309 346.501 786.144Z"/><path fill="white" d="M475.346 502.543C483.351 506.762 487.172 512.023 490.846 520.233C494.214 527.759 496.943 535.677 499.806 543.41C505.61 559.314 511.276 575.268 516.801 591.27C522.672 608.001 530.297 625.038 533.743 642.454C535.165 649.639 536.12 657.517 533.292 664.495C528.31 676.789 515.166 683.802 503.621 688.633L502.773 688.865C498.439 685.994 490.117 655.216 488.099 648.641C491.516 646.755 496.374 644.502 498.333 640.986C498.876 640.012 498.869 640.005 498.53 638.892C498.375 638.837 498.226 638.761 498.065 638.727C494.672 638.008 489.82 642.287 487.281 644.148C487.821 626.89 500.608 613.22 501.238 595.992C502.123 571.789 490.783 543.848 482.37 521.397C480.397 516.133 476.266 508.625 475.438 503.227C475.403 502.999 475.377 502.771 475.346 502.543Z"/><path fill="#316955" d="M318.211 382.155C325.774 381.457 331.733 383.788 338.376 387.008C333.35 406.318 339.483 422.766 347.301 440.206C339.433 443.737 331.368 445.075 322.781 444.99C316.851 444.155 311.51 442.303 306.544 438.913C298.974 433.743 293.807 425.741 292.211 416.714C290.788 408.784 292.238 400.385 297.037 393.804C302.167 386.77 309.838 383.333 318.211 382.155Z"/><path fill="#EFD188" d="M451.111 335.381C453.485 335.48 455.75 335.985 458.005 336.714C468.546 340.125 475.858 348.035 480.864 357.632C468.53 366.864 454.712 372.906 441.405 380.45C428.293 387.883 416.455 396.774 404.858 406.36C401.631 409.093 398.756 412.221 395.516 414.949C393.232 416.873 390.265 419.154 387.136 418.891C386.314 418.042 386.23 417.941 386.32 416.671C386.702 411.254 391.921 404.236 394.805 399.726C410.466 375.234 428.266 353.475 451.111 335.381Z"/><path fill="#EFD188" d="M466.715 515.354C466.755 515.559 466.801 515.762 466.835 515.967C467.903 522.331 463.411 531.582 461.596 537.681C448.915 580.278 429.75 618.719 406.736 656.599C397.358 672.035 387.779 687.146 377.165 701.772L374.536 697.25L369.289 687.409C378.539 677.776 385.841 665.871 393.387 654.875C410.616 629.769 426.819 604.046 439.737 576.421C445.309 564.506 448.668 551.983 453.697 539.929C454.941 536.95 457.906 535.125 459.453 532.304C462.311 527.093 463.781 521.119 466.482 515.802L466.715 515.354Z"/><path fill="#F1E0E0" d="M285.771 610.697C296.201 596.511 304.841 582.438 311.577 566.097C317.631 551.409 321.956 532.739 331.396 520.047C339.586 509.036 351.365 504.953 364.104 501.396C368.897 500.058 373.692 498.699 378.618 497.952C378.759 498.094 378.898 498.238 379.041 498.378C384.354 503.606 399.359 509.291 400.124 517.279C399.638 518.467 399.294 519.064 398.032 519.552C394.872 520.775 390.519 518.956 387.093 519.136C378.706 516.225 371.236 511.543 362.325 510.027C356.128 508.972 350.142 509.722 344.993 513.517C323.526 529.337 314.185 591.553 310.82 616.839C302.31 615.564 293.988 613.194 285.771 610.697Z"/><path fill="#6094E4" d="M489.105 698.144C489.167 698.179 489.235 698.205 489.29 698.249C491.574 700.069 491.79 707.316 492.168 710.223C466.656 721.701 442.114 725.289 414.463 725.544C406.942 725.613 394.942 727.275 389.247 721.686C386.502 717.954 384.05 714.07 381.587 710.151C415.772 711.88 455.856 705.839 489.105 698.144Z"/><path fill="#EFD188" d="M391.601 485.08C411.169 490.957 428.667 488.003 448.398 485.287L453.018 491.862C449.37 498.188 445.089 504.194 441.009 510.25L436.808 516.663C418.293 509.483 400.383 501.016 381.602 494.509C385.17 491.553 388.41 488.442 391.601 485.08Z"/><path fill="#EFD188" d="M403.423 754.292C408.105 756.543 412.399 760.125 416.776 762.951C421.122 765.757 425.758 768.056 430.384 770.358C423.379 781.66 415.486 792.224 407.428 802.782L404.43 806.406C397.108 795.278 393.051 783.943 382.231 775.46C389.825 768.774 396.655 761.799 403.423 754.292Z"/><path fill="#6094E4" d="M378.618 497.952C395.77 501.513 421.209 512.384 436.485 520.814C434.419 531.543 432.326 541.973 428.917 552.376C418.306 543.807 407.839 535.051 397.005 526.765C393.779 524.298 390.495 521.272 387.093 519.136C390.519 518.956 394.872 520.775 398.032 519.552C399.294 519.064 399.638 518.467 400.124 517.279C399.359 509.291 384.354 503.606 379.041 498.378C378.898 498.238 378.759 498.094 378.618 497.952Z"/><path fill="#6094E4" d="M468.015 723.158C470.581 725.8 470.643 732.845 470.857 736.405C471.314 743.878 471.539 751.364 471.532 758.851C471.516 775.697 468.895 781.917 457.877 794.364C456.132 787.917 458.032 771.907 457.656 763.567C457.095 751.123 455.592 738.64 454.356 726.246C458.896 725.166 463.462 724.184 468.015 723.158Z"/><path fill="#316955" d="M341.312 352.17C346.826 352.017 351.057 353.816 355.782 356.37C349.122 364.514 344.324 373.154 339.574 382.473L331.89 379.902C325.987 378.547 320.001 378.065 313.986 377.489C315.721 372.352 317.721 367.168 321.109 362.863C326.31 356.253 333.219 353.266 341.312 352.17Z"/><path fill="#6094E4" d="M395.338 735.857C399.262 739.199 401.517 743.831 403.911 748.289C397.876 754.6 383.06 774.014 375.294 776.101C374.241 776.384 374.336 776.193 373.475 775.69L362.868 764.644C374.351 755.737 383.606 744.547 395.338 735.857Z"/><path fill="#EFD188" d="M328.143 735.735C329.235 735.619 328.872 735.579 330.015 735.802C336.078 736.988 341.637 746.674 345.023 751.471C343.131 757.039 341.187 762.589 339.191 768.12L331.838 761.477C324.131 754.129 314.223 748.149 308.636 738.882C314.797 736.231 321.554 736.219 328.143 735.735Z"/><path fill="#EFD188" d="M386.293 468.574C389.734 468.322 393.207 468.479 396.655 468.541C395.434 471.806 394.077 474.996 392.07 477.865C385.481 487.283 375.154 489.163 364.615 490.972C362.388 491.267 359.397 491.779 357.265 490.908C356.088 490.428 355.313 489.729 354.934 488.488C354.422 486.812 354.715 485.256 355.585 483.765C360.706 474.996 377.254 470.724 386.293 468.574Z"/><path fill="#6094E4" d="M457.384 494.904C461.04 496.814 465.048 498.098 468.917 499.514C465.377 508.353 461.08 522.865 454.794 529.648L454.044 529.604C449.858 525.469 445.401 521.801 440.684 518.29C445.331 509.877 450.935 502.03 457.384 494.904Z"/><path fill="#6094E4" d="M305.646 765.975C306.838 766 308.049 766.028 309.219 766.279C315.413 767.605 318.892 773.465 322.023 778.419C319.826 784.959 317.024 789.811 312.157 794.698C311.414 794.88 310.949 795.154 310.198 794.876C305.521 793.144 300.338 786.827 298.193 782.46C296.803 779.632 296.108 776.464 297.213 773.415C298.652 769.443 302.078 767.683 305.646 765.975Z"/><path fill="#EFD188" d="M358.06 454.39C363.502 454.928 374.341 462.544 379.366 465.618C369.77 469.662 362.686 472.007 352.125 471.832C345.292 472.061 338.496 473.028 331.713 473.838C339.478 464.417 347.333 459.867 358.06 454.39Z"/><path fill="#316955" d="M480.471 362.423C480.779 362.668 481.095 363.17 481.341 363.483C482.282 371.146 475.206 381.384 471.51 387.849C470.09 384.085 468.77 380.72 466.091 377.619C452.261 380.991 441.104 390.86 428.147 396.361C425.466 397.401 422.765 398.267 420.018 399.112C439.273 385.592 460.366 374.628 480.471 362.423Z"/><path fill="#EFD188" d="M348.916 756.231C351.689 757.655 354.035 760.795 356.041 763.142L347.778 772.667C347.362 773.174 347.046 773.356 346.491 773.687C344.551 773.246 343.197 771.543 341.813 770.199C343.753 765.298 345.992 760.626 348.916 756.231Z"/><path fill="#6094E4" d="M321.877 724.255C324.637 725.755 326.649 730.237 328.238 732.872L322.622 733.363C320.045 733.468 317.476 733.833 314.915 734.129C316.939 730.592 319.219 727.341 321.877 724.255Z"/><path fill="#6094E4" d="M357.527 767.424C358.337 768.21 358.554 768.496 358.574 769.724C358.621 772.728 354.384 776.981 352.546 779.178C351.933 778.381 351.23 777.542 351.216 776.478C351.17 773.026 355.337 769.679 357.527 767.424Z"/></svg>