<?xml version="1.0" encoding="utf-8" ?><svg xmlns="http://www.w3.org/2000/svg" xmlns:xlink="http://www.w3.org/1999/xlink" viewBox="0 0 1024 1024"><path d="M225.278 343.205C245.434 341.463 280.311 350.51 298.587 359.223C305.641 362.585 311.473 366.966 314.005 374.683C317.017 383.861 313.859 391.711 309.873 399.855C310.406 404.549 309.641 411.603 311.455 415.832C312.076 417.281 313.194 417.67 314.547 418.239C315.429 418.611 316.124 418.848 316.886 419.455C317.53 419.968 317.333 420.359 317.381 421.12C316.603 423.051 315.116 424.168 313.597 425.505C313.268 431.526 312.448 437.474 308.816 442.506C303.372 450.051 294.148 451.716 285.598 453.201C285.439 456.972 285.466 460.715 285.54 464.488C291.504 467.207 296.981 470.341 302.097 474.474C319.433 488.48 341.151 519.218 335.394 542.953C333.133 552.274 327.318 559.99 325.825 569.717C323.871 582.454 326.295 596.827 327.631 609.57C335.135 605.79 375.612 587.603 382.008 590.144C384.739 591.229 387.058 594.976 388.356 597.43C391.713 603.777 393.586 610.998 395.97 617.75C398.833 625.86 402.117 633.906 404.632 642.128C405.596 645.28 407.28 651.13 405.448 654.062C401.686 660.085 381.139 667.24 373.788 668.897C373.592 670.188 373.41 671.506 373.113 672.779C372.128 677.001 369.636 680.611 365.887 682.839C358.075 687.48 347.703 685.566 339.478 683.274C334.559 684.85 329.758 686.918 324.951 688.81C329.086 700.441 339.123 715.042 346.217 725.338C336.892 735.047 326.433 744.392 315.293 751.969C316.79 766.52 319.866 781.178 321.858 795.705C325.933 825.077 329.273 854.547 331.875 884.087C333.122 897.855 334.908 912.213 334.747 926.019L332.803 929.025L334.536 937.257C339.996 938.005 345.472 938.724 350.975 939.06C359.731 939.596 371.375 938.102 379.474 941.982C382.123 943.251 386.051 946.283 386.827 949.276C387.21 950.754 387.004 952.077 386.207 953.385C379.526 964.338 321.292 978.902 307.667 982.088C305.143 975.699 304.486 968.257 303.282 961.514C302.028 954.4 300.533 947.33 298.802 940.317C291.947 941.583 284.763 941.586 277.812 941.867C273.767 929.387 271.973 915.729 269.201 902.889C263.431 876.161 256.803 849.802 246.534 824.408C243.303 830.466 240.504 836.808 237.638 843.044C228.528 861.738 218.883 880.166 208.715 898.306C203.403 907.755 198.229 917.881 191 926.033C186.766 926.079 182.421 925.593 178.245 924.911C176.792 927.792 175.895 930.523 175.083 933.627C181.649 950.42 197.505 956.639 201.532 968.72C202.453 971.483 202.429 974.748 200.941 977.315C199.787 979.307 198.104 980.455 195.858 980.913C192.254 981.648 187.854 980.466 184.34 979.615C160.862 973.928 144.151 959.263 124.496 946.458C126.952 942.06 130.297 938.113 133.008 933.85C137.851 926.233 141.033 917.461 143.926 908.955L136.113 901.619C141.822 880.376 150.148 859.621 157.256 838.796C165.248 814.672 172.816 790.408 179.954 766.017C166.444 759.101 153.023 751.904 141.944 741.365C156.82 706.397 170.706 671.024 185.912 636.192C177.001 633.484 165.031 632.805 159.131 624.51C155.49 619.392 155.918 612.662 157.014 606.79C153.9 605.761 148.33 604.571 146.385 601.667C145.113 599.767 146.013 595.791 146.446 593.629C147.498 588.37 149.361 583.187 151.284 578.193C154.321 570.303 171.779 529.97 176.969 526.922C181.836 524.063 187.702 526.161 192.621 527.668C198.262 508.206 205.359 488.08 221.117 474.386C235.856 461.578 243.049 463.375 261.343 464.603C263.103 459.614 264.362 454.331 265.81 449.236C247.439 446.922 240.685 441.338 226.528 430.015C215.203 436.418 203.106 443.122 190.087 445.071C184.465 445.913 178.178 445.744 173.497 442.119C170.008 439.418 167.802 434.942 167.263 430.609C166.284 422.74 170.733 416.376 175.371 410.572C171.116 410.523 166.24 410.285 162.454 408.165C160.505 407.075 159.194 405.563 158.715 403.354C158.096 400.495 159.897 396.944 161.334 394.609C167.523 384.548 178.488 378.355 189.724 375.675C187.343 374.329 184.777 372.982 182.684 371.21C180.63 369.47 178.657 367.007 178.465 364.215C178.301 361.839 179.264 359.72 180.779 357.939C189.956 347.154 211.896 344.577 225.278 343.205ZM328.834 616.337C330.428 630.486 333.843 657.942 339.349 670.76C341.085 666.673 343.166 659.97 347.831 658.325C348.899 657.948 350.119 657.862 351.24 657.891C352.952 658.714 353.664 659.244 355.588 659.13C356.805 658.339 357.815 657.533 358.891 656.558L362.292 660.329C366.143 660.91 369.812 660.978 372.289 664.401C372.804 665.124 373.295 665.863 373.763 666.618L397.523 657.258C393.745 647.449 390.173 637.561 386.809 627.602C384.549 620.946 382.517 614.066 379.752 607.604C378.558 604.815 376.859 600.241 374.217 598.582C364.534 602.473 354.873 606.448 345.138 610.204C339.771 612.276 334.04 613.932 328.834 616.337ZM312.7 659.79C314.957 666.206 317.649 673.279 320.636 679.371C321.842 681.831 322.763 684.314 324.162 686.688L338.926 680.799C337.108 671.555 334.751 662.429 332.806 653.211C327.429 627.729 323.196 601.596 323.626 575.468C323.973 554.376 338.874 545.269 332.471 522.956C327.179 504.517 312.609 481.705 295.448 472.299C297.744 476.186 301.051 479.6 303.834 483.156C309.708 490.663 315.136 499.118 318.504 508.077C328.529 534.739 316.692 551.542 311.494 576.878C309.427 586.954 309.186 597.68 308.426 607.935C307.747 617.108 306.518 626.585 307.033 635.788C307.335 641.181 308.491 646.299 309.756 651.526L308.437 651.832L307.268 649.766L306.735 649.943C305.933 656.041 305.886 662.366 305.69 668.512C305.332 679.731 305.146 691.09 306.252 702.274C307.097 710.813 309.039 719.257 310.736 727.66C312.178 734.799 313.415 742.019 315.149 749.092C324.561 741.365 334.979 733.761 343.26 724.832C329.019 705.111 319.085 683.896 311.748 660.743L312.7 659.79Z"/><path fill="#0A0A0A" d="M247.009 476.371C247.159 476.415 247.314 476.442 247.458 476.502C253.791 479.136 263.802 503.733 266.408 510.766C273.047 528.683 277.717 551.478 276.832 570.566C275.976 589.036 268.347 607.334 264.055 625.219C255.718 659.965 250.007 695.45 239.347 729.604C234.463 745.252 228.345 760.134 221.509 775.019C193.319 771.551 166.762 759.904 145.117 741.514C149.154 730.473 153.78 719.605 158.192 708.707C167.908 684.573 178.006 660.594 188.481 636.78L194.463 638.668C203.349 659.397 214.33 679.365 224.652 699.411C220.033 706.356 215.11 712.723 211.895 720.491C214.653 717.723 217.068 714.899 219.365 711.737C226.989 700.945 233.676 689.468 237.525 676.754C245.092 651.76 238.91 636.85 227.032 614.88C230.414 610.386 233.091 605.348 235.481 600.272C239.293 592.173 260.39 537.536 258.328 531.806C256.587 532.623 255.519 535.119 254.843 536.851C252.684 542.384 251.606 548.646 249.902 554.375C244.445 572.73 236.256 598.9 223.797 613.514C227.217 622.078 232.923 629.495 235.825 638.332C242.451 658.507 235.166 678.529 226 696.589C221.889 689.748 218.525 682.365 214.739 675.323C202.813 653.139 184.696 622.185 190.095 596.229C192.695 583.73 198.268 572.078 202.491 560.089C209.51 540.164 217.494 508.818 229.017 491.893C233.572 485.202 240.35 480.721 247.009 476.371Z"/><path fill="#75768A" d="M295.679 629.288C298.766 628.968 301.939 629.002 305.044 628.915C305.03 650.743 302.369 672.439 303.38 694.321C300.829 686.301 294.292 661.029 288.765 656.459L288.229 656.859C288.331 664.312 293.538 673.421 296.065 680.521C297.895 685.819 299.588 691.164 301.144 696.55C304.809 709.398 307.82 722.423 310.167 735.575C313.037 751.99 315.623 768.453 317.924 784.956C322.153 812.551 325.654 840.252 328.424 868.03C330.244 887.328 330.99 906.718 332.754 926.035C326.857 928.89 320.734 931.404 314.64 933.807C303.206 937.269 291.249 939.441 279.274 939.513C273.877 912.223 268.327 884.863 260.642 858.107C255.842 841.394 249.699 825.118 244.461 808.545C239.635 793.28 235.72 777.827 230.185 762.781C235.762 749.989 240.54 736.863 244.491 723.479C249.046 707.773 252.187 691.714 255.488 675.711C258.561 660.605 261.823 645.538 265.273 630.514C275.415 630.522 285.552 629.787 295.679 629.288Z"/><path fill="#75768A" d="M228.324 766.784C230.624 768.902 243.335 814.273 245.405 821.101C241.365 828.429 238.235 836.335 234.61 843.878C227.612 858.289 220.281 872.536 212.623 886.607C205.642 899.452 198.845 912.264 189.64 923.695C178.088 923.205 167.595 918.815 157.238 914.069C150.405 910.424 144.312 906.398 138.769 900.961C146.043 877.81 154.492 855.061 162.04 832.004C169.096 810.45 175.301 788.623 182.368 767.072C195.255 772.557 208.924 775.982 222.874 777.222L228.324 766.784Z"/><path fill="#28305A" d="M229.822 345.717C248.122 346.169 265.496 349.665 282.807 355.472C292.907 358.86 305.859 362.665 310.761 373.08C314.526 381.078 312.37 388.934 309.48 396.713C306.02 388.852 302.186 380.596 294.083 376.701C288.791 380.281 284.641 385.643 280.18 390.169C273.814 396.627 267.235 402.591 261.379 409.558C259.857 409.02 258.307 408.323 256.735 407.946C254.418 407.39 251.824 407.465 249.783 408.815C247.274 410.474 245.026 414.028 244.655 417.016C244.35 419.47 245.372 421.783 246.706 423.778C248.899 427.057 252.686 428.746 255.126 431.78C259.004 436.601 262.067 442.086 265.98 446.962C259.235 446.5 253.463 445.46 247.328 442.549C240.047 437.995 233.638 432.957 227.145 427.376C218.756 433.801 208.207 438.451 198.152 441.537C191.287 443.644 183.605 445.059 176.992 441.37C173.397 439.365 170.238 435.819 169.311 431.739C167.086 421.946 175.17 417.61 179.258 410.397C179.846 409.36 180.19 409.014 179.891 407.849C174.928 405.115 169.661 408.462 164.394 406.967C163.285 406.652 161.762 405.94 161.283 404.842C160.253 402.482 161.694 398.974 162.684 396.794C166.361 388.696 174.402 383.055 182.713 380.442C186.727 379.18 190.838 378.573 194.784 377.034L195.469 376.763C191.586 372.773 186.529 371.244 182.288 367.868C181.054 366.886 180.527 365.692 180.452 364.13C180.358 362.161 181.267 360.415 182.596 359.015C192.709 348.361 215.992 346.434 229.822 345.717Z"/><path fill="#6072AE" d="M238.675 466.414C238.832 466.432 238.993 466.43 239.147 466.468C242.209 467.23 244.617 471.426 246.364 473.837C235.47 479.881 228.454 487.492 222.746 498.488C213.327 516.633 207.929 536.806 201.2 556.032C196.175 570.387 188.126 585.281 187.005 600.581C186.117 612.715 189.513 623.673 193.162 635.059L176.795 631.162C170.818 629.496 163.487 627.863 160.186 622.008C157.822 617.816 158.216 612.9 159.5 608.437C165.579 587.312 178.264 568.627 187.057 548.634C190.003 542.043 192.69 535.34 195.112 528.539C199.876 514.758 203.567 500.886 212.001 488.716C218.908 478.75 228.172 472.149 238.675 466.414Z"/><path fill="#724A21" d="M293.269 378.753C300.284 383.331 305.876 392.061 308.187 400.044C310.073 406.558 306.827 407.988 308.18 413.123C308.477 414.252 309.254 416.391 308.356 417.395C306.652 419.299 302.851 418.837 301.519 421.31L301.996 421.988C302.488 422.035 302.979 422.092 303.468 422.157C305.763 422.47 309.147 423.918 310.434 425.984C312.094 428.645 311.545 432.413 310.667 435.254C308.941 440.845 304.533 445.023 299.389 447.574C291.133 451.668 282.052 451.455 273.496 448.55C264.966 443.981 260.935 436.554 256.411 428.438C252.496 426.179 248.917 423.602 247.775 418.965C247.257 416.866 247.381 414.487 248.577 412.63C249.478 411.231 250.79 410.354 252.429 410.041C256.365 409.288 259.456 411.602 262.48 413.733C268.019 403.417 276.468 397.134 284.533 389.039C287.728 385.833 290.505 382.327 293.269 378.753Z"/><path d="M288.698 405.231C291.493 405.71 293.377 406.88 294.995 409.228C297.083 412.257 297.872 416.319 297.062 419.908C296.694 421.543 295.77 423.486 294.108 424.16C292.755 424.71 292.208 424.264 291.027 423.666C291.662 423.085 292.281 422.486 292.883 421.87C294.515 420.172 294.882 418.36 294.814 416.063C294.759 414.23 294.58 412.487 293.096 411.23C291.432 409.82 288.449 410.646 286.486 410.951L286.008 410.398C286.566 408.365 287.511 406.958 288.698 405.231Z"/><path d="M273.437 421.388C276.196 422.356 278.236 425.189 280.198 427.237C285.23 432.487 288.96 430.142 295.227 430.449C297.484 430.559 298.645 431.223 300.136 432.892C294.746 434.633 287.277 433.733 282.288 431.295C277.939 429.17 274.986 425.97 273.437 421.388Z"/><path d="M303.112 404.717C303.732 405.179 304.258 405.79 304.803 406.338C305.636 408.796 305.317 411.359 305.175 413.914C303.727 413.14 302.18 412.353 301.658 410.65C301.03 408.597 302.279 406.517 303.112 404.717Z"/><path d="M255.029 415.261C255.647 415.619 256.134 415.973 256.584 416.537C258.174 418.529 258.456 420.218 258.148 422.687C256.844 421.866 255.531 421.088 254.857 419.631C254.171 418.15 254.628 416.735 255.029 415.261Z"/><path fill="#F2C66C" d="M315.552 545.422L316.113 545.562C318.155 550.331 310.192 571.902 308.939 578.543C306.034 593.937 306.373 610.304 305.455 625.936C293.589 627.429 277.814 629.996 266.145 627.753C267.758 618.772 270.593 609.736 272.765 600.853C274.753 592.724 276.183 584.271 278.597 576.271C279.671 572.715 281.997 569.723 283.257 566.25C285.401 560.344 286.356 553.616 287.641 547.455C289.37 548.096 291.105 548.717 292.881 549.218C301.466 551.635 308.093 549.602 315.552 545.422Z"/><path fill="#6072AE" d="M145.652 910.222C155.532 916.457 165.808 920.447 176.781 924.281C174.862 927.909 173.689 931.606 172.718 935.58C170.235 935.469 167.229 935.17 164.962 936.302L164.884 937.056C166.79 938.176 170.935 938.097 173.201 938.512C174.326 939.394 174.929 940.35 175.674 941.538L175.487 942.285L171.623 943.444L171.586 943.822C173.594 944.466 175.411 944.49 177.498 944.527C184.489 952.364 193.954 958.88 199.513 967.809C199.596 968.292 199.692 968.773 199.742 969.261C199.918 970.97 199.42 971.615 198.384 972.832C197.047 973.459 196.083 973.698 194.593 973.633C189.955 973.431 184.965 971.067 180.8 969.178C163.103 961.15 148.488 949.797 135.215 935.788C139.034 927.366 142.442 918.894 145.652 910.222Z"/><path fill="#6072AE" d="M329.592 930.013C331.696 931.626 332.061 937.12 332.528 939.703C331.51 940.373 330.651 941.091 329.741 941.895L329.707 942.735C329.884 942.759 330.061 942.799 330.24 942.807C332.525 942.91 334.155 941.379 335.829 940.048C347.314 941.355 366.935 940.582 376.858 943.853C379.388 944.687 381.195 945.817 383.195 947.558C372.693 951.87 362.066 955.873 351.329 959.562C336.633 963.894 321.965 967.465 307.032 970.891C305.344 960.501 303.433 950.149 301.3 939.841C311.092 937.385 320.354 934.061 329.592 930.013Z"/><path fill="#F2C66C" d="M271.08 474.748C276.16 476.114 280.444 475.971 285.602 475.294C300.198 491.738 313.282 515.73 316.797 537.3C315.417 539.114 313.874 540.801 312.372 542.514C310.828 543.643 309.243 544.635 307.45 545.331C300.823 547.904 293.991 544.851 287.939 542.216C289.429 516.43 283.308 497.158 271.08 474.748Z"/><path fill="#6072AE" d="M243.194 466.099C249.07 466.048 255.056 466.095 260.84 467.238C264.471 470.739 267.769 474.449 270.588 478.643C287.434 503.707 287.307 533.271 281.734 561.808C281.476 562.694 281.097 563.571 280.776 564.438L279.986 564.779C277.502 561.857 277.284 545.316 276.477 540.407C275.269 533.249 273.64 526.169 271.599 519.203C265.742 499.585 256.598 481.648 243.194 466.099Z"/><path fill="#6072AE" d="M180.399 528.071C184.485 528.115 188.182 528.616 192.071 529.866C182.082 554.836 169.028 578.526 158.492 603.296L157.5 603.882C155.868 603.601 154.267 603.287 152.699 602.74C151.022 602.154 148.974 601.202 148.333 599.388C147.107 595.917 150.317 588.084 151.553 584.774C155.46 574.308 160.589 564.399 165.086 554.189C168.202 547.117 170.761 538.761 174.933 532.301C176.253 530.257 178.241 529.061 180.399 528.071Z"/><path fill="#BA3E34" d="M377.567 591.518C378.962 591.476 380.411 591.369 381.654 592.127C390.75 597.669 402.688 640.79 405.597 651.523C403.737 653.99 401.681 655.669 399.183 657.417C394.246 643.259 389.182 629.146 383.992 615.078C382.335 610.115 380.634 602.278 376.541 598.755C376.156 598.424 375.177 597.672 374.73 597.54C368.298 595.635 339.703 612.621 329.828 613.444C328.915 613.52 329.282 613.615 328.585 613C328.632 612.843 328.66 612.68 328.725 612.53C329.458 610.829 331.349 609.594 332.914 608.745C337.746 606.124 343.184 604.746 348.283 602.749L377.567 591.518Z"/><path fill="#BA3E34" d="M358.567 658.807C360.356 659.505 361.8 662.097 362.903 663.613C365.175 663.234 367.393 662.577 369.453 663.991C370.837 664.94 371.747 666.436 371.953 668.101C372.37 671.43 370.7 675.279 368.558 677.755C364.43 682.526 358.57 683.151 352.685 683.502C348.753 683.053 344.902 682.562 341.035 681.709C340.837 675.675 341.295 669.309 344.544 664.015C345.726 662.09 347.244 660.538 349.545 660.122C351 659.858 352.361 661.178 353.457 662L354.062 662.461C355.751 662.108 357.308 660.023 358.567 658.807Z"/><path fill="#28305A" d="M381.311 950.478C382.457 950.417 383.195 950.404 384.27 950.827L384.554 951.696C384.335 952.16 384.282 952.33 384.01 952.726C381.94 955.731 376.389 958.139 373.169 959.68C353.253 969.208 332.564 973.993 311.123 978.907C310.382 978.981 309.963 978.877 309.249 978.707C307.798 977.071 307.481 974.778 306.94 972.707C326.163 971.34 362.796 958.606 381.311 950.478Z"/><path fill="#28305A" d="M133.339 938.333C146.961 950.536 160.569 962.971 177.521 970.413C182.531 972.613 193.829 974.687 197.179 976.795L197.12 977.573C195.85 978.409 195.091 978.519 193.624 978.685C174.857 977.974 158.909 967.006 143.906 956.826C138.515 953.168 132.762 949.617 127.866 945.308C129.532 942.792 131.322 940.577 133.339 938.333Z"/><path fill="#434976" d="M285.681 467.965C291.321 470.88 295.652 475.512 299.559 480.42C308.639 491.827 318.945 506.643 320.442 521.458C320.942 526.407 320.382 531.295 319.839 536.216C317.441 534.386 314.959 519.887 313.668 516.362C310.586 507.941 305.031 499.477 299.987 492.041C295.33 485.178 287.111 476.32 285.681 467.965Z"/><path fill="#724A21" d="M268.271 448.35C273.207 450.777 277.617 452.204 283.036 453.184C282.894 459.09 284.586 467.509 282.377 472.941C281.224 473.766 280.811 473.745 279.377 473.892C273.057 473.13 268.526 470.305 263.997 466.038C265.158 460.103 266.801 454.217 268.271 448.35Z"/><path d="M309.756 651.526C310.772 654.268 311.753 657.023 312.7 659.79L311.748 660.743C310.897 657.737 309.559 654.752 308.437 651.832L309.756 651.526Z"/><path d="M702.474 765.618C706.933 765.301 712.201 767.327 716.254 769.005C731.446 775.295 748.337 784.865 763.436 792.195C781.025 800.733 799.323 808.258 816.592 817.388C820.932 819.682 828.736 823.877 830.059 828.951C832.129 836.889 827.307 845.857 823.45 852.509C817.701 862.422 810.843 871.745 804.781 881.48C794.729 897.62 785.304 914.182 775.443 930.446L757.534 960.293C753.623 966.835 749.759 974.292 744.762 980.033C742.493 982.64 739.625 983.819 736.355 984.693C731.945 984.089 727.738 982.38 723.691 980.6C715.312 976.914 707.188 972.501 699.003 968.403C686.982 962.392 674.896 956.512 662.747 950.764C653.473 946.339 644.171 941.971 634.843 937.66C628.555 934.796 621.21 932.157 615.512 928.266C611.807 925.737 608.462 922.295 607.709 917.701C607.101 913.991 608.338 910.503 609.968 907.23C613.115 900.913 617.409 895.033 621.06 888.979C627.73 877.925 634.255 866.785 640.634 855.56C651.127 837.121 661.763 818.764 672.539 800.489C677.206 792.554 681.439 784.048 686.712 776.516C690.871 770.576 695.126 766.923 702.474 765.618ZM723.844 978.35C725.238 978.42 725.77 978.298 726.86 977.378C731.157 973.753 766.077 915.199 771.389 906.675L794.611 869.639C800.052 861.073 805.841 852.593 810.718 843.692C812.778 839.933 814.704 836.231 814.89 831.86C815.103 826.859 813.928 822.016 810.401 818.336C807.621 815.435 804.033 813.326 800.542 811.403C787.733 804.348 774.008 799.038 760.883 792.611C745.489 785.072 730.339 776.182 714.402 769.876C710.508 768.335 706.694 767.096 702.455 767.116C702.3 767.117 702.145 767.121 701.99 767.123C694.386 768.877 691.246 771.871 687.194 778.351C681.687 787.16 677.046 796.547 671.919 805.584L641.959 857.245C635.443 868.345 628.725 879.362 621.981 890.326C618.022 896.759 613.576 903.127 610.373 909.969C609.015 912.868 608.746 915.43 609.561 918.556C610.955 923.901 614.915 926.512 619.479 929.026C628.976 934.256 639.464 937.99 649.274 942.652L723.844 978.35Z"/><path fill="#66A1A9" d="M701.99 767.123C702.145 767.121 702.3 767.117 702.455 767.116C706.694 767.096 710.508 768.335 714.402 769.876C730.339 776.182 745.489 785.072 760.883 792.611C774.008 799.038 787.733 804.348 800.542 811.403C804.033 813.326 807.621 815.435 810.401 818.336C813.928 822.016 815.103 826.859 814.89 831.86C814.704 836.231 812.778 839.933 810.718 843.692C805.841 852.593 800.052 861.073 794.611 869.639L771.389 906.675C766.077 915.199 731.157 973.753 726.86 977.378C725.77 978.298 725.238 978.42 723.844 978.35L649.274 942.652C639.464 937.99 628.976 934.256 619.479 929.026C614.915 926.512 610.955 923.901 609.561 918.556C608.746 915.43 609.015 912.868 610.373 909.969C613.576 903.127 618.022 896.759 621.981 890.326C628.725 879.362 635.443 868.345 641.959 857.245L671.919 805.584C677.046 796.547 681.687 787.16 687.194 778.351C691.246 771.871 694.386 768.877 701.99 767.123ZM686.468 817.108C698.161 823.911 710.446 829.362 722.621 835.214C734.568 841.048 746.482 846.948 758.363 852.915C765.454 856.406 773.172 859.165 779.903 863.296C785.177 855.242 789.873 846.75 794.582 838.354C773.825 827.628 752.743 817.519 731.877 807.005C722.145 802.102 712.265 795.335 701.851 792.12C694.457 798.738 689.81 807.875 686.468 817.108ZM684.395 901.45C678.343 903.843 673.968 907.831 671.39 913.941C670.101 916.996 669.595 920.369 670.936 923.496C673.517 929.514 680.96 931.944 686.637 934.006C687.389 934.279 688.144 934.547 688.901 934.81C693.21 933.856 696.984 931.27 699.429 927.595C701.857 923.985 703.074 919.297 702.227 914.987C701.368 910.613 698.377 907.04 694.647 904.739C691.77 902.965 687.758 901.701 684.395 901.45ZM707.625 861.573C701.467 864.892 696.169 869.653 694.109 876.596C693.147 879.84 693.254 883.319 695.009 886.276C697.921 891.185 704.2 893.616 709.548 894.756C710.712 895.004 711.883 895.224 713.071 895.32C718.399 893.625 722.448 891.281 725.014 886.019C726.953 882.045 727.378 877.412 725.879 873.224C724.245 868.657 720.525 865.039 716.078 863.192C713.341 862.055 710.58 861.505 707.625 861.573ZM669.529 843.963C664.04 847.728 658.591 852.697 657.246 859.541C656.569 862.99 657.263 866.37 659.28 869.25C662.521 873.877 668.307 876.589 673.799 877.398C674.867 877.556 675.731 877.484 676.785 877.283C682.498 873.902 687.762 869.204 689.396 862.473C690.266 859.034 689.686 855.389 687.789 852.391C685.042 847.992 680.182 845.436 675.205 844.449C673.311 844.073 671.461 843.867 669.529 843.963ZM653.279 917.167C659.01 915.009 663.264 911.53 665.78 905.795C667.349 902.217 667.957 898.262 666.451 894.56C664.604 890.023 660.41 886.984 655.987 885.231C653.556 884.268 650.913 883.569 648.302 883.476C642.337 886.639 636.43 891.446 634.265 898.113C633.304 901.074 633.385 904.189 634.873 906.962C637.912 912.625 645.21 915.005 651.036 916.588C651.782 916.789 652.529 916.982 653.279 917.167ZM719.238 918.953C713.689 921.698 709.06 926.862 707.093 932.785C705.878 936.446 705.83 940.321 707.747 943.751C711.33 950.16 718.945 952.383 725.568 954.055C725.782 954.109 725.997 954.164 726.215 954.206C731.216 952.233 735.317 947.625 737.514 942.78C739.3 938.842 739.88 934.493 738.158 930.429C736.124 925.629 731.517 922.296 726.758 920.518C724.288 919.595 721.876 919.047 719.238 918.953ZM741.057 880.048C736.161 882.789 732.573 886.714 730.916 892.177C729.616 896.463 730.024 900.963 732.182 904.903C734.329 908.865 738.001 911.778 742.347 912.969C745.218 913.761 747.917 913.903 750.836 913.226C756.158 909.699 760.802 905.112 762.184 898.612C762.925 895.125 762.238 891.667 760.273 888.697C757.015 883.774 751.242 881.118 745.571 880.162C744.013 879.899 742.621 879.883 741.057 880.048Z"/><path d="M702.026 790.301C709.785 792.151 722.674 800.713 730.293 804.542L797.018 837.433C792.354 847.21 786.619 856.237 780.908 865.414C775.599 863.582 770.279 860.772 765.194 858.379C752.506 852.292 739.897 846.039 727.371 839.622C717.386 834.626 706.923 830.546 697.122 825.197C692.94 822.915 689.059 820.459 685.4 817.403C688.687 806.243 693.457 798.222 702.026 790.301ZM686.468 817.108C698.161 823.911 710.446 829.362 722.621 835.214C734.568 841.048 746.482 846.948 758.363 852.915C765.454 856.406 773.172 859.165 779.903 863.296C785.177 855.242 789.873 846.75 794.582 838.354C773.825 827.628 752.743 817.519 731.877 807.005C722.145 802.102 712.265 795.335 701.851 792.12C694.457 798.738 689.81 807.875 686.468 817.108Z"/><path d="M718.801 917.49C719.996 917.429 721.161 917.54 722.336 917.761C728.481 918.915 734.98 922.071 738.423 927.453C740.814 931.192 741.19 935.547 740.078 939.788C738.16 947.106 733.216 951.762 727.005 955.55C726.243 955.517 725.598 955.448 724.85 955.31C718.306 954.108 711.068 951.673 707.31 945.791C704.925 942.057 704.64 937.669 705.666 933.44C707.498 925.888 712.406 921.32 718.801 917.49ZM726.215 954.206C731.216 952.233 735.317 947.625 737.514 942.78C739.3 938.842 739.88 934.493 738.158 930.429C736.124 925.629 731.517 922.296 726.758 920.518C724.288 919.595 721.876 919.047 719.238 918.953C713.689 921.698 709.06 926.862 707.093 932.785C705.878 936.446 705.83 940.321 707.747 943.751C711.33 950.16 718.945 952.383 725.568 954.055C725.782 954.109 725.997 954.164 726.215 954.206Z"/><path d="M706.761 860.467C710.422 859.88 715.36 861.242 718.595 862.966C722.859 865.238 726.528 868.91 727.913 873.633C729.268 878.254 728.259 883.399 725.934 887.539C723.164 892.471 719.031 895.3 713.708 896.897C712.271 896.734 710.832 896.55 709.421 896.222C703.549 894.857 696.842 892.31 693.651 886.854C691.802 883.691 691.679 880.102 692.648 876.632C694.68 869.36 700.298 863.931 706.761 860.467ZM713.071 895.32C718.399 893.625 722.448 891.281 725.014 886.019C726.953 882.045 727.378 877.412 725.879 873.224C724.245 868.657 720.525 865.039 716.078 863.192C713.341 862.055 710.58 861.505 707.625 861.573C701.467 864.892 696.169 869.653 694.109 876.596C693.147 879.84 693.254 883.319 695.009 886.276C697.921 891.185 704.2 893.616 709.548 894.756C710.712 895.004 711.883 895.224 713.071 895.32Z"/><path d="M740.637 878.513C741.901 878.474 743.232 878.402 744.496 878.523C750.377 879.087 757.487 882.427 761.099 887.087C763.522 890.212 764.525 893.96 763.906 897.871C762.734 905.268 757.183 910.697 751.522 915.025C749.346 915.628 747.374 915.372 745.184 914.95C739.495 913.856 734.261 911.092 731.048 906.107C728.656 902.395 728.026 898.058 728.974 893.769C730.525 886.758 734.866 882.334 740.637 878.513ZM750.836 913.226C756.158 909.699 760.802 905.112 762.184 898.612C762.925 895.125 762.238 891.667 760.273 888.697C757.015 883.774 751.242 881.118 745.571 880.162C744.013 879.899 742.621 879.883 741.057 880.048C736.161 882.789 732.573 886.714 730.916 892.177C729.616 896.463 730.024 900.963 732.182 904.903C734.329 908.865 738.001 911.778 742.347 912.969C745.218 913.761 747.917 913.903 750.836 913.226Z"/><path d="M647.273 882.483C650.651 882.118 653.9 883.077 657.021 884.307C661.534 886.086 666.027 889.606 667.92 894.18C669.515 898.034 669.019 902.147 667.469 905.931C664.934 912.121 660.398 916.255 654.338 918.794C653.226 918.699 652.108 918.578 651.018 918.333C644.84 916.948 637.679 914.043 634.334 908.377C632.309 904.948 632.12 900.879 633.263 897.117C635.444 889.943 640.925 885.771 647.273 882.483ZM653.279 917.167C659.01 915.009 663.264 911.53 665.78 905.795C667.349 902.217 667.957 898.262 666.451 894.56C664.604 890.023 660.41 886.984 655.987 885.231C653.556 884.268 650.913 883.569 648.302 883.476C642.337 886.639 636.43 891.446 634.265 898.113C633.304 901.074 633.385 904.189 634.873 906.962C637.912 912.625 645.21 915.005 651.036 916.588C651.782 916.789 652.529 916.982 653.279 917.167Z"/><path d="M669.659 842.499C671.397 842.447 673.037 842.537 674.748 842.871C680.357 843.966 686.226 846.594 689.364 851.585C691.492 854.969 691.958 858.965 691.021 862.82C689.185 870.372 683.668 875.195 677.327 879.046C676.264 879.02 675.233 878.952 674.179 878.798C668.294 877.938 661.751 875.138 658.294 870.129C656.03 866.848 655.395 863.028 656.265 859.163C657.941 851.711 663.442 846.396 669.659 842.499ZM676.785 877.283C682.498 873.902 687.762 869.204 689.396 862.473C690.266 859.034 689.686 855.389 687.789 852.391C685.042 847.992 680.182 845.436 675.205 844.449C673.311 844.073 671.461 843.867 669.529 843.963C664.04 847.728 658.591 852.697 657.246 859.541C656.569 862.99 657.263 866.37 659.28 869.25C662.521 873.877 668.307 876.589 673.799 877.398C674.867 877.556 675.731 877.484 676.785 877.283Z"/><path d="M682.776 900.468C684.065 900.373 685.334 900.321 686.618 900.517C692.636 901.437 699.176 904.232 702.641 909.434C704.661 912.467 705.262 916.105 704.524 919.652C702.975 927.109 697.315 932.102 691.279 936.09C688.52 936.302 685.21 935.266 682.576 934.445C677.725 932.933 673.036 929.554 670.747 924.934C668.793 920.991 668.966 916.392 670.535 912.354C672.862 906.361 677.157 903.071 682.776 900.468ZM688.901 934.81C693.21 933.856 696.984 931.27 699.429 927.595C701.857 923.985 703.074 919.297 702.227 914.987C701.368 910.613 698.377 907.04 694.647 904.739C691.77 902.965 687.758 901.701 684.395 901.45C678.343 903.843 673.968 907.831 671.39 913.941C670.101 916.996 669.595 920.369 670.936 923.496C673.517 929.514 680.96 931.944 686.637 934.006C687.389 934.279 688.144 934.547 688.901 934.81Z"/><path fill="#66A1A9" d="M813.204 817.773C818.587 819.33 824.484 822.479 827.418 827.407C829.679 831.203 829.701 835.377 828.492 839.538C825.581 849.565 817.374 859.647 811.759 868.383C806.358 876.776 801.096 885.259 795.975 893.826L764.356 946.531C758.336 956.595 752.684 967.194 745.804 976.696C743.771 979.503 741.467 981.05 738.492 982.676C733.947 983.63 730.014 981.726 726.032 979.806C738.495 966.963 746.598 950.448 755.725 935.244C763.923 921.588 772.529 908.144 780.972 894.637C786.367 885.92 791.905 877.294 797.586 868.761C803.778 859.356 810.442 849.792 815.042 839.48C818.448 831.845 816.036 825.077 813.204 817.773Z"/><path fill="#434976" d="M866.737 674.16L866.812 673.472C870.124 641.055 834.405 622.611 851.272 578.481C855.452 567.338 862.493 557.491 871.685 549.93C884.247 539.631 902.287 535.141 918.287 536.765C935.198 538.482 951.575 547.74 962.28 560.863C973.512 574.633 977.689 591.992 975.766 609.496C973.864 626.807 963.873 639.595 950.548 650.103C932.882 664.033 914.295 674.294 907.936 697.622C911.408 698.739 914.871 699.901 918.357 700.969C914.2 711.942 911.863 723.556 907.736 734.472C905.088 733.646 902.334 732.915 899.742 731.938C894.506 738.061 889.148 743.03 880.643 743.586C874.406 743.994 868.226 742.051 863.62 737.767C858.185 732.712 856.562 726.217 855.515 719.202C851.791 718.157 848.086 717.049 844.4 715.878C848.813 706.178 849.708 695.099 854.025 685.554C854.402 684.72 854.838 684.021 855.729 683.65C855.962 683.553 856.21 683.497 856.451 683.421C858.949 683.99 861.385 684.7 863.837 685.435C864.931 681.7 866.052 677.998 866.737 674.16ZM869.164 687.238C870.941 687 873.175 687.847 874.845 688.522L877.542 689.261C882.699 690.594 888.123 691.752 893.075 693.731C893.994 694.088 894.631 694.459 895.617 694.41C898.997 694.642 902.561 696.164 905.784 697.219C911.718 668.968 937.993 660.062 956.843 642.369C968.358 631.559 974.026 617.875 974.377 602.118C974.896 585.599 968.633 569.586 957.044 557.802C945.26 545.768 927.742 538.355 910.891 538.295C894.721 538.237 879.597 544.18 868.114 555.599C860.221 563.447 854.777 573.039 851.677 583.695C845.68 604.312 850.428 619.265 859.541 637.898C862.816 644.593 866.151 651.275 867.832 658.588C868.96 663.49 868.996 668.278 868.989 673.289C868.555 676.444 866.146 684.041 867.436 686.477L869.164 687.238ZM847.546 714.429C859.856 718.314 872.224 722.012 884.646 725.521C891.967 727.631 899.575 729.472 906.661 732.289C907.569 729.042 911.137 720.389 910.097 717.289L908.516 716.729C889.785 710.852 870.592 706.537 851.914 700.599C850.273 705.167 848.886 709.768 847.546 714.429ZM857.586 719.652C859.434 727.215 861.637 734.147 868.722 738.45C873.327 741.246 878.863 742.071 884.084 740.74C887.298 739.94 889.835 738.479 892.605 736.747C894.445 734.994 896.307 733.286 897.932 731.325C889.375 728.898 880.836 726.409 872.315 723.859C867.437 722.442 862.378 721.309 857.586 719.652ZM852.517 698.267C871.466 703.977 891.577 707.469 909.928 714.896C910.401 714.852 910.867 714.675 911.323 714.543C913.175 710.868 914.11 706.437 915.497 702.53C899.836 697.197 883.804 692.948 867.81 688.752C864.52 687.89 861.235 687.046 858 685.99L856.717 685.845C854.22 688.298 853.483 694.961 852.517 698.267Z"/><path fill="#DA7206" d="M881.958 603.45C883.894 599.595 886.544 593.927 891.108 592.663C892.693 592.223 894.138 592.351 895.553 593.191C898.759 595.092 900.524 599.534 901.216 603.008C902.149 607.695 901.921 613.001 900.935 617.66C906.532 618.703 912.112 619.833 917.673 621.05C921.735 612.026 931.051 600.348 940.547 596.758C941.872 596.257 943.288 596.009 944.67 596.5C945.933 596.948 946.634 597.865 947.113 599.071C948.417 602.357 946.859 606.749 945.325 609.73C942.007 616.181 935.56 620.142 928.799 622.19C925.626 623.151 922.505 623.566 919.21 623.817C916.133 633.219 912.353 642.382 909.289 651.808C904.685 665.968 900.694 680.421 895.617 694.41C894.631 694.459 893.994 694.088 893.075 693.731C894.55 686.886 896.852 680.033 898.869 673.327C903.908 656.577 909.415 639.929 916.442 623.896C911.01 622.564 905.347 621.899 900.072 620.03C895.523 633.693 890.756 647.32 886.51 661.08C883.642 670.375 881.771 680.498 877.542 689.261L874.845 688.522C876.835 678.948 880.198 669.708 883.339 660.464C888.029 646.659 892.923 632.899 897.377 619.019C890.839 616.007 885.116 612.458 882.537 605.293C882.323 604.685 882.13 604.071 881.958 603.45ZM922.04 620.688C930.065 619.08 937.622 615.66 942.392 608.654C944.118 606.12 944.722 603.65 944.175 600.632C944.044 599.908 943.832 599.499 943.356 598.947C934.126 603.503 925.862 610.678 921.084 619.83L921.344 620.502L922.04 620.688ZM895.246 615.138L897.087 616.025C898.103 615.471 898.426 614.855 898.79 613.779C900.226 609.537 898.843 603.298 896.719 599.494C895.7 597.667 893.997 595.429 891.871 594.882C889.323 596.848 886.41 600.105 886.005 603.434C885.716 605.812 886.716 608.057 888.228 609.843C890.111 612.066 892.704 613.76 895.246 615.138Z"/><path fill="#4B5482" d="M852.517 698.267C871.466 703.977 891.577 707.469 909.928 714.896L908.516 716.729C889.785 710.852 870.592 706.537 851.914 700.599L852.517 698.267Z"/><path fill="#4B5482" d="M866.737 674.16L868.989 673.289C868.555 676.444 866.146 684.041 867.436 686.477L869.164 687.238L867.81 688.752C864.52 687.89 861.235 687.046 858 685.99C857.612 685.014 857.049 684.274 856.451 683.421C858.949 683.99 861.385 684.7 863.837 685.435C864.931 681.7 866.052 677.998 866.737 674.16Z"/><path d="M545.764 388.074C547.023 387.933 548.229 387.935 549.486 388.13C552.651 388.62 555.338 390.333 557.206 392.915C564.557 403.08 561.028 421.982 559.099 433.555C564.086 433.472 569.073 433.741 574.022 434.36C580.743 435.179 589.411 436.94 593.676 442.701C596.001 445.842 596.527 449.664 595.85 453.452C593.32 467.622 577.78 479.174 566.779 486.873C570.035 493.774 572.915 501.091 574.304 508.618C575.548 515.359 575.967 523.377 571.701 529.174C568.849 533.05 564.445 535.129 559.728 535.632C546.221 537.072 534.534 527.809 524.643 519.924C524.443 520.254 524.239 520.581 524.028 520.905C515.2 534.568 503.279 546.065 487.106 549.646C486.962 549.637 486.816 549.643 486.674 549.62C484.008 549.197 481.082 546.705 479.559 544.575C471.719 533.609 475.098 513.23 477.164 500.96C468.27 499.986 459.15 498.376 450.802 495.068C445.019 492.776 438.465 489.09 436.051 483.035C434.566 479.31 434.944 475.347 436.642 471.765C442.341 459.739 458.454 453.835 470.081 449.579C467.738 442.846 465.178 436.078 464.024 429.015C462.871 421.961 462.652 412.966 467.149 407.005C469.499 403.889 472.909 402.133 476.758 401.689C489.378 400.235 501.148 410.79 510.151 418.206C510.361 417.889 510.574 417.573 510.789 417.26C519.404 404.662 529.926 391.094 545.764 388.074ZM498.428 444.389L486.948 473.651C490.485 478.774 502.853 497.623 508.279 499.374C508.848 499.558 509.304 499.515 509.875 499.508C518.395 499.255 526.521 498.076 534.974 497.29C540.177 486.199 544.503 475.159 548.741 463.681C545.266 459.13 532.286 440.131 527.538 439.518C526.734 439.414 526.251 439.489 525.479 439.674C516.458 441.154 507.464 443.075 498.428 444.389ZM528.156 434.821C532.37 437.41 550.688 434.12 556.264 433.473C557.99 423.046 561.811 404.918 555.41 395.781C553.627 393.236 551.069 391.69 547.995 391.28C547.346 391.198 546.695 391.136 546.043 391.095C530.586 394.251 520.94 408.06 512.349 420.147C517.702 424.927 523.181 429.646 528.156 434.821ZM507.823 534.984C512.872 529.756 517.462 524.193 521.923 518.461C517.301 512.69 511.165 508.402 506.716 502.328C497.718 502.159 488.745 501.775 479.753 501.468C477.933 513.477 474.482 532.096 482.021 542.702C483.383 544.618 485.249 546.211 487.628 546.598C492.474 547.386 498.099 543.461 501.749 540.584C503.877 538.907 505.982 536.975 507.823 534.984ZM477.526 498.085C479.103 489.985 481.24 482.221 483.893 474.41C481.191 469.705 474.369 455.738 471.417 452.526C460.67 456.794 444.082 462.215 439.258 473.864C438.071 476.73 437.901 479.889 439.218 482.743C441.859 488.465 449.011 491.277 454.6 493.221C454.769 493.28 454.94 493.333 455.11 493.389C462.423 495.634 469.927 497.206 477.526 498.085ZM536.853 499.643C533.812 505.836 530.385 511.831 526.59 517.593C531.164 520.769 535.603 525.348 540.676 527.593C547.16 530.812 554.69 534.381 562.073 532.056C565.614 530.941 568.29 528.519 569.974 525.233C574.154 517.079 571.408 506.36 568.507 498.207C567.381 495.04 566.026 492.002 564.215 489.166L563.675 489.042C555.01 493.769 546.446 497.216 536.853 499.643ZM565.27 484.089C569.521 481.238 573.395 478.171 577.321 474.902C583.591 468.762 593.397 459.92 593.251 450.403C593.204 447.355 591.911 444.658 589.665 442.616C582.273 435.897 568.088 436.042 558.775 436.473C556.876 445.419 554.626 454.286 552.03 463.055C557.023 469.086 561.751 477.081 565.27 484.089ZM531.86 438.658C536.415 443.282 540.216 448.565 544.37 453.538C546.124 455.782 547.832 458.153 549.717 460.286C552.002 452.377 553.844 444.37 555.871 436.395C553.909 436.486 551.8 436.422 549.865 436.706C543.855 437.272 537.852 437.923 531.86 438.658ZM500.146 441.294C504.901 440.511 509.636 439.615 514.348 438.606C518.202 437.889 522.075 437.224 525.916 436.436C521.135 431.583 516.044 427.044 510.676 422.85C507.121 428.966 503.472 435.05 500.146 441.294ZM496.907 441.654C500.617 434.579 504.157 427.322 508.487 420.604C498.621 413.773 489.293 403.788 476.232 404.536C471.739 406.846 468.598 409.703 467.057 414.661C463.808 425.113 469.423 438.843 473.348 448.404C479.575 446.463 485.792 444.614 492.107 442.979C493.701 442.57 495.367 442.228 496.907 441.654ZM510.364 502.55C512.562 505.038 514.696 507.63 517.173 509.849C519.424 511.896 521.674 513.921 524.033 515.846C526.671 511.878 531.968 505.583 532.742 500.98L532.417 500.764C525.048 501.765 517.795 502.232 510.364 502.55ZM481.922 465.255L484.79 470.424C487.357 465.105 494.034 451.701 494.01 446.2C492.916 445.975 493.414 445.966 492.519 446.113C486.453 447.456 480.525 449.311 474.577 451.089C476.893 455.884 479.405 460.564 481.922 465.255ZM485.794 477.338C483.645 484.346 481.606 491.298 479.925 498.434C485.826 498.643 492.012 499.432 497.876 499.288C499.706 499.381 501.83 499.739 503.549 499.022C499.806 494.19 495.763 489.611 491.899 484.878C489.933 482.47 488.009 479.485 485.794 477.338ZM550.921 466.835C547.097 476.787 543.305 486.626 538.526 496.175C541.764 495.254 544.953 494.292 548.119 493.146C553.218 491.03 558.255 488.719 562.982 485.85C560.068 480.616 555.399 470.517 550.921 466.835Z"/><path fill="#BA3E34" d="M521.489 465.184C525.386 463.984 529.528 466.112 530.822 469.978C532.116 473.844 530.09 478.037 526.256 479.425C523.692 480.353 520.826 479.819 518.769 478.029C516.712 476.238 515.786 473.474 516.351 470.806C516.916 468.138 518.883 465.986 521.489 465.184Z"/><path fill="#BA3E34" d="M553.073 400.365C554.777 400.564 556.035 402.051 555.949 403.764C555.863 405.478 554.463 406.831 552.747 406.858C551.532 406.878 550.407 406.219 549.829 405.15C549.251 404.08 549.316 402.778 549.998 401.772C550.681 400.766 551.866 400.224 553.073 400.365Z"/><path fill="#BA3E34" d="M452.663 465.944C454.565 466.13 456.149 466.624 457.485 468.043C458.589 469.217 459.047 470.755 458.945 472.341C458.771 475.026 457.48 476.342 455.523 478.023C455.385 478.013 455.246 478.01 455.108 477.992C453.086 477.723 451.25 477.015 449.989 475.343C448.975 474 448.633 472.333 448.963 470.688C449.432 468.345 450.801 467.282 452.663 465.944Z"/><path fill="#BA3E34" d="M478.021 728.793C483.575 727.626 489.783 726.388 495.455 726.559C496.902 730.206 497.525 737.495 499.246 739.989C500.916 742.408 504.342 742.691 507.01 743.311C510.102 744.116 513.023 745.143 516.008 746.278C518.985 741.75 521.165 736.568 524.378 732.249C529.679 735.25 534.812 738.507 539.963 741.756C538.163 746.239 535.452 750.531 532.86 754.6C537.363 759.333 541.773 764.08 545.996 769.068C551.127 767.01 556.053 764.738 560.992 762.254C563.631 768.013 566.054 774.112 569.059 779.677C564.694 781.941 559.967 783.997 555.767 786.534C556.59 792.891 557.47 799.227 557.84 805.63C562.854 807.058 567.966 808.776 573.051 809.882C571.852 815.463 570.928 821.072 570.017 826.705C565.325 826.072 560.582 825.188 555.871 824.796C552.764 830.551 549.709 836.446 545.864 841.752C549.16 845.789 552.528 849.767 555.966 853.683C551.597 858.047 546.889 862.02 542.224 866.062C538.698 862.471 535.094 858.931 531.707 855.209C525.759 858.454 519.984 861.606 513.301 863.084C513.623 868.427 514.033 873.763 514.531 879.092C508.292 880.525 502.627 881.695 496.173 881.587C495.299 876.283 494.513 870.964 493.817 865.634C487.06 864.845 480.219 863.929 473.86 861.373C471.564 866.728 469.398 872.138 467.363 877.597C461.536 874.686 455.473 871.75 450.209 867.9C452.239 862.835 454.735 857.97 457.664 853.367C452.318 848.62 447.55 843.988 443.312 838.184C438.353 840.341 433.416 842.584 428.367 844.521C426.065 838.805 423.882 832.993 421.392 827.359C426.098 825.371 430.891 823.491 435.412 821.106C434.081 814.565 433.34 807.918 433.198 801.245C427.856 799.996 422.578 798.7 417.326 797.106C418.459 791.2 419.959 785.408 421.348 779.561C425.986 781.014 430.608 782.515 435.214 784.064C438.173 777.256 441.752 771.441 445.778 765.252C443.328 761.97 437.23 756.152 436.486 752.251C436.973 751.43 437.202 751.141 437.966 750.507C442.158 747.442 446.188 743.413 449.786 739.684C453.672 743.373 457.096 747.511 461 751.209C466.768 747.523 472.963 745.282 479.38 743.038C478.797 738.308 478.449 733.539 478.021 728.793ZM499.254 831.165C509.061 829.839 517.385 823.314 521.014 814.107C524.644 804.899 523.011 794.449 516.746 786.788C510.482 779.126 500.564 775.451 490.819 777.18C476.175 779.777 466.298 793.609 468.594 808.304C470.889 822.998 484.515 833.158 499.254 831.165Z"/><path d="M524.378 732.249C529.679 735.25 534.812 738.507 539.963 741.756C538.163 746.239 535.452 750.531 532.86 754.6C537.363 759.333 541.773 764.08 545.996 769.068C551.127 767.01 556.053 764.738 560.992 762.254C563.631 768.013 566.054 774.112 569.059 779.677C564.694 781.941 559.967 783.997 555.767 786.534C556.59 792.891 557.47 799.227 557.84 805.63C562.854 807.058 567.966 808.776 573.051 809.882C571.852 815.463 570.928 821.072 570.017 826.705C565.325 826.072 560.582 825.188 555.871 824.796C552.764 830.551 549.709 836.446 545.864 841.752C549.16 845.789 552.528 849.767 555.966 853.683C551.597 858.047 546.889 862.02 542.224 866.062C538.698 862.471 535.094 858.931 531.707 855.209C525.759 858.454 519.984 861.606 513.301 863.084C513.623 868.427 514.033 873.763 514.531 879.092C508.292 880.525 502.627 881.695 496.173 881.587C495.299 876.283 494.513 870.964 493.817 865.634C487.06 864.845 480.219 863.929 473.86 861.373C471.564 866.728 469.398 872.138 467.363 877.597C461.536 874.686 455.473 871.75 450.209 867.9C452.239 862.835 454.735 857.97 457.664 853.367C452.318 848.62 447.55 843.988 443.312 838.184C438.353 840.341 433.416 842.584 428.367 844.521C426.065 838.805 423.882 832.993 421.392 827.359C426.098 825.371 430.891 823.491 435.412 821.106C434.081 814.565 433.34 807.918 433.198 801.245C427.856 799.996 422.578 798.7 417.326 797.106C418.459 791.2 419.959 785.408 421.348 779.561C425.986 781.014 430.608 782.515 435.214 784.064C438.173 777.256 441.752 771.441 445.778 765.252C443.328 761.97 437.23 756.152 436.486 752.251C436.973 751.43 437.202 751.141 437.966 750.507L437.324 751.88C437.818 755.462 444.87 761.943 447.39 764.786C442.974 771.464 439.374 778.178 436.184 785.514C431.337 783.992 426.507 782.419 421.694 780.795C420.664 785.985 419.672 791.183 418.72 796.389C423.898 798.025 429.081 799.558 434.478 800.262C434.536 807.734 435.231 814.527 437.125 821.776C432.371 823.868 427.545 825.868 422.933 828.262C425.171 833.251 427.171 838.382 429.318 843.416L443.127 836.744C448.042 842.605 453.522 847.943 459.01 853.257C456.456 858.023 453.703 862.668 451.214 867.473C456.488 870.445 461.715 873.501 466.892 876.639C468.569 870.991 471.237 865.419 473.616 860.026C480.827 862.719 487.186 863.839 494.888 864.201C495.254 869.655 496.217 875.065 497.045 880.464C502.435 879.774 507.813 878.992 513.177 878.121C512.935 872.86 512.494 867.61 511.854 862.382C519.179 860.264 525.683 857.137 532.222 853.24C535.287 857.437 538.856 861.125 542.408 864.904C546.298 860.991 550.498 857.372 554.601 853.685C551.111 849.846 547.701 845.935 544.375 841.952C548.359 836.086 551.75 829.839 554.498 823.302C559.125 823.694 563.784 824.71 568.364 825.489C569.46 820.51 570.649 815.552 571.929 810.617C566.871 809.142 561.788 807.751 556.683 806.447C556.256 799.364 555.649 792.672 554.011 785.739L567.57 779.035C565.332 773.915 562.776 768.906 560.485 763.801C555.732 766.233 550.723 768.189 545.804 770.258C541.388 764.97 536.845 760.048 531.709 755.445L538.308 742.137L525.009 733.91C522.243 738.386 519.577 742.963 516.348 747.125C513.204 746.005 509.878 745.045 507.01 743.311C510.102 744.116 513.023 745.143 516.008 746.278C518.985 741.75 521.165 736.568 524.378 732.249Z"/><path fill="#434976" d="M888.258 233.418C892.259 234.071 896.363 234.265 900.387 234.894C913.089 236.838 925.347 241.009 936.598 247.215C962.499 261.731 977.292 285.082 985.139 313.132L980.268 314.188C980.861 321.882 983.069 329.481 983.814 337.212C986.367 362.665 979.781 388.196 965.232 409.238C949.037 432.844 922.736 448.734 894.718 453.868C866.949 458.956 833.598 452.487 810.31 436.369L805.844 443.263C792.379 435.186 780.078 423.885 771.475 410.728C760.175 393.445 755.086 372.976 753.917 352.541C753.671 348.237 753.243 343.593 754.119 339.36C774.397 338.044 794.876 335.333 815.025 332.646C817.913 332.283 820.799 332.096 823.703 331.913C827.94 356.733 832.039 363.487 844.481 384.575C841.14 391.215 836.312 397.544 832.164 403.733C825.024 414.228 818.012 424.81 811.129 435.475C839.483 449.46 864.542 458.251 896.702 451.826C924.446 446.046 948.839 429.667 964.69 406.175C977.528 386.812 984.357 363.355 982.521 340.099C981.836 331.421 979.935 322.87 978.199 314.357C957.117 320.303 935.569 324.928 914.324 330.303C901.296 333.6 883.831 339.247 871.083 340.883C872.645 334.481 873.254 327.656 874.426 321.141C879.667 291.999 882.745 262.483 888.258 233.418ZM873.719 338.316C898.967 331.51 924.545 326.226 949.884 319.805C960.227 316.91 972.574 312.775 983.014 311.163C971.738 281.461 958.784 259.054 928.53 245.477C916.114 239.905 903.137 237.544 889.797 235.487C885.342 255.655 882.889 276.563 880.01 297.009C878.068 310.797 875.578 324.53 873.719 338.316ZM791.409 430.125C795.95 433.706 800.613 437.132 805.388 440.396C812.64 429.015 819.798 417.52 827.356 406.342C832.27 399.074 837.696 392.103 842.271 384.618C830.811 366.179 826.51 355 822.404 333.729L817.807 334.191L755.526 341.099C755.529 372.814 763.655 402.799 786.557 425.763C788.081 427.317 789.702 428.774 791.409 430.125Z"/><path fill="#434976" d="M643.835 557.139C645.489 560.844 647.059 564.494 648.304 568.358C651.058 576.929 653.354 585.592 655.633 594.299C662.047 592.361 680.984 587.887 685.523 585.112C686.51 582.394 687.834 579.621 690.62 578.362C692.49 577.518 694.51 577.581 696.398 578.336C698.746 579.276 700.739 581.258 701.634 583.629C702.283 585.347 702.313 587.242 701.473 588.9C700.401 591.015 697.888 592.624 695.642 593.213C693.968 593.652 692.061 593.234 690.508 592.542C687.887 597.292 684.408 601.771 681.332 606.248C676.075 613.856 670.929 621.541 665.896 629.299C667.826 634.592 669.536 640.076 670.982 645.521L671.902 647.238C674.869 647.571 693.373 640.681 697.823 639.403C703.634 637.735 709.439 636.141 715.5 635.808C702.02 642.011 686.837 646.754 672.344 649.938C674.608 656.197 676.043 663.02 677.77 669.456C680.935 681.254 684.195 693.096 686.921 705.003C703.825 699.092 720.161 693.526 737.81 690.272C731.961 693.332 724.989 695.06 718.686 697C710.423 699.517 702.176 702.089 693.947 704.716L585.443 739.013C572.386 704.225 562.806 668.207 550.403 633.176C546.509 622.648 539.262 603.714 538.448 593.107C542.062 596.464 547.685 619.249 550.159 625.463L550.353 625.937C566.644 620.615 583.252 616.46 599.511 610.916C594.838 597.859 590.885 584.555 587.671 571.064C594.211 583.497 597.093 596.989 601.599 610.168C618.809 604.523 636.572 599.675 654.059 594.93C651.236 587.909 648.776 579.854 647.016 572.493C645.372 567.406 644.327 562.466 643.835 557.139ZM670.308 650.555C666.588 651.646 662.332 652.53 658.94 654.411C657.233 656.957 655.25 659.428 652.107 660.155C649.954 660.653 647.795 660.328 645.947 659.091C645.398 658.723 644.917 658.272 644.429 657.831C636.69 661.058 627.703 662.942 619.616 665.287C622.312 672.564 624.181 680.272 626.382 687.715C629.722 698.818 633.145 709.897 636.65 720.95C652.916 715.604 669.312 710.683 685.536 705.199L670.308 650.555ZM663.813 628.683C661.712 617.909 657.693 607.497 654.839 596.909C637.175 601.419 619.669 606.527 602.352 612.225L619.076 663.672C627.286 661.003 635.547 658.492 643.853 656.139C642.978 654.973 642.447 653.181 642.261 651.706C642.098 650.409 642.5 649.311 643.331 648.316C645.732 645.437 649.149 645.549 652.535 645.448C656.392 639.923 660.305 634.439 663.813 628.683ZM656.549 596.542C659.173 606.6 662.085 616.581 665.281 626.473C669.992 619.242 675.015 612.218 679.698 604.972C682.588 600.499 685.156 595.427 688.293 591.168L686.321 587.793C676.141 590.212 666.433 593.109 656.549 596.542ZM551.519 628.024L551.033 628.486L551.252 629.332C554.006 638.087 556.999 646.766 559.736 655.523C562.261 663.602 564.443 671.719 567.593 679.589C584.065 674.744 600.818 670.112 616.909 664.119C610.795 647.209 606.481 629.651 600.393 612.7C585.059 618.896 567.229 622.285 551.519 628.024ZM635.334 721.383C632.477 714.037 620.321 669.292 617.038 666.462L616.3 666.561C605.802 669.448 595.35 672.498 584.947 675.711C579.31 677.462 573.636 679.712 567.918 681.124C574.328 699.24 577.458 719.864 587.106 736.589C603.008 731.35 619.18 725.732 635.334 721.383ZM669.629 647.181C667.673 641.938 666.358 636.215 664.812 630.826C661.486 636.205 658.141 641.281 653.582 645.714C655.802 647.241 657.666 648.637 658.834 651.133C662.315 650.256 666.341 649.609 669.531 647.986L669.629 647.181Z"/><path fill="#BA3E34" d="M685.523 585.112C686.51 582.394 687.834 579.621 690.62 578.362C692.49 577.518 694.51 577.581 696.398 578.336C698.746 579.276 700.739 581.258 701.634 583.629C702.283 585.347 702.313 587.242 701.473 588.9C700.401 591.015 697.888 592.624 695.642 593.213C693.968 593.652 692.061 593.234 690.508 592.542C689.822 591.989 689.059 591.604 688.293 591.168L686.321 587.793L685.523 585.112Z"/><path fill="#BA3E34" d="M652.535 645.448L653.582 645.714C655.802 647.241 657.666 648.637 658.834 651.133C658.821 652.25 658.801 653.299 658.94 654.411C657.233 656.957 655.25 659.428 652.107 660.155C649.954 660.653 647.795 660.328 645.947 659.091C645.398 658.723 644.917 658.272 644.429 657.831L643.853 656.139C642.978 654.973 642.447 653.181 642.261 651.706C642.098 650.409 642.5 649.311 643.331 648.316C645.732 645.437 649.149 645.549 652.535 645.448Z"/><path fill="#434976" d="M670.982 645.521L671.902 647.238C674.869 647.571 693.373 640.681 697.823 639.403C703.634 637.735 709.439 636.141 715.5 635.808C702.02 642.011 686.837 646.754 672.344 649.938L670.308 650.555C666.588 651.646 662.332 652.53 658.94 654.411C658.801 653.299 658.821 652.25 658.834 651.133C662.315 650.256 666.341 649.609 669.531 647.986L669.629 647.181C670.183 646.653 670.546 646.145 670.982 645.521Z"/><path fill="#0A0A0A" d="M759.193 84.1106C759.49 84.1982 759.666 84.5114 759.891 84.7246C759.235 86.9724 752.886 90.8291 750.685 92.4017C753.526 93.1262 757.3 93.6901 759.467 95.7998C762.4 98.6555 761.573 103.772 761.514 107.472L775.631 116.549C778.806 114.957 784.282 111.346 787.873 112.272C793.148 113.634 799.838 123.371 802.293 127.901C799.656 132.169 796.281 135.823 792.806 139.415C794.853 144.452 796.383 149.606 797.842 154.834C801.462 156.026 806.025 157.065 809.054 159.48C810.934 160.979 811.608 163.143 811.796 165.467C812.262 171.23 810.846 177.421 807.155 181.905C802.569 183.742 798.647 183.528 793.798 183.434C791.394 189.539 788.175 194.854 784.66 200.355C785.372 201.636 786.068 202.925 786.749 204.222C788.208 207.018 789.284 210.079 788.168 213.21C786.122 218.954 776.79 223.297 771.651 225.889C766.848 223.681 763.319 220.504 759.381 217.033C754.27 218.98 749.29 220.003 743.882 220.772C742.101 224.759 741.233 231.656 737.462 234.251C734.089 236.571 729.255 235.074 725.579 234.415C722.802 234.226 718.984 233.493 716.858 231.617C712.792 228.029 713.213 221.357 713.035 216.418C707.871 213.171 702.691 209.988 698.028 206.036C695.241 207.603 690.816 210.755 687.645 210.93C685.342 211.057 683.288 209.274 681.753 207.742C678.605 204.6 672.644 197.079 673.14 192.498C673.634 187.943 678.717 184.202 681.88 181.316C680.567 176.856 679.706 172.333 678.958 167.751C676.975 167.157 675.021 166.468 673.105 165.686C670.171 164.491 667.525 162.473 666.335 159.444C664.185 153.973 666.147 145.8 668.506 140.588C673.518 137.561 678.082 137.858 683.756 137.936C686.924 133.372 690.13 128.834 693.374 124.323C690.308 120.491 688.782 117.052 687.906 112.274C690.384 108.016 694.416 104.256 698.37 101.346C700.941 99.4536 704.21 97.5886 707.528 98.2255C712.108 99.1049 714.758 103.485 717.156 107.069C721.746 105.653 726.673 104.821 731.366 103.754C732.488 100.447 733.469 96.3033 736.129 93.8641C739.358 90.9033 744.208 91.8399 748.163 92.1767C751.355 87.7425 753.552 85.0949 759.193 84.1106ZM734.395 107.2C728.009 108.051 721.879 109.017 715.848 111.393C713.204 107.795 710.675 104.213 707.372 101.17C701.315 103.952 696.193 108.103 691.783 113.069C693.437 117.421 695.435 119.823 698.846 122.95C694.522 129.036 690.271 135.173 686.091 141.359C681.907 141.304 675.568 140.409 671.895 142.578C669.425 146.292 669.012 153.599 669.818 157.95C670.03 159.095 670.354 159.837 671.013 160.782C674.636 163.076 682.201 163.121 683.285 167.717C684.472 172.747 684.556 177.672 686.879 182.411C683.384 185.698 679.416 188.989 676.911 193.119C678.544 198.668 682.683 202.697 686.325 207.024C690.699 205.025 694.785 202.648 699.041 200.436C704.534 206.701 709.636 210.289 717.5 213.117C717.436 217.03 716.358 225.171 718.707 228.242C721.169 231.461 730.124 231.302 733.936 231.658C737.99 228.517 739.023 222.242 741.037 217.728C744.078 216.928 747.216 216.352 750.225 215.47C752.816 214.711 755.492 213.474 758.133 212.99C759.245 212.786 760.287 212.953 761.293 213.452C765.042 215.313 767.931 219.563 771.58 221.852C776.466 218.89 781.723 215.182 785.764 211.128C783.879 207.201 781.704 203.725 779.137 200.21C784.949 193.82 787.744 187.359 790.771 179.361C794.528 179.847 800.198 180.873 803.589 178.701C806.212 177.021 807.14 171.074 807.319 168.282C807.424 166.653 807.538 164.318 806.447 162.981C804.178 160.203 797.137 158.914 793.729 157.889C792.267 151.637 791.086 145.38 788.521 139.46C791.34 135.447 794.868 131.918 797.545 127.835C794.181 122.963 790.711 119.729 786.127 116.011C782.374 117.472 779.03 119.146 775.604 121.266C769.926 116.841 763.649 114.197 757.764 110.266C757.51 106.772 757.807 101.06 755.296 98.3139C752.634 95.4034 744.492 95.7106 740.629 95.533C736.867 97.8984 736.045 103.277 734.395 107.2Z"/><path fill="#0A0A0A" d="M735.91 136.692C750.24 135.416 762.903 145.967 764.233 160.291C765.563 174.616 755.06 187.319 740.74 188.703C726.345 190.094 713.559 179.522 712.222 165.121C710.885 150.721 721.505 137.975 735.91 136.692ZM742.717 184.654C754.786 182.088 762.491 170.226 759.929 158.156C757.366 146.087 745.506 138.378 733.435 140.938C721.361 143.499 713.649 155.364 716.213 167.438C718.776 179.511 730.643 187.22 742.717 184.654Z"/><path fill="#0A0A0A" d="M938.977 36.769C957.223 33.8021 974.397 46.2541 977.249 64.5184C980.102 82.7826 967.542 99.8784 949.261 102.616C931.14 105.33 914.228 92.9056 911.401 74.8025C908.573 56.6994 920.892 39.7097 938.977 36.769ZM948.251 97.0354C963.257 94.8159 973.615 80.8403 971.372 65.8373C969.13 50.8343 955.138 40.4983 940.139 42.7641C925.172 45.025 914.863 58.9794 917.101 73.9497C919.339 88.9199 933.277 99.25 948.251 97.0354Z"/><path fill="#0A0A0A" d="M568.034 111.388C568.735 111.559 569.868 111.866 570.451 112.271C571.423 112.945 571.899 113.767 571.899 114.963C571.897 118.017 568.312 121.677 566.256 123.755C545.388 144.849 514.199 143.444 487.002 146.831C474.656 148.368 462.236 150.974 450.77 155.917C419.762 169.284 399.683 200.117 365.006 206.613C328.453 213.461 309.382 186.665 278.271 186.468C252.402 186.305 232.142 207.134 206.445 206.999C187.218 206.898 167.384 197.316 153.992 183.841C153.097 182.851 152.262 181.663 151.534 180.546C150.805 179.425 150.211 178.722 150.485 177.399C154.539 176.941 178.055 191.727 184.089 194.434C188.967 196.623 194.07 198.169 199.382 198.827C226.893 202.236 248.97 179 276.389 178.965C301.462 178.932 322.209 197.944 346.398 200.42C387.602 204.638 413.81 162.653 450.243 148.058C461.1 143.708 472.806 141.438 484.404 140.185C506.268 137.823 529.812 138.854 549.292 127.062C556.408 122.755 561.304 116.811 567.648 111.693C567.776 111.59 567.906 111.49 568.034 111.388Z"/><path fill="#434976" d="M678.48 431.873C694.368 429.251 709.362 440.038 711.927 455.935C714.492 471.833 703.651 486.788 687.745 489.297C671.919 491.792 657.055 481.018 654.503 465.201C651.951 449.384 662.672 434.482 678.48 431.873ZM686.264 487.755C701.246 486.01 711.944 472.403 710.104 457.432C708.265 442.461 694.591 431.849 679.632 433.782C664.806 435.699 654.308 449.226 656.131 464.064C657.954 478.902 671.414 489.485 686.264 487.755Z"/><path fill="#28305A" d="M499.174 917.276C514.606 913.92 529.833 923.719 533.173 939.153C536.513 954.588 526.699 969.805 511.26 973.129C495.845 976.448 480.655 966.652 477.32 951.24C473.985 935.827 483.766 920.627 499.174 917.276ZM506.747 972.006C521.535 971.199 532.882 958.578 532.118 943.788C531.353 928.997 518.765 917.614 503.972 918.336C489.119 919.061 477.679 931.711 478.447 946.562C479.215 961.413 491.898 972.817 506.747 972.006Z"/><path fill="#0A0A0A" d="M678.076 265.619C680.562 265.326 683.03 265.206 685.488 265.796C688.517 266.523 690.98 268.546 692.457 271.293C694.094 274.338 694.174 279.248 693.098 282.496C691.996 285.826 688.752 289.108 685.628 290.613C676.45 295.035 669.414 283.219 661.455 280.686C659.257 279.986 656.296 279.747 654.21 280.929C648.003 284.446 645.075 294.568 635.799 299.492C624.346 295.973 616.806 285.739 608.654 277.502C601.636 284.119 599.129 292.802 589.635 296.818C580.185 293.414 576.131 283.259 567.842 278.012C556.842 281.331 553.399 294.163 542.699 298.914C531.284 295.463 529.155 286.292 520.725 279.833C510.144 271.726 501.796 297.538 491.753 298.466C483.444 299.234 472.245 282.991 466.207 277.932L465.63 277.454C458.097 282.274 449.672 296.872 441.483 298.014C432.685 299.242 422.175 283.053 414.833 277.697C413.028 278.784 411.463 279.974 409.861 281.341C405.71 285.283 401.989 289.82 398.189 294.108L395.285 289.898C399.456 283.377 407.277 275.319 414.889 273.298C425.935 276.019 431.321 287.478 439.782 294.161C445.723 289.359 457.705 273.88 464.583 272.333C469.286 271.275 485.547 290.284 490.674 293.842C490.82 293.942 490.968 294.039 491.115 294.138C499.579 288.735 505.071 274.312 515.607 273.206C525.946 272.121 530.447 286.207 537.445 291.187C548.115 298.779 555.372 274.983 565.526 273.349C576.656 271.559 580.927 285.815 587.635 290.032C594.467 294.326 600.407 274.627 607.269 273.317C614.436 271.947 622.789 284.353 627.155 288.918C629.412 291.277 631.767 293.3 634.404 295.22C641.097 289.725 645.313 278.711 653.718 275.775C658.723 274.027 663.998 276.024 668.509 278.23C669.013 276.219 669.471 274.108 670.288 272.198C671.898 268.44 674.428 267.077 678.076 265.619ZM681.734 285.257C685.81 285.022 688.946 281.564 688.783 277.484C688.62 273.405 685.218 270.208 681.136 270.299C678.431 270.359 675.968 271.875 674.696 274.263C673.423 276.651 673.539 279.541 674.998 281.82C676.457 284.099 679.032 285.413 681.734 285.257Z"/><path fill="#0A0A0A" d="M226.742 31.7975C238.639 29.2502 250.339 36.8649 252.826 48.7746C255.314 60.6843 247.64 72.3454 235.718 74.773C223.88 77.1835 212.32 69.5762 209.85 57.7508C207.38 45.9255 214.929 34.3269 226.742 31.7975ZM233.734 69.5398C239.447 68.7495 244.294 64.9499 246.425 59.5912C248.557 54.2326 247.644 48.1419 244.034 43.644C240.425 39.146 234.677 36.9349 228.984 37.8547C220.319 39.2546 214.394 47.3657 215.696 56.0457C216.997 64.7257 225.04 70.7425 233.734 69.5398Z"/><path fill="#0A0A0A" d="M60.8867 519.65C63.1261 519.393 65.6636 519.545 67.849 520.094C71.3301 520.969 74.3685 523.069 76.1204 526.238C78.1676 529.941 78.3234 534.49 77.0022 538.462C75.0541 544.319 70.8285 547.499 65.5234 550.083C65.7192 555.221 65.8563 560.361 65.9348 565.502C70.3317 565.293 76.3617 564.529 80.4169 566.514C81.5868 567.087 81.948 567.513 82.3511 568.719L81.6367 569.884C77.1549 572.726 71.4417 572.483 66.3161 572.4C66.579 578.347 66.8142 584.637 64.3847 590.18C64.2143 590.175 64.0435 590.178 63.8735 590.167C62.5129 590.075 61.749 589.763 60.9095 588.687C58.1903 585.204 59.3202 576.628 59.8813 572.495C55.5209 572.583 50.8311 573.004 46.6254 571.691C44.8218 571.128 43.3312 570.429 42.4049 568.717C42.5858 567.647 42.5739 567.379 43.4786 566.67C47.1553 563.788 55.0575 565.053 59.4448 565.384L59.4157 550.86C57.6609 550.12 55.8879 549.339 54.2821 548.306C50.7202 546.014 48.0414 542.156 47.2625 537.986C46.4999 533.903 47.3541 529.268 49.7834 525.866C52.5193 522.034 56.3525 520.332 60.8867 519.65ZM61.6577 545.675C65.3994 544.675 68.0601 543.16 70.1296 539.787C71.6996 537.227 72.544 533.851 71.8493 530.876C71.3971 528.94 70.2644 527.423 68.5745 526.381C67.1574 525.508 65.8447 525.247 64.2121 525.091C60.4523 525.716 57.5503 526.911 55.1978 530.052C53.4108 532.438 52.5762 535.404 53.1616 538.355C53.6509 540.821 55.3008 542.959 57.4228 544.274C58.6462 545.032 60.2431 545.458 61.6577 545.675Z"/><path fill="#434976" d="M80.6345 63.235C91.2775 62.8527 100.265 71.0668 100.84 81.7012C101.414 92.3356 93.3638 101.47 82.7415 102.237C75.6975 102.745 68.9276 99.4113 65.036 93.5178C61.1444 87.6243 60.7373 80.0891 63.9713 73.8107C67.2053 67.5322 73.5766 63.4885 80.6345 63.235ZM83.2644 98.8219C89.0285 98.1449 93.9841 94.4224 96.24 89.075C98.4959 83.7275 97.7039 77.5804 94.1664 72.9793C90.6289 68.3782 84.8917 66.0333 79.1441 66.8392C70.3949 68.0662 64.2622 76.1053 65.391 84.8678C66.5199 93.6302 74.4898 99.8526 83.2644 98.8219Z"/><path d="M906.501 802.233C915.173 800.287 923.788 805.713 925.779 814.376C927.77 823.038 922.388 831.681 913.736 833.716C905.021 835.767 896.301 830.337 894.296 821.611C892.29 812.886 897.765 804.194 906.501 802.233Z"/><path fill="#BA3E34" d="M908.274 803.222C916.508 802.212 923.991 808.093 924.955 816.332C925.919 824.571 919.995 832.021 911.751 832.939C903.572 833.849 896.194 827.983 895.238 819.809C894.282 811.636 900.106 804.225 908.274 803.222Z"/><path fill="#BA3E34" d="M461.911 635.756C470.542 633.547 479.324 638.774 481.498 647.414C483.672 656.053 478.41 664.814 469.762 666.954C461.163 669.082 452.461 663.856 450.299 655.265C448.137 646.674 453.328 637.952 461.911 635.756Z"/><path fill="#0A0A0A" d="M592.983 261.867C599.744 262.01 621.066 263.431 626.072 266.947C626.8 268.322 626.693 268.433 626.421 269.986C619.002 270.233 602.33 269.346 595.144 267.903C593.473 267.568 592.993 267.154 592.082 265.737C591.957 264.232 592.427 263.22 592.983 261.867Z"/><path fill="#BA3E34" d="M523.015 538.78C525.231 538.753 527.319 539.206 528.915 540.851C530.068 542.028 530.679 543.633 530.599 545.279C530.501 547.766 529.27 549.162 527.54 550.801C526.991 550.867 526.44 550.93 525.886 550.941C524.243 550.974 522.566 550.205 521.435 549.02C520.265 547.796 519.784 546.116 519.861 544.447C519.982 541.819 521.127 540.48 523.015 538.78Z"/><path fill="#434976" d="M25.2595 807.6C30.5435 806.918 36.326 808.04 40.9285 810.688C46.7451 814.035 50.7258 819.62 52.5156 826.031C54.4332 832.695 53.4928 839.856 49.9197 845.799C45.6197 852.825 38.6533 856.545 30.9097 858.479C24.6836 858.835 18.8456 857.936 13.4703 854.54C8.00024 851.085 3.8285 845.624 2.39695 839.273C0.899647 832.629 1.91063 825.277 5.67089 819.544C10.3292 812.442 17.2742 809.25 25.2595 807.6ZM30.76 856.69C43.8067 854.984 52.9692 842.981 51.1747 829.946C49.3801 816.911 37.3149 807.831 24.2927 809.714C11.3955 811.58 2.42105 823.504 4.19839 836.414C5.97574 849.323 17.8386 858.379 30.76 856.69Z"/><path fill="#0A0A0A" d="M173.103 261.319C168.464 259.07 163.77 257.192 158.903 255.502C153.744 253.711 147.496 252.218 142.876 249.285C141.598 248.474 140.354 247.312 139.827 245.87C139.537 245.076 139.79 244.765 140.016 244.004C141.506 242.827 143.227 242.764 145.061 242.972C152.944 243.868 160.713 248.564 168.159 251.211C172.091 252.609 176.407 253.365 180.173 255.149C181.754 255.898 183.656 256.958 184.651 258.437C184.766 258.609 184.843 258.802 184.94 258.984C181.538 264.333 175.644 268.358 171.315 273C167.17 277.445 163.641 282.757 159.116 286.791C157.238 288.465 155.307 289.863 152.958 290.799C151.778 290.582 151.615 290.432 150.704 289.632C150.201 287.5 150.643 286.615 151.767 284.819C155.813 278.355 161.358 272.68 166.374 266.965C136.55 276.997 88.944 291.571 65.8107 311.997C57.679 319.177 51.5405 327.746 46.7426 337.44C36.1348 358.874 31.5276 379.039 12.0171 395.39C8.56667 398.281 4.1938 401.727 0 403.428L0 395.236C4.94806 392.358 9.52214 389.282 13.5288 385.157C35.5446 362.489 33.9329 329.789 62.6199 305.629C79.2065 291.66 99.1031 283.837 119.066 276.108C136.237 269.459 154.404 261.364 173.103 261.319Z"/><path fill="#0A0A0A" d="M1024 796.968L1024 804.666C1002.96 814.265 986.928 827.285 978.7 849.496C975.583 858.17 973.802 867.267 973.42 876.476C972.373 896.845 978.538 944.353 955.783 954.275C935.708 963.029 885.242 927.394 874.403 953.312C868.441 967.569 873.509 996.699 877.082 1011.42C878.12 1015.69 879.691 1019.77 880.876 1024L874.441 1024C868.772 1004.45 861 969.219 869.162 950.54C883.063 918.729 932.546 957.575 953.147 948.484C973.668 939.429 967.159 889.604 968.251 871.068C968.823 861.352 970.6 852.099 974.273 843.057C983.209 821.057 1002.6 805.936 1024 796.968Z"/><path fill="#434976" d="M99.6749 843.293C100.26 843.667 100.565 843.81 100.929 844.418L100.299 845.593C94.9758 846.563 88.9129 846.058 83.4709 846.069C81.4667 851.732 79.2929 857.401 76.635 862.794C80.1101 866.8 83.5055 870.923 87.3428 874.59C81.748 881.919 75.1762 888.449 67.8104 893.996C64.3695 890.313 60.9493 886.61 57.5502 882.888C52.4171 885.403 47.1647 886.943 41.6502 888.393C41.0545 893.897 40.6524 899.42 40.4447 904.952C32.1996 904.908 23.7848 904.51 15.56 904.961C15.1839 899.432 14.9436 893.895 14.8392 888.354C11.124 887.297 7.57546 885.89 3.98523 884.474L5.10053 882.953C8.92394 884.312 12.5899 885.722 16.5041 886.871C16.4907 892.287 16.5766 897.702 16.7619 903.114L38.4627 903.133C38.5867 897.73 39.2059 892.251 39.5872 886.851C46.2312 885.225 52.2127 883.062 58.3177 879.968C61.4394 883.675 64.6622 887.295 67.9826 890.826C73.2708 885.4 79.2053 880.659 84.482 875.212C81.2314 870.986 77.3294 867.268 74.0716 863.013C77.115 856.881 79.368 850.45 81.6261 844.002C85.5779 843.925 96.949 845.157 99.6749 843.293Z"/><path fill="#434976" d="M37.5569 759.496C39.5924 759.488 41.6258 759.464 43.6601 759.549C43.2087 765.537 42.3515 771.61 42.4327 777.615C48.4233 779.048 53.2928 780.79 58.7307 783.667L68.1427 774.109C74.6281 780.016 81.4988 785.86 87.002 792.723C84.391 797.04 81.1608 800.227 77.4734 803.632C79.9767 809.009 81.8201 814.504 83.7825 820.087C88.3841 820.069 96.1414 819.29 99.7952 822.665C101.521 824.259 102.198 826.705 102.175 828.994C102.153 831.234 101.927 833.497 101.751 835.729C101.313 833.54 101.145 832.871 99.5586 831.289C99.5303 828.759 99.477 826.229 99.3987 823.7C93.5272 822.979 87.773 822.966 81.8724 823.062C80.1296 816.219 78.0464 809.604 74.9657 803.237C78.4724 800.034 81.802 796.859 84.921 793.263C79.356 788.07 73.6195 782.974 68.3437 777.487C65.2279 780.408 62.2521 783.487 59.239 786.514C56.7437 785.197 54.1448 783.817 51.4957 782.851C48.7741 781.857 45.6386 781.282 43.1106 779.919C42.108 779.379 41.4312 778.775 40.8255 777.8C38.5698 774.167 40.9812 765.527 41.753 761.57C39.8861 761.494 38.018 761.318 36.1544 761.18L37.5569 759.496Z"/><path fill="#4B5482" d="M25.5232 759.422C29.5027 759.378 33.5947 759.134 37.5569 759.496L36.1544 761.18L24.9747 761.154C23.5196 761.334 22.071 761.51 20.6083 761.62C20.4716 763.869 20.4471 766.192 20.1051 768.418L18.3441 770.083L18.6523 759.51L25.5232 759.422Z"/><path fill="#434976" d="M0 779.847C0.211539 779.974 0.416951 780.112 0.634616 780.228C4.18933 782.129 10.2302 779.226 13.8266 778.011C14.8276 778.19 15.4948 778.241 16.3641 778.796C11.5208 781.955 5.45445 783.115 0 784.861L0 779.847Z"/><path fill="#4B5482" d="M99.5586 831.289C101.145 832.871 101.313 833.54 101.751 835.729L100.929 844.418C100.565 843.81 100.26 843.667 99.6749 843.293C99.0875 839.367 99.4384 835.251 99.5586 831.289Z"/><path fill="#434976" fill-opacity="0.98823529" d="M18.3441 770.083L20.1051 768.418C20.073 771.272 20.5962 775.768 18.1958 777.824C17.7262 778.226 16.9034 778.544 16.3641 778.796C15.4948 778.241 14.8276 778.19 13.8266 778.011C15.2179 777.536 16.1424 777.113 17.3262 776.244C18.383 774.495 18.2271 772.082 18.3441 770.083Z"/><path fill="#28305A" d="M0 880.166C1.68152 881.143 3.3445 882.114 5.10053 882.953L3.98523 884.474C2.64346 883.753 1.32552 882.976 0 882.225L0 880.166Z"/></svg>