<svg width="16.000000" height="13.000000" viewBox="0 0 16 13" xmlns="http://www.w3.org/2000/svg" xmlns:xlink="http://www.w3.org/1999/xlink">
	<desc>
			Created with Pixso.
	</desc>
	<defs>
		<clipPath id="clip157_623">
			<rect id="noun-navigation-4395623 2" width="15.000000" height="12.000000" transform="translate(0.500000 0.500000)" fill-opacity="0"/>
		</clipPath>
	</defs>
	<rect id="noun-navigation-4395623 2" width="15.000000" height="12.000000" transform="translate(0.500000 0.500000)"  fill-opacity="0"/>
	<g clip-path="url(#clip157_623)">
		<path id="Vector" d="M12.64 6.47L8 10.95L3.35 6.47C3.14 6.27 2.85 6.27 2.64 6.47C2.44 6.66 2.44 6.95 2.64 7.14L7.64 11.96C7.75 12.05 7.89 12.1 8 12.1C8.1 12.1 8.25 12.05 8.35 11.96L13.35 7.14C13.55 6.95 13.55 6.66 13.35 6.47C13.14 6.27 12.85 6.32 12.64 6.47Z" fill="#000000" fill-opacity="1.000000" fill-rule="nonzero"/>
		<path id="Vector" d="M7.64 7.33C7.75 7.43 7.89 7.48 8 7.48C8.1 7.48 8.25 7.43 8.35 7.33L13.35 2.52C13.55 2.33 13.55 2.04 13.35 1.85C13.14 1.65 12.85 1.65 12.64 1.85L8 6.27L3.35 1.8C3.14 1.6 2.85 1.6 2.64 1.8C2.44 1.99 2.44 2.28 2.64 2.47L7.64 7.33Z" fill="#000000" fill-opacity="1.000000" fill-rule="nonzero"/>
		<path id="Created by Nuriyawan" d="M1.94 14.96C2.78 14.96 3.42 15.44 3.52 16.28L2.74 16.28C2.68 15.88 2.38 15.64 1.96 15.64C1.4 15.64 1.03 16.07 1.03 16.83C1.03 17.61 1.4 18.02 1.95 18.02C2.36 18.02 2.67 17.79 2.74 17.4L3.52 17.41C3.44 18.08 2.87 18.7 1.94 18.7C0.97 18.7 0.25 18.01 0.25 16.83C0.25 15.64 0.98 14.96 1.94 14.96ZM18.54 18.21C18.44 18.44 18.21 18.69 17.77 18.69C17.15 18.69 16.66 18.2 16.66 17.29C16.66 16.35 17.17 15.88 17.77 15.88C18.22 15.88 18.44 16.15 18.54 16.38L18.57 16.38L18.57 15.01L19.32 15.01L19.32 18.65L18.58 18.65L18.58 18.21L18.54 18.21ZM21.86 18.65L21.12 18.65L21.12 15.01L21.87 15.01L21.87 16.38L21.89 16.38C22 16.15 22.21 15.88 22.67 15.88C23.27 15.88 23.78 16.35 23.78 17.29C23.78 18.2 23.29 18.69 22.67 18.69C22.23 18.69 22 18.44 21.89 18.21L21.86 18.21L21.86 18.65ZM12.8 15.92L13.31 15.92L13.31 16.49L12.8 16.49L12.8 17.81C12.8 18.02 12.91 18.07 13.06 18.07C13.13 18.07 13.21 18.06 13.24 18.05L13.36 18.61C13.29 18.64 13.15 18.68 12.95 18.68C12.4 18.7 12.04 18.44 12.04 17.91L12.04 16.49L11.67 16.49L11.67 15.92L12.04 15.92L12.04 15.26L12.8 15.26L12.8 15.92ZM4.81 18.65L4.06 18.65L4.06 15.92L4.79 15.92L4.79 16.39L4.82 16.39C4.92 16.06 5.17 15.88 5.47 15.88C5.55 15.88 5.65 15.89 5.71 15.91L5.71 16.58C5.64 16.55 5.5 16.54 5.39 16.54C5.06 16.54 4.81 16.77 4.81 17.1L4.81 18.65ZM8.45 17.86C8.35 18.37 7.89 18.7 7.22 18.7C6.38 18.7 5.86 18.16 5.86 17.29C5.86 16.45 6.38 15.88 7.19 15.88C7.91 15.88 8.47 16.34 8.47 17.27L8.47 17.47L6.61 17.47L6.61 17.48C6.61 17.88 6.85 18.13 7.23 18.13C7.48 18.13 7.68 18.02 7.75 17.82L8.45 17.86ZM10.54 18.27C10.4 18.52 10.14 18.7 9.74 18.7C9.22 18.7 8.83 18.42 8.83 17.88C8.83 17.27 9.32 17.09 9.86 17.04C10.33 17 10.52 16.97 10.52 16.8L10.52 16.79C10.52 16.56 10.37 16.43 10.11 16.43C9.84 16.43 9.68 16.57 9.63 16.75L8.93 16.69C9.03 16.2 9.46 15.88 10.12 15.88C10.73 15.88 11.28 16.16 11.28 16.81L11.28 18.65L10.56 18.65L10.56 18.27L10.54 18.27ZM16.26 17.86C16.15 18.37 15.69 18.7 15.02 18.7C14.18 18.7 13.67 18.16 13.67 17.29C13.67 16.45 14.19 15.88 14.99 15.88C15.71 15.88 16.27 16.34 16.27 17.27L16.27 17.47L14.41 17.47L14.41 17.48C14.41 17.88 14.65 18.13 15.03 18.13C15.28 18.13 15.48 18.02 15.56 17.82L16.26 17.86ZM25.67 18.94C25.51 19.38 25.22 19.67 24.65 19.67C24.46 19.67 24.29 19.64 24.18 19.59L24.35 19.02C24.62 19.11 24.8 19.09 24.9 18.84L24.95 18.72L23.97 15.92L24.77 15.92L25.33 17.92L25.36 17.92L25.93 15.92L26.73 15.92L25.67 18.94ZM7.2 16.45C6.86 16.45 6.63 16.7 6.61 17.01L7.76 17.01C7.75 16.68 7.53 16.45 7.2 16.45ZM15 16.45C14.67 16.45 14.43 16.7 14.41 17.01L15.56 17.01C15.56 16.68 15.33 16.45 15 16.45ZM17.44 17.28C17.44 17.76 17.64 18.09 18.01 18.09C18.37 18.09 18.58 17.77 18.58 17.28C18.58 16.79 18.38 16.48 18.01 16.48C17.64 16.48 17.44 16.81 17.44 17.28ZM22.43 16.48C22.06 16.48 21.86 16.79 21.86 17.28C21.86 17.77 22.07 18.09 22.43 18.09C22.8 18.09 23 17.76 23 17.28C23 16.81 22.8 16.48 22.43 16.48ZM9.56 17.86C9.56 18.07 9.72 18.18 9.96 18.18C10.29 18.18 10.52 17.96 10.52 17.67L10.52 17.38C10.43 17.44 10.16 17.48 10 17.5C9.73 17.54 9.56 17.65 9.56 17.86ZM9.92 21.18C9.92 21.39 9.73 21.57 9.51 21.57C9.28 21.57 9.1 21.39 9.1 21.18C9.1 20.97 9.28 20.8 9.51 20.8C9.73 20.8 9.92 20.97 9.92 21.18ZM2.59 21.01L3.35 21.01L3.35 24.65L2.69 24.65L1.11 22.36L1.08 22.36L1.08 24.65L0.31 24.65L0.31 21.01L0.99 21.01L2.55 23.3L2.59 23.3L2.59 21.01ZM7.84 24.65L7.08 24.65L7.08 21.92L7.81 21.92L7.81 22.39L7.84 22.39C7.94 22.06 8.19 21.88 8.5 21.88C8.58 21.88 8.67 21.89 8.74 21.91L8.74 22.58C8.67 22.55 8.52 22.54 8.42 22.54C8.08 22.54 7.84 22.77 7.84 23.1L7.84 24.65ZM14.91 24.27C14.78 24.52 14.52 24.7 14.12 24.7C13.6 24.7 13.21 24.42 13.21 23.88C13.21 23.27 13.7 23.09 14.24 23.04C14.71 23 14.9 22.97 14.9 22.8L14.9 22.79C14.9 22.56 14.75 22.43 14.49 22.43C14.22 22.43 14.06 22.57 14.01 22.75L13.31 22.69C13.41 22.2 13.84 21.88 14.49 21.88C15.1 21.88 15.65 22.16 15.65 22.81L15.65 24.65L14.93 24.65L14.93 24.27L14.91 24.27ZM22.06 24.27C21.93 24.52 21.67 24.7 21.27 24.7C20.75 24.7 20.36 24.42 20.36 23.88C20.36 23.27 20.85 23.09 21.39 23.04C21.86 23 22.05 22.97 22.05 22.8L22.05 22.79C22.05 22.56 21.9 22.43 21.64 22.43C21.37 22.43 21.21 22.57 21.16 22.75L20.46 22.69C20.56 22.2 20.99 21.88 21.65 21.88C22.25 21.88 22.8 22.16 22.8 22.81L22.8 24.65L22.09 24.65L22.09 24.27L22.06 24.27ZM24.66 22.51C24.36 22.51 24.15 22.72 24.15 23.07L24.15 24.65L23.39 24.65L23.39 21.92L24.11 21.92L24.11 22.4L24.14 22.4C24.27 22.08 24.56 21.88 24.96 21.88C25.53 21.88 25.91 22.27 25.91 22.91L25.91 24.65L25.15 24.65L25.15 23.04C25.15 22.71 24.97 22.51 24.66 22.51ZM5.2 24.04C5.47 24.04 5.72 23.85 5.72 23.48L5.72 21.92L6.48 21.92L6.48 24.65L5.75 24.65L5.75 24.15L5.72 24.15C5.6 24.47 5.31 24.68 4.9 24.68C4.35 24.68 3.97 24.29 3.97 23.65L3.97 21.92L4.73 21.92L4.73 23.52C4.73 23.84 4.92 24.04 5.2 24.04ZM9.88 24.65L9.12 24.65L9.12 21.92L9.88 21.92L9.88 24.65ZM11.97 24.94C11.81 25.38 11.52 25.67 10.95 25.67C10.76 25.67 10.58 25.64 10.48 25.59L10.65 25.02C10.91 25.11 11.1 25.09 11.2 24.84L11.25 24.72L10.27 21.92L11.06 21.92L11.63 23.92L11.66 23.92L12.23 21.92L13.03 21.92L11.97 24.94ZM17.58 24.65L16.78 24.65L16.04 21.92L16.8 21.92L17.22 23.75L17.25 23.75L17.69 21.92L18.44 21.92L18.89 23.74L18.91 23.74L19.33 21.92L20.09 21.92L19.35 24.65L18.55 24.65L18.08 22.93L18.05 22.93L17.58 24.65ZM13.93 23.86C13.93 24.07 14.1 24.18 14.33 24.18C14.67 24.18 14.9 23.96 14.9 23.67L14.9 23.38C14.81 23.44 14.54 23.48 14.38 23.5C14.11 23.54 13.93 23.65 13.93 23.86ZM21.09 23.86C21.09 24.07 21.25 24.18 21.48 24.18C21.82 24.18 22.05 23.96 22.05 23.67L22.05 23.38C21.96 23.44 21.69 23.48 21.53 23.5C21.26 23.54 21.09 23.65 21.09 23.86Z" fill="#000000" fill-opacity="1.000000" fill-rule="evenodd"/>
		<path id="from the Noun Project" d="M1.22 17.54L1.76 17.54L1.76 18.11L1.22 18.11L1.22 20.27L0.46 20.27L0.46 18.11L0.08 18.11L0.08 17.54L0.46 17.54L0.46 17.35C0.46 16.75 0.85 16.46 1.36 16.46C1.59 16.46 1.8 16.51 1.89 16.54L1.76 17.11C1.7 17.09 1.61 17.07 1.52 17.07C1.3 17.07 1.22 17.18 1.22 17.36L1.22 17.54ZM16.21 18.14C15.9 18.14 15.69 18.34 15.68 18.69L15.68 20.27L14.93 20.27L14.93 16.63L15.66 16.63L15.66 18.02L15.7 18.02C15.82 17.7 16.1 17.51 16.51 17.51C17.08 17.51 17.45 17.89 17.45 18.53L17.45 20.27L16.7 20.27L16.7 18.67C16.7 18.33 16.52 18.14 16.21 18.14ZM13.87 17.54L14.38 17.54L14.38 18.11L13.87 18.11L13.87 19.43C13.87 19.64 13.97 19.7 14.12 19.7C14.19 19.7 14.27 19.68 14.31 19.67L14.43 20.24C14.35 20.26 14.21 20.3 14.02 20.31C13.47 20.33 13.11 20.07 13.11 19.53L13.11 18.11L12.74 18.11L12.74 17.54L13.11 17.54L13.11 16.89L13.87 16.89L13.87 17.54ZM2.98 20.27L2.22 20.27L2.22 17.54L2.96 17.54L2.96 18.02L2.99 18.02C3.09 17.68 3.34 17.5 3.64 17.5C3.72 17.5 3.81 17.51 3.88 17.53L3.88 18.2C3.81 18.18 3.67 18.16 3.56 18.16C3.23 18.16 2.98 18.39 2.98 18.73L2.98 20.27ZM6.72 18.92C6.72 19.76 6.2 20.32 5.37 20.32C4.55 20.32 4.03 19.76 4.03 18.92C4.03 18.07 4.55 17.51 5.37 17.51C6.2 17.51 6.72 18.07 6.72 18.92ZM7.97 20.27L7.21 20.27L7.21 17.54L7.93 17.54L7.93 18.02L7.96 18.02C8.08 17.7 8.35 17.51 8.72 17.51C9.1 17.51 9.38 17.71 9.46 18.02L9.49 18.02C9.6 17.71 9.91 17.51 10.31 17.51C10.82 17.51 11.17 17.84 11.17 18.44L11.17 20.27L10.42 20.27L10.42 18.59C10.42 18.28 10.24 18.13 9.99 18.13C9.72 18.13 9.56 18.32 9.56 18.61L9.56 20.27L8.83 20.27L8.83 18.57C8.83 18.3 8.66 18.13 8.41 18.13C8.16 18.13 7.97 18.33 7.97 18.63L7.97 20.27ZM20.53 19.49C20.42 20 19.97 20.32 19.29 20.32C18.45 20.32 17.94 19.78 17.94 18.92C17.94 18.08 18.46 17.51 19.26 17.51C19.98 17.51 20.54 17.97 20.54 18.89L20.54 19.1L18.69 19.1L18.69 19.1C18.69 19.51 18.93 19.76 19.3 19.76C19.56 19.76 19.75 19.65 19.83 19.44L20.53 19.49ZM19.27 18.07C18.94 18.07 18.7 18.32 18.69 18.63L19.83 18.63C19.83 18.31 19.6 18.07 19.27 18.07ZM4.8 18.91C4.8 19.39 5 19.74 5.38 19.74C5.75 19.74 5.95 19.39 5.95 18.91C5.95 18.44 5.75 18.08 5.38 18.08C5 18.08 4.8 18.44 4.8 18.91ZM2.59 22.63L3.35 22.63L3.35 26.27L2.69 26.27L1.11 23.98L1.08 23.98L1.08 26.27L0.31 26.27L0.31 22.63L0.99 22.63L2.55 24.92L2.59 24.92L2.59 22.63ZM6.55 24.92C6.55 25.76 6.03 26.32 5.2 26.32C4.38 26.32 3.86 25.76 3.86 24.92C3.86 24.07 4.38 23.51 5.2 23.51C6.03 23.51 6.55 24.07 6.55 24.92ZM11.42 24.14C11.12 24.14 10.91 24.34 10.91 24.69L10.91 26.27L10.15 26.27L10.15 23.54L10.87 23.54L10.87 24.02L10.9 24.02C11.02 23.71 11.32 23.51 11.72 23.51C12.29 23.51 12.66 23.9 12.66 24.53L12.66 26.27L11.91 26.27L11.91 24.67C11.91 24.34 11.73 24.14 11.42 24.14ZM8.27 25.67C8.54 25.67 8.79 25.47 8.79 25.11L8.79 23.54L9.55 23.54L9.55 26.27L8.82 26.27L8.82 25.77L8.79 25.77C8.67 26.09 8.37 26.31 7.96 26.31C7.41 26.31 7.04 25.92 7.04 25.28L7.04 23.54L7.8 23.54L7.8 25.14C7.8 25.47 7.98 25.67 8.27 25.67ZM4.63 24.91C4.63 25.39 4.83 25.74 5.21 25.74C5.58 25.74 5.78 25.39 5.78 24.91C5.78 24.44 5.58 24.08 5.21 24.08C4.83 24.08 4.63 24.44 4.63 24.91ZM9.31 28.81C9.31 29.02 9.12 29.19 8.9 29.19C8.67 29.19 8.49 29.02 8.49 28.81C8.49 28.6 8.67 28.43 8.9 28.43C9.12 28.43 9.31 28.6 9.31 28.81ZM1.08 32.27L0.31 32.27L0.31 28.63L1.75 28.63C2.57 28.63 3.05 29.14 3.05 29.87C3.05 30.59 2.56 31.09 1.73 31.09L1.08 31.09L1.08 32.27ZM16.74 29.54L17.26 29.54L17.26 30.11L16.74 30.11L16.74 31.43C16.74 31.64 16.85 31.7 17 31.7C17.07 31.7 17.15 31.68 17.19 31.67L17.3 32.24C17.23 32.26 17.09 32.3 16.89 32.31C16.35 32.33 15.98 32.07 15.99 31.53L15.99 30.11L15.61 30.11L15.61 29.54L15.99 29.54L15.99 28.89L16.74 28.89L16.74 29.54ZM1.08 29.26L1.08 30.47L1.6 30.47C2.04 30.47 2.26 30.23 2.26 29.87C2.26 29.5 2.04 29.26 1.6 29.26L1.08 29.26ZM4.29 32.27L3.54 32.27L3.54 29.54L4.27 29.54L4.27 30.02L4.3 30.02C4.4 29.68 4.65 29.5 4.95 29.5C5.03 29.5 5.12 29.51 5.19 29.53L5.19 30.2C5.12 30.18 4.98 30.16 4.87 30.16C4.54 30.16 4.29 30.39 4.29 30.73L4.29 32.27ZM8.03 30.92C8.03 31.76 7.51 32.32 6.68 32.32C5.86 32.32 5.34 31.76 5.34 30.92C5.34 30.07 5.86 29.51 6.68 29.51C7.51 29.51 8.03 30.07 8.03 30.92ZM12.36 31.49C12.25 32 11.8 32.32 11.12 32.32C10.28 32.32 9.77 31.78 9.77 30.92C9.77 30.08 10.29 29.51 11.09 29.51C11.81 29.51 12.37 29.97 12.37 30.89L12.37 31.1L10.52 31.1L10.52 31.1C10.52 31.51 10.76 31.76 11.14 31.76C11.39 31.76 11.58 31.65 11.66 31.44L12.36 31.49ZM15.32 31.27C15.28 31.9 14.83 32.32 14.1 32.32C13.26 32.32 12.76 31.75 12.76 30.92C12.76 30.08 13.27 29.51 14.1 29.51C14.81 29.51 15.29 29.92 15.32 30.55L14.6 30.55C14.56 30.28 14.39 30.1 14.11 30.1C13.76 30.1 13.53 30.39 13.53 30.91C13.53 31.43 13.76 31.72 14.11 31.72C14.37 31.72 14.56 31.56 14.6 31.27L15.32 31.27ZM8.52 32.39L8.52 29.54L9.28 29.54L9.28 32.41C9.28 33.04 8.89 33.29 8.24 33.29C8.19 33.29 8.14 33.29 8.09 33.29L8.09 32.7C8.13 32.7 8.16 32.7 8.19 32.7C8.43 32.7 8.52 32.6 8.52 32.39ZM11.1 30.07C10.77 30.07 10.53 30.32 10.52 30.63L11.66 30.63C11.66 30.31 11.43 30.07 11.1 30.07ZM6.11 30.91C6.11 31.39 6.31 31.74 6.69 31.74C7.06 31.74 7.26 31.39 7.26 30.91C7.26 30.44 7.06 30.08 6.69 30.08C6.31 30.08 6.11 30.44 6.11 30.91Z" fill="#000000" fill-opacity="1.000000" fill-rule="evenodd"/>
	</g>
</svg>
