<?xml version="1.0" encoding="utf-8" ?><svg xmlns="http://www.w3.org/2000/svg" xmlns:xlink="http://www.w3.org/1999/xlink" viewBox="0 0 1024 1024"><path fill="#000001" d="M689.196 318.679C692.961 307.73 698.189 297.586 709.016 292.232C721.46 286.078 736.477 288.881 749.022 293.241C764.615 298.662 777.204 306.983 789.441 317.917C795.949 312.551 802.736 308.191 811.628 309.025C817.635 309.589 822.925 312.926 826.685 317.553C831.456 323.424 833.343 331.039 832.406 338.487C831.466 345.95 827.805 353.001 821.69 357.52C814.32 362.969 806.576 362.957 797.956 362.39C797.578 362.723 797.109 362.975 796.822 363.388C795.964 364.625 795.352 367.822 794.804 369.409C792.499 376.087 789.457 382.631 784.747 387.968C783.704 389.452 782.709 390.587 781.303 391.735C776.21 397.664 769.773 401.625 762.461 404.231C768.185 422.59 787.139 433.063 796.079 449.651C798.853 454.798 800.945 460.448 802.633 466.034C808.916 486.827 826.898 569.37 818.157 587.557C816.076 591.886 810.981 593.844 806.744 595.373C806.876 599.449 807.198 604.329 804.184 607.529C801.943 609.909 798.968 610.446 795.887 610.973C796.147 632.028 798.153 653.01 797.777 674.105C797.413 692.428 796.767 710.744 795.839 729.047C795.068 744.291 791.683 767.104 794.993 781.372C798.392 796.021 807.19 810.04 812.916 823.962C821.25 844.225 828.359 865.142 835.66 885.798C840.281 898.872 845.783 911.971 849.618 925.283C851.499 931.81 851.253 939.554 855.287 945.111L861.251 951.585C865.72 955.885 873.911 962.964 874.17 969.699C874.244 971.642 873.824 972.691 872.448 974.025C862.637 983.537 838.269 993.555 825.391 1000.28C813.991 1006.23 802.874 1013.26 790.92 1018.06C788.149 1019.17 785.497 1019.95 782.47 1019.82C780.164 1019.71 777.922 1019.02 776.412 1017.19C774.722 1015.13 774.424 1012.16 774.82 1009.62C775.167 1007.38 776.263 1005.46 777.346 1003.51C779.822 999.901 782.33 996.379 785.518 993.352C793.335 982.974 817.135 964.77 821.19 956.096C821.792 954.81 821.813 952.94 821.083 951.684C819.927 949.695 816.937 949.402 814.879 948.954C808.377 940.687 803.956 930.275 798.944 921.03C788.538 901.963 778.285 882.813 768.186 863.582L748.099 826.568C744.305 819.584 740.24 812.62 736.999 805.359C730.206 789.826 724.752 773.742 720.696 757.281C719.391 775.209 717.019 792.967 716.2 810.975C715.029 836.712 715.149 862.415 714.859 888.163C714.645 907.154 713.986 926.22 713.415 945.207C713.219 951.697 713.495 951.791 709.095 956.423C707.796 957.792 708.043 960.21 707.997 962.015L707.044 960.409C706.765 958.991 706.786 958.027 705.813 956.934C702.18 957.135 681.499 959.467 679.547 960.984L679.232 963.208C678.983 964.59 678.867 966.11 678.25 967.375C677.555 965.126 677.488 962.751 677.295 960.416L672.416 959.234C670.191 944.401 667.316 929.665 664.878 914.865L654.453 847.956C650.792 824.215 646.772 800.325 646.044 776.271C645.416 755.523 647.967 733.976 649.682 713.304C651.334 690.817 654.281 668.445 658.511 646.298C660.821 633.969 666.189 615.649 666.544 603.955C652.989 600.272 639.045 599.946 625.179 598.321C603.248 595.75 581.43 592.74 559.463 590.403C558.011 582.664 555.816 574.981 554.026 567.302C547.764 540.438 540.512 513.789 534.331 486.926C552.049 487.219 572.956 491.178 590.859 493.443C608.23 495.641 625.857 496.748 643.076 499.962C644.132 508.673 649.494 540.132 654.534 546.468C657.054 538.001 657.955 528.55 659.652 519.811C663.799 498.456 668.811 477.074 677.547 457.076C685.385 439.136 695.928 425.958 714.475 418.698C714.981 412.815 714.844 406.555 714 400.705C704.978 399.368 696.168 399.287 687.447 396.21C685.334 385.528 685.701 375.403 685.982 364.622C685.031 363.213 684.134 361.794 683.508 360.206C681.997 356.374 684.653 353.263 686.995 350.495C688.953 348.181 691.304 345.777 692.79 343.124C697.608 334.523 699.428 322.721 703.738 313.367C699.815 312.375 692.641 316.87 689.196 318.679Z"/><path fill="#4E60DF" d="M534.331 486.926C552.049 487.219 572.956 491.178 590.859 493.443C608.23 495.641 625.857 496.748 643.076 499.962C644.132 508.673 649.494 540.132 654.534 546.468C654.743 548.073 654.767 550.149 655.704 551.483C655.175 559.582 660.274 576.16 662.288 584.416C669.797 584.586 677.136 585.384 684.577 586.342C690.283 587.077 696.129 588.153 701.893 587.956C705.058 587.334 711.675 585.256 714.438 587.178C715.47 587.895 715.87 588.736 716.029 589.948C716.131 590.718 716.001 591.64 715.95 592.419C717.479 593.984 719.488 593.745 721.583 593.772C721.887 593.776 722.192 593.774 722.495 593.803C720.559 593.933 719.549 593.719 717.991 594.926C716.277 599.094 718.973 603.674 718.897 608.086L719.414 609.244C727.992 615.69 781.418 611.917 793.449 610.35C794.029 622.643 795.094 634.871 795.408 647.191C795.892 666.162 795.307 685.178 794.75 704.141C794.339 717.292 793.777 730.439 793.064 743.577C792.441 755.431 790.838 768.018 792.933 779.753C794.586 789.016 799.497 797.701 803.346 806.219C807.007 814.344 810.496 822.546 813.809 830.819C826.98 864.712 839.057 899.019 850.022 933.689C838.932 939.707 827.828 944.111 815.647 947.276C810.518 939.064 806.165 930.309 801.58 921.781L778.82 879.433L756.067 837.087C746.633 819.507 737.247 801.949 730.646 783.067C724.239 764.74 719.795 745.81 715.048 727.009C709.327 704.086 703.378 681.222 697.2 658.419C684.967 653.191 673.059 647.301 661.163 641.358C663.986 629.629 666.533 617.834 668.802 605.985C684.772 609.017 702.244 611.26 718.522 610.926C702.341 605.526 683.496 604.657 666.544 603.955C652.989 600.272 639.045 599.946 625.179 598.321C603.248 595.75 581.43 592.74 559.463 590.403C558.011 582.664 555.816 574.981 554.026 567.302C547.764 540.438 540.512 513.789 534.331 486.926Z"/><path fill="#FEFEFE" d="M655.704 551.483C664.334 512.927 668.822 448.098 705.422 425.091C708.173 423.363 711.062 422.036 714.113 420.929C713.865 424.333 713.52 427.765 713.459 431.176C721.356 432.087 729.156 433.037 737.126 432.749C754.014 432.137 776.085 425.688 788.264 440.998C793.061 447.028 796.372 453.978 798.937 461.207C807.2 484.49 821.222 557.034 818.291 580.002C817.907 583.014 816.995 586.926 814.492 588.912C800.915 599.681 747.067 596.236 729.134 595.398C727.829 586.049 726.738 576.671 725.865 567.272C737.979 564.233 750.11 561.26 762.258 558.356C770.632 556.358 780.608 555.592 788.07 551.224C780.707 551.379 774.605 552.794 767.563 554.792C763.764 540.423 760.242 525.981 756.999 511.476C754.386 499.315 752.742 486.785 748.432 475.067C748.275 487.932 751.8 500.28 754.724 512.715C758.089 526.99 761.651 541.218 765.407 555.395L725.587 565.322C716.429 567.686 707.262 570.7 697.915 572.188C689.811 556.151 678.323 521.16 676.891 503.211C676.406 497.138 676.83 490.88 678.777 485.078C682.777 473.152 691.293 464.098 696.681 452.956C685.624 460.781 677.639 477.479 675.474 490.572C671.808 512.747 682.469 536.946 688.687 557.952C681.04 555.91 673.414 553.697 665.992 557.88C664.2 558.889 662.77 560.114 661.29 561.523L660.024 562.732L660.63 562.577C668.927 560.372 677.931 554.646 686.421 559.532C695.069 564.509 696.188 576.63 701.056 584.466L701.893 587.956C696.129 588.153 690.283 587.077 684.577 586.342C677.136 585.384 669.797 584.586 662.288 584.416C660.274 576.16 655.175 559.582 655.704 551.483Z"/><path fill="#363A67" d="M689.196 318.679C692.961 307.73 698.189 297.586 709.016 292.232C721.46 286.078 736.477 288.881 749.022 293.241C764.615 298.662 777.204 306.983 789.441 317.917C795.949 312.551 802.736 308.191 811.628 309.025C817.635 309.589 822.925 312.926 826.685 317.553C831.456 323.424 833.343 331.039 832.406 338.487C831.466 345.95 827.805 353.001 821.69 357.52C814.32 362.969 806.576 362.957 797.956 362.39C797.578 362.723 797.109 362.975 796.822 363.388C795.964 364.625 795.352 367.822 794.804 369.409C792.499 376.087 789.457 382.631 784.747 387.968C783.704 389.452 782.709 390.587 781.303 391.735C779.019 391.828 770.53 398.725 767.704 400.332C765.765 401.434 763.695 402.215 761.605 402.978C759.319 397.128 758.435 391.385 757.485 385.217C762.532 383.051 767.313 380.642 770.166 375.676C772.487 371.636 772.854 366.402 771.424 361.993C770.347 358.673 768.097 355.992 764.884 354.571C760.35 352.565 756.203 353.769 751.821 355.347C745.829 348.95 738.896 342.32 734.936 334.417C731.078 326.719 730.48 316.556 724.716 309.999C722.702 307.708 720.069 306.158 716.96 306.124C711.412 306.062 707.399 309.706 703.738 313.367C699.815 312.375 692.641 316.87 689.196 318.679Z"/><path fill="#000001" d="M795.183 359.181C796.456 359.867 798.541 360.617 799.174 361.877L797.956 362.39C797.578 362.723 797.109 362.975 796.822 363.388C795.964 364.625 795.352 367.822 794.804 369.409C792.499 376.087 789.457 382.631 784.747 387.968C784.731 385.136 788.333 381.416 789.581 378.785C792.562 372.499 793.92 365.961 795.183 359.181Z"/><path fill="#363A67" d="M822.731 957.744C829.366 957.894 842.769 957.707 847.597 952.076C849.519 949.835 851.176 945.971 853.563 944.367L855.287 945.111L861.251 951.585C865.72 955.885 873.911 962.964 874.17 969.699C874.244 971.642 873.824 972.691 872.448 974.025C862.637 983.537 838.269 993.555 825.391 1000.28C813.991 1006.23 802.874 1013.26 790.92 1018.06C788.149 1019.17 785.497 1019.95 782.47 1019.82C780.164 1019.71 777.922 1019.02 776.412 1017.19C774.722 1015.13 774.424 1012.16 774.82 1009.62C775.167 1007.38 776.263 1005.46 777.346 1003.51C779.822 999.901 782.33 996.379 785.518 993.352C791.538 991.48 808.196 973.289 813.197 967.85C816.251 964.528 819.145 960.475 822.731 957.744Z"/><path fill="#FEFEFE" d="M861.251 951.585C865.72 955.885 873.911 962.964 874.17 969.699C874.244 971.642 873.824 972.691 872.448 974.025C862.637 983.537 838.269 993.555 825.391 1000.28C813.991 1006.23 802.874 1013.26 790.92 1018.06C788.149 1019.17 785.497 1019.95 782.47 1019.82C780.164 1019.71 777.922 1019.02 776.412 1017.19C774.722 1015.13 774.424 1012.16 774.82 1009.62C775.167 1007.38 776.263 1005.46 777.346 1003.51C777.43 1003.73 777.522 1003.94 777.599 1004.16C777.937 1005.1 778.04 1005.91 778.162 1006.9C778.749 1007.49 779.279 1007.93 779.984 1008.37L786.123 1006.22C803.809 1001.97 831.771 984.558 847.439 975.045C851.869 973.129 857.354 969.715 861.175 966.776L861.278 966.186C862.811 964.249 866.004 962.877 868.109 961.526C865.881 958.245 862.77 955.266 861.251 951.585Z"/><path fill="#000001" d="M861.251 951.585C865.72 955.885 873.911 962.964 874.17 969.699C874.244 971.642 873.824 972.691 872.448 974.025C862.637 983.537 838.269 993.555 825.391 1000.28C813.991 1006.23 802.874 1013.26 790.92 1018.06C788.149 1019.17 785.497 1019.95 782.47 1019.82C780.164 1019.71 777.922 1019.02 776.412 1017.19C774.722 1015.13 774.424 1012.16 774.82 1009.62C775.167 1007.38 776.263 1005.46 777.346 1003.51C777.43 1003.73 777.522 1003.94 777.599 1004.16C777.937 1005.1 778.04 1005.91 778.162 1006.9C778.749 1007.49 779.279 1007.93 779.984 1008.37C778.738 1009.14 777.741 1010.08 777.287 1011.51C776.903 1012.72 776.975 1014.04 777.677 1015.13C778.413 1016.27 779.744 1017.04 781.025 1017.41C782.631 1017.87 784.404 1017.83 786.006 1017.37C797.339 1014.14 808.496 1007.09 818.884 1001.61C833.581 993.861 848.396 986.257 862.724 977.838C865.127 976.426 871.32 973.485 871.802 970.559C872.288 967.611 870.309 964.85 868.85 962.461C866.314 963.939 863.756 965.377 861.175 966.776L861.278 966.186C862.811 964.249 866.004 962.877 868.109 961.526C865.881 958.245 862.77 955.266 861.251 951.585Z"/><path fill="#000001" d="M786.123 1006.22C786.217 1006.11 786.303 1005.99 786.404 1005.89C787.116 1005.16 787.935 1004.54 788.835 1004.06C798.617 998.807 809.001 994.295 818.925 989.245C827.331 984.968 835.482 980.02 843.955 975.927C845.226 975.313 846.032 975.026 847.439 975.045C831.771 984.558 803.809 1001.97 786.123 1006.22Z"/><path fill="#FEFEFE" d="M722.495 593.803C722.672 593.847 722.851 593.888 723.028 593.935C726.496 594.846 729.531 597.12 732.988 597.781C739.651 599.054 746.879 598.621 753.649 598.612C770.793 598.591 787.484 598.216 804.509 595.953C804.548 598.904 805.126 603.435 802.978 605.799C797.207 612.152 742.26 609.837 732.715 609.259C728.103 608.941 723.496 608.55 718.897 608.086C718.973 603.674 716.277 599.094 717.991 594.926C719.549 593.719 720.559 593.933 722.495 593.803Z"/><path fill="#E08D4A" d="M699.084 574.323C707.355 572.682 715.298 570.579 723.31 567.952C724.368 575.934 725.495 583.906 726.688 591.869C723.159 591.899 719.406 591.691 715.95 592.419C716.001 591.64 716.131 590.718 716.029 589.948C715.87 588.736 715.47 587.895 714.438 587.178C711.675 585.256 705.058 587.334 701.893 587.956L701.056 584.466C701.025 581.021 699.998 577.625 699.084 574.323Z"/><path fill="#4E60DF" d="M661.102 643.631C672.197 649.145 684.502 653.538 695.041 659.959C700.774 679.174 705.419 698.612 710.493 717.998C713.567 729.739 717.858 741.787 719.138 753.877C719.965 761.696 717.728 769.783 716.647 777.494C715.633 785.287 714.952 793.12 714.606 800.971C713.73 824.613 714.178 848.218 713.85 871.863C713.434 899.019 712.458 926.164 710.922 953.279C708.761 953.811 706.556 954.221 704.379 954.687C694.265 956.34 684.415 957.432 674.182 958.055L658.537 860.827C654.43 835.193 649.103 806.167 648.048 780.408C647.451 765.824 648.694 751.2 649.704 736.66C651.877 705.377 655.107 674.446 661.102 643.631Z"/><path fill="#E08D4A" d="M715.425 308.043C716.167 308.006 716.137 307.993 717.001 308.033C729.181 308.6 728.802 328.719 733.8 336.956C738.439 344.603 745.211 351.009 751.321 357.466C754.397 356.067 757.664 354.7 761.116 355.057C763.856 355.34 766.188 356.549 767.915 358.711C770.264 361.652 771.013 365.785 770.586 369.453C770.08 373.874 767.792 377.897 764.252 380.593C762.345 382.032 759.479 383.604 757.023 383.284C754.291 382.928 751.241 382.448 748.523 382.958L748.446 383.542C750.765 385.459 753.414 385.449 756.27 385.663C758.733 405.67 764.99 414.862 777.632 430.065C771.13 429.669 764.551 429.35 758.038 429.558C747.204 429.905 726.295 432.912 716.348 429.768C715.435 428.563 715.591 428.414 715.673 426.878C716.755 418.048 716.742 409.413 716.486 400.546C722.548 400.294 728.487 399.645 734.369 398.129C726.891 397.675 719.379 398.314 711.89 398.216C704.023 398.113 696.531 396.95 688.886 395.218C688.418 391.587 688.154 387.932 687.854 384.284C692.106 385.081 696.274 385.57 700.471 384.2C708.043 381.727 711.689 374.354 715.07 367.787C708.396 371.055 701.457 372.759 694.029 371.313C691.671 370.855 688.944 370.326 687.537 368.254L688.036 367.418C691.986 365.438 697.349 366.397 701.648 366.67C697.676 365.375 693.349 365.077 689.495 363.421C687.797 362.69 686.041 361.662 685.484 359.777C684.153 355.267 687.899 352.366 690.722 349.53C700.811 339.396 697.877 327.116 704.54 316.039C707.301 311.45 710.288 309.356 715.425 308.043Z"/><path fill="#000001" d="M707.09 352.514C705.506 351.477 703.827 350.209 703.033 348.435C702.533 347.318 702.372 346.018 703.006 344.914C703.654 343.787 704.884 342.959 706.146 342.678C707.273 342.427 708.474 342.706 709.454 343.288C710.685 344.02 711.574 345.183 711.869 346.577C712.527 348.026 712.744 348.649 712.548 350.291C711.891 351.339 711.332 352.269 710.034 352.601C709.034 352.856 708.074 352.739 707.09 352.514Z"/><path fill="#FEFEFE" d="M711.869 346.577C712.527 348.026 712.744 348.649 712.548 350.291C711.891 351.339 711.332 352.269 710.034 352.601C709.034 352.856 708.074 352.739 707.09 352.514C708.559 350.363 710.113 348.49 711.869 346.577Z"/><path fill="#000001" d="M702.271 331.09C704.164 330.959 706.086 331.182 707.93 331.617C713.594 332.953 718.135 335.748 721.242 340.72C720.234 340.584 703.347 331.992 702.271 331.09Z"/><path fill="#000001" d="M764.434 361.123L765.271 361.273L765.415 361.925C763.262 363.776 759.873 363.567 757.559 365.408C754.818 367.589 755.11 371.659 754.822 374.866C753.543 373.734 752.984 372.808 752.677 371.101C752.386 369.48 752.889 367.867 753.854 366.563C756.565 362.898 760.224 361.883 764.434 361.123Z"/><path fill="#E08D4A" d="M848.716 936.523L849.527 936.995C850.591 938.749 851.428 940.618 851.445 942.712C851.465 945.128 850.424 947.468 848.765 949.197C842.818 955.399 832.213 956.49 824.121 956.528C822.65 954.257 821.842 950.959 820.939 948.396C830.236 944.476 839.521 940.693 848.716 936.523Z"/><path fill="#FEFEFE" d="M688.13 371.805C695.703 372.948 702.683 373.661 710.335 372.913C708.976 374.893 707.475 376.742 705.967 378.608C705.262 379.179 704.532 379.719 703.779 380.226C698.557 383.787 693.905 383.397 688.025 382.243C687.962 378.768 688.075 375.281 688.13 371.805Z"/><path fill="#4C89FE" d="M249.033 55.7633C293.649 55.978 338.803 73.692 370.765 104.952C404.697 137.714 424.022 182.749 424.388 229.914C424.706 275.723 405.246 319.338 373.077 351.643C339.613 385.248 289.93 403.893 242.809 404.018C196.8 404.567 150.651 384.272 117.666 352.614C85.3412 321.609 66.7396 278.977 65.9947 234.193C65.1076 189.8 83.2741 144.966 114.08 113.064C150.36 75.4932 197.148 56.739 249.033 55.7633ZM243.282 399.619C288.277 400.595 335.417 381.438 367.843 350.456C400.193 319.967 418.954 277.772 419.923 233.329C420.727 188.493 403.741 145.163 372.68 112.818C342.271 81.1837 297.219 61.0158 253.234 60.1936C251.172 60.155 249.065 60.066 247.008 60.227C197.508 61.7964 151.534 79.768 117.235 116.221C87.2762 148.061 68.9295 191.148 70.3428 235.261C71.5854 279.628 90.6225 321.631 123.167 351.812C154.94 381.437 199.469 400.422 243.282 399.619Z"/><path fill="#4C89FE" d="M318.886 107.144C320.267 107.023 321.615 106.969 323.002 107.034C330.36 107.379 338.691 110.957 343.51 116.646C347.843 121.762 351.021 130.532 353.864 136.609C362.626 155.34 370.637 174.414 379.276 193.198L392.82 222.195C395.289 227.449 398.152 232.752 400.132 238.207C401.65 242.465 402.276 246.991 401.972 251.501C401.536 257.499 398.635 263.675 393.958 267.531C387.853 272.564 361.67 282.759 352.455 286.861L278.144 320.204L223.752 344.589C213.786 349.117 203.913 354.398 193.637 358.161C188.075 360.198 182.805 360.538 176.948 360.031C172.133 359.376 167.631 358.041 163.414 355.603C159.761 353.491 156.113 350.599 153.746 347.075C148.051 338.594 143.902 328.903 139.476 319.717C133.873 308.114 128.206 296.543 122.476 285.002C117.661 275.27 112.781 265.57 107.838 255.902C103.198 246.896 96.4831 236.551 94.1556 226.745C92.8073 221.064 94.0311 215.679 97.2693 210.875C99.1112 208.143 101.555 205.545 104.484 203.973C114.561 198.567 125.393 194.178 135.83 189.509C153.622 181.581 171.374 173.564 189.086 165.458C219.317 151.236 249.706 137.354 280.249 123.816C291.578 118.687 307.159 109.266 318.886 107.144ZM179.615 356.404C184.727 356.417 188.981 355.596 193.753 353.74C201.978 350.541 209.91 346.39 217.938 342.713L259.628 323.985L350.814 282.648C362.021 277.555 373.488 272.946 384.611 267.694C387.027 266.553 389.813 265.43 391.733 263.528C395.706 259.61 397.87 254.216 397.707 248.638C397.637 245.438 396.857 242.333 395.727 239.355C393.201 232.703 389.86 226.254 386.855 219.802C382.437 210.246 378.071 200.665 373.756 191.062L358.554 157.553C354.035 147.324 349.742 136.897 344.68 126.924C343.088 123.788 341.384 120.162 338.737 117.791C332.958 112.614 325.707 111.004 318.156 111.527C306.861 115.046 296.62 121.157 285.871 126.004C261.692 136.774 237.586 147.705 213.553 158.797L147.952 188.618C134.755 194.52 120.778 199.836 108.155 206.863C104.534 208.88 101.715 211.358 99.8345 215.129C97.2906 220.231 98.5861 225.539 100.45 230.626C103.366 238.586 107.777 246.212 111.62 253.771C116.932 264.294 122.17 274.853 127.334 285.449C133.35 297.699 139.291 309.985 145.159 322.307C148.553 329.261 151.752 336.862 156.198 343.187C159.28 347.627 163.515 351.142 168.447 353.352C171.988 354.975 175.773 355.857 179.615 356.404Z"/><path fill="#4C89FE" d="M317.847 128.6C321.281 128.055 324.846 128.415 327.763 130.443C330.631 132.436 332.395 135.981 334.029 138.979C337.949 146.17 341.22 153.806 344.673 161.236C351.215 175.26 357.662 189.328 364.014 203.439C368.263 212.733 378.419 230.895 380.087 240.165C380.813 244.195 380.048 248.64 377.51 251.922C375.942 253.949 374.071 255.025 371.813 256.134C362.652 260.631 353.126 264.55 343.794 268.69L288.821 293.106L217.497 325.467C207.181 330.1 188.476 340.234 177.7 341.581C174.73 341.632 172.07 341.522 169.358 340.165C165.492 338.23 162.733 335.009 160.513 331.378C155.908 323.847 152.668 315.305 149.038 307.263C144.829 298.166 140.53 289.111 136.141 280.099C132.26 271.935 128.264 263.826 124.155 255.774C121.163 249.85 117.657 243.791 115.617 237.471C114.233 233.183 113.289 227.97 115.582 223.837C117.38 220.596 120.139 218.853 123.334 217.194C135.663 210.791 148.832 205.531 161.515 199.842L230.991 168.317L287.136 142.618C297.22 137.917 307.236 131.942 317.847 128.6ZM199.094 187.394C204.81 198.995 251.723 302.609 253.998 304.123L255.713 303.534C281.803 291.525 307.999 279.747 334.298 268.203C341.331 265.08 348.383 262.002 355.454 258.969C360.776 256.685 366.581 254.645 371.411 251.425C374.404 249.431 375.711 246.698 376.993 243.446C372.42 228.535 363.526 212.899 356.968 198.533L340.279 161.961C336.778 154.312 333.477 146.354 329.337 139.029C328.215 137.045 326.878 134.984 324.836 133.844C323.179 132.918 321.412 132.848 319.563 133.041C311.044 135.21 302.898 139.703 294.947 143.406L267.444 156.074C244.762 166.608 221.505 176.34 199.094 187.394ZM173.611 337.527C176.818 337.578 179.413 337.072 182.44 336.092C190.221 333.572 197.71 329.766 205.137 326.362C219.969 319.564 234.812 312.311 250.018 306.411C244.402 294.227 196.109 190.016 195.002 189.161C180.065 196.13 165.043 202.913 149.939 209.511C141.747 213.163 132.759 216.484 125.061 221.081C122.732 222.472 119.674 224.302 118.752 226.972C117.981 229.206 118.138 232.103 118.881 234.315C123.314 247.51 131.377 260.046 137.383 272.64C144.243 287.024 150.567 301.667 157.589 315.974C160.24 321.375 162.82 327.063 165.939 332.205C167.734 335.166 170.483 336.311 173.611 337.527Z"/><path fill="#4C89FE" d="M292.862 176.244C309.756 173.918 325.309 185.805 327.5 202.717C329.692 219.63 317.681 235.088 300.751 237.144C284.012 239.178 268.764 227.331 266.598 210.608C264.431 193.884 276.156 178.543 292.862 176.244ZM298.739 233.198C313.33 232.268 324.402 219.683 323.466 205.093C322.53 190.503 309.94 179.436 295.351 180.378C280.77 181.32 269.711 193.9 270.646 208.482C271.581 223.063 284.157 234.127 298.739 233.198Z"/><path fill="#4C89FE" d="M190.548 212.921C190.719 212.994 190.901 213.046 191.061 213.141C194.654 215.285 225.834 285.418 229.473 295.795C213.487 303.499 197.061 310.126 181.194 318.103C177.529 314.408 165.038 284.941 162.111 278.661C155.474 264.417 148.531 250.321 142.022 236.018C149.29 231.372 157.459 228.223 165.301 224.688C173.739 220.814 182.155 216.891 190.548 212.921ZM165.894 276.361C168.254 281.708 180.119 309.657 182.715 312.466C196.584 305.961 210.636 299.334 224.776 293.454C219.298 281.407 214.253 269.007 207.932 257.373C193.96 263.709 180.055 270.487 165.894 276.361ZM147.579 237.453C150.889 244.965 154.323 252.422 157.879 259.821C159.864 264.031 161.741 268.7 164.186 272.646C178.202 266.183 192.323 259.51 206.585 253.616C201.544 242.561 195.948 228.125 189.918 218.058C175.921 224.772 161.805 231.238 147.579 237.453Z"/><path fill="#4C89FE" d="M370.929 582.188C377.736 581.371 384.744 582.358 391.326 584.117C408.001 588.574 422.243 598.355 430.904 613.448C443.667 635.691 442.819 664.983 425.606 684.668C419.36 691.811 411.042 696.777 405.658 704.768C401.412 711.069 399.478 718.302 397.522 725.543C398.507 727.331 399.683 729.393 399.658 731.488C399.612 735.196 396.53 737.715 394.141 740.159C395.266 741.884 396.048 743.742 396.885 745.615C395.467 750.213 394.745 755.727 392.615 759.992C389.195 766.844 379.171 770.047 372.356 772.197C363.921 773.773 355.296 773.556 347.375 769.97C333.029 763.476 332.282 752.639 327.409 739.643C327.859 736.305 331.748 733.177 333.987 730.86C332.74 729.758 331.367 728.372 330.85 726.747C329.704 723.15 332.249 719.456 333.888 716.425C332.715 709.695 333.899 702.028 331.561 695.665C329.922 691.204 326.832 687.615 323.954 683.919C316.634 674.52 312.333 664.931 310.844 653.034C308.745 636.27 314.183 620.35 324.49 607.181C336.18 592.245 352.313 584.442 370.929 582.188ZM394.135 724.936C396.38 717.111 398.291 708.728 402.896 701.884C407.805 694.589 415.566 690.422 421.478 684.125C438.45 666.044 440.106 638.128 428.441 616.795C420.491 602.255 407.418 592.191 391.55 587.631C385.545 585.906 379.014 584.712 372.765 585.672C354.711 588.012 338.457 595.201 327.127 609.849C317.171 622.719 312.83 638.395 314.942 654.556C316.526 666.666 320.646 674.096 328.349 683.211C330.648 685.932 333.139 688.735 334.52 692.064C337.142 698.379 334.165 706.673 337.514 712.45C344.07 717.19 372.645 719.933 381.93 721.747C385.997 722.794 390.102 723.766 394.135 724.936ZM388.162 753.247C388.844 753.298 390.341 753.645 390.839 753.174C392.225 751.862 392.942 747.901 392.789 746.015C392.687 744.748 392.556 744.323 391.496 743.558C386.278 739.792 345.973 734.159 337.563 733.472C335.54 734.913 332.279 737.007 331.738 739.616C331.586 740.353 331.622 741.069 332.111 741.649C333.504 743.3 336.026 744.116 338.036 744.707C343.963 746.449 350.472 747.168 356.572 748.199C367.084 749.995 377.614 751.678 388.162 753.247ZM383.925 763.09C386.426 761.329 388.686 759.669 390.766 757.404L354.925 751.658C348.006 750.54 340.879 749.652 334.059 748.038C337.119 756.408 340.892 762.548 349.307 766.434C357.789 770.351 366.922 770.428 375.61 767.12C378.485 766.002 381.266 764.654 383.925 763.09ZM391.409 738.864C393.43 736.209 394.943 733.424 396.378 730.418C384.852 723.239 353.05 720.413 339.002 718.467C337.108 719.788 334.255 721.687 333.904 724.217C333.704 725.661 334.264 726.278 334.991 727.43C341.247 731.417 364.248 733.885 372.516 735.349C378.808 736.464 385.092 737.953 391.409 738.864Z"/><path fill="#4C89FE" d="M355.849 633.106C359.638 633.29 363.105 634.195 366.064 636.69C371.901 641.611 372.749 649.349 373.348 656.444C375.988 650.741 379.756 645.251 385.22 641.915C388.576 639.865 392.604 638.817 396.476 639.901C399.841 640.844 402.643 643.287 404.323 646.316C406.203 649.705 406.639 653.708 405.532 657.422C404.531 660.766 402.256 663.375 399.179 664.987C391.611 668.954 381.901 666.437 374.216 664.162C373.964 666.005 373.618 667.838 373.305 669.671C373.051 671.207 372.784 672.74 372.506 674.271C371.423 680.269 368.716 696.69 363.533 700.286L363.035 699.706C362.445 692.55 366.456 683.98 368.198 676.956C369.274 672.603 370.094 668.19 370.652 663.741C364.224 662.461 356.532 662.262 350.816 658.707C347.494 656.64 344.809 653.511 343.919 649.64C343.164 646.194 343.801 642.589 345.694 639.611C348.151 635.782 351.502 634.022 355.849 633.106ZM385.911 663.402C390.639 663.929 394.986 663.924 398.847 660.657C400.982 658.85 402.401 656.252 402.581 653.443C402.746 650.86 401.949 648.308 400.161 646.409C398.027 644.143 395.369 643.228 392.318 643.077C385.954 644.924 381.351 649.423 378.175 655.119C377.16 656.939 376.247 658.834 375.365 660.721C378.851 661.702 382.34 662.785 385.911 663.402ZM363.537 658.859L370.752 659.757C369.544 652.923 368.833 643.596 362.783 639.185C360.221 637.317 357.65 636.887 354.554 636.99C351.712 638.173 348.734 639.987 347.394 642.901C346.488 644.872 346.76 647.153 347.635 649.083C349.412 653.003 353.482 656.101 357.481 657.501C359.425 658.182 361.501 658.569 363.537 658.859Z"/><path fill="#4C89FE" d="M529.613 793.214C533.922 793.072 540.157 792.207 543.549 795.486C547.115 798.934 546.464 806.076 546.528 810.606L563.263 818.063C564.937 816.525 566.603 814.952 568.358 813.507C570.759 811.529 573.916 809.947 577.108 810.356C584.393 811.29 591.231 822.214 595.223 827.655C591.771 832.026 587.921 835.884 583.938 839.758C586.22 845.593 588.485 851.41 590.243 857.429C594.984 857.387 602.777 856.589 606.831 859.441C608.534 860.639 609.003 862.804 609.284 864.758C609.961 869.486 609.942 880.957 606.49 884.576C603.494 887.716 593.966 886.87 589.804 886.963C587.422 892.343 584.904 897.662 582.253 902.915C585.846 907.331 589.515 911.718 592.393 916.646C587.288 923.795 579.102 930.219 571.229 934.026C566.916 930.426 562.45 926.512 558.827 922.205C553.248 924.83 547.681 926.868 541.729 928.472C541.626 933.638 541.116 938.788 540.206 943.875C534.043 944.404 527.932 944.477 521.75 944.505C520.962 944.547 520.182 944.572 519.393 944.541C517.343 944.461 515.47 943.874 514.095 942.27C511.019 938.681 511.901 932.46 512.324 928.088C507.323 925.669 502.496 923.112 497.696 920.315C493.21 924.625 488.258 928.566 483.236 932.229C476.051 926.795 469.846 920.175 464.888 912.654C468.095 907.876 473.19 903.869 477.378 899.949C473.883 894.414 471.472 888.684 469.07 882.625C465.087 882.484 455.445 883.681 452.506 881.077C451.013 879.754 450.676 876.387 450.499 874.549C449.984 869.185 449.845 859.21 453.422 854.929C457.893 852.79 465.59 854.078 470.505 854.267C473.628 848.817 476.213 842.913 478.97 837.261C474.725 832.575 470.066 827.952 466.333 822.849C471.867 815.918 478.559 809.907 484.982 803.825C490.345 808.099 495.232 812.946 500.622 817.214C505.82 814.725 511.136 812.49 516.551 810.518C516.512 806.815 515.651 798.156 518.245 795.382C520.853 792.592 526.165 793.262 529.613 793.214ZM520.593 813.4C513.622 815.848 506.886 818.524 500.219 821.729C495.141 817.697 490.161 813.595 485.644 808.926C480.594 813.433 475.747 818.162 471.116 823.099C475.018 826.933 479.082 830.695 482.426 835.039C481.265 842.523 477.292 851.168 472.699 857.144C466.86 858.328 460.838 858.262 454.9 858.386C454.651 865.149 454.3 871.917 454.509 878.685C460.639 879.035 466.827 879.043 472.94 879.528C475.262 886.41 477.66 893.141 481.767 899.204C478.638 904.387 473.412 909.188 469.262 913.61C474.017 918.258 478.717 922.988 483.661 927.436C487.991 923.668 492.29 919.91 496.386 915.885C502.789 919.539 509.144 922.778 516.165 925.115C515.963 930.066 515.925 934.942 516.047 939.895C521.583 940.648 527.522 940.974 533.11 940.877C534.684 940.681 536.094 940.911 537.093 939.495C539.344 936.3 538.462 929.125 538.425 925.26C545.729 923.763 551.993 921.359 558.515 917.773C563.717 920.889 567.951 925.659 572.197 929.938C577.639 925.552 582.839 920.905 588.237 916.477C584.678 912.11 580.964 907.806 577.815 903.129C581.118 896.593 584.226 890.157 586.527 883.19C592.293 883.217 598.106 883.351 603.841 882.645C605.17 876.168 605.662 869.084 605.387 862.483C599.737 861.519 594 861.59 588.382 860.556C584.478 854.635 582.961 846.846 579.53 840.472L579.095 839.65C582.692 835.742 586.949 831.926 590.037 827.63C585.825 822.428 581.519 817.618 576.596 813.062C571.663 815.771 567.699 819.533 563.199 822.834C556.848 819.538 550.45 816.723 543.803 814.064C542.737 808.555 542.774 802.975 541.787 797.49C534.85 797.366 527.911 797.405 520.975 797.609C520.774 802.872 520.536 808.132 520.593 813.4Z"/><path fill="#4C89FE" d="M530.936 836.733C549.244 837.166 563.725 852.377 563.259 870.684C562.792 888.992 547.555 903.445 529.248 902.944C510.989 902.445 496.582 887.257 497.047 868.997C497.513 850.737 512.675 836.302 530.936 836.733ZM532.249 899.287C548.367 898.153 560.53 884.192 559.444 868.07C558.358 851.948 544.433 839.744 528.308 840.782C512.115 841.824 499.849 855.821 500.939 872.011C502.029 888.2 516.063 900.425 532.249 899.287Z"/><path fill="#4C89FE" d="M101.308 748.754C102.644 749.025 103.526 749.586 104.61 750.397C111.568 755.604 118.149 761.607 124.815 767.195L163.273 799.434C185.45 817.972 208.979 835.783 229.626 856.003C222.327 865.596 206.442 876.953 196.99 885.357L116.021 957.646L113.983 958.867C108.026 958.716 76.9096 929.344 70.8526 923.391C80.2128 910.484 94.6615 900.873 106.745 890.617C119.019 880.004 131.14 869.215 143.103 858.254C137.961 853.252 132.179 848.661 126.707 844.005C115.32 834.164 103.683 824.616 91.8074 815.37C81.3003 807.115 70.6043 798.965 60.9823 789.667C74.2525 775.861 87.6956 762.223 101.308 748.754ZM67.4178 789.415C74.8887 795.063 81.517 801.854 88.8317 807.725C99.0314 815.836 109.276 823.892 119.564 831.89C129.582 839.723 141.866 847.978 149.508 858.147C131.819 874.626 113.788 890.735 95.4271 906.462C89.3019 911.777 83.3599 917.886 76.97 922.788C83.9066 929.582 91.4417 935.89 98.8187 942.203C103.358 946.087 108.019 950.527 113.058 953.75C113.902 953.399 114.468 953.068 115.16 952.471L188.997 886.047C200.321 875.95 211.946 866.136 223.021 855.769C215.319 848.525 207.055 841.827 198.982 835.002C182.139 820.769 165.145 806.715 148.004 792.843C132.772 780.328 118.376 766.543 102.441 754.931C96.0682 759.641 90.7678 766.134 85.2432 771.785C79.4015 777.761 73.2487 783.426 67.4178 789.415Z"/><path fill="#4C89FE" d="M701.551 15.2672C702.795 15.6289 703.67 16.2636 704.683 17.0717C710.115 21.4052 715.216 26.2956 720.497 30.8231C729.299 38.2612 738.155 45.6353 747.065 52.9451C773.508 74.8195 800.376 96.2114 826.305 118.695C816.579 129.508 804.567 138.786 793.773 148.566C766.463 173.311 738.577 197.415 711.377 222.283C710.392 222.97 709.491 223.719 708.27 223.9C707.06 224.079 705.5 222.927 704.57 222.255C697.681 217.278 691.497 210.948 685.145 205.313C678.861 199.738 672.265 194.53 666.012 188.918C674.531 178.828 684.738 170.282 694.503 161.43L739.493 121.051C730.44 111.195 718.869 102.852 708.492 94.4048C692.273 81.3049 676.18 68.0502 660.215 54.6425C673.228 40.8059 687.526 28.0642 701.551 15.2672ZM672.248 188.057C678.101 193.066 703.98 216.819 708.434 218.696C708.965 218.476 709.372 218.349 709.798 217.954C734.659 195.164 759.745 172.619 785.051 150.324L808.269 129.763C812.06 126.407 815.769 122.667 819.789 119.61C804.782 105.675 788.938 93.0731 773.102 80.1378C760.317 69.4866 747.477 58.903 734.58 48.3875C728.516 43.4647 722.414 38.5994 716.536 33.4533C711.753 29.2651 707.072 24.5346 701.902 20.8508C690.071 31.654 677.461 42.5176 666.816 54.4799C683.312 68.7599 700.573 81.9114 717.484 95.6717C727.417 103.754 736.883 112.422 746.827 120.471C729.257 137.285 710.782 153.261 692.705 169.535C685.908 175.655 678.678 181.561 672.248 188.057Z"/><path fill="#4C89FE" d="M914.914 656.049C915.043 656.113 915.178 656.165 915.301 656.239C919.735 658.908 921.111 665.791 922.086 670.479C927.825 670.415 933.555 670.948 939.184 672.068C941.608 668.208 944.135 664.526 947.021 660.995C953.981 663.934 960.543 666.902 966.413 671.731C964.48 675.82 961.719 679.585 959.234 683.358C963.497 688.451 967.542 693.625 971.069 699.261C976.376 698.747 981.693 697.903 986.971 697.15C989.034 703.079 990.147 709.276 991.428 715.409L975.579 721.326C974.952 726.987 974.412 732.324 972.309 737.67C974.241 738.765 976.162 739.881 978.07 741.018C979.91 742.136 981.76 743.206 982.201 745.478C982.872 748.932 980.622 753.56 978.527 756.162C976.791 758.318 974.501 760.008 971.675 760.252C967.118 760.645 962.271 757.611 958.856 754.857C955.588 757.268 952.392 759.7 949.309 762.344C949.908 767.039 950.623 772.096 947.955 776.348C946.737 778.315 944.768 779.698 942.505 780.177C939.235 780.878 935.83 781.02 932.977 779.159C930.717 776.273 929.019 773.226 927.77 769.784C921.43 768.821 915.049 768.143 908.705 767.16C907.155 770.411 905.239 773.785 902.057 775.675C899.767 777.036 897.15 777.324 894.607 776.51C889.576 774.898 885.211 769.512 882.777 765C885.207 761.496 887.902 758.177 890.339 754.672C887.558 751.093 884.351 747.873 881.605 744.259C878.18 745.521 872.492 748.158 868.843 747.462C867.399 747.187 866.487 746.121 865.722 744.924C863.366 741.237 860.566 732.983 861.668 728.702C863.278 722.453 871.204 724.967 875.293 722.306C878.035 720.522 878.251 711.161 878.899 707.887C875.326 705.931 871.007 704.04 868.338 700.9C866.997 699.323 866.291 697.409 866.526 695.332C867.075 690.489 872.891 683.838 876.58 680.809C880.978 682.364 885.08 684.47 889.255 686.532C893.224 683.666 897.431 681.109 901.56 678.478C900.957 676.958 900.378 675.429 899.823 673.891C898.684 670.688 897.534 666.497 899.253 663.292C901.699 658.729 910.301 657.378 914.914 656.049ZM901.825 664.843C903.148 669.767 904.76 674.536 906.448 679.344C901.127 683.57 895.068 687.427 890.371 692.344C885.904 690.429 881.724 687.994 877.304 686.018C874.581 689.564 872.089 693.049 870.224 697.136C874.506 700.158 879.214 702.4 883.926 704.663C882.272 711.348 881.514 718.019 880.921 724.866C875.82 726.554 870.336 727.989 865.487 730.298C866.51 734.644 867.748 738.873 869.343 743.047C873.991 741.63 878.663 740.009 883.407 738.954C887.745 744.227 891.908 749.469 894.94 755.631C892.515 758.822 890.02 761.935 888.203 765.527C889.928 767.967 893.746 772.336 896.851 772.718C898.307 772.897 899.677 772.211 900.677 771.192C903.81 768.001 904.471 762.837 909.761 762.553C916.342 762.199 923.624 764.304 930.284 764.816C931.853 768.37 933.232 772.48 935.411 775.687C939.546 776.004 941.965 775.176 945.599 773.447C945.321 769.098 944.66 764.826 944.238 760.497C949.186 756.827 954.092 753.091 959.266 749.742C963.24 752.256 967.182 754.945 971.345 757.132C973.872 753.897 976.144 750.552 978.392 747.118C974.779 743.773 970.923 740.705 967.11 737.593C969.221 730.834 969.834 723.959 971.686 717.213C976.757 715.834 981.856 714.314 986.98 713.152C985.96 709.319 984.995 705.471 984.084 701.61C978.917 702.438 973.736 702.963 968.533 703.491C964.189 696.319 959.199 690.343 953.972 683.875C956.457 679.932 958.97 676.006 961.511 672.099C956.924 670.432 952.391 668.439 947.989 666.331C945.731 669.788 943.63 673.275 941.64 676.893C934.264 675.544 927.418 674.397 919.88 674.494C918.74 671.045 917.193 663.759 914.497 661.461L913.678 661.587C909.708 662.602 905.756 663.688 901.825 664.843Z"/><path fill="#4C89FE" d="M921.945 690.651C937.461 688.835 951.525 699.907 953.402 715.416C955.279 730.925 944.262 745.032 928.761 746.97C913.173 748.919 898.97 737.828 897.082 722.232C895.195 706.636 906.342 692.477 921.945 690.651ZM927.74 743.062C940.908 741.732 950.527 730.015 949.269 716.84C948.01 703.666 936.345 693.982 923.164 695.17C909.881 696.366 900.107 708.141 901.376 721.416C902.644 734.692 914.471 744.403 927.74 743.062Z"/><path fill="#4C89FE" d="M238.493 33.7123C239.065 33.6358 238.828 33.6571 239.464 33.6214C293.421 30.5956 346.325 51.4907 386.537 87.1236C389.559 85.3787 392.584 83.6083 395.695 82.027C411.513 73.9869 428.165 70.9942 445.293 76.7603C460.948 82.0303 474.087 94.1083 481.28 108.915C488.147 123.326 488.975 139.883 483.581 154.908C476.324 175.717 463.258 183.736 444.373 192.838C448.831 209.456 448.646 228.755 447.118 245.763C462.478 253.07 475.17 265.914 481.114 281.984C486.796 297.635 486.089 314.893 479.147 330.027C472.276 344.687 459.871 356.023 444.652 361.547C429.029 367.085 411.843 366.168 396.898 358.998C388.392 370.546 377.939 379.543 365.88 387.187C366.12 393.213 365.543 399.244 364.163 405.115C359.596 423.373 347.964 439.071 331.825 448.754C316.961 457.512 299.254 460.089 282.509 455.931C266.939 451.989 251.882 440.148 243.698 426.394C229.8 427.223 215.518 426.243 202.191 421.999C201.122 424.889 200.071 427.811 198.749 430.597C191.708 445.7 178.827 457.29 163.067 462.703C147.789 468.116 129.562 467.952 114.827 460.909C100.575 454.097 88.4477 440.954 83.1861 426.025C77.8727 410.987 78.8785 394.438 85.9741 380.153C88.1133 375.788 94.6805 363.729 99.8126 362.742C101.102 362.493 101.492 362.769 102.397 363.528C102.428 366.644 94.5796 373.852 92.4898 376.998C90.3267 380.254 88.5968 384.336 87.3242 388.025C82.5911 401.93 83.5644 417.144 90.0308 430.332C96.9308 444.494 108.549 454.815 123.511 459.797C138.845 464.902 154.7 462.938 168.969 455.616C185.711 447.025 194.042 434.352 199.749 416.928C215.077 422.093 230.232 422.972 246.244 422.468C252.12 431.572 258.86 439.254 268.128 445.044C281.485 453.39 297.231 455.713 312.491 452.032C329.463 447.938 343.401 437.308 352.459 422.503C359.265 410.387 361.133 398.76 361.523 385.085C375.793 375.414 384.746 367.239 395.66 353.759C410.769 360.388 424.539 363.4 440.745 358.265C455.196 353.655 467.231 343.505 474.213 330.038C481.209 316.272 482.452 300.291 477.669 285.609C471.722 266.858 459.499 256.897 442.769 248.111C444.346 228.242 444.703 209.349 439.642 189.912C446.871 187.17 454.025 184.178 460.389 179.719C472.214 171.435 479.703 158.446 482.126 144.316C484.701 129.416 481.173 114.106 472.337 101.834C463.285 89.4227 449.73 81.0522 434.579 78.517C416.477 75.5983 401.161 82.4728 386.77 92.795C380.319 87.7849 374.195 82.3871 367.561 77.6046C340.109 57.8151 308.881 43.9661 275.209 39.3359C228.758 32.9485 180.762 44.512 141.048 68.9652C133.693 73.4934 126.9 78.6551 120.032 83.8763C107.013 75.4805 95.3868 69.5259 79.3874 70.5033C63.824 71.4541 49.0054 79.3609 38.7556 90.968C28.6986 102.413 23.5926 117.381 24.5577 132.586C25.4496 146.429 32.2444 160.511 42.9645 169.398C46.8113 172.587 51.2885 174.949 54.9968 178.294C55.1352 178.419 55.2702 178.547 55.4068 178.674C54.6297 186.052 51.8301 193.364 50.547 200.718C47.1547 220.159 47.7514 235.093 49.0557 254.568C49.2494 257.459 49.8136 262.428 47.7965 264.719L46.8748 264.611C46.4832 264.103 46.4581 264.112 46.1245 263.435C44.2364 259.598 44.2906 253.601 43.9921 249.392C42.3129 225.71 44.4129 203.155 50.9462 180.314C49.8817 179.699 48.8344 179.056 47.8053 178.383C34.0232 169.345 24.6835 156.529 21.3528 140.253C18.0564 124.146 21.6172 107.669 30.6949 94.0164C40.0017 80.0004 54.5768 70.3394 71.111 67.227C88.4822 63.8967 105.186 68.6531 119.627 78.4651C156.112 52.0121 193.2 36.5624 238.493 33.7123Z"/><path fill="#363A67" d="M679.232 963.208L679.547 960.984C681.499 959.467 702.18 957.135 705.813 956.934C706.786 958.027 706.765 958.991 707.044 960.409L707.997 962.015C707.968 966.215 707.985 970.413 709.087 974.5C710.86 981.07 721.054 997.936 714.471 1003.69C713.345 1004.67 711.864 1005.18 710.477 1005.66C695.565 1010.61 674.738 1011.62 658.855 1014.06C648.204 1015.69 637.207 1018.63 626.485 1019.3C624.759 1019.41 623.074 1019.14 621.488 1018.42C619.13 1017.35 617.606 1015.54 616.686 1013.17C616.048 1011.59 615.935 1009.67 616.266 1008C617.037 1004.11 620.116 1000.93 623.153 998.603C628.759 994.313 635.726 991.502 642.063 988.443C652.848 983.238 663.979 978.075 674.061 971.589C675.843 970.443 677.777 969.512 678.25 967.375C678.867 966.11 678.983 964.59 679.232 963.208Z"/><path fill="#FEFEFE" d="M711.584 992.053C712.977 992.896 713.783 993.337 714.313 994.989C715.031 997.227 714.599 999.357 713.439 1001.34C712.404 1003.1 711.189 1003.55 709.36 1004.16L710.477 1005.66C695.565 1010.61 674.738 1011.62 658.855 1014.06C648.204 1015.69 637.207 1018.63 626.485 1019.3C624.759 1019.41 623.074 1019.14 621.488 1018.42C619.13 1017.35 617.606 1015.54 616.686 1013.17C617.319 1012.91 617.929 1013.22 618.586 1013.36C618.179 1010.98 618.225 1009.19 618.622 1006.8C627.226 1005.01 636.284 1004.6 645.005 1003.33C667.313 1000.28 689.517 996.524 711.584 992.053Z"/><path fill="#000001" d="M618.586 1013.36C619.226 1014.26 620.132 1015.14 621.066 1015.72C623.002 1016.94 625.595 1016.79 627.777 1016.66C641.097 1015.83 654.338 1012.6 667.51 1010.58C681.401 1008.44 695.715 1007.63 709.36 1004.16L710.477 1005.66C695.565 1010.61 674.738 1011.62 658.855 1014.06C648.204 1015.69 637.207 1018.63 626.485 1019.3C624.759 1019.41 623.074 1019.14 621.488 1018.42C619.13 1017.35 617.606 1015.54 616.686 1013.17C617.319 1012.91 617.929 1013.22 618.586 1013.36Z"/><path fill="#E08D4A" d="M679.232 963.208L679.547 960.984C681.499 959.467 702.18 957.135 705.813 956.934C706.786 958.027 706.765 958.991 707.044 960.409C706.913 962.748 707.187 967.25 705.57 969.076C702.215 972.864 692.622 972.515 687.947 972.158C685.244 971.951 682.389 971.736 680.216 969.971C679.172 967.931 679.333 965.461 679.232 963.208Z"/><path fill="#000001" d="M707.044 960.409L707.997 962.015C707.968 966.215 707.985 970.413 709.087 974.5C710.86 981.07 721.054 997.936 714.471 1003.69C713.345 1004.67 711.864 1005.18 710.477 1005.66L709.36 1004.16C711.189 1003.55 712.404 1003.1 713.439 1001.34C714.599 999.357 715.031 997.227 714.313 994.989C713.783 993.337 712.977 992.896 711.584 992.053L712.615 991.134C712.704 985.789 708.754 976.169 706.733 971.04C696.512 974.075 688.694 974.926 678.57 971.094C671.591 974.185 664.888 978.406 658.053 981.879C647.771 987.102 634.702 992.386 625.492 999.095C622.378 1001.36 620.546 1003.44 618.622 1006.8C618.225 1009.19 618.179 1010.98 618.586 1013.36C617.929 1013.22 617.319 1012.91 616.686 1013.17C616.048 1011.59 615.935 1009.67 616.266 1008C617.037 1004.11 620.116 1000.93 623.153 998.603C628.759 994.313 635.726 991.502 642.063 988.443C652.848 983.238 663.979 978.075 674.061 971.589C675.843 970.443 677.777 969.512 678.25 967.375C678.867 966.11 678.983 964.59 679.232 963.208C679.333 965.461 679.172 967.931 680.216 969.971C682.389 971.736 685.244 971.951 687.947 972.158C692.622 972.515 702.215 972.864 705.57 969.076C707.187 967.25 706.913 962.748 707.044 960.409Z"/><path fill="#4C89FE" d="M324.464 545.108C325.716 545.453 326.508 546.152 327.291 547.159C331.464 552.529 339.108 569.421 338.464 575.928C337.955 575.773 337.197 575.587 336.762 575.238C331.635 571.126 325.521 551.883 324.464 545.108Z"/><path fill="#4C89FE" d="M449.577 676.934C450.173 676.997 450.763 677.074 451.351 677.193C458.599 678.661 476.157 686.492 480.251 692.576C478.31 692.709 476.597 692.233 474.757 691.64C467.508 689.304 453.266 684.07 449.577 676.934Z"/><path fill="#4C89FE" d="M276.617 594.222C283.112 595.35 292.245 600.301 297.904 603.758C300.401 605.283 302.67 606.62 303.407 609.61C300.677 610.506 296.08 608.105 293.585 606.938C287.904 604.28 278.869 600.528 276.617 594.222Z"/><path fill="#4C89FE" d="M451.685 564.831C451.752 564.901 451.832 564.96 451.886 565.04C452.57 566.06 452.731 566.485 452.392 567.702C451.147 572.171 438.591 585.345 434.582 587.797C434.22 587.098 433.649 586.174 433.691 585.348C433.966 579.936 447.638 568.245 451.685 564.831Z"/><path fill="#4C89FE" d="M389.741 534.249L391.138 535.23C394.115 540.621 390.907 558.763 389.199 564.805C387.921 564.399 387.549 564.372 386.898 563.091C384.735 558.836 388.365 539.54 389.741 534.249Z"/><path fill="#4C89FE" d="M291.288 656.711C291.449 656.678 291.609 656.635 291.772 656.61C293.437 656.36 294.417 656.596 295.784 657.552L295.731 658.514C291.136 662.458 277.803 661.752 271.618 662.379C271.391 662.401 271.164 662.427 270.937 662.444C269.059 662.58 268.261 662.634 266.788 661.38L266.893 660.533C271.005 656.978 285.701 657.125 291.288 656.711Z"/><path fill="#4C89FE" d="M483.618 623.675L484.712 624.04L485.019 625.027L484.481 625.982C478.289 630.133 466.271 631.272 458.838 631.668C458.206 631.704 458.623 631.732 457.661 631.238L458.018 630.328C464.106 625.255 475.915 624.747 483.618 623.675Z"/></svg>