<svg viewBox="0 0 65 64" fill="none" xmlns="http://www.w3.org/2000/svg">
<path d="M59.086 17.758L56.742 15.414C54.484 13.154 50.516 13.154 48.258 15.414L39.086 24.586L27.086 36.586C26.71 36.96 26.5 37.47 26.5 38V46C26.5 47.104 27.396 48 28.5 48H36.5C37.032 48 37.54 47.79 37.914 47.414L49.914 35.414L59.086 26.242C61.424 23.904 61.424 20.096 59.086 17.758ZM30.5 44V38.828L35.672 44H30.5ZM47.086 32.586L38.5 41.172L33.328 36L41.914 27.414L46.5 22.828L51.672 28L47.086 32.586ZM56.258 23.414L54.5 25.172L49.328 20L51.086 18.242C51.836 17.492 53.164 17.492 53.914 18.242L56.258 20.586C57.038 21.366 57.038 22.634 56.258 23.414Z" fill="#760AFF"/>
<path d="M50.5 40C49.394 40 48.5 40.896 48.5 42V56C48.5 57.102 47.604 58 46.5 58H18.5C17.398 58 16.5 57.102 16.5 56V8C16.5 6.898 17.398 6 18.5 6H46.5C47.604 6 48.5 6.898 48.5 8C48.5 9.104 49.394 10 50.5 10C51.606 10 52.5 9.104 52.5 8C52.5 4.692 49.808 2 46.5 2H18.5C15.192 2 12.5 4.692 12.5 8V56C12.5 59.308 15.192 62 18.5 62H46.5C49.808 62 52.5 59.308 52.5 56V42C52.5 40.896 51.606 40 50.5 40Z" fill="#760AFF"/>
<path d="M26.5 8C25.396 8 24.5 8.896 24.5 10C24.5 11.104 25.396 12 26.5 12H38.5C39.606 12 40.5 11.104 40.5 10C40.5 8.896 39.606 8 38.5 8H26.5ZM34.5 56C35.606 56 36.5 55.104 36.5 54C36.5 52.896 35.606 52 34.5 52H30.5C29.396 52 28.5 52.896 28.5 54C28.5 55.104 29.396 56 30.5 56H34.5Z" fill="#760AFF"/>
</svg>
