<?xml version="1.0" encoding="utf-8" ?><svg xmlns="http://www.w3.org/2000/svg" xmlns:xlink="http://www.w3.org/1999/xlink" viewBox="0 0 1024 1024"><path d="M424.733 375.997C404.648 376.013 385.005 374.903 369.971 359.819C358.971 348.784 354.291 333.323 354.345 318C354.404 300.997 360.373 284.145 372.612 272.088C385.193 259.693 403.293 252.6 420.937 252.943C430.875 253.137 439.213 256.244 447.676 261.286C459.956 258.903 471.808 259.505 482.442 266.686C491.184 272.59 496.477 281.47 498.406 291.763C500.189 301.277 498.456 310.956 499.3 320.538C499.321 320.777 499.333 321.018 499.357 321.257C499.894 326.598 504.666 331.023 505.756 336.131C504.19 336.823 502.546 336.161 501.035 335.577C498.009 334.409 495.164 332.73 492.332 331.164C493.481 341.161 496.272 362.672 489.672 370.809C486.698 374.477 481.959 375.969 477.403 376.343C475.013 376.554 472.611 376.623 470.213 376.548C469.321 384.049 468.357 391.436 468.53 399.008C476.718 402.434 483.341 410.516 486.671 418.566C489.034 424.277 489.619 429.887 490.614 435.904C498.259 445.366 509.011 455.975 507.84 469.158C507.391 474.218 505.478 478.971 503.629 483.653C510.168 505.554 518.261 526.86 522.923 549.338C523.517 552.198 524.416 561.737 526.867 563.199C529.694 564.885 534.531 565.557 537.756 566.42C543.768 568.028 550.153 570.043 555.587 573.127C553.131 596.207 551.015 619.322 549.242 642.464C547.96 658.525 547.389 675.055 544.951 690.98C540.705 691.152 536.494 691.437 532.288 692.071C537.506 715.091 542.906 738.07 548.487 761.005L579.313 894.25C576.284 897.265 573.025 900.041 569.568 902.554C570.236 905.169 570.685 908.076 572.215 910.332C574.815 911.281 578.182 910.881 580.948 911.249C590.385 912.505 598.679 912.868 608.187 911.836C616.647 910.918 629.499 907.4 637.401 908.727C640.601 909.263 644.116 911.571 645.614 914.492C646.571 916.357 647.335 919.025 646.482 921.043C643.217 928.766 618.92 939.128 611.047 943.446C612.328 943.418 613.591 943.45 614.869 943.521C627.231 944.206 658.742 947.526 666.817 957.247C668.088 958.778 668.752 960.462 668.479 962.459C668.116 965.107 665.2 967.352 663.133 968.679C650.598 976.724 624.652 980.97 609.744 983.466C544.782 994.339 479.567 995.811 413.909 991.977C379.314 989.957 344.126 986.613 310.259 979.016C300.873 976.91 279.358 972.05 274.467 963.676C273.487 961.998 273.275 960.287 273.908 958.431C277.056 949.2 309.142 944.704 317.71 941.002C317.851 940.941 317.991 940.876 318.131 940.812C314.161 938.462 308.31 935.892 306.96 931.084C305.398 925.517 308.474 919.313 311.33 914.65C315.79 907.365 321.725 899.482 330.396 897.302C330.576 897.257 330.758 897.223 330.939 897.184C332.338 894.278 333.858 891.379 334.967 888.35L328.134 883.158C335.259 861.381 341.728 839.387 348.781 817.582C358.551 787.379 368.846 757.256 377.779 726.796C384.37 704.322 389.592 681.412 395.955 658.852C388.073 665.871 363.609 684.634 352.971 684.174C347.637 683.943 342.956 680.515 339.616 676.572C337.684 674.292 335.28 671.128 335.329 667.987C335.353 666.417 336.102 665.164 337.286 664.198C339.088 662.728 341.437 662.597 343.649 662.962C346.895 663.499 350.207 665.037 353.221 666.326C355.13 664.309 357.211 662.752 359.443 661.118C359.905 653.526 362.011 644.924 367.85 639.617C371.185 636.585 374.694 635.65 378.958 634.778C371.994 620.781 351.499 583.757 351.012 570.001C350.679 560.576 353.944 550.398 356.094 541.27C358.938 529.195 361.617 516.973 365.407 505.153C362.106 502.472 356.451 499.194 356.061 494.541C355.141 483.577 386.869 425.825 396.143 415.661C399.539 411.939 403.851 409.624 407.567 406.328C415.195 399.562 412.636 397.248 424.106 391.994C423.157 386.395 423.208 381.506 424.733 375.997ZM367.735 904.577L364.993 911.813C371.847 918.025 376.694 925.008 381.649 932.738C392.194 930.404 408.744 931.402 420.1 931.118C434.647 930.754 449.207 929.981 463.757 929.964C489.338 929.935 514.912 930.849 540.491 930.508C539.725 926.002 537.882 921.655 536.185 917.434C532.305 917.508 528.404 917.496 524.529 917.692C517.42 902.756 511.757 887.215 505.453 871.936L474.311 797.525C468.01 782.428 461.912 766.801 454.443 752.25C442.542 775.645 432.106 799.877 421.318 823.8C415.395 836.934 409.047 849.868 403.005 862.945C397.23 875.442 389.678 895.255 382.556 906.112C377.61 905.701 372.635 905.391 367.735 904.577ZM412.242 537.345C407.933 544.34 404.228 551.809 400.331 559.046C400.655 564.383 400.94 569.714 401.572 575.025L402.114 575.096C405.594 565.617 409.47 556.418 414.575 547.685C413.987 544.29 413.633 540.524 412.242 537.345ZM566.922 904.588C557.792 910.419 549.578 914.885 538.807 916.912C540.062 920.923 541.341 924.896 542.836 928.825C550.247 929.432 557.212 927.837 562.988 922.865C565.825 920.409 568.147 917.414 569.817 914.053C569.275 910.801 568.773 907.391 566.922 904.588Z"/><path fill="#C2D6ED" d="M381.649 932.738C392.194 930.404 408.744 931.402 420.1 931.118C434.647 930.754 449.207 929.981 463.757 929.964C489.338 929.935 514.912 930.849 540.491 930.508C540.038 940.179 542.062 957.562 548.676 965.052C550.02 966.573 551.708 967.592 553.766 967.688C565.478 968.232 598.503 948.999 611.047 943.446C612.328 943.418 613.591 943.45 614.869 943.521C627.231 944.206 658.742 947.526 666.817 957.247C668.088 958.778 668.752 960.462 668.479 962.459C668.116 965.107 665.2 967.352 663.133 968.679C650.598 976.724 624.652 980.97 609.744 983.466C544.782 994.339 479.567 995.811 413.909 991.977C379.314 989.957 344.126 986.613 310.259 979.016C300.873 976.91 279.358 972.05 274.467 963.676C273.487 961.998 273.275 960.287 273.908 958.431C277.056 949.2 309.142 944.704 317.71 941.002C317.851 940.941 317.991 940.876 318.131 940.812C321.967 942.194 326.05 944.764 329.66 946.686C336.986 950.586 344.261 954.58 351.484 958.667C358.919 962.843 366.199 967.362 374.387 969.941C382.797 972.59 398.374 976.212 406.564 971.545C408.226 970.598 409.243 969.013 409.682 967.174C412.554 955.133 397.465 948.904 390.053 942.826C386.922 940.258 384.094 937.064 382.085 933.534C381.935 933.271 381.794 933.004 381.649 932.738Z"/><path fill="#78ACE9" d="M491.671 546.494L492.391 546.813C496.192 553.027 509.666 611.278 512.289 621.976C534.357 712.259 555.759 802.703 576.493 893.301C560.473 907.041 547.993 914.609 526.486 915.177C521.187 905.26 517.381 894.361 513.25 883.921C503.869 861.761 494.645 839.534 485.577 817.244C473.013 787.486 460.192 757.836 447.117 728.298C436.673 705.062 426.369 681.763 416.205 658.402C411.994 648.773 406.227 639.2 403.533 629.016C401.608 621.742 401.602 613.968 401.574 606.489C401.48 580.956 404.097 571.643 417.06 549.496C441.951 557.51 467.421 555.519 491.671 546.494Z"/><path d="M439.192 558.741C439.897 559.144 439.967 559.316 440.362 559.994C439.749 566.059 423.95 589.986 419.406 595.137L418.363 593.772C419.173 589.113 435.454 564.16 439.192 558.741Z"/><path fill="#78ACE9" d="M406.189 643.888C410.927 649.125 419.233 672.35 422.557 679.939L452.761 748.459L405.334 851.792L390.46 884.277C387.967 889.751 385.778 895.733 382.746 900.907C381.787 902.545 380.999 903.207 379.12 903.721C361.492 903.01 344.473 893.107 331.441 881.843C336.3 864.609 342.076 847.671 347.545 830.626L378.975 732.25C383.223 718.548 386.492 704.587 389.953 690.673C393.974 674.511 397.106 658.106 406.189 643.888Z"/><path fill="#FEFEFE" d="M417.2 407.64C417.865 407.612 417.985 407.595 418.748 407.636C439.706 408.773 453.947 424.546 467.387 438.748C469.226 440.69 472.026 443.551 474.868 443.62C476.551 440.299 471.979 430.066 471.342 425.87C470.795 422.273 471.045 418.442 471.131 414.811C480.356 424.37 500.127 448.833 504.308 461.023C505.67 464.992 506.108 469.549 505.044 473.643C502.824 482.182 496.601 489.305 495.688 498.253C494.34 511.455 498.29 525.748 499.124 539.034C498.279 539.593 497.415 540.121 496.533 540.619C472.23 554.341 443.562 554.453 417.251 547C416.258 542.626 415.541 538.172 414.772 533.754C414.968 528.534 417.215 523.212 418.832 518.299C423.003 518.289 427.178 518.102 431.347 517.969C432.145 514.646 432.764 511.295 433.35 507.93C435.283 496.841 441.297 442.039 436.054 434.579L435.462 434.841C433.511 441.549 434.96 462.998 434.691 471.5C434.36 481.937 433.2 492.247 431.797 502.587C407.853 501.768 381.975 496.025 363.301 480.409C370.783 461.118 380.793 441.357 392.853 424.499C399.556 415.129 405.52 409.617 417.2 407.64Z"/><path fill="#5B6374" d="M413.053 255.646C426.668 254.447 435.612 256.958 446.96 264.423C454.522 261.761 462.588 261.862 470.255 264.052C486.214 268.611 495.269 280.255 496.25 296.735C497.057 310.297 494.172 319.624 501.064 332.201C497.853 330.511 494.948 328.42 491.986 326.335C489.339 312.434 489.164 299.388 479.913 287.779C475.397 282.112 467.072 274.844 459.646 274.002C459.252 274.142 458.753 274.121 458.464 274.423C457.228 275.714 456.763 288.578 455.658 291.614C451.648 302.633 443.45 310.648 434.807 318.173C428.692 323.175 417.006 326.293 413.514 332.505C411.632 335.855 411.701 339.931 412.862 343.514C415.115 350.467 421.659 353.968 427.736 357.033C427.356 362.416 426.209 367.759 425.258 373.065C409.897 374.849 391.891 372.71 378.907 363.769C367.36 355.818 360.368 343.355 357.918 329.704C354.939 313.111 358.481 294.93 368.179 281.056C378.697 266.007 395.516 258.819 413.053 255.646Z"/><path fill="#969BA2" d="M367.931 506.214C383.003 514.307 399.641 516.48 416.396 518.112C412.55 532.863 404.86 545.361 397.071 558.288C398.076 567.415 398.88 576.563 398.958 585.752C399.143 607.658 396.639 619.269 405.02 640.62C392.525 659.65 381.056 670.176 360.238 679.512C356.448 681.298 353.317 682.095 349.271 680.619C345.364 679.194 341.38 675.673 339.675 671.853C338.933 670.189 338.768 668.802 339.477 667.076C340.259 666.415 340.487 666.069 341.523 665.843C345.43 664.991 349.828 668.238 352.958 670.225C356.216 667.201 358.917 664.722 363.141 663.093C362.979 661.145 362.74 659.156 362.796 657.199C362.948 651.86 364.669 645.832 368.783 642.178C373.369 638.104 378.507 638.33 384.225 638.574C380.702 632.036 377.224 625.473 373.792 618.887C368.059 607.702 356.547 586.122 354.319 574.506C351.882 561.803 363.683 519.363 367.931 506.214Z"/><path fill="#969BA2" d="M460.608 276.904C465.445 279.022 469.696 281.542 473.577 285.161C476.669 288.043 479.581 291.501 481.55 295.26C488.456 308.447 490.418 332.163 490.963 347.195C491.167 352.798 492.069 365.05 487.766 369.312C481.208 375.807 464.832 375.409 456.792 371.939C453.658 370.587 448.012 365.432 445.559 365.475L445.135 366.623C445.251 367.544 445.362 368.128 445.885 368.924C449.392 374.264 461.87 376.457 467.663 377.314C464.788 391.636 468.042 402.728 468.658 416.737L468.694 417.653C468.693 419.283 468.875 420.988 468.198 422.505C459.808 410.903 453.561 396.714 438.292 392.985C434.527 392.065 430.178 392.704 426.88 390.411C423.459 384.635 427.95 373.749 429.059 367.333C429.763 363.257 430.015 359.121 430.281 354.998C426.084 353.517 422.581 351.87 419.351 348.669C416.612 345.955 414.124 342.103 414.286 338.098C414.635 329.442 424.516 328.309 430.313 324.783C434.813 322.045 439.119 318.644 442.949 315.036C454.224 304.418 460.097 292.397 460.608 276.904Z"/><path d="M472.011 305.195C472.166 305.268 472.334 305.32 472.478 305.414C474.503 306.741 475.408 311.461 476.1 313.717C478.784 312.041 482.16 309.608 485.462 309.935C485.373 312.009 483.006 312.432 483.154 314.719C484.116 315.645 484.883 316.425 485.539 317.612L485.222 318.686C483.486 318.748 481.558 316.654 479.96 315.892C479.023 315.445 478.959 315.318 477.958 315.712C477.158 319.042 479.471 323.313 480.659 326.377C481.375 328.35 482.195 330.666 481.58 332.741C481.047 334.542 479.758 336.346 478.048 337.158C477.137 337.601 476.065 337.558 475.191 337.045C474.041 336.368 473.154 335.112 472.739 333.865C472.183 332.191 471.932 330.529 472.731 328.907C473.838 327.838 475.156 327.734 476.608 327.43L477.336 327.282C480.232 323.887 470.275 313.534 472.011 305.195Z"/><path d="M469.932 312.362L470.724 312.948L470.846 314.175C469.303 317.611 465.485 318.914 463.78 321.78C462.565 323.825 463.878 325.856 461.52 327.733L460.601 327.558C459.375 326.391 459.631 325.955 459.547 324.314C458.019 324.32 456.758 324.437 455.39 323.632L455.353 322.933C456.73 321.71 458.634 321.742 460.39 321.55C463.152 318.011 466.443 315.156 469.932 312.362Z"/><path d="M465.229 341.912C468.832 342.502 472.981 345.156 476.676 346.25C478.725 346.857 482.441 346.976 484.128 348.028C484.719 348.397 484.653 349.17 484.785 349.806C484.676 349.824 484.567 349.84 484.459 349.859C479.419 350.752 472.829 349.446 468.532 346.617C466.512 345.287 465.703 344.28 465.229 341.912Z"/><path d="M423.425 336.241C425.268 336.878 426.916 337.885 428.469 339.063C430.625 340.701 432.087 342.466 432.432 345.18C429.78 344.698 427.453 343.178 425.568 341.271C423.924 339.609 423.395 338.596 423.425 336.241Z"/><path fill="#F8D978" d="M500.264 563.19C502.303 563.612 504.47 564.247 506.544 564.353C517.17 567.783 532.257 569.625 543.62 571.871C541.569 594.389 539.798 616.931 538.307 639.493C537.743 647.287 536.342 683.218 534.15 687.864C533.684 688.851 533.646 688.959 532.595 689.354C531.057 688.005 530.444 685.381 529.891 683.45C526.398 671.267 524.104 658.73 521.078 646.42L500.264 563.19Z"/><path fill="#5B6374" d="M327.901 900.378C331.556 900.137 333.998 910.693 339.605 913.981C346.754 918.172 356.675 915.751 364.198 913.981C372.56 922.581 377.284 933.825 385.517 942.29C393.026 950.011 402.696 952.439 407.578 962.937L395.377 962.45C388.184 961.47 381.133 960.506 374.299 957.911C365.872 954.71 358.126 949.453 350.336 944.984C337.636 937.697 322.049 930.8 311.697 920.388C315.286 911.94 320.227 905.421 327.901 900.378Z"/><path fill="#5B6374" d="M632.921 911.191C637.619 910.689 639.218 911.922 642.781 914.78C620.31 934.242 577.566 946.491 549.824 959.061L548.904 958.598C544.076 951.197 543.438 940.693 542.681 932.086C544.792 931.927 546.91 931.775 549.012 931.525C561.486 930.043 564.178 925.033 571.266 916.315C572.563 914.719 574.223 913.519 576.323 913.341C581.494 912.9 587.204 915.295 592.513 915.31C606.033 915.348 619.533 912.728 632.921 911.191Z"/><path fill="#969BA2" d="M502.032 486.658C511.826 510.79 517.498 537.918 523.485 563.28L523.052 565.196C518.269 567.93 511.493 561.902 506.544 564.353C504.47 564.247 502.303 563.612 500.264 563.19L499.266 560.594C498.461 555.1 496.616 549.879 494.834 544.639C497.313 543.128 499.675 541.611 501.976 539.834C501.038 520.629 494.824 505.633 502.032 486.658Z"/><path fill="#040E41" d="M499.266 560.594C507.387 561.044 515.537 561.404 523.485 563.28L523.052 565.196C518.269 567.93 511.493 561.902 506.544 564.353C504.47 564.247 502.303 563.612 500.264 563.19L499.266 560.594Z"/><path fill="#FEFEFE" d="M362.488 483.397C382.923 499.538 406.085 503.116 431.28 505.118C430.977 507.502 430.698 509.923 430.085 512.251C429.708 513.682 429.306 514.756 428.009 515.511C407.952 515.751 387.061 512.886 369.021 503.693C364.962 501.625 360.21 498.704 358.916 494.034C357.84 490.15 360.581 486.54 362.488 483.397Z"/><path fill="#C2D6ED" d="M545.716 571.278C548.329 572.319 550.952 573.335 553.584 574.325C550.982 588.298 550.428 603.234 549.278 617.422C547.512 640.762 545.503 664.084 543.251 687.382C542.728 688.38 542.501 688.787 541.305 689.108C539.967 689.467 539.344 689.261 538.148 688.761C537.588 687.997 537.48 687.588 537.444 686.636C537.024 675.494 538.765 663.364 539.584 652.224C541.568 625.252 544.179 598.275 545.716 571.278Z"/><path fill="#5B6374" d="M309.852 922.785C321.421 931.769 333.949 938.456 346.577 945.771C355.587 950.991 364.499 956.956 374.299 960.58C380.969 963.047 388.579 964.64 395.683 964.995C398.685 965.145 401.938 964.683 404.887 965.136C406.047 965.315 406.344 965.524 407.15 966.301C407.245 967.798 406.693 968.494 405.901 969.674C397.881 971.816 388.682 970.77 380.685 969.009C377.092 968.218 373.579 967.257 370.21 965.76C360.761 961.559 351.931 955.882 342.861 950.928C333.493 945.811 323.598 941.275 314.677 935.388C312.955 934.252 311.046 933.014 309.984 931.206C308.359 928.439 309.199 925.673 309.852 922.785Z"/><path fill="#FEFEFE" d="M426.766 394.605C432.74 394.368 438.26 395.111 443.645 397.921C457.273 405.032 467.484 424.868 471.81 438.906L464.286 431.166C448.217 414.685 435.661 405.947 412.152 405.455C416.012 399.483 419.918 396.503 426.766 394.605Z"/><path fill="#5B6374" d="M643.263 916.904C643.366 916.925 643.476 916.927 643.574 916.967C644.646 917.404 644.591 917.713 644.916 918.755C644.659 919.77 644.444 920.433 643.806 921.298C636.978 930.554 576.823 957.531 564.817 962.159C560.679 963.754 556.709 964.966 552.342 965.748C551.481 964.613 550.951 963.831 550.514 962.447C551.704 960.81 554.075 959.905 555.893 959.046C577.192 948.978 599.776 941.881 620.928 931.308C628.983 927.281 636.506 922.914 643.263 916.904Z"/><path fill="#FEFEFE" d="M337.326 890.134C347.362 895.84 354.908 900.201 365.89 904.138C364.475 906.899 363.192 909.961 361.003 912.199C354.86 913.763 346.354 914.977 340.671 911.568C335.91 908.713 334.326 903.939 332.939 898.906L337.326 890.134Z"/><path fill="#FEFEFE" d="M469.833 402.696C470.701 403.112 471.412 403.648 472.17 404.236C480.368 410.605 485.341 418.819 486.645 429.161C481.891 424.841 475.746 415.608 470.649 410.267C470.425 407.742 470.107 405.217 469.833 402.696Z"/><path fill="#373965" d="M525.063 565.133C530.536 565.511 536.668 566.746 541.493 569.438C541.037 569.479 540.397 569.557 539.916 569.543C536.426 569.442 527.306 567.603 525.063 565.133Z"/><path fill="#C2D6ED" d="M784.942 634.25C838.374 632.348 899.191 643.698 940.373 680.129C964.293 701.29 977.606 730.432 979.468 762.182C981.471 796.332 971.911 834.248 948.726 860.114C919.534 892.682 869.417 899.728 828.092 901.89C774.228 903.733 708.38 894.121 666.921 856.762C644.504 836.562 635.601 810.69 634.177 781.126C632.501 746.304 642.338 706.466 666.319 680.436C696.513 647.662 741.858 636.155 784.942 634.25Z"/><path fill="#FEFEFE" d="M790.832 637.223C841.906 637.041 898.22 648.191 937.893 682.528C961.009 702.535 974.331 731.101 976.317 761.458C978.447 794.03 969.748 831.494 947.808 856.252C917.166 890.829 867.419 896.551 824.08 898.967C770.76 899.702 708.576 889.954 667.552 852.917C647.678 834.975 638.632 808.83 637.417 782.577C635.802 747.673 644.785 708.704 668.904 682.537C700.111 648.681 746.756 639.137 790.832 637.223Z"/><path fill="#040E41" d="M744.77 676.992C769.345 677.991 793.525 680.716 817.928 683.57C835.68 685.646 858.591 686.25 874.649 694.026C884.595 698.907 892.215 707.512 895.857 717.975C899.344 728.201 898.551 738.851 893.72 748.483C887.484 760.915 878.068 764.959 865.588 769.118C865.578 769.292 865.569 769.466 865.557 769.639L865.492 770.507C865.169 775.391 863.52 779.331 861.605 783.78C874.928 785.705 888.388 787.253 901.777 788.65C907.308 789.227 913.361 788.972 918.769 790.114C920.692 790.521 921.942 791.354 923.429 792.601C923.606 794.055 923.831 795.438 922.978 796.749C922 798.251 920.079 799.078 918.555 799.898C914.761 808.333 910.825 820.999 914.496 830.139C916.486 835.091 927.618 834.705 925.422 840.324C925.1 841.146 924.573 841.623 923.96 842.236C922.207 843.023 920.416 843.725 918.595 844.34C901.942 849.981 883.793 853.631 866.752 858.079C853.385 861.568 838.185 867.293 824.523 868.388C812.522 869.349 787.189 862.194 774.55 859.703L732.008 851.084C725.607 849.795 719.073 848.964 712.741 847.37C709.356 846.518 705.995 845.429 702.877 843.846C694.532 839.549 688.293 832.044 685.592 823.056C682.641 813.405 683.673 802.975 688.457 794.09C693.226 785.173 702.041 777.033 712.326 775.491C722.417 773.978 733.128 778.954 742.767 781.402L799.749 795.509C810.939 798.312 822.604 802.351 834.097 803.373C845.337 804.372 861.206 799.795 872.658 797.872C884.056 795.957 895.681 795.127 906.798 791.807C891.356 789.027 875.461 788.249 859.917 785.827C858.196 788.113 856.144 790.13 853.828 791.811C848.736 795.575 840.126 800.092 833.621 798.918C831.963 798.619 830.549 797.789 829.63 796.355C828.025 793.852 828.77 791.041 829.239 788.319C805.085 784.008 781.369 778.165 757.48 772.649C748.145 770.493 737.892 769.135 728.853 766.706C727.608 766.371 726.712 766.047 725.663 765.309L725.721 764.246C728.128 762.852 731.203 764.138 733.745 764.787C735.904 763.013 738.147 761.091 739.956 758.952C744.212 753.922 744.558 748.99 743.964 742.739C741.989 742.153 739.732 741.546 737.993 740.425C736.782 739.644 735.49 738.375 735.352 736.86C735.237 735.588 735.957 734.493 736.817 733.639C740.987 729.494 748.059 729.459 753.542 729.498C759.426 723.244 765.767 716.688 766.592 707.671C767.357 699.316 763.432 693.48 758.275 687.467C754.903 687.579 747.778 688.709 745.345 686.02C743.277 683.734 744.37 679.73 744.77 676.992Z"/><path fill="#FEFEFE" d="M714.625 777.625C721.532 777.362 733.77 781.584 740.848 783.393L780.872 793.54C796.264 797.316 812.167 800.141 827.368 804.535C819.469 807.127 812.031 809.695 806.087 815.778C799.951 822.126 796.642 830.684 796.911 839.509C797.111 848.713 800.926 856.346 807.506 862.647L807.703 862.924L807.56 863.44C801.13 863.133 794.418 861.333 788.124 860.028L762.49 854.852L731.942 848.763C725.597 847.551 719.041 846.695 712.809 845.02C708.533 843.871 704.089 842.374 700.437 839.824C693.153 834.738 688.288 826.601 686.875 817.864C685.313 808.21 687.855 798.633 693.58 790.771C698.702 783.736 706.016 779.014 714.625 777.625Z"/><path fill="#040E41" d="M715.192 792.142C726.218 792.927 747.342 798.806 758.967 801.585C768.038 803.752 778.376 805.413 787.045 808.744C788.465 809.29 788.825 809.488 789.445 810.885C780.087 810.434 769.992 807.223 760.835 805.059C747.367 801.877 733.7 798.9 720.395 795.112C718.292 794.513 716.315 794.158 715.192 792.142Z"/><path fill="#040E41" d="M713.268 806.187L762.88 817.848C766.793 818.796 770.946 819.142 774.792 820.226C776.759 820.78 778.485 821.649 780.114 822.863L780.241 823.224C775.953 824.402 721.704 810.934 713.228 808.335L713.268 806.187Z"/><path fill="#373965" d="M713.228 808.335C712.178 807.878 711.388 807.432 710.491 806.718C711.417 806.008 712.135 806.213 713.268 806.187L713.228 808.335Z"/><path fill="#FEFEFE" d="M761.496 687.914C777.185 688.851 792.911 690.852 808.553 692.405C823.529 693.892 838.867 694.824 853.654 697.674C864.546 699.773 875.163 703.058 881.61 712.76C886.297 719.801 887.961 728.428 886.229 736.707C884.447 745.389 879.82 752.211 872.42 757.075C866.221 760.005 860.961 760.513 854.174 760.518C852.972 756.147 851.194 752.637 848.851 748.793C841.703 747.527 834.571 745.687 827.468 744.162L786.259 735.501C776.409 733.449 766.616 731.187 756.596 730.135C761.38 722.955 767.948 717.173 768.998 708.091C769.92 700.113 766.286 693.835 761.496 687.914Z"/><path fill="#040E41" d="M773.473 708.16C787.961 709.133 802.527 712.152 816.843 714.539C824.409 715.8 832.281 716.44 839.723 718.287C842.221 718.908 843.899 719.28 845.271 721.556C839.895 721.23 776.108 711.081 774.21 709.891C773.561 709.485 773.633 708.852 773.473 708.16Z"/><path fill="#FEFEFE" d="M817.226 833.715C819.427 827.014 824.473 820.731 830.771 817.458C841.05 812.116 854.913 811.317 866.216 809.107C882.838 805.858 899.524 802.703 916.077 799.124C913.651 805.217 911.833 811.05 910.67 817.508C897.523 820.334 843.762 830.605 836.521 834.919L836.533 835.453C838.38 835.776 839.963 835.759 841.816 835.476C850.061 834.215 858.516 831.625 866.671 829.745L910.248 820.124C911.349 825.611 912.538 830.83 914.742 835.987L866.122 848.321C853.269 851.575 840.391 854.98 827.334 857.329C823.7 855.098 820.937 852.539 818.146 849.329C817.477 848.923 817.697 849.154 817.258 848.488C816.937 848 816.626 847.515 816.291 847.036L815.552 848.422C813.795 843.855 814.086 839.514 814.643 834.785C815.924 834.71 816.171 834.382 817.226 833.715Z"/><path d="M817.226 833.715C816.253 839.334 816.896 843.847 818.146 849.329C817.477 848.923 817.697 849.154 817.258 848.488C816.937 848 816.626 847.515 816.291 847.036L815.552 848.422C813.795 843.855 814.086 839.514 814.643 834.785C815.924 834.71 816.171 834.382 817.226 833.715Z"/><path fill="#FEFEFE" d="M746.545 742.818C779.588 748.301 812.091 757.99 845.271 762.748C845.782 767.505 846.393 772.437 844.746 777.056C843.2 781.39 840.299 783.756 836.213 785.594C822.672 786.588 797.862 779.779 783.926 776.565C768.163 772.842 752.369 769.251 736.545 765.792C738.489 764.009 740.469 762.1 742.138 760.054C746.505 754.698 747.143 749.445 746.545 742.818Z"/><path fill="#78ACE9" d="M922.684 840.903C916.167 843.239 909.247 844.718 902.552 846.454L869.859 854.928C856.258 858.459 841.941 863.406 828.168 865.795C824.56 866.42 821.337 866.688 817.747 865.696C811.032 863.84 805.928 858.499 802.738 852.475C799.007 845.492 798.251 837.299 800.641 829.751C803.166 821.555 808.813 815.243 816.385 811.352C820.038 809.475 823.96 808.246 827.956 807.343C833.421 806.107 839.067 805.938 844.595 805.101C853.754 803.714 862.897 802.02 872.03 800.467C885.709 798.14 899.583 794.329 913.32 792.866C916.508 792.527 919.288 792.433 922.394 793.427C916.193 798.244 908.063 798.37 900.617 799.786C887.155 802.428 873.709 805.145 860.278 807.937C852.759 809.456 845.047 810.481 837.655 812.529C833.716 813.62 829.603 814.964 826.171 817.241C819.941 821.373 816.139 827.541 814.643 834.785C814.086 839.514 813.795 843.855 815.552 848.422C817.547 853.833 821.557 857.158 826.51 859.73C836.936 858.65 847.224 855.427 857.369 852.876L901.427 841.735C906.743 840.34 916.727 836.418 921.771 836.608C922.581 836.638 922.623 836.941 923.14 837.482C923.316 838.894 923.214 839.582 922.684 840.903Z"/><path fill="#78ACE9" d="M746.542 679.414C771.677 679.626 797.258 683.272 822.195 686.236C836.145 687.894 851.169 688.55 864.647 692.569C872.069 694.782 878.931 698.215 884.436 703.745C891.651 710.929 895.684 720.706 895.632 730.887C895.6 740.808 891.632 750.311 884.6 757.31C877.719 764.08 869.849 766.56 860.352 766.462C858.928 766.167 857.324 765.931 855.971 765.413C854.884 764.997 854.504 764.452 854.069 763.434C855.556 762.128 857.869 762.48 859.735 762.509C866.906 762.621 874.452 759.118 879.525 754.112C885.793 747.926 889.285 738.898 889.247 730.128C889.159 721.178 885.485 712.636 879.048 706.418C875.247 702.756 871.108 700.383 866.11 698.746C847.758 692.735 827.126 692.146 808.047 690.151C787.365 687.987 767.26 684.913 746.387 685.475L746.542 679.414Z"/><path fill="#FEFEFE" d="M845.626 760.63C830.339 756.429 742.375 741.254 737.205 737.186L737.199 736.052C737.881 735.16 738.525 734.627 739.499 734.091C742.882 732.23 746.507 731.873 750.298 732.014C764.471 732.54 779.03 736.668 792.907 739.447C811.125 743.095 829.834 746.02 847.597 751.509C849.056 753.89 850.116 756.343 851.202 758.907C851.097 760.518 851.253 762.692 850.044 763.905C849.476 764.474 848.746 764.956 848.091 765.422C847.555 763.738 846.502 762.164 845.626 760.63Z"/><path fill="#78ACE9" d="M851.202 758.907C851.29 761.445 851.07 763.894 852.996 765.842C855.956 768.836 863.29 767.335 863.249 771.975C863.195 778.075 858.105 785 853.657 788.913C849.419 792.641 841.376 797.57 835.616 797.333C834.263 797.278 832.938 796.823 831.998 795.804C830.791 794.495 831.051 792.975 831.321 791.351C831.477 790.462 831.643 789.575 831.821 788.691C837.137 787.853 841.855 786.177 845.121 781.585C848.496 776.841 848.762 770.995 848.091 765.422C848.746 764.956 849.476 764.474 850.044 763.905C851.253 762.692 851.097 760.518 851.202 758.907Z"/><path fill="#C2D6ED" d="M240.851 49.717C244.512 48.9899 249.394 49.3104 253.145 49.4408C285.728 50.573 316.483 63.7876 338.598 87.8492C363.094 114.5 375.175 152.506 373.554 188.425C371.677 230.025 332.536 267.594 303.531 294.001C306.749 300.43 310.288 306.884 314.386 312.795C317.493 317.277 325.364 325.157 326.952 329.778L326.563 330.552C323.328 331.658 318.849 330.591 315.501 330.14C298.165 327.806 283.125 322.915 267.118 315.949C251.943 324.799 235.047 329.88 218.127 334.238C211.031 335.748 203.956 337.051 196.733 337.792C162.069 341.346 125.998 332.992 98.7542 310.584C70.3162 287.194 55.1922 249.643 51.8478 213.618C48.7332 180.069 61.113 149.635 82.381 124.154C120.379 78.6302 183.159 54.95 240.851 49.717ZM267.995 312.452C286.08 321.42 301.031 325.277 320.886 327.664C312.75 317.455 304.085 305.084 299.978 292.659C306.475 286.644 313.263 280.929 319.584 274.729C342.806 251.953 369.461 219.731 370.724 186.063C372 152.068 358.722 113.487 335.33 88.6783C311.987 63.923 281.361 53.5803 247.984 52.7228C246.791 52.6922 245.551 52.5946 244.362 52.7046C189.304 55.7325 125.835 80.2998 88.524 122.074C67.4422 145.678 52.7855 175.949 54.6081 208.191C56.6014 243.452 71.2934 281.749 97.9641 305.48C123.665 328.348 158.391 336.928 192.145 334.783C199.779 334.298 207.25 333.211 214.75 331.725C233.067 328.333 251.574 321.125 267.995 312.452Z"/><path fill="#F8D978" d="M127.106 138.155C132.887 141.759 138.638 145.397 145.199 147.411C179.51 157.94 217.216 127.711 251.33 124.006C266.867 122.318 279.444 127.361 291.432 136.939L291.305 145.092C290.78 182.86 291.081 220.665 290.986 258.44C282.369 252.881 273.191 247.326 262.701 246.434C257.397 246.542 252.222 246.878 246.986 247.76C222.785 252.392 200.917 267.857 176.281 272.43C173.697 272.91 170.877 273.587 168.261 273.526C167.265 273.71 166.258 273.827 165.246 273.876C150.984 274.498 137.732 270.435 127.249 260.572C126.333 246.065 127.066 231.229 127.053 216.691C126.886 190.513 126.903 164.333 127.106 138.155Z"/><path fill="#78ACE9" d="M127.106 138.155C132.887 141.759 138.638 145.397 145.199 147.411C179.51 157.94 217.216 127.711 251.33 124.006C266.867 122.318 279.444 127.361 291.432 136.939L291.305 145.092L290.435 145.385C290.13 148.245 290.265 151.507 289.565 154.278C289.226 167.557 289.609 180.843 289.173 194.122C275.939 185.136 263.324 181.019 247.296 184.077C215.357 190.171 167.783 224.923 136.882 204.099C134.437 202.451 132.176 200.484 129.912 198.598C129.548 218.974 129.54 239.355 129.887 259.731C137.309 265.332 144.076 268.972 153.196 270.914L150.647 271.201L150.381 271.62C156.119 273.684 162.606 271.67 168.261 273.526C167.265 273.71 166.258 273.827 165.246 273.876C150.984 274.498 137.732 270.435 127.249 260.572C126.333 246.065 127.066 231.229 127.053 216.691C126.886 190.513 126.903 164.333 127.106 138.155Z"/><defs><linearGradient id="gradient_0" gradientUnits="userSpaceOnUse" x1="203.70241" y1="128.11009" x2="214.12039" y2="266.04376"><stop offset="0" stop-color="black"/><stop offset="1" stop-color="#020120"/></linearGradient></defs><path fill="url(#gradient_0)" d="M127.106 138.155C132.887 141.759 138.638 145.397 145.199 147.411C179.51 157.94 217.216 127.711 251.33 124.006C266.867 122.318 279.444 127.361 291.432 136.939L291.305 145.092L290.435 145.385C290.13 148.245 290.265 151.507 289.565 154.278C289.497 148.922 289.667 143.435 289.011 138.116C278.514 129.221 266.694 125.321 252.971 126.384C217.261 129.15 181.077 160.365 144.778 149.869C139.261 148.274 134.532 145.67 129.607 142.767L129.576 177.442C129.571 184.418 129.21 191.658 129.912 198.598C129.548 218.974 129.54 239.355 129.887 259.731C137.309 265.332 144.076 268.972 153.196 270.914L150.647 271.201L150.381 271.62C156.119 273.684 162.606 271.67 168.261 273.526C167.265 273.71 166.258 273.827 165.246 273.876C150.984 274.498 137.732 270.435 127.249 260.572C126.333 246.065 127.066 231.229 127.053 216.691C126.886 190.513 126.903 164.333 127.106 138.155Z"/><path d="M289.565 154.278C290.265 151.507 290.13 148.245 290.435 145.385L291.305 145.092C290.78 182.86 291.081 220.665 290.986 258.44C282.369 252.881 273.191 247.326 262.701 246.434L260.625 245.251C261.744 245.257 262.587 245.197 263.663 244.858L264.628 244.545C272.653 244.098 281.909 250.048 288.66 253.782C289.963 234.052 289.003 213.915 289.173 194.122C289.609 180.843 289.226 167.557 289.565 154.278Z"/><path d="M153.196 270.914C177.378 274.498 201.343 261.666 223.107 252.803C229.449 250.22 235.995 247.129 242.886 246.519C243.771 246.985 244.347 247.175 245.325 247.246C246.542 247.334 246.016 247.159 246.986 247.76C222.785 252.392 200.917 267.857 176.281 272.43C173.697 272.91 170.877 273.587 168.261 273.526C162.606 271.67 156.119 273.684 150.381 271.62L150.647 271.201L153.196 270.914Z"/><path fill="#040E41" d="M242.886 246.519C249.505 244.363 257.75 243.381 264.628 244.545L263.663 244.858C262.587 245.197 261.744 245.257 260.625 245.251L262.701 246.434C257.397 246.542 252.222 246.878 246.986 247.76C246.016 247.159 246.542 247.334 245.325 247.246C244.347 247.175 243.771 246.985 242.886 246.519Z"/><path fill="#C2D6ED" d="M814.746 46.2831C827.897 45.5698 841.501 46.1705 854.566 47.8484C893.094 52.7967 930.2 68.6064 954.366 100.155C975.84 128.19 983.956 166.706 979.143 201.415C974.818 232.609 959.628 262.296 934.157 281.382C899.426 307.408 844.441 313.695 802.383 307.666C784.241 306.505 750.253 297.728 734.389 289.102C725.635 296.843 715.142 301.715 703.52 303.096C700.917 303.405 696.518 303.992 694.448 302.368C693.381 297.562 703.898 277.008 706.357 271.646C705.659 271.096 704.976 270.527 704.309 269.94C678.438 246.846 662.112 218.335 660.513 183.254C659.055 151.262 669.427 117.225 691.202 93.4087C721.975 59.7503 770.747 48.0991 814.746 46.2831Z"/><path fill="#FEFEFE" d="M814.293 49.7129C826.302 48.9111 839.21 49.6935 851.152 51.1237C888.836 55.6366 925.959 70.1747 949.999 100.809C971.245 127.97 980.722 162.51 976.313 196.71C972.601 227.458 959.057 257.735 934.181 277.031C897.241 305.685 846.277 309.361 801.441 303.849C777.916 301.158 754.959 294.789 733.411 284.974C723.072 295.161 712.182 298.844 697.975 300.337C701.375 290.113 706.555 280.457 710.241 270.296C707.861 268.251 705.431 266.265 703.059 264.209C679.763 243.98 665.622 215.202 663.844 184.4C661.812 151.894 672.703 119.901 694.144 95.384C723.79 61.9335 771.705 52.3158 814.293 49.7129Z"/><path fill="#040E41" d="M779.93 82.586C789.683 82.6286 803.8 87.7848 813.433 90.4972L859.509 103.628C873.995 107.785 889.358 110.993 903.346 116.572C907.786 118.343 908.996 121.039 910.759 125.218C909.363 132.696 907.227 140.097 905.376 147.479L895.963 184.95L884.395 229.964C882.166 238.585 880.173 247.362 877.543 255.861C876.734 258.476 875.768 261.959 873.941 264.038C870.706 267.72 865.793 268.349 861.192 268.623C858.753 268.454 856.235 267.582 853.869 266.968C852.856 267.924 851.507 269.476 850.144 269.87C848.145 270.449 844.862 269.262 842.88 268.724C836.192 266.908 829.63 264.501 823.003 262.461L782.53 250.215C770.972 246.738 754.078 243.098 743.584 238.169C739.294 236.153 735.742 232.589 734.23 228.051C733.187 224.921 733.171 221.791 733.752 218.581C735.847 206.997 739.473 195.629 742.492 184.261L753.91 139.54C756.537 129.31 762.872 97.7885 766.913 90.3604C769.502 85.6033 775.057 83.8853 779.93 82.586Z"/><path fill="#FEFEFE" d="M782.823 85.4447C783.47 85.3399 783.471 85.3174 784.244 85.3247C791.405 85.393 810.62 92.332 818.7 94.6002C836.567 99.4394 854.396 104.415 872.186 109.528C881.27 112.161 890.561 114.643 899.427 117.923C902.28 118.979 905.703 120.39 907.849 122.577C908.42 132.076 903.974 143.572 901.604 152.791L893 186.31C887.125 209.184 881.697 232.308 875.162 254.996C873.6 260.422 872.078 262.988 867.088 265.735C864.053 266.272 861.398 266.053 858.403 265.418C842.86 262.119 827.588 256.211 812.453 251.372C795.43 245.928 778.184 241.131 761.03 236.122C756.348 234.754 745.701 232.047 743.349 227.316C741.985 224.574 741.946 221.68 742.428 218.713C744.023 208.901 747.121 199.155 749.6 189.527C754.323 170.997 759.163 152.496 764.119 134.026C767.609 120.908 769.718 106.68 774.334 93.9736C776.111 89.0826 778.284 87.5991 782.823 85.4447Z"/><path fill="#F8D978" d="M787.19 112.688C787.739 111.314 787.805 110.517 789.07 109.702C798.877 110.96 815.385 116.562 825.116 119.81C820.89 137.804 816.197 155.685 811.041 173.435C798.841 169.78 786.61 165.704 774.126 163.127C776.896 152.98 779.863 142.841 782.141 132.571C783.813 126.076 786.211 119.296 787.19 112.688Z"/><path fill="#040E41" d="M787.19 112.688C787.739 111.314 787.805 110.517 789.07 109.702C798.877 110.96 815.385 116.562 825.116 119.81C820.89 137.804 816.197 155.685 811.041 173.435C798.841 169.78 786.61 165.704 774.126 163.127C776.896 152.98 779.863 142.841 782.141 132.571L784.387 133.352L777.067 160.972C787.766 164.021 798.43 167.424 809.275 169.913C813.427 153.734 817.797 137.612 822.383 121.551C811.524 118.847 800.577 116.421 790.241 112.044L787.19 112.688Z"/><path d="M787.19 112.688L790.241 112.044C788.696 119.255 786.435 126.273 784.387 133.352L782.141 132.571C783.813 126.076 786.211 119.296 787.19 112.688Z"/><path d="M795.755 139.49C798.203 138.713 800.881 139.321 802.753 141.079C804.626 142.837 805.4 145.471 804.778 147.963C804.156 150.456 802.234 152.416 799.755 153.088C796.034 154.097 792.189 151.946 791.101 148.247C790.012 144.548 792.08 140.657 795.755 139.49Z"/><path fill="#F8D978" d="M796.301 140.718C799.192 139.87 802.234 141.476 803.163 144.343C804.093 147.21 802.572 150.295 799.732 151.304C797.823 151.983 795.696 151.57 794.179 150.228C792.662 148.885 791.995 146.825 792.436 144.847C792.877 142.87 794.357 141.289 796.301 140.718Z"/><path d="M799.899 128.38C800.734 128.482 801.744 128.659 802.513 128.994C803.791 129.551 804.161 130.372 804.731 131.562C804.718 134.73 803.367 136.292 801.429 138.658C799.85 138.45 798.136 137.734 797.172 136.393C796.55 135.526 796.434 134.539 796.533 133.512C796.774 131.039 798.129 129.912 799.899 128.38Z"/><path fill="#F8D978" d="M799.712 129.624C800.994 130.275 801.547 130.532 802.267 131.845C802.327 133.631 801.439 134.757 800.533 136.207C800.387 136.165 800.232 136.147 800.095 136.081C798.893 135.5 798.658 135.099 798.062 133.972C798.113 132.13 798.743 131.161 799.712 129.624Z"/><path fill="#040E41" d="M763.175 211.556C768.325 211.911 854.855 237.581 858.944 240.31C859.601 240.748 859.564 241.643 859.735 242.373C856.522 241.848 853.299 241.009 850.164 240.142C837.232 236.565 824.588 231.961 811.689 228.241C801.772 225.422 791.869 222.549 781.983 219.623C776.899 218.085 771.336 216.673 766.498 214.475C764.613 213.619 764.195 213.356 763.175 211.556Z"/><path fill="#040E41" d="M769.105 185.08C771.207 185.276 773.211 185.707 775.248 186.245C794.085 191.22 812.728 197.61 831.415 203.179L853.139 209.542C856.784 210.607 860.791 211.478 864.269 212.977C865.871 213.667 866.371 214.078 867.252 215.579C860.811 215.243 779.155 191.194 771.243 187.508C769.896 186.881 769.607 186.441 769.105 185.08Z"/><path fill="#040E41" d="M766.671 198.567C768 198.71 769.273 198.937 770.569 199.258C789.858 204.029 809.003 210.245 828.021 215.999C837.913 218.992 851.767 222.317 860.914 226.537C862.366 227.207 862.559 227.549 863.355 228.879C854.638 227.935 843.25 223.571 834.641 221.01C815.02 215.18 795.436 209.223 775.892 203.14C772.868 202.181 768.155 201.428 766.671 198.567Z"/><path fill="#040E41" d="M834.674 138.086C835.217 138.137 835.759 138.207 836.297 138.302C842.642 139.423 879.351 149.566 882.118 153.613C875.946 154.161 845.963 144.386 838.995 141.621C836.822 140.759 835.65 140.32 834.674 138.086Z"/><path fill="#040E41" d="M838.136 125.068C839.158 125.03 840.057 125.044 841.067 125.239C848.371 126.647 883.714 135.395 886.658 139.724C885.763 139.784 884.911 139.749 884.024 139.616C877.444 138.627 840.927 128.924 838.136 125.068Z"/><path fill="#040E41" d="M828.827 161.073C840.041 162.595 859.228 168.766 870.009 172.617C872.181 173.392 875.6 174.254 876.647 176.451C869.003 176.386 838.983 166.866 831.435 163.521C829.907 162.844 829.438 162.648 828.827 161.073Z"/><path fill="#040E41" d="M825.65 175.538C825.782 175.534 825.915 175.522 826.048 175.526C831.021 175.67 870.865 187.583 873.616 190.554C868.435 191.894 841.885 182.778 835.87 180.865C832.545 179.807 827.319 178.755 825.65 175.538Z"/><path fill="#78ACE9" d="M775.16 86.3655L775.481 86.4205C775.908 87.0532 772.261 92.6618 771.706 94.0639C769.497 99.6475 768.582 105.784 767.238 111.621C765.388 119.529 763.455 127.418 761.44 135.285L747.259 189.163C745.159 197.093 742.71 204.993 740.881 212.985C740.135 216.247 739.302 219.904 739.603 223.261C739.911 226.69 741.493 229.841 744.307 231.883C751.774 237.303 772.684 241.908 782.403 244.841C797.312 249.407 812.246 253.89 827.206 258.288C833.307 260.03 845.758 262.396 850.501 266.197L850.531 267.049L849.384 267.858C843.523 266.501 837.779 264.411 832.021 262.656L800.961 253.313L767.557 243.284C761.395 241.437 755.04 239.824 749.029 237.532C745.942 236.355 740.56 234.229 738.607 231.523C736.411 228.48 735.174 224.073 735.757 220.349C736.904 213.02 739.431 205.516 741.334 198.33C744.464 186.411 747.518 174.473 750.495 162.516L762.126 116.276C763.972 108.929 765.306 100.583 768.208 93.6136C769.568 90.3454 772.379 88.3467 775.16 86.3655Z"/><path fill="#C2D6ED" d="M689.861 344.25C700.301 343.175 711.37 343.976 721.766 345.385C758.047 350.301 794.964 369.097 817.261 398.494C837.004 424.523 842.536 458.403 838.24 490.24C833.926 522.215 819.842 550.364 793.794 570.052C767.451 589.963 731.942 599.132 699.169 598.465C691.583 598.311 684.124 597.344 676.622 596.3C665.479 594.407 654.563 591.361 644.049 587.212C611.239 573.95 582.536 547.162 568.665 514.388C555.758 483.893 557.765 455.292 570.051 425.191C563.387 414.014 554.204 405.632 546.354 395.511C545.459 394.358 544.534 393.527 544.545 392.03C545.146 391.378 545.272 391.097 546.147 390.795C552.592 388.572 577.056 397.262 583.636 400.25C585.408 397.984 587.216 395.747 589.059 393.538C615.257 362.298 649.982 347.679 689.861 344.25Z"/><path fill="#FEFEFE" d="M695.56 347.241C705.983 347.301 716.215 347.875 726.501 349.614C761.052 355.454 796.579 375.047 816.966 403.943C835.678 430.464 839.379 464.744 833.964 496.096C828.803 525.982 814.139 551.805 789.117 569.357C756.252 592.411 712.504 599.195 673.383 592.425C663.743 590.346 654.291 587.477 645.122 583.847C612.847 570.874 585.177 545.035 571.7 512.779C558.897 482.135 561.709 454.822 573.983 424.736C567.33 413.253 557.575 404.762 550.062 394.007C562.336 396.041 573.427 399.684 584.747 404.774C588.019 399.814 591.687 395.128 595.716 390.761C621.243 363.019 658.427 348.878 695.56 347.241Z"/><path fill="#040E41" d="M770.079 392.21C772.127 393.142 773.445 394.455 774.434 396.476C779.487 406.799 776.379 427.344 772.92 437.888C768.383 451.717 756.301 457.525 744.155 463.716C740.508 475.407 732.364 483.556 725.828 493.49C714.423 510.824 703.338 528.146 691.33 545.099C685.905 552.758 680.648 560.704 674.292 567.634L669.907 565.481C667 563.867 664.194 562.002 661.366 560.249L692.896 510.058C699.059 500.398 705.736 491.002 711.652 481.195C714.084 477.166 714.757 472.48 717.129 468.559C720.05 463.731 725.597 460.815 727.728 455.367C729.705 450.312 729.457 441.649 731.115 435.661C735.891 418.412 744.884 416.303 758.88 408.184C765.558 404.311 768.161 399.392 770.079 392.21Z"/><path fill="#F8D978" d="M733.534 459.745C732.607 459.628 732.282 459.796 731.621 459.037C729.838 456.987 730.559 453.181 730.888 450.669C732.39 439.181 735.224 426.053 745.011 418.664C755.579 410.686 765.506 410.803 771.975 397.109C775.959 410.038 775.262 428.522 768.979 440.64C763.025 452.124 750.473 455.808 740.533 462.808C738.752 461.991 736.994 461.291 735.528 459.954L733.534 459.745Z"/><defs><linearGradient id="gradient_1" gradientUnits="userSpaceOnUse" x1="748.44666" y1="438.96762" x2="745.15533" y2="436.75836"><stop offset="0" stop-color="#1D2F42"/><stop offset="1" stop-color="#001548"/></linearGradient></defs><path fill="url(#gradient_1)" d="M733.534 459.745C739.276 442.259 749.856 427.061 763.409 414.675C753.521 429.42 742.206 443.384 735.528 459.954L733.534 459.745Z"/><path fill="#F8D978" d="M717.656 476.253C721.466 478.651 725.398 480.886 729.269 483.187C718.093 499.809 707.522 516.784 696.219 533.347C692.493 538.807 688.949 544.424 684.906 549.655C684.614 549.94 684.1 550.19 683.749 550.408C680.62 549.57 677.071 546.573 674.29 544.822C682.929 531.737 690.837 518.179 699.246 504.948C705.349 495.345 711.921 486.091 717.656 476.253Z"/><path fill="#FEFEFE" d="M728.829 459.316C732.518 462.24 736.297 463.821 740.612 465.583C739.407 468.92 737.282 474.026 734.61 476.399L721.287 469.353C723.667 465.866 726.106 462.544 728.829 459.316Z"/><path fill="#FEFEFE" d="M672.617 547.052C675.686 549.046 678.766 550.936 681.968 552.708L673.892 564.197C671.797 564.443 667.039 560.847 665.174 559.715C667.465 555.387 670.073 551.234 672.617 547.052Z"/><path fill="#F8D978" d="M717.833 470.78C721.779 471.38 730.393 476.047 732.983 479.014C733.653 479.782 733.382 480.235 733.347 481.21C729.835 480.635 725.014 478.012 722.08 476.013C719.867 474.505 718.339 473.499 717.833 470.78Z"/><path fill="#C2D6ED" d="M917.267 364.29C937.397 361.99 955.588 376.426 957.921 396.552C960.255 416.679 945.85 434.893 925.728 437.261C905.557 439.634 887.29 425.187 884.951 405.013C882.611 384.839 897.089 366.596 917.267 364.29ZM924.235 434.242C942.604 432.685 956.274 416.595 954.841 398.216C953.409 379.836 937.412 366.058 919.023 367.366C900.458 368.687 886.519 384.872 887.965 403.428C889.411 421.983 905.689 435.813 924.235 434.242Z"/><path fill="#C2D6ED" d="M199.994 447.213C200.418 447.166 200.846 447.146 201.273 447.131C214.442 446.659 228.592 450.432 238.337 459.665C262.029 482.113 237.9 522.596 225.489 544.831C219.899 554.846 214.129 564.809 209.114 575.128C201.357 591.092 195.797 607.437 192.523 624.881C182.69 677.277 194.633 739.155 221.793 784.872C225.095 790.46 228.715 795.854 232.634 801.027C235.026 804.136 238.082 807.174 240.151 810.473C240.686 811.326 240.835 811.742 240.869 812.725C240.229 813.245 240.338 813.423 239.638 813.292C236.094 812.626 229.017 802.067 226.68 798.762C193.966 752.494 179.615 684.509 188.557 628.753C191.597 610.345 197.272 592.471 205.407 575.681C217.394 550.839 240.447 519.423 244.642 492.694C246.054 483.698 244.722 473.569 239.272 466.09C232.721 457.099 222.253 452.529 211.494 450.936C187.43 447.371 161.797 459.312 142.926 473.246C90.3213 512.087 57.7913 577.814 48.1202 641.516C42.1853 679.777 46.6892 718.929 61.1567 754.843C90.2478 825.813 153.836 874.268 224.673 899.376C237.143 903.81 249.806 907.681 262.623 910.978C269.562 912.741 277.755 913.473 284.286 916.356C285.575 916.925 285.858 916.944 286.352 918.238L285.899 918.93C285.442 919.04 285.253 919.104 284.812 919.149C278.349 919.811 266.855 915.61 260.334 913.881C211.179 900.844 163.088 879.744 124.144 846.485C79.2856 808.176 47.9481 753.957 43.3091 694.591C37.9735 626.311 62.5648 554.155 107.049 502.216C130.525 474.806 162.84 450.03 199.994 447.213Z"/><path fill="#C2D6ED" d="M577.93 88.5795C580.018 88.3995 582.12 88.6891 584.081 89.4269C587.019 90.502 589.028 92.434 590.192 95.3492C593.183 102.841 589.625 110.852 586.491 117.627C593.335 120.414 600.93 122.851 604.149 130.217C605.239 132.713 605.46 135.392 604.429 137.945C603.151 141.106 600.257 143.475 597.128 144.678C590.469 147.238 583.743 144.597 577.595 141.977C577.255 143.081 576.88 144.173 576.47 145.252C573.978 151.702 571.091 156.556 564.535 159.487C561.763 159.816 559.194 159.798 556.525 158.862C553.953 157.959 552.126 156.292 550.985 153.815C547.647 146.567 551.901 138.376 554.268 131.468L553.313 131.1C547.246 128.754 540.459 125.72 537.834 119.269C536.667 116.401 536.648 113.003 537.864 110.149C539.066 107.325 541.401 105.253 544.262 104.193C550.784 101.776 558.02 104.675 563.954 107.433C565.146 103.281 566.368 98.7279 568.636 95.0253C570.955 91.2418 573.677 89.531 577.93 88.5795ZM565.265 111.718C558.893 108.358 553.383 106.188 546.043 106.527L542.258 108.77C540.71 111.391 539.27 114.241 539.95 117.385C540.48 119.835 542.571 121.496 544.625 122.701C548.049 124.71 556.429 127.079 557.201 131.487C558.252 137.488 548.97 147.871 554.828 153.827C556.635 155.664 560.767 156.076 563.196 155.823C563.719 155.769 564.236 155.665 564.754 155.571C572.508 150.997 572.395 144.039 576.288 136.923C581.166 140.274 587.267 143.764 593.399 142.703C596.261 142.208 599.228 139.972 600.906 137.65C601.817 136.388 602.422 134.944 602.141 133.354C601.508 129.774 597.398 126.673 594.45 125.029C592.173 123.759 584.797 121.115 584.114 118.808C582.109 112.035 593.871 99.3575 584.757 93.9404C582.549 92.6283 579.989 92.0595 577.436 92.0687C572.993 93.976 570.875 97.4213 569.136 101.789C567.827 105.077 566.775 108.52 565.265 111.718Z"/><path fill="#C2D6ED" d="M99.2469 902.152C102.302 902.53 104.69 903.295 106.762 905.702C111.374 911.061 111.1 920.98 110.711 927.738C116.538 927.971 122.324 928.583 127.087 932.312C129.779 934.419 131.925 937.473 132.183 940.962C132.397 943.872 131.31 946.628 129.336 948.75C124.042 954.441 115.136 954.397 107.961 954.495C106.63 958.844 105.22 963.521 102.737 967.364C99.8942 971.763 96.6733 973.585 91.7141 974.686C88.4829 973.873 86.2782 973.176 84.0678 970.574C79.5733 965.283 79.8804 956.169 80.3541 949.621C71.4884 947.774 64.7639 945.491 59.553 937.562C59.492 936.251 59.4664 934.92 59.5231 933.609C59.644 930.813 61.0334 928.124 63.1191 926.267C68.3002 921.655 77.3556 922.393 83.7889 922.948C84.8181 917.95 86.0097 912.751 88.9604 908.492C91.5459 904.761 94.8418 902.909 99.2469 902.152Z"/><path fill="#FEFEFE" d="M98.0704 905.46C100.375 905.468 102.192 906.174 103.802 907.858C108.689 912.966 107.525 923.594 107.262 930.136C113.274 930.814 120.315 931.833 125.109 935.809C126.879 937.276 128.418 939.314 128.533 941.693C128.624 943.558 127.767 945.319 126.445 946.597C121.149 951.716 112.27 950.692 105.508 950.385C104.435 954.139 103.48 958.07 101.999 961.681C100.034 966.473 97.2591 969.247 92.5305 971.243C90.1838 971.006 88.2276 970.209 86.6758 968.365C82.2827 963.145 83.544 953.648 84.0563 947.393C77.8718 946.121 71.2227 944.669 66.338 940.375C64.4244 938.693 62.694 936.285 62.6709 933.639C62.6545 931.764 63.5224 930.204 64.9077 929.004C70.0344 924.564 79.9302 925.89 86.1625 926.54C88.4591 918.446 90.5611 910.279 98.0704 905.46Z"/><path fill="#C2D6ED" d="M948.676 918.12C951.242 918.17 953.759 918.781 956.003 920.038C959.749 922.135 962.074 925.903 963.021 930.023C963.825 933.367 963.241 936.894 961.402 939.801C955.84 948.473 921.16 964.703 910.622 966.93C907.775 967.109 904.846 966.583 902.453 964.971C899.163 962.756 896.594 959.433 895.842 955.499C895.083 951.438 896.038 947.245 898.479 943.913C903.485 937.105 940.158 919.457 948.676 918.12Z"/><path fill="#FEFEFE" d="M947.971 921.531C949.693 921.538 951.293 921.568 952.917 922.207C955.744 923.321 957.886 925.714 959.05 928.485C960.185 931.186 960.47 934.395 959.285 937.13C955.963 944.801 920.793 959.877 911.771 963.753C909.657 963.722 907.45 963.718 905.457 962.934C902.955 961.95 901.096 959.909 900.051 957.458C898.741 954.384 898.628 950.65 900.064 947.598C903.171 940.991 940.144 924.114 947.971 921.531Z"/><path fill="#C2D6ED" d="M910.623 531.083C914.087 530.982 917.19 531.432 920.281 533.094C924.042 535.116 927.058 538.616 928.186 542.763C929.176 546.463 928.636 550.407 926.687 553.705C922.193 561.311 899.762 583.765 892.123 588.751C890.78 589.628 889.338 590.097 887.804 590.521C885.441 590.523 883.058 590.104 880.886 589.164C876.472 587.252 872.563 583.3 870.831 578.79C869.685 575.806 869.629 571.915 871.066 569.011C873.388 564.321 899.51 538.191 904.889 534.046C906.697 532.653 908.47 531.81 910.623 531.083Z"/><path fill="#FEFEFE" d="M890.983 552.333C896.946 554.453 904.39 563.754 908.651 568.389C902.244 574.125 896.852 581.347 889.753 586.244C888.561 586.893 887.375 587.352 886.001 587.365C882.993 587.395 879.798 585.339 877.764 583.276C875.413 580.892 873.451 577.57 873.57 574.115C873.844 566.114 885.572 557.282 890.983 552.333Z"/><path fill="#FEFEFE" d="M910.644 535.025C912.022 534.962 913.371 534.953 914.734 535.208C918.002 535.819 921.516 537.456 923.272 540.404C924.787 542.948 925.095 546.251 924.389 549.097C923.075 554.388 916.729 561.901 911.933 564.539C911.001 565.052 911.449 564.972 910.392 564.67C904.88 559.747 899.786 554.377 894.214 549.504C899.255 543.822 903.692 538.456 910.644 535.025Z"/><path fill="#C2D6ED" d="M430.174 56.1379C443.029 54.0276 455.158 62.7441 457.258 75.6008C459.357 88.4575 450.631 100.58 437.773 102.669C424.929 104.755 412.824 96.0411 410.727 83.1996C408.63 70.358 417.334 58.2457 430.174 56.1379ZM437.756 99.5369C448.922 97.4849 456.295 86.749 454.201 75.5904C452.107 64.4318 441.343 57.0995 430.193 59.2356C419.101 61.3604 411.816 72.0543 413.899 83.1536C415.982 94.2529 426.649 101.578 437.756 99.5369Z"/><path fill="#C2D6ED" d="M88.3767 361.587C89.9482 361.496 91.5241 361.658 93.0441 362.067C95.6139 362.765 97.6327 364.771 98.8508 367.077C103.665 376.192 97.1324 397.712 93.9171 407.579C93.138 409.969 91.9592 413.909 89.6134 415.107C83.0683 415.359 74.0964 409.936 68.1698 407.197C62.3528 404.184 55.9722 401.054 51.9963 395.635C50.0492 392.981 48.702 389.398 49.3411 386.073C49.7262 384.07 50.8989 382.492 52.5769 381.366C58.4142 377.449 66.6231 379.034 73.0237 380.466C74.0172 377.341 75.0003 374.037 76.545 371.133C79.2328 366.079 82.9535 363.239 88.3767 361.587ZM68.4502 403.464C75.1215 406.834 81.6886 409.719 88.8347 411.986C92.2544 401.696 100.787 378.989 96.1176 369.356C95.2335 367.532 93.6609 365.904 91.685 365.298C90.3693 364.895 88.8978 364.997 87.5452 365.083C83.3263 366.992 80.9423 369.127 79.2545 373.524C78.1255 376.466 77.5326 381.568 74.3827 383.073C69.2513 385.523 56.9566 377.048 53.0337 385.426C52.1512 387.311 52.3547 389.14 53.1415 391.024C55.861 397.537 62.6116 400.402 68.4502 403.464Z"/><path fill="#C2D6ED" d="M291.463 549.149C296.871 548.458 303.16 549.591 307.783 552.463C314.215 556.46 317.463 564.104 317.644 571.468C317.982 585.247 310.954 598.772 305.337 610.966C292.848 638.079 281.941 667.442 286.936 697.819C288.703 708.56 291.752 719.449 297.117 728.965C299.714 733.572 304.102 738.377 305.36 743.495L304.771 744.357C304.028 744.511 303.608 744.817 302.927 744.363C298.223 741.235 291.586 726.402 289.582 720.985C262.415 647.565 323.071 596.288 313.218 565.366C311.711 560.636 308.531 556.599 304.046 554.383C297.642 551.219 290.477 551.961 283.972 554.324C267.843 560.184 257.192 575.73 250.189 590.633C239.479 612.862 237.413 638.275 240.943 662.442C247.138 704.844 272.217 744.482 306.308 769.849C308.117 771.196 311.118 772.977 311.464 775.361L310.811 776.119C308.598 776.274 306.325 774.465 304.576 773.234C269.911 748.832 245.191 706.744 238.07 665.187C232.74 634.084 237.514 599.2 256.24 573.11C264.969 560.948 276.405 551.609 291.463 549.149Z"/><path fill="#C2D6ED" d="M147.735 539.236L148.619 539.667C148.826 539.984 149.205 540.242 149.239 540.62C149.447 542.93 141.898 558.39 140.6 561.484C126.382 595.382 120.192 634.239 122.756 670.896C127.464 740.154 162.761 803.72 219.06 844.329C227.31 850.388 236.014 856.263 245.162 860.884C248.671 862.657 257.092 865.455 259.49 868.101C260.415 869.121 260.33 869.982 260.265 871.286C241.365 866.272 214.224 846.007 199.559 833.161C152.376 791.671 123.572 733.163 119.463 670.467C117.2 632.318 123.598 594.151 138.179 558.826C140.608 552.777 143.437 544.123 147.735 539.236Z"/><path fill="#C2D6ED" d="M773.399 943.162C781.275 942.052 788.577 947.487 789.773 955.349C790.969 963.212 785.613 970.573 777.764 971.854C772.61 972.696 767.402 970.703 764.125 966.637C760.849 962.57 760.01 957.057 761.929 952.2C763.848 947.343 768.228 943.891 773.399 943.162ZM777.312 968.331C781.256 967.672 784.536 964.933 785.889 961.17C787.241 957.407 786.455 953.206 783.832 950.188C781.209 947.169 777.16 945.803 773.245 946.616C767.353 947.84 763.525 953.553 764.633 959.467C765.74 965.381 771.377 969.322 777.312 968.331Z"/><path fill="#C2D6ED" d="M308.033 399.715C315.878 399.026 322.811 404.794 323.563 412.634C324.314 420.474 318.603 427.453 310.769 428.268C302.845 429.092 295.768 423.301 295.008 415.371C294.248 407.44 300.097 400.411 308.033 399.715ZM311.626 424.329C317.321 422.986 320.896 417.334 319.669 411.613C318.442 405.892 312.864 402.203 307.119 403.314C303.298 404.052 300.175 406.799 298.954 410.495C297.733 414.19 298.605 418.257 301.234 421.127C303.863 423.997 307.838 425.222 311.626 424.329Z"/><path fill="#C2D6ED" d="M601.247 275.798C608.677 274.253 615.967 278.97 617.602 286.381C619.238 293.791 614.61 301.138 607.22 302.864C602.359 303.999 597.262 302.432 593.879 298.762C590.495 295.092 589.346 289.886 590.871 285.133C592.396 280.38 596.36 276.814 601.247 275.798ZM605.243 299.723C611.065 299.091 615.26 293.843 614.596 288.025C613.931 282.207 608.66 278.04 602.846 278.737C597.077 279.429 592.95 284.65 593.61 290.422C594.269 296.194 599.467 300.35 605.243 299.723Z"/><path fill="#C2D6ED" d="M273.463 597.789L275.449 599.012C275.908 600.234 275.771 600.638 275.526 601.933C274.812 605.707 273.372 609.516 272.342 613.228C270.231 620.841 268.303 628.74 267.353 636.582C265.912 648.989 266.105 661.532 267.93 673.888C268.675 678.785 270.204 683.859 270.598 688.755C270.707 690.108 270.523 690.648 269.682 691.678C268.946 690.471 268.402 689.241 267.906 687.916C258.93 663.948 262.929 621.216 273.463 597.789Z"/><path d="M961.161 259.283L962.363 261.924L961.722 263.294C960.704 262.479 960.067 262.281 959.737 260.969L961.161 259.283Z"/></svg>